<svg width="17" height="18" viewBox="0 0 17 18" fill="none" xmlns="http://www.w3.org/2000/svg">
<path d="M5.5659 8.11111V3.66667C5.5659 2.95942 5.87498 2.28115 6.42514 1.78105C6.9753 1.28095 7.72147 1 8.49951 1C9.27755 1 10.0237 1.28095 10.5739 1.78105C11.124 2.28115 11.4331 2.95942 11.4331 3.66667V8.11111M2.95597 5.44444H14.044C14.326 5.44441 14.6047 5.49981 14.8609 5.60684C15.1171 5.71388 15.3449 5.87001 15.5285 6.06454C15.7121 6.25906 15.8473 6.48739 15.9248 6.73385C16.0022 6.98032 16.0201 7.2391 15.9773 7.49244L14.7501 14.7387C14.6435 15.3684 14.2925 15.9426 13.7604 16.3574C13.2284 16.7722 12.5506 17.0002 11.8497 17H5.14933C4.44859 17 3.77101 16.7719 3.23919 16.3572C2.70738 15.9424 2.35646 15.3682 2.24995 14.7387L1.02272 7.49244C0.979863 7.2391 0.997778 6.98032 1.07524 6.73385C1.15271 6.48739 1.28788 6.25906 1.47151 6.06454C1.65514 5.87001 1.88288 5.71388 2.1391 5.60684C2.39533 5.49981 2.67399 5.44441 2.95597 5.44444Z" stroke="#211D19" stroke-width="1.4" stroke-linecap="round" stroke-linejoin="round"/>
</svg>
