<svg width="59" height="20" viewBox="0 0 59 20" fill="none" xmlns="http://www.w3.org/2000/svg">
<path d="M0.324707 19.9503C1.96127 18.2925 3.45359 16.8002 4.91899 15.279C5.30362 14.879 5.74208 14.8579 6.23055 14.8579C11.1024 14.8579 15.7819 14.8579 20.6538 14.8579C21.575 14.8579 22.3269 14.2752 22.3269 13.3136C22.3269 12.5444 21.575 11.879 20.6538 11.879C16.8076 11.879 13.0287 11.879 9.18251 11.879C8.09798 11.8858 7.02785 11.6305 6.06324 11.1348C4.35937 10.2578 3.52667 8.63472 3.94783 6.7597C4.1474 5.86063 4.45948 4.9903 4.87669 4.16928C5.99401 2.01925 7.97096 1.00001 10.2037 0.465384C11.3199 0.206522 12.4617 0.0736393 13.6076 0.0692254C19.1172 0.0307634 24.6289 0.0519174 30.1462 0.0499943H31.2424C30.977 0.357691 30.8289 0.551924 30.6559 0.725003C29.3905 1.99425 28.1001 3.24234 26.8577 4.53467C26.6662 4.74484 26.4304 4.9099 26.1673 5.01798C25.9043 5.12605 25.6205 5.17445 25.3366 5.15968C21.0121 5.13916 16.6864 5.13916 12.3595 5.15968C11.8837 5.17183 11.4111 5.24091 10.9518 5.36545C10.1825 5.55776 9.96137 6.21354 9.7979 6.87124C9.69598 7.30201 10.1825 7.85202 10.7037 7.92125C11.3372 8.01046 11.9756 8.06055 12.6152 8.07125C16.4614 8.10202 20.3076 8.10971 24.1538 8.13471C25.3726 8.13682 26.5645 8.49292 27.5847 9.15973C28.9308 10.0367 29.2424 11.4348 28.9635 12.8867C28.1751 16.9791 25.6193 19.2329 21.573 19.7541C20.4013 19.8923 19.222 19.9565 18.0422 19.9464C12.4345 19.9637 6.82863 19.9464 1.22087 19.9464L0.324707 19.9503Z" fill="black"/>
<path d="M30.4922 11.8702C30.2576 9.67595 29.5711 7.83169 27.7614 6.48552C28.0768 6.16244 28.3384 5.89513 28.5961 5.63166C30.2942 3.93164 31.998 2.23547 33.6865 0.527752C33.8206 0.372251 33.9869 0.247704 34.1738 0.162707C34.3607 0.0777097 34.5639 0.0342876 34.7692 0.0354379C42.5552 0.0495407 50.3418 0.0546693 58.1291 0.0508231C58.2539 0.0621295 58.3779 0.0813996 58.5003 0.108516C58.308 0.335442 58.1522 0.525829 57.983 0.696985C56.7387 1.94508 55.4714 3.17009 54.2579 4.44703C54.0523 4.68391 53.7955 4.87103 53.507 4.99428C53.2185 5.11754 52.9059 5.17371 52.5925 5.15858C46.5367 5.12973 40.477 5.1432 34.4231 5.1432C34.1673 5.1432 33.9096 5.12204 33.6538 5.1432C32.5827 5.25089 31.8576 6.50667 32.3711 7.45092C32.5173 7.71631 32.8827 7.90477 33.1884 8.02785C33.4423 8.124 33.7654 8.07208 34.0442 8.07208C39.0116 8.07208 43.979 8.06054 48.9444 8.09131C50.2526 8.07285 51.5602 8.16097 52.8541 8.35478C54.4714 8.63363 55.8195 9.40479 56.2041 11.1894C56.3306 11.6856 56.3574 12.202 56.2829 12.7087C55.5772 16.2953 53.7829 18.6414 49.9752 19.5434C48.7952 19.8106 47.5889 19.9442 46.379 19.9415C40.3231 19.9799 34.2634 19.9588 28.2114 19.9588C27.9364 19.9588 26.5076 19.9338 26.1172 19.9165C28.5961 18.7857 29.4442 16.8164 29.9807 14.9164C36.1904 14.9164 42.2 14.8645 48.2867 14.8645C49.4848 14.8645 50.2559 14.4801 50.2559 13.3971C50.2559 12.2471 49.1713 11.8971 48.0675 11.8971C42.6212 11.8843 37.1725 11.8843 31.7211 11.8971L30.4922 11.8702Z" fill="#FF6915"/>
</svg>
