<svg width="147" height="32" viewBox="0 0 147 32" fill="none" xmlns="http://www.w3.org/2000/svg">
<path d="M0 22.1551C1.75007 20.3824 3.34591 18.7865 4.91296 17.1599C5.32426 16.7321 5.79314 16.7095 6.31549 16.7095C11.5253 16.7095 16.5294 16.7095 21.7392 16.7095C22.7242 16.7095 23.5283 16.0863 23.5283 15.0581C23.5283 14.2355 22.7242 13.524 21.7392 13.524C17.6262 13.524 13.5852 13.524 9.4722 13.524C8.31244 13.5313 7.16809 13.2583 6.13657 12.7281C4.31452 11.7904 3.42406 10.0547 3.87443 8.0496C4.08785 7.08817 4.42157 6.15748 4.86771 5.2795C6.06254 2.98035 8.17661 1.8904 10.5642 1.3187C11.7579 1.04188 12.9788 0.899782 14.2042 0.895062C20.096 0.853932 25.9899 0.876554 31.89 0.874497H33.0622C32.7784 1.20354 32.6201 1.41124 32.435 1.59633C31.0818 2.95361 29.7019 4.28827 28.3734 5.67024C28.1686 5.89498 27.9164 6.0715 27.6351 6.18707C27.3538 6.30264 27.0504 6.35439 26.7467 6.3386C22.1224 6.31666 17.4966 6.31666 12.8695 6.3386C12.3608 6.3516 11.8554 6.42547 11.3642 6.55864C10.5416 6.76429 10.3051 7.46555 10.1303 8.16888C10.0213 8.62953 10.5416 9.21769 11.0989 9.29172C11.7763 9.38711 12.459 9.44069 13.143 9.45213C17.256 9.48503 21.369 9.49326 25.482 9.51999C26.7853 9.52224 28.0598 9.90304 29.1508 10.6161C30.5903 11.5539 30.9235 13.0489 30.6253 14.6016C29.7821 18.9778 27.049 21.388 22.7222 21.9453C21.4692 22.0931 20.2081 22.1618 18.9465 22.151C12.9497 22.1695 6.95505 22.151 0.958325 22.151L0 22.1551Z" fill="white"/>
<path d="M32.2605 13.515C32.0097 11.1686 31.2755 9.19642 29.3403 7.75687C29.6776 7.41138 29.9573 7.12553 30.2328 6.84379C32.0487 5.02585 33.8708 3.21203 35.6764 1.38586C35.8198 1.21957 35.9976 1.08639 36.1975 0.995495C36.3974 0.904603 36.6146 0.858169 36.8342 0.859399C45.1602 0.87448 53.487 0.879964 61.8144 0.875851C61.9479 0.887942 62.0804 0.908549 62.2113 0.937546C62.0056 1.18021 61.8391 1.3838 61.6581 1.56683C60.3275 2.9015 58.9723 4.21148 57.6747 5.57699C57.4547 5.8303 57.1802 6.0304 56.8717 6.1622C56.5632 6.294 56.2288 6.35408 55.8938 6.33789C49.4179 6.30705 42.9379 6.32144 36.464 6.32144C36.1905 6.32144 35.9149 6.29882 35.6414 6.32144C34.496 6.43661 33.7207 7.77949 34.2697 8.78923C34.426 9.07303 34.8168 9.27456 35.1438 9.40618C35.4152 9.509 35.7607 9.45348 36.0589 9.45348C41.3708 9.45348 46.6827 9.44114 51.9926 9.47404C53.3915 9.45431 54.7898 9.54853 56.1734 9.75578C57.9029 10.054 59.3445 10.8786 59.7558 12.7871C59.8911 13.3177 59.9198 13.8699 59.8402 14.4117C59.0854 18.247 57.1667 20.756 53.0949 21.7205C51.833 22.0063 50.543 22.1491 49.2492 22.1461C42.7733 22.1873 36.2933 22.1647 29.8216 22.1647C29.5275 22.1647 27.9995 22.1379 27.582 22.1194C30.2328 20.9102 31.1398 18.8043 31.7135 16.7725C38.3539 16.7725 44.7804 16.717 51.2893 16.717C52.5705 16.717 53.3951 16.3059 53.3951 15.1479C53.3951 13.9181 52.2352 13.5438 51.0548 13.5438C45.2308 13.5301 39.4041 13.5301 33.5746 13.5438L32.2605 13.515Z" fill="#FF6915"/>
<path d="M69.1592 9.45561H72.3435C72.2335 10.1046 72.3655 10.5831 72.7395 10.891C72.9815 11.111 73.4435 11.221 74.1254 11.221C74.6864 11.221 75.1099 11.133 75.3959 10.957C75.8249 10.693 76.0394 10.3246 76.0394 9.85159C76.0394 9.47761 75.8799 9.19712 75.5609 9.01013C75.3739 8.88913 75.0109 8.76814 74.4719 8.64715L73.482 8.43266C72.426 8.21267 71.6781 7.92668 71.2381 7.5747C70.6221 7.05772 70.3141 6.36475 70.3141 5.4958C70.3141 4.35185 70.7101 3.41139 71.5021 2.67443C72.404 1.80547 73.7295 1.37099 75.4784 1.37099C76.8423 1.37099 77.8873 1.61848 78.6132 2.11346C79.4272 2.66343 79.8342 3.43339 79.8342 4.42335C79.8342 4.55534 79.8232 4.72033 79.8012 4.91832H76.8148C76.8918 4.55534 76.7818 4.24736 76.4848 3.99437C76.2428 3.80738 75.8359 3.71388 75.2639 3.71388C74.7469 3.71388 74.3454 3.80738 74.0594 3.99437C73.7515 4.20336 73.5975 4.48934 73.5975 4.85233C73.5975 5.21531 73.779 5.4738 74.1419 5.62779C74.3069 5.70479 74.8239 5.83678 75.6929 6.02377L76.3858 6.17226C77.2548 6.33726 77.9588 6.66174 78.4977 7.14572C79.0367 7.68469 79.3062 8.38866 79.3062 9.25762C79.3062 10.6875 78.8332 11.7765 77.8873 12.5245C77.0183 13.2284 75.7039 13.5804 73.944 13.5804C72.349 13.5804 71.1996 13.3164 70.4956 12.7884C69.6047 12.1175 69.1592 11.045 69.1592 9.5711V9.45561Z" fill="white"/>
<path d="M88.6914 5.21531L85.3091 13.2339H81.9432L81.2833 1.68448H84.4841L84.5336 9.6536L87.982 1.68448H90.9023L90.9848 9.6536L94.4166 1.68448H97.6175L92.0573 13.2339H88.7079L88.6914 5.21531Z" fill="white"/>
<path d="M109.514 6.30426C109.514 7.34921 109.333 8.36666 108.97 9.35661C108.607 10.3356 108.101 11.1495 107.452 11.7985C106.198 12.9754 104.515 13.5639 102.403 13.5639C100.643 13.5639 99.3397 13.1404 98.4927 12.2935C97.6238 11.4465 97.1893 10.2916 97.1893 8.82864C97.1893 7.77269 97.3653 6.76624 97.7173 5.80928C98.0802 4.84133 98.5752 4.02736 99.2022 3.3674C100.456 2.02546 102.183 1.35449 104.383 1.35449C106 1.35449 107.248 1.77247 108.128 2.60843C109.052 3.53239 109.514 4.76433 109.514 6.30426ZM100.621 8.74614C100.621 9.39511 100.781 9.90659 101.1 10.2806C101.452 10.6985 101.963 10.9075 102.634 10.9075C103.415 10.9075 104.053 10.6875 104.548 10.2476C105.01 9.82959 105.378 9.22462 105.653 8.43266C105.939 7.62969 106.082 6.87623 106.082 6.17226C106.082 5.4683 105.884 4.91832 105.488 4.52234C105.147 4.18136 104.669 4.01087 104.053 4.01087C103.327 4.01087 102.673 4.26385 102.09 4.76983C101.617 5.22081 101.254 5.83128 101.001 6.60124C100.748 7.37121 100.621 8.08617 100.621 8.74614Z" fill="white"/>
<path d="M122.871 6.30426C122.871 7.34921 122.69 8.36666 122.327 9.35661C121.964 10.3356 121.458 11.1495 120.809 11.7985C119.555 12.9754 117.872 13.5639 115.76 13.5639C114 13.5639 112.697 13.1404 111.85 12.2935C110.981 11.4465 110.547 10.2916 110.547 8.82864C110.547 7.77269 110.723 6.76624 111.075 5.80928C111.438 4.84133 111.932 4.02736 112.559 3.3674C113.813 2.02546 115.54 1.35449 117.74 1.35449C119.357 1.35449 120.606 1.77247 121.486 2.60843C122.41 3.53239 122.871 4.76433 122.871 6.30426ZM113.978 8.74614C113.978 9.39511 114.138 9.90659 114.457 10.2806C114.809 10.6985 115.32 10.9075 115.991 10.9075C116.772 10.9075 117.41 10.6875 117.905 10.2476C118.367 9.82959 118.736 9.22462 119.011 8.43266C119.297 7.62969 119.44 6.87623 119.44 6.17226C119.44 5.4683 119.242 4.91832 118.846 4.52234C118.505 4.18136 118.026 4.01087 117.41 4.01087C116.684 4.01087 116.03 4.26385 115.447 4.76983C114.974 5.22081 114.611 5.83128 114.358 6.60124C114.105 7.37121 113.978 8.08617 113.978 8.74614Z" fill="white"/>
<path d="M123.458 9.45561H126.643C126.533 10.1046 126.665 10.5831 127.039 10.891C127.281 11.111 127.743 11.221 128.425 11.221C128.986 11.221 129.409 11.133 129.695 10.957C130.124 10.693 130.339 10.3246 130.339 9.85159C130.339 9.47761 130.179 9.19712 129.86 9.01013C129.673 8.88913 129.31 8.76814 128.771 8.64715L127.781 8.43266C126.725 8.21267 125.977 7.92668 125.537 7.5747C124.921 7.05772 124.613 6.36475 124.613 5.4958C124.613 4.35185 125.009 3.41139 125.801 2.67443C126.703 1.80547 128.029 1.37099 129.778 1.37099C131.141 1.37099 132.186 1.61848 132.912 2.11346C133.726 2.66343 134.133 3.43339 134.133 4.42335C134.133 4.55534 134.122 4.72033 134.1 4.91832H131.114C131.191 4.55534 131.081 4.24736 130.784 3.99437C130.542 3.80738 130.135 3.71388 129.563 3.71388C129.046 3.71388 128.645 3.80738 128.359 3.99437C128.051 4.20336 127.897 4.48934 127.897 4.85233C127.897 5.21531 128.078 5.4738 128.441 5.62779C128.606 5.70479 129.123 5.83678 129.992 6.02377L130.685 6.17226C131.554 6.33726 132.258 6.66174 132.797 7.14572C133.336 7.68469 133.605 8.38866 133.605 9.25762C133.605 10.6875 133.132 11.7765 132.186 12.5245C131.317 13.2284 130.003 13.5804 128.243 13.5804C126.648 13.5804 125.499 13.3164 124.795 12.7884C123.904 12.1175 123.458 11.045 123.458 9.5711V9.45561Z" fill="white"/>
<path d="M138.668 8.48215L137.661 13.2339H134.493L136.952 1.68448H140.12L139.229 5.84228H142.941L143.832 1.68448H147L144.542 13.2339H141.374L142.38 8.48215H138.668Z" fill="white"/>
<path d="M68.4717 25.4551H67.9717V25.9551V26.0706C67.9717 27.6467 68.4528 28.8932 69.5073 29.6874L69.5081 29.688C70.3448 30.3154 71.6304 30.5799 73.2565 30.5799C75.0677 30.5799 76.5158 30.2203 77.5122 29.4144C78.5994 28.5536 79.1187 27.3071 79.1187 25.7571C79.1187 24.7758 78.8099 23.9378 78.1638 23.2917L78.1543 23.2822L78.1443 23.2732C77.5252 22.7172 76.7337 22.3603 75.7975 22.1817L75.1106 22.0345C74.6788 21.9416 74.3393 21.8633 74.0896 21.7996C73.8242 21.7318 73.6991 21.6897 73.6659 21.6742L73.6579 21.6705L73.6497 21.667C73.533 21.6175 73.4804 21.5664 73.4553 21.5306C73.4321 21.4977 73.41 21.4464 73.41 21.3518C73.41 21.1609 73.4767 21.0282 73.6491 20.9101C73.8224 20.7982 74.1132 20.7134 74.5764 20.7134C75.1074 20.7134 75.3723 20.8031 75.4832 20.8833C75.571 20.9603 75.6121 21.0279 75.6317 21.0828C75.6515 21.1383 75.6601 21.2107 75.6382 21.3141L75.5101 21.9178H76.1273H79.1137H79.5612L79.6106 21.4731C79.6137 21.4449 79.6167 21.4172 79.6194 21.3899H79.8035H82.5684L80.8159 29.6294L80.6874 30.2334H81.305H84.4563H84.8612L84.9454 29.8375L86.7421 21.3899H89.7196H89.773C89.6581 21.6281 89.5524 21.876 89.456 22.1332L89.4549 22.1362C89.0818 23.1504 88.8962 24.2154 88.8962 25.3281C88.8962 26.8949 89.365 28.1891 90.3483 29.1488C91.3253 30.1242 92.7808 30.5634 94.6099 30.5634C96.8184 30.5634 98.6341 29.9454 100.001 28.6626L100.007 28.6572L100.012 28.6516C100.719 27.9451 101.261 27.0671 101.645 26.03L101.646 26.0283C102.029 24.9837 102.221 23.908 102.221 22.8038C102.221 21.1567 101.723 19.7887 100.689 18.7544L100.689 18.7543L100.68 18.7454C99.6792 17.7951 98.2913 17.354 96.5898 17.354C94.2819 17.354 92.412 18.0621 91.0452 19.524C90.7857 19.7973 90.5484 20.0937 90.3327 20.4128L90.786 18.2883L90.915 17.684H90.2971H80.381H79.9765L79.892 18.0796L79.5027 19.9037C79.294 19.2146 78.8594 18.6407 78.2065 18.1993C77.3634 17.6247 76.2033 17.3705 74.7909 17.3705C72.9662 17.3705 71.4974 17.8238 70.4708 18.8109C69.5729 19.6479 69.1266 20.723 69.1266 21.9953C69.1266 22.9985 69.49 23.8368 70.2291 24.4572L70.2291 24.4573L70.2382 24.4646C70.773 24.8925 71.6166 25.1974 72.6905 25.4212L73.6767 25.6349C74.2176 25.7564 74.4984 25.8625 74.6017 25.9294L74.611 25.9354L74.6205 25.941C74.7843 26.037 74.8519 26.1521 74.8519 26.3511C74.8519 26.6372 74.7391 26.8506 74.4463 27.0307C74.2757 27.1357 73.9617 27.2205 73.4379 27.2205C73.1206 27.2205 72.8764 27.1946 72.6958 27.1516C72.5123 27.1079 72.4249 27.0538 72.3883 27.0206L72.3793 27.0124L72.3699 27.0046C72.1823 26.8501 72.0568 26.5827 72.149 26.0387L72.2479 25.4551H71.656H68.4717ZM93.6889 26.458L93.6869 26.4556C93.4669 26.1977 93.328 25.8143 93.328 25.2457C93.328 24.6492 93.4424 23.9875 93.6825 23.2568C93.9142 22.5516 94.2362 22.0207 94.6331 21.6393C95.1289 21.2121 95.6659 21.0104 96.2598 21.0104C96.7818 21.0104 97.1186 21.1523 97.3417 21.3754C97.6213 21.6549 97.7892 22.0645 97.7892 22.6718C97.7892 23.308 97.66 24.0043 97.3892 24.7644L97.3879 24.7682C97.1317 25.506 96.8022 26.0293 96.421 26.3748C96.0337 26.7183 95.5217 26.9071 94.8409 26.9071C94.2807 26.9071 93.9246 26.7378 93.6889 26.458ZM101.769 29.6293L101.641 30.2334H102.258H105.426H105.831L105.915 29.8371L106.706 26.1086H107.967C108.328 26.1086 108.587 26.1701 108.77 26.2638C108.9 26.3372 108.985 26.4493 108.985 26.7141C108.985 26.8018 108.952 27.0608 108.862 27.5432C108.862 27.5443 108.862 27.5455 108.862 27.5466L108.749 28.1096C108.696 28.3365 108.672 28.576 108.672 28.826C108.672 29.2293 108.77 29.613 108.962 29.9705L109.104 30.2334H109.403H112.603H113.439L113.044 29.4973C112.91 29.246 112.856 29.0297 112.856 28.8425C112.856 28.7029 112.882 28.47 112.946 28.1262L112.946 28.1262L112.948 28.1197L113.08 27.3607L113.08 27.3607L113.081 27.3547C113.136 27.0123 113.178 26.7387 113.206 26.5354C113.232 26.348 113.252 26.1839 113.252 26.0871C113.252 25.5896 113.14 25.1343 112.878 24.7576C112.83 24.6897 112.779 24.6257 112.724 24.5657C113.062 24.4075 113.368 24.2008 113.639 23.9439C114.362 23.2728 114.687 22.3196 114.687 21.1703C114.687 20.0639 114.349 19.1489 113.605 18.5133L113.605 18.5133L113.599 18.5081C112.898 17.9285 111.886 17.684 110.657 17.684H104.717H104.312L104.228 18.0799L101.769 29.6293ZM124.536 26.5771H118.802L119.016 25.5807H124.008H124.413L124.497 25.1838L125.008 22.7584L125.135 22.1553H124.519H119.743L119.923 21.3239H125.723H126.128L126.213 20.9278L126.773 18.2879L126.902 17.684H126.284H116.929H116.525L116.44 18.0799L113.982 29.6293L113.853 30.2334H114.471H123.975H124.38L124.464 29.8368L125.025 27.1804L125.152 26.5771H124.536ZM109.073 22.8482H107.398L107.744 21.2414H109.469C109.908 21.2414 110.15 21.3203 110.27 21.4027C110.333 21.4573 110.404 21.5665 110.404 21.8303C110.404 22.2272 110.277 22.4577 110.071 22.6102C109.862 22.7522 109.545 22.8482 109.073 22.8482Z" stroke="#FF6915"/>
</svg>
