<svg width="15" height="20" viewBox="0 0 15 20" fill="none" xmlns="http://www.w3.org/2000/svg">
<path d="M1 18.8636V16.8939C1 15.8492 1.45655 14.8472 2.2692 14.1084C3.08186 13.3696 4.18406 12.9545 5.33333 12.9545H9.66667C10.8159 12.9545 11.9181 13.3696 12.7308 14.1084C13.5435 14.8472 14 15.8492 14 16.8939V18.8636M3.16667 5.07576C3.16667 6.12055 3.62321 7.12255 4.43587 7.86133C5.24853 8.60011 6.35073 9.01516 7.5 9.01516C8.64927 9.01516 9.75147 8.60011 10.5641 7.86133C11.3768 7.12255 11.8333 6.12055 11.8333 5.07576C11.8333 4.03097 11.3768 3.02897 10.5641 2.29019C9.75147 1.55141 8.64927 1.13637 7.5 1.13637C6.35073 1.13637 5.24853 1.55141 4.43587 2.29019C3.62321 3.02897 3.16667 4.03097 3.16667 5.07576Z" stroke="black" stroke-width="1.3" stroke-linecap="round" stroke-linejoin="round"/>
</svg>
