<?xml version="1.0" encoding="UTF-8"?>
<!DOCTYPE svg PUBLIC "-//W3C//DTD SVG 1.1//EN" "http://www.w3.org/Graphics/SVG/1.1/DTD/svg11.dtd">
<svg xmlns="http://www.w3.org/2000/svg" version="1.1" width="158px" height="166px" style="shape-rendering:geometricPrecision; text-rendering:geometricPrecision; image-rendering:optimizeQuality; fill-rule:evenodd; clip-rule:evenodd" xmlns:xlink="http://www.w3.org/1999/xlink">
<g><path style="opacity:1" fill="#f5f5f5" d="M -0.5,-0.5 C 52.1667,-0.5 104.833,-0.5 157.5,-0.5C 157.5,54.8333 157.5,110.167 157.5,165.5C 104.833,165.5 52.1667,165.5 -0.5,165.5C -0.5,110.167 -0.5,54.8333 -0.5,-0.5 Z"/></g>
<g><path style="opacity:1" fill="#7e7e7e" d="M 86.5,48.5 C 88.5,48.5 90.5,48.5 92.5,48.5C 92.4431,49.609 92.1098,50.609 91.5,51.5C 88.4377,53.1305 86.771,52.1305 86.5,48.5 Z"/></g>
<g><path style="opacity:1" fill="#5c5c5c" d="M 117.5,49.5 C 121.5,49.5 125.5,49.5 129.5,49.5C 130.263,50.2679 131.263,50.7679 132.5,51C 127.157,52.727 121.824,52.5604 116.5,50.5C 114.484,50.5159 113.484,51.5159 113.5,53.5C 112.833,53.5 112.167,53.5 111.5,53.5C 111.461,52.4168 111.127,51.4168 110.5,50.5C 112.743,49.5258 115.076,49.1924 117.5,49.5 Z"/></g>
<g><path style="opacity:1" fill="#bcbcbc" d="M 92.5,48.5 C 101.017,48.1739 109.35,48.5073 117.5,49.5C 115.076,49.1924 112.743,49.5258 110.5,50.5C 111.127,51.4168 111.461,52.4168 111.5,53.5C 108.272,52.5863 104.939,52.2529 101.5,52.5C 98.3752,51.5206 95.0419,51.1872 91.5,51.5C 92.1098,50.609 92.4431,49.609 92.5,48.5 Z"/></g>
<g><path style="opacity:1" fill="#e7e7e7" d="M 101.5,52.5 C 104.939,52.2529 108.272,52.5863 111.5,53.5C 112.167,53.5 112.833,53.5 113.5,53.5C 118.167,54.1667 122.833,54.8333 127.5,55.5C 127.5,56.5 127.5,57.5 127.5,58.5C 97.2941,59.0745 67.2941,62.2412 37.5,68C 39.0581,68.21 40.3915,68.71 41.5,69.5C 34.7318,70.2639 28.2318,71.9305 22,74.5C 21.5172,75.448 21.3505,76.448 21.5,77.5C 19.432,73.7053 17.0987,70.0386 14.5,66.5C 16.1595,67.9702 18.1595,68.6369 20.5,68.5C 42.1965,65.5273 63.8631,62.3606 85.5,59C 87.5435,57.292 89.2101,55.292 90.5,53C 94.1516,52.5014 97.8183,52.3347 101.5,52.5 Z"/></g>
<g><path style="opacity:1" fill="#dadada" d="M 44.5,48.5 C 44.369,49.2389 44.5357,49.9056 45,50.5C 56,50.5 67,50.5 78,50.5C 78.4643,49.9056 78.631,49.2389 78.5,48.5C 81.1667,48.5 83.8333,48.5 86.5,48.5C 86.771,52.1305 88.4377,53.1305 91.5,51.5C 95.0419,51.1872 98.3752,51.5206 101.5,52.5C 97.8183,52.3347 94.1516,52.5014 90.5,53C 89.2101,55.292 87.5435,57.292 85.5,59C 63.8631,62.3606 42.1965,65.5273 20.5,68.5C 18.1595,68.6369 16.1595,67.9702 14.5,66.5C 12.6815,61.4135 13.6815,56.9135 17.5,53C 15.8753,52.1475 15.5419,51.1475 16.5,50C 25.7964,48.8177 35.1297,48.3177 44.5,48.5 Z"/></g>
<g><path style="opacity:1" fill="#9c9c9d" d="M 44.5,48.5 C 55.8333,48.5 67.1667,48.5 78.5,48.5C 78.631,49.2389 78.4643,49.9056 78,50.5C 67,50.5 56,50.5 45,50.5C 44.5357,49.9056 44.369,49.2389 44.5,48.5 Z"/></g>
<g><path style="opacity:1" fill="#a9a9a8" d="M 51.5,53.5 C 57.58,53.5317 57.9134,54.6983 52.5,57C 47.1087,57.6919 41.7753,57.3585 36.5,56C 41.4775,56.051 46.4775,56.2177 51.5,56.5C 51.5,55.5 51.5,54.5 51.5,53.5 Z"/></g>
<g><path style="opacity:1" fill="#a6a6a5" d="M 23.5,53.5 C 32.163,53.274 40.4964,53.6074 48.5,54.5C 42.176,54.0172 35.8427,54.5172 29.5,56C 37.3901,56.5609 37.3901,57.3943 29.5,58.5C 27.9002,58.4493 26.4002,58.1159 25,57.5C 24.4151,62.4748 23.2485,62.4748 21.5,57.5C 21.7517,55.9271 22.4183,54.5938 23.5,53.5 Z"/></g>
<g><path style="opacity:1" fill="#dadadb" d="M 129.5,49.5 C 143.285,49.9387 143.618,51.272 130.5,53.5C 137.615,54.782 141.948,58.9486 143.5,66C 143.613,67.6991 142.947,68.8658 141.5,69.5C 141.5,68.8333 141.5,68.1667 141.5,67.5C 141.64,65.8762 140.973,64.7096 139.5,64C 119.346,61.0904 99.3463,61.257 79.5,64.5C 75.2984,64.1832 71.2984,64.5166 67.5,65.5C 58.7466,66.3694 50.08,67.7027 41.5,69.5C 40.3915,68.71 39.0581,68.21 37.5,68C 67.2941,62.2412 97.2941,59.0745 127.5,58.5C 127.5,57.5 127.5,56.5 127.5,55.5C 122.833,54.8333 118.167,54.1667 113.5,53.5C 113.484,51.5159 114.484,50.5159 116.5,50.5C 121.824,52.5604 127.157,52.727 132.5,51C 131.263,50.7679 130.263,50.2679 129.5,49.5 Z"/></g>
<g><path style="opacity:1" fill="#a3b2d0" d="M 141.5,67.5 C 131.644,67.9481 121.977,66.9481 112.5,64.5C 110.878,66.854 109.378,66.854 108,64.5C 106.401,66.056 104.901,67.7227 103.5,69.5C 102.284,68.9984 101.117,68.6651 100,68.5C 98.4138,70.6705 97.0804,73.0038 96,75.5C 95.6667,74.8333 95.3333,74.1667 95,73.5C 93.8545,74.6843 92.6879,74.6843 91.5,73.5C 90.8333,72.5 90.1667,71.5 89.5,70.5C 89.9382,70.5654 90.2716,70.3988 90.5,70C 88.5968,68.5527 86.9301,66.886 85.5,65C 83.5273,64.5045 81.5273,64.3379 79.5,64.5C 99.3463,61.257 119.346,61.0904 139.5,64C 140.973,64.7096 141.64,65.8762 141.5,67.5 Z"/></g>
<g><path style="opacity:1" fill="#9caacd" d="M 67.5,65.5 C 63.0046,68.4701 58.3379,71.3034 53.5,74C 54.5505,75.3848 55.8839,76.3848 57.5,77C 56.8288,77.9862 56.8288,79.1529 57.5,80.5C 56.3285,81.3446 54.9952,82.0113 53.5,82.5C 51.9988,80.2612 50.6655,80.2612 49.5,82.5C 47.3561,81.0465 45.5227,81.3799 44,83.5C 42.9148,82.7069 41.7481,82.0402 40.5,81.5C 37.6595,83.0864 34.9928,84.9197 32.5,87C 33.5,88 34.5,89 35.5,90C 33.5586,91.8159 32.8919,93.8159 33.5,96C 33,96.5 32.5,97 32,97.5C 30.1088,93.6297 29.2755,93.6297 29.5,97.5C 28.6431,98.4252 27.6431,99.0919 26.5,99.5C 26.6882,97.8967 26.1882,96.5634 25,95.5C 24.0551,99.1141 23.3884,102.781 23,106.5C 22.6667,106.167 22.3333,105.833 22,105.5C 22.0511,101.321 22.5511,97.1541 23.5,93C 22.7772,87.832 22.1106,82.6653 21.5,77.5C 21.3505,76.448 21.5172,75.448 22,74.5C 28.2318,71.9305 34.7318,70.2639 41.5,69.5C 50.08,67.7027 58.7466,66.3694 67.5,65.5 Z"/></g>
<g><path style="opacity:1" fill="#d9dadc" d="M 89.5,70.5 C 90.1667,71.5 90.8333,72.5 91.5,73.5C 91.5327,77.4062 90.1994,80.7395 87.5,83.5C 86.6143,82.675 86.281,81.675 86.5,80.5C 86.0436,77.7144 84.3769,76.381 81.5,76.5C 76.8621,77.7679 72.1954,78.9346 67.5,80C 64.9924,80.6544 62.8258,81.821 61,83.5C 58.7311,82.4053 56.5645,82.7386 54.5,84.5C 53.7025,84.0431 53.3691,83.3764 53.5,82.5C 54.9952,82.0113 56.3285,81.3446 57.5,80.5C 66.0322,76.7362 74.6989,73.2362 83.5,70C 85.5976,69.3224 87.5976,69.4891 89.5,70.5 Z"/></g>
<g><path style="opacity:1" fill="#8c9abe" d="M 79.5,64.5 C 81.5273,64.3379 83.5273,64.5045 85.5,65C 86.9301,66.886 88.5968,68.5527 90.5,70C 90.2716,70.3988 89.9382,70.5654 89.5,70.5C 87.5976,69.4891 85.5976,69.3224 83.5,70C 74.6989,73.2362 66.0322,76.7362 57.5,80.5C 56.8288,79.1529 56.8288,77.9862 57.5,77C 55.8839,76.3848 54.5505,75.3848 53.5,74C 58.3379,71.3034 63.0046,68.4701 67.5,65.5C 71.2984,64.5166 75.2984,64.1832 79.5,64.5 Z"/></g>
<g><path style="opacity:1" fill="#bfcee7" d="M 141.5,67.5 C 141.5,68.1667 141.5,68.8333 141.5,69.5C 141.428,71.3109 140.595,72.6443 139,73.5C 131.774,75.0981 124.608,76.9314 117.5,79C 112.185,82.4916 106.519,85.1582 100.5,87C 99.2197,88.9664 97.553,90.4664 95.5,91.5C 93.7367,90.0462 92.4033,90.3796 91.5,92.5C 87.9414,95.4148 83.9414,97.7482 79.5,99.5C 80.0303,96.9688 81.3637,94.9688 83.5,93.5C 83.1667,93.1667 82.8333,92.8333 82.5,92.5C 80.4208,93.7956 78.7541,95.4622 77.5,97.5C 72.1395,94.9777 72.4728,93.1444 78.5,92C 79.8228,91.1841 80.4894,90.0174 80.5,88.5C 91.7983,85.5067 102.798,81.6734 113.5,77C 111.833,76.3333 110.167,76.3333 108.5,77C 99.6534,80.6707 90.6534,83.8374 81.5,86.5C 80.6236,86.6309 79.9569,86.2975 79.5,85.5C 80.7515,83.9991 81.7515,82.3325 82.5,80.5C 83.6998,79.7084 85.0331,79.7084 86.5,80.5C 86.281,81.675 86.6143,82.675 87.5,83.5C 90.1994,80.7395 91.5327,77.4062 91.5,73.5C 92.6879,74.6843 93.8545,74.6843 95,73.5C 95.3333,74.1667 95.6667,74.8333 96,75.5C 97.0804,73.0038 98.4138,70.6705 100,68.5C 101.117,68.6651 102.284,68.9984 103.5,69.5C 104.901,67.7227 106.401,66.056 108,64.5C 109.378,66.854 110.878,66.854 112.5,64.5C 121.977,66.9481 131.644,67.9481 141.5,67.5 Z"/></g>
<g><path style="opacity:1" fill="#aebcda" d="M 86.5,80.5 C 85.0331,79.7084 83.6998,79.7084 82.5,80.5C 81.7515,82.3325 80.7515,83.9991 79.5,85.5C 79.9569,86.2975 80.6236,86.6309 81.5,86.5C 79.2585,87.6207 76.9252,88.7874 74.5,90C 76.6951,90.4094 78.6951,89.9094 80.5,88.5C 80.4894,90.0174 79.8228,91.1841 78.5,92C 72.4728,93.1444 72.1395,94.9777 77.5,97.5C 78.7541,95.4622 80.4208,93.7956 82.5,92.5C 82.8333,92.8333 83.1667,93.1667 83.5,93.5C 81.3637,94.9688 80.0303,96.9688 79.5,99.5C 78.1634,100.315 77.1634,101.482 76.5,103C 70.8087,102.851 66.9754,105.351 65,110.5C 63.6124,109.446 62.1124,109.28 60.5,110C 57.758,111.886 56.0913,114.386 55.5,117.5C 56.552,117.351 57.552,117.517 58.5,118C 56.0752,118.986 54.4085,118.319 53.5,116C 63.4116,103.768 61.0783,94.435 46.5,88C 44.8333,87.3333 43.1667,87.3333 41.5,88C 40.2614,91.7817 39.0948,95.6151 38,99.5C 35.2842,101.968 32.4508,101.968 29.5,99.5C 28.4923,106.142 27.4923,106.142 26.5,99.5C 27.6431,99.0919 28.6431,98.4252 29.5,97.5C 29.2755,93.6297 30.1088,93.6297 32,97.5C 32.5,97 33,96.5 33.5,96C 32.8919,93.8159 33.5586,91.8159 35.5,90C 34.5,89 33.5,88 32.5,87C 34.9928,84.9197 37.6595,83.0864 40.5,81.5C 41.7481,82.0402 42.9148,82.7069 44,83.5C 45.5227,81.3799 47.3561,81.0465 49.5,82.5C 50.6655,80.2612 51.9988,80.2612 53.5,82.5C 53.3691,83.3764 53.7025,84.0431 54.5,84.5C 56.5645,82.7386 58.7311,82.4053 61,83.5C 62.8258,81.821 64.9924,80.6544 67.5,80C 72.1954,78.9346 76.8621,77.7679 81.5,76.5C 84.3769,76.381 86.0436,77.7144 86.5,80.5 Z"/></g>
<g><path style="opacity:1" fill="#6a8bb6" d="M 80.5,88.5 C 78.6951,89.9094 76.6951,90.4094 74.5,90C 76.9252,88.7874 79.2585,87.6207 81.5,86.5C 90.6534,83.8374 99.6534,80.6707 108.5,77C 110.167,76.3333 111.833,76.3333 113.5,77C 102.798,81.6734 91.7983,85.5067 80.5,88.5 Z"/></g>
<g><path style="opacity:1" fill="#5666a1" d="M 95.5,91.5 C 94.4324,92.4345 93.099,92.7678 91.5,92.5C 92.4033,90.3796 93.7367,90.0462 95.5,91.5 Z"/></g>
</svg>
