<?xml version="1.0" encoding="UTF-8"?>
<!DOCTYPE svg PUBLIC "-//W3C//DTD SVG 1.1//EN" "http://www.w3.org/Graphics/SVG/1.1/DTD/svg11.dtd">
<svg xmlns="http://www.w3.org/2000/svg" version="1.1" width="158px" height="166px" style="shape-rendering:geometricPrecision; text-rendering:geometricPrecision; image-rendering:optimizeQuality; fill-rule:evenodd; clip-rule:evenodd" xmlns:xlink="http://www.w3.org/1999/xlink">
<g><path style="opacity:1" fill="#f5f5f5" d="M -0.5,-0.5 C 52.1667,-0.5 104.833,-0.5 157.5,-0.5C 157.5,54.8333 157.5,110.167 157.5,165.5C 104.833,165.5 52.1667,165.5 -0.5,165.5C -0.5,110.167 -0.5,54.8333 -0.5,-0.5 Z"/></g>
<g><path style="opacity:1" fill="#282929" d="M 32.5,43.5 C 46.5,43.5 60.5,43.5 74.5,43.5C 73.3117,44.3636 72.1451,45.3636 71,46.5C 69.3333,45.1667 67.6667,45.1667 66,46.5C 65.2613,45.4258 64.2613,44.7591 63,44.5C 58.0848,44.3635 53.2514,44.6968 48.5,45.5C 47.2921,46.2341 45.9587,46.5674 44.5,46.5C 40.4338,46.693 36.4338,46.3597 32.5,45.5C 32.5,44.8333 32.5,44.1667 32.5,43.5 Z"/></g>
<g><path style="opacity:1" fill="#2c2e30" d="M 82.5,43.5 C 85.8984,43.1796 89.2317,43.513 92.5,44.5C 92.1373,45.1835 91.8039,45.8501 91.5,46.5C 89.0504,46.702 86.717,46.3686 84.5,45.5C 83.8333,44.8333 83.1667,44.1667 82.5,43.5 Z"/></g>
<g><path style="opacity:1" fill="#5a5a5b" d="M 30.5,43.5 C 31.1667,43.5 31.8333,43.5 32.5,43.5C 32.5,44.1667 32.5,44.8333 32.5,45.5C 29.2869,45.81 26.2869,45.4767 23.5,44.5C 25.7638,43.7814 28.0971,43.448 30.5,43.5 Z"/></g>
<g><path style="opacity:1" fill="#767e84" d="M 30.5,43.5 C 55.5,42.1667 80.5,42.1667 105.5,43.5C 104.448,43.3505 103.448,43.5172 102.5,44C 107.471,47.1604 112.471,47.327 117.5,44.5C 119.527,44.3379 121.527,44.5045 123.5,45C 122.944,45.3826 122.611,45.8826 122.5,46.5C 121.022,46.238 119.689,46.5713 118.5,47.5C 119.025,48.1924 119.692,48.6924 120.5,49C 120.272,49.3988 119.938,49.5654 119.5,49.5C 117.234,49.1412 115.401,49.8078 114,51.5C 113.536,50.9056 113.369,50.2389 113.5,49.5C 114.643,47.8993 113.976,47.2326 111.5,47.5C 107.93,47.755 107.597,48.755 110.5,50.5C 108.052,51.4731 105.385,51.8064 102.5,51.5C 102.64,49.8762 101.973,48.7096 100.5,48C 97.456,47.6371 94.456,47.1371 91.5,46.5C 91.8039,45.8501 92.1373,45.1835 92.5,44.5C 89.2317,43.513 85.8984,43.1796 82.5,43.5C 79.8333,43.5 77.1667,43.5 74.5,43.5C 60.5,43.5 46.5,43.5 32.5,43.5C 31.8333,43.5 31.1667,43.5 30.5,43.5 Z"/></g>
<g><path style="opacity:1" fill="#2d2e2e" d="M 105.5,43.5 C 107.833,43.5 110.167,43.5 112.5,43.5C 113.919,44.4511 115.585,44.7845 117.5,44.5C 112.471,47.327 107.471,47.1604 102.5,44C 103.448,43.5172 104.448,43.3505 105.5,43.5 Z"/></g>
<g><path style="opacity:1" fill="#8d8d8d" d="M 112.5,43.5 C 118.245,43.2111 123.912,43.7111 129.5,45C 127.26,45.977 124.927,46.477 122.5,46.5C 122.611,45.8826 122.944,45.3826 123.5,45C 121.527,44.5045 119.527,44.3379 117.5,44.5C 115.585,44.7845 113.919,44.4511 112.5,43.5 Z"/></g>
<g><path style="opacity:1" fill="#5f676c" d="M 74.5,43.5 C 77.1667,43.5 79.8333,43.5 82.5,43.5C 83.1667,44.1667 83.8333,44.8333 84.5,45.5C 79.7742,44.6171 75.7742,45.7838 72.5,49C 71.552,49.4828 70.552,49.6495 69.5,49.5C 65.5,49.5 61.5,49.5 57.5,49.5C 57.4606,48.4168 57.1272,47.4168 56.5,46.5C 53.9135,45.52 51.2469,45.1866 48.5,45.5C 53.2514,44.6968 58.0848,44.3635 63,44.5C 64.2613,44.7591 65.2613,45.4258 66,46.5C 67.6667,45.1667 69.3333,45.1667 71,46.5C 72.1451,45.3636 73.3117,44.3636 74.5,43.5 Z"/></g>
<g><path style="opacity:1" fill="#ecebed" d="M 113.5,49.5 C 112.609,50.1098 111.609,50.4431 110.5,50.5C 107.597,48.755 107.93,47.755 111.5,47.5C 113.976,47.2326 114.643,47.8993 113.5,49.5 Z"/></g>
<g><path style="opacity:1" fill="#7b8891" d="M 48.5,45.5 C 51.2469,45.1866 53.9135,45.52 56.5,46.5C 57.1272,47.4168 57.4606,48.4168 57.5,49.5C 54.8127,49.3359 52.146,49.5026 49.5,50C 48.1667,51 48.1667,52 49.5,53C 50.7932,53.49 52.1266,53.6567 53.5,53.5C 52.8333,54.1667 52.1667,54.8333 51.5,55.5C 47.5662,56.3597 43.5662,56.693 39.5,56.5C 38.2825,55.8386 36.9492,55.1719 35.5,54.5C 38.4818,54.2867 41.4818,53.9534 44.5,53.5C 41.8929,52.6816 39.2263,52.1816 36.5,52C 39.8715,51.1186 42.5381,49.2852 44.5,46.5C 45.9587,46.5674 47.2921,46.2341 48.5,45.5 Z"/></g>
<g><path style="opacity:1" fill="#78848d" d="M 84.5,45.5 C 86.717,46.3686 89.0504,46.702 91.5,46.5C 94.456,47.1371 97.456,47.6371 100.5,48C 101.973,48.7096 102.64,49.8762 102.5,51.5C 105.385,51.8064 108.052,51.4731 110.5,50.5C 111.609,50.4431 112.609,50.1098 113.5,49.5C 113.369,50.2389 113.536,50.9056 114,51.5C 115.401,49.8078 117.234,49.1412 119.5,49.5C 119.33,50.8221 119.663,51.9887 120.5,53C 123.272,53.5257 125.938,54.3591 128.5,55.5C 127.667,55.8333 126.833,56.1667 126,56.5C 114.422,55.8479 102.922,54.8479 91.5,53.5C 85.816,53.9014 80.1493,54.068 74.5,54C 78.1735,51.8432 77.5068,51.0098 72.5,51.5C 72.5,52.5 72.5,53.5 72.5,54.5C 66.9738,54.8214 61.6405,54.4881 56.5,53.5C 60.8333,53.5 65.1667,53.5 69.5,53.5C 69.5,52.1667 69.5,50.8333 69.5,49.5C 70.552,49.6495 71.552,49.4828 72.5,49C 75.7742,45.7838 79.7742,44.6171 84.5,45.5 Z"/></g>
<g><path style="opacity:1" fill="#8c969f" d="M 23.5,44.5 C 26.2869,45.4767 29.2869,45.81 32.5,45.5C 36.4338,46.3597 40.4338,46.693 44.5,46.5C 42.5381,49.2852 39.8715,51.1186 36.5,52C 39.2263,52.1816 41.8929,52.6816 44.5,53.5C 41.4818,53.9534 38.4818,54.2867 35.5,54.5C 36.9492,55.1719 38.2825,55.8386 39.5,56.5C 35.1667,57.8333 30.8333,57.8333 26.5,56.5C 26.5,55.5 26.5,54.5 26.5,53.5C 24.1732,53.6646 22.0065,54.3313 20,55.5C 19.5172,54.552 19.3505,53.552 19.5,52.5C 17.8333,52.5 16.1667,52.5 14.5,52.5C 14.7512,50.8297 15.4178,49.3297 16.5,48C 19.0036,47.0446 21.337,45.8779 23.5,44.5 Z"/></g>
<g><path style="opacity:1" fill="#929493" d="M 57.5,49.5 C 61.5,49.5 65.5,49.5 69.5,49.5C 69.5,50.8333 69.5,52.1667 69.5,53.5C 65.1667,53.5 60.8333,53.5 56.5,53.5C 55.5,53.5 54.5,53.5 53.5,53.5C 52.1266,53.6567 50.7932,53.49 49.5,53C 48.1667,52 48.1667,51 49.5,50C 52.146,49.5026 54.8127,49.3359 57.5,49.5 Z"/></g>
<g><path style="opacity:1" fill="#b2b4b8" d="M 14.5,52.5 C 16.1667,52.5 17.8333,52.5 19.5,52.5C 19.3505,53.552 19.5172,54.552 20,55.5C 22.0065,54.3313 24.1732,53.6646 26.5,53.5C 26.5,54.5 26.5,55.5 26.5,56.5C 23.9104,59.1239 21.2437,59.1239 18.5,56.5C 17.4822,57.1925 16.4822,57.8592 15.5,58.5C 14.5386,56.7354 14.2053,54.7354 14.5,52.5 Z"/></g>
<g><path style="opacity:1" fill="#97a0a9" d="M 122.5,46.5 C 124.971,47.7359 126.971,49.5692 128.5,52C 140.098,51.7963 144.765,57.6297 142.5,69.5C 142.167,69.5 141.833,69.5 141.5,69.5C 141.586,68.5041 141.252,67.6708 140.5,67C 129.601,65.034 119.268,61.7006 109.5,57C 102.11,56.727 94.7769,57.227 87.5,58.5C 80.8517,58.4556 74.1851,58.1223 67.5,57.5C 61.916,57.7451 56.5826,57.0784 51.5,55.5C 52.1667,54.8333 52.8333,54.1667 53.5,53.5C 54.5,53.5 55.5,53.5 56.5,53.5C 61.6405,54.4881 66.9738,54.8214 72.5,54.5C 72.5,53.5 72.5,52.5 72.5,51.5C 77.5068,51.0098 78.1735,51.8432 74.5,54C 80.1493,54.068 85.816,53.9014 91.5,53.5C 102.922,54.8479 114.422,55.8479 126,56.5C 126.833,56.1667 127.667,55.8333 128.5,55.5C 125.938,54.3591 123.272,53.5257 120.5,53C 119.663,51.9887 119.33,50.8221 119.5,49.5C 119.938,49.5654 120.272,49.3988 120.5,49C 119.692,48.6924 119.025,48.1924 118.5,47.5C 119.689,46.5713 121.022,46.238 122.5,46.5 Z"/></g>
<g><path style="opacity:1" fill="#9dabb6" d="M 51.5,55.5 C 56.5826,57.0784 61.916,57.7451 67.5,57.5C 63.0576,58.9557 58.5576,60.6224 54,62.5C 52.7803,61.6119 51.4469,60.9452 50,60.5C 43.8465,60.737 38.0131,62.0703 32.5,64.5C 26.5132,64.673 20.5132,64.3397 14.5,63.5C 15.038,61.8828 15.3713,60.2161 15.5,58.5C 16.4822,57.8592 17.4822,57.1925 18.5,56.5C 21.2437,59.1239 23.9104,59.1239 26.5,56.5C 30.8333,57.8333 35.1667,57.8333 39.5,56.5C 43.5662,56.693 47.5662,56.3597 51.5,55.5 Z"/></g>
<g><path style="opacity:1" fill="#b4b7c1" d="M 141.5,69.5 C 133.205,67.414 124.872,65.2473 116.5,63C 113.582,59.8449 109.915,58.3449 105.5,58.5C 96.8484,59.2115 88.1818,59.7115 79.5,60C 77.1724,61.324 74.8391,62.6574 72.5,64C 75.3647,64.1829 78.0314,64.6829 80.5,65.5C 74.963,65.0866 69.6297,65.9199 64.5,68C 58.5,70.3333 52.5,72.6667 46.5,75C 43.1019,76.3571 40.1019,78.1904 37.5,80.5C 36.1746,80.274 36.1746,79.1073 37.5,77C 40.7672,74.7138 42.4339,71.5472 42.5,67.5C 34.9053,69.0147 27.2386,70.3481 19.5,71.5C 17.7093,74.3875 16.376,77.3875 15.5,80.5C 14.6463,74.8791 14.313,69.2124 14.5,63.5C 20.5132,64.3397 26.5132,64.673 32.5,64.5C 38.0131,62.0703 43.8465,60.737 50,60.5C 51.4469,60.9452 52.7803,61.6119 54,62.5C 58.5576,60.6224 63.0576,58.9557 67.5,57.5C 74.1851,58.1223 80.8517,58.4556 87.5,58.5C 94.7769,57.227 102.11,56.727 109.5,57C 119.268,61.7006 129.601,65.034 140.5,67C 141.252,67.6708 141.586,68.5041 141.5,69.5 Z"/></g>
<g><path style="opacity:1" fill="#9395a1" d="M 80.5,65.5 C 82.4779,66.3171 83.4779,67.8171 83.5,70C 83.2922,73.6941 81.9588,76.8608 79.5,79.5C 78.7696,77.6587 78.1029,75.8254 77.5,74C 72.9061,72.3728 68.2394,72.2061 63.5,73.5C 54.6214,75.0752 45.9547,77.4086 37.5,80.5C 40.1019,78.1904 43.1019,76.3571 46.5,75C 52.5,72.6667 58.5,70.3333 64.5,68C 69.6297,65.9199 74.963,65.0866 80.5,65.5 Z"/></g>
<g><path style="opacity:1" fill="#e5e7ea" d="M 140.5,71.5 C 138.224,73.5835 135.557,75.0835 132.5,76C 126.329,77.1879 120.329,78.6879 114.5,80.5C 110.601,79.2358 106.601,77.9025 102.5,76.5C 104.024,72.3031 106.691,68.9698 110.5,66.5C 113.067,66.7777 115.733,66.9444 118.5,67C 121.105,68.9759 123.772,70.1426 126.5,70.5C 128.098,70.3903 129.765,70.057 131.5,69.5C 132.478,69.9767 133.311,70.6433 134,71.5C 136.079,69.0478 138.246,69.0478 140.5,71.5 Z"/></g>
<g><path style="opacity:1" fill="#c5c5cb" d="M 37.5,80.5 C 45.9547,77.4086 54.6214,75.0752 63.5,73.5C 63.3893,74.1174 63.056,74.6174 62.5,75C 64.5,75 66.5,75 68.5,75C 68.1667,75.3333 67.8333,75.6667 67.5,76C 69.5,77 71.5,78 73.5,79C 71.311,79.677 70.9776,80.8437 72.5,82.5C 71.675,83.3857 70.675,83.719 69.5,83.5C 67.1582,83.7748 67.1582,84.6081 69.5,86C 65.8372,89.0858 66.8372,90.4192 72.5,90C 73.3567,90.6891 74.0233,91.5224 74.5,92.5C 72.674,92.9202 70.674,92.9202 68.5,92.5C 67.8826,92.6107 67.3826,92.944 67,93.5C 65.8855,92.0001 65.0521,90.3334 64.5,88.5C 60.9222,87.125 57.2555,86.625 53.5,87C 53.8333,87.3333 54.1667,87.6667 54.5,88C 53.376,88.2492 52.376,88.7492 51.5,89.5C 55.1311,91.6519 58.7978,93.8185 62.5,96C 60.9751,97.0086 59.3084,97.5086 57.5,97.5C 56.0413,97.5674 54.7079,97.2341 53.5,96.5C 53.5,95.5 53.5,94.5 53.5,93.5C 47.7845,92.321 42.1179,90.9876 36.5,89.5C 33.4297,90.0612 30.4297,90.5612 27.5,91C 33.068,86.839 32.4014,85.5057 25.5,87C 27.3921,86.0266 29.3921,85.3599 31.5,85C 30.5,84.6667 29.5,84.3333 28.5,84C 30.7463,82.9605 32.913,81.7938 35,80.5C 35.346,78.7818 35.846,77.1151 36.5,75.5C 35.6667,75.1667 34.8333,74.8333 34,74.5C 28.4145,76.1015 22.9145,77.7682 17.5,79.5C 17.5,81.1667 17.5,82.8333 17.5,84.5C 16.3263,83.4863 15.6596,82.153 15.5,80.5C 16.376,77.3875 17.7093,74.3875 19.5,71.5C 27.2386,70.3481 34.9053,69.0147 42.5,67.5C 42.4339,71.5472 40.7672,74.7138 37.5,77C 36.1746,79.1073 36.1746,80.274 37.5,80.5 Z"/></g>
<g><path style="opacity:1" fill="#d7d8dc" d="M 141.5,69.5 C 141.833,69.5 142.167,69.5 142.5,69.5C 142.167,70.5 141.5,71.1667 140.5,71.5C 138.246,69.0478 136.079,69.0478 134,71.5C 133.311,70.6433 132.478,69.9767 131.5,69.5C 129.765,70.057 128.098,70.3903 126.5,70.5C 123.772,70.1426 121.105,68.9759 118.5,67C 115.733,66.9444 113.067,66.7777 110.5,66.5C 106.691,68.9698 104.024,72.3031 102.5,76.5C 106.601,77.9025 110.601,79.2358 114.5,80.5C 108.971,80.2372 103.637,80.7372 98.5,82C 99.1667,81 99.8333,80 100.5,79C 92.8583,77.9251 92.0249,79.4251 98,83.5C 98.6667,84.1667 98.6667,84.8333 98,85.5C 95.7815,83.3813 93.2815,83.048 90.5,84.5C 89.7699,86.0062 89.4366,87.3395 89.5,88.5C 88.7492,87.624 88.2492,86.624 88,85.5C 85.9419,86.1095 85.1086,87.1095 85.5,88.5C 82.0937,85.9406 78.7603,85.9406 75.5,88.5C 73.7158,86.483 71.7158,84.8163 69.5,83.5C 70.675,83.719 71.675,83.3857 72.5,82.5C 70.9776,80.8437 71.311,79.677 73.5,79C 71.5,78 69.5,77 67.5,76C 67.8333,75.6667 68.1667,75.3333 68.5,75C 66.5,75 64.5,75 62.5,75C 63.056,74.6174 63.3893,74.1174 63.5,73.5C 68.2394,72.2061 72.9061,72.3728 77.5,74C 78.1029,75.8254 78.7696,77.6587 79.5,79.5C 81.9588,76.8608 83.2922,73.6941 83.5,70C 83.4779,67.8171 82.4779,66.3171 80.5,65.5C 78.0314,64.6829 75.3647,64.1829 72.5,64C 74.8391,62.6574 77.1724,61.324 79.5,60C 88.1818,59.7115 96.8484,59.2115 105.5,58.5C 109.915,58.3449 113.582,59.8449 116.5,63C 124.872,65.2473 133.205,67.414 141.5,69.5 Z"/></g>
<g><path style="opacity:1" fill="#dcdcdf" d="M 53.5,96.5 C 48.1266,93.9066 42.4599,92.74 36.5,93C 33.2894,96.0418 30.2894,99.2085 27.5,102.5C 27.0308,98.9646 25.5308,95.9646 23,93.5C 22.617,96.4726 23.117,99.306 24.5,102C 24.1667,102.167 23.8333,102.333 23.5,102.5C 20.8988,96.6965 18.8988,90.6965 17.5,84.5C 17.5,82.8333 17.5,81.1667 17.5,79.5C 22.9145,77.7682 28.4145,76.1015 34,74.5C 34.8333,74.8333 35.6667,75.1667 36.5,75.5C 35.846,77.1151 35.346,78.7818 35,80.5C 32.913,81.7938 30.7463,82.9605 28.5,84C 29.5,84.3333 30.5,84.6667 31.5,85C 29.3921,85.3599 27.3921,86.0266 25.5,87C 32.4014,85.5057 33.068,86.839 27.5,91C 30.4297,90.5612 33.4297,90.0612 36.5,89.5C 42.1179,90.9876 47.7845,92.321 53.5,93.5C 53.5,94.5 53.5,95.5 53.5,96.5 Z"/></g>
<g><path style="opacity:1" fill="#dddee0" d="M 68.5,92.5 C 68.4226,93.7498 67.756,94.5831 66.5,95C 67.6721,95.4186 68.6721,96.0853 69.5,97C 68.2889,98.1131 68.2889,99.2798 69.5,100.5C 69.3333,100.833 69.1667,101.167 69,101.5C 67.4263,100.016 66.093,98.3492 65,96.5C 64.4242,98.3774 64.5909,100.211 65.5,102C 63.3666,107.423 61.3666,107.59 59.5,102.5C 59.6799,101.446 60.0133,100.446 60.5,99.5C 59.3984,98.8243 58.3984,98.1577 57.5,97.5C 59.3084,97.5086 60.9751,97.0086 62.5,96C 58.7978,93.8185 55.1311,91.6519 51.5,89.5C 52.376,88.7492 53.376,88.2492 54.5,88C 54.1667,87.6667 53.8333,87.3333 53.5,87C 57.2555,86.625 60.9222,87.125 64.5,88.5C 65.0521,90.3334 65.8855,92.0001 67,93.5C 67.3826,92.944 67.8826,92.6107 68.5,92.5 Z"/></g>
</svg>
