<?xml version="1.0" encoding="UTF-8"?>
<!DOCTYPE svg PUBLIC "-//W3C//DTD SVG 1.1//EN" "http://www.w3.org/Graphics/SVG/1.1/DTD/svg11.dtd">
<svg xmlns="http://www.w3.org/2000/svg" version="1.1" width="166px" height="158px" style="shape-rendering:geometricPrecision; text-rendering:geometricPrecision; image-rendering:optimizeQuality; fill-rule:evenodd; clip-rule:evenodd" xmlns:xlink="http://www.w3.org/1999/xlink">
<g><path style="opacity:1" fill="#f5f5f5" d="M -0.5,-0.5 C 54.8333,-0.5 110.167,-0.5 165.5,-0.5C 165.5,52.1667 165.5,104.833 165.5,157.5C 110.167,157.5 54.8333,157.5 -0.5,157.5C -0.5,104.833 -0.5,52.1667 -0.5,-0.5 Z"/></g>
<g><path style="opacity:1" fill="#a7a7a8" d="M 120.5,18.5 C 119.732,19.2625 119.232,20.2625 119,21.5C 118.59,20.0993 118.09,18.766 117.5,17.5C 119.196,15.871 120.196,16.2043 120.5,18.5 Z"/></g>
<g><path style="opacity:1" fill="#354155" d="M 95.5,16.5 C 97.3122,18.4605 98.3122,20.7939 98.5,23.5C 94.7011,22.691 91.0344,23.3576 87.5,25.5C 83.5575,24.053 80.5575,22.2196 78.5,20C 79.756,19.5831 80.4226,18.7498 80.5,17.5C 85.4053,16.5546 90.4053,16.2213 95.5,16.5 Z"/></g>
<g><path style="opacity:1" fill="#5b5a62" d="M 107.5,15.5 C 108.209,14.596 109.209,14.2627 110.5,14.5C 110.511,16.5466 110.844,18.5466 111.5,20.5C 111.332,22.1705 110.665,23.5039 109.5,24.5C 106.855,21.7829 106.855,18.9495 109.5,16C 108.906,15.5357 108.239,15.369 107.5,15.5 Z"/></g>
<g><path style="opacity:1" fill="#3d4452" d="M 112.5,14.5 C 114.933,14.2729 116.599,15.2729 117.5,17.5C 118.09,18.766 118.59,20.0993 119,21.5C 119.232,20.2625 119.732,19.2625 120.5,18.5C 120.5,21.5 120.5,24.5 120.5,27.5C 119.732,26.7375 119.232,25.7375 119,24.5C 118.827,28.5408 118.327,32.5408 117.5,36.5C 116.081,29.0664 114.414,21.7331 112.5,14.5 Z"/></g>
<g><path style="opacity:1" fill="#748195" d="M 68.5,21.5 C 71.2559,22.9749 73.7559,24.9749 76,27.5C 76.4186,26.3279 77.0853,25.3279 78,24.5C 76.6771,28.1899 77.6771,31.1899 81,33.5C 81.3333,30.8333 81.6667,28.1667 82,25.5C 82.8151,30.3522 82.6484,35.0189 81.5,39.5C 81.6567,38.1266 81.49,36.7932 81,35.5C 71.0564,23.2312 70.223,23.7312 78.5,37C 77.9444,38.0111 77.2778,38.8444 76.5,39.5C 76.5,40.1667 76.1667,40.5 75.5,40.5C 74.8712,32.1958 70.5378,28.1958 62.5,28.5C 63.6016,29.1757 64.6016,29.8423 65.5,30.5C 60.8416,30.347 59.8416,28.5137 62.5,25C 58.4366,24.9616 54.6033,24.1283 51,22.5C 50.3162,21.2161 50.4829,20.0495 51.5,19C 53.5,18.3333 55.5,18.3333 57.5,19C 55.8659,19.4935 54.1992,19.6602 52.5,19.5C 52.3601,21.1238 53.0267,22.2904 54.5,23C 59.3182,23.7794 63.9849,23.2794 68.5,21.5 Z"/></g>
<g><path style="opacity:1" fill="#b5b6bd" d="M 106.5,15.5 C 105.722,16.1556 105.056,16.9889 104.5,18C 106.191,30.0947 106.857,42.2613 106.5,54.5C 105.835,56.3691 105.169,58.3691 104.5,60.5C 101.496,57.8339 99.4957,54.5006 98.5,50.5C 98.0431,49.7025 97.3764,49.3691 96.5,49.5C 97.6988,45.9014 98.6988,42.2347 99.5,38.5C 99.8205,33.3054 99.4872,28.3054 98.5,23.5C 98.3122,20.7939 97.3122,18.4605 95.5,16.5C 98.9619,15.5184 102.629,15.185 106.5,15.5 Z"/></g>
<g><path style="opacity:1" fill="#2c2e35" d="M 110.5,14.5 C 111.167,14.5 111.833,14.5 112.5,14.5C 114.414,21.7331 116.081,29.0664 117.5,36.5C 118.327,32.5408 118.827,28.5408 119,24.5C 119.232,25.7375 119.732,26.7375 120.5,27.5C 120.5,27.8333 120.5,28.1667 120.5,28.5C 120.782,33.9265 120.449,39.2599 119.5,44.5C 118.199,43.1155 118.199,41.6155 119.5,40C 115.004,36.6472 113.67,37.8138 115.5,43.5C 117.738,44.8527 119.071,46.8527 119.5,49.5C 119.145,50.5223 118.478,51.189 117.5,51.5C 118.401,47.7593 117.068,45.7593 113.5,45.5C 113.663,43.1432 113.497,40.8098 113,38.5C 112.617,37.944 112.117,37.6107 111.5,37.5C 112.001,32.8468 111.334,28.5135 109.5,24.5C 110.665,23.5039 111.332,22.1705 111.5,20.5C 110.844,18.5466 110.511,16.5466 110.5,14.5 Z"/></g>
<g><path style="opacity:1" fill="#43546d" d="M 80.5,17.5 C 80.4226,18.7498 79.756,19.5831 78.5,20C 80.5575,22.2196 83.5575,24.053 87.5,25.5C 91.0344,23.3576 94.7011,22.691 98.5,23.5C 99.4872,28.3054 99.8205,33.3054 99.5,38.5C 96.8314,36.0011 93.9981,33.6677 91,31.5C 88.1959,37.9772 84.1959,43.6439 79,48.5C 77.4443,53.2798 75.1109,57.6131 72,61.5C 71.8333,61.1667 71.6667,60.8333 71.5,60.5C 71.2411,57.0904 71.7411,53.7571 73,50.5C 70.896,53.7099 69.0627,57.0432 67.5,60.5C 66.4376,59.5754 66.4376,58.5754 67.5,57.5C 68.9311,52.9886 70.5978,48.6553 72.5,44.5C 72.3505,45.552 72.5172,46.552 73,47.5C 74.2886,45.3554 75.1219,43.0221 75.5,40.5C 76.1667,40.5 76.5,40.1667 76.5,39.5C 78.1667,39.5 79.8333,39.5 81.5,39.5C 82.6484,35.0189 82.8151,30.3522 82,25.5C 81.6667,28.1667 81.3333,30.8333 81,33.5C 77.6771,31.1899 76.6771,28.1899 78,24.5C 77.0853,25.3279 76.4186,26.3279 76,27.5C 73.7559,24.9749 71.2559,22.9749 68.5,21.5C 69.3094,20.5313 70.3094,19.6979 71.5,19C 74.544,18.6371 77.544,18.1371 80.5,17.5 Z"/></g>
<g><path style="opacity:1" fill="#2f373e" d="M 81.5,39.5 C 79.8333,39.5 78.1667,39.5 76.5,39.5C 77.2778,38.8444 77.9444,38.0111 78.5,37C 70.223,23.7312 71.0564,23.2312 81,35.5C 81.49,36.7932 81.6567,38.1266 81.5,39.5 Z"/></g>
<g><path style="opacity:1" fill="#36445b" d="M 75.5,40.5 C 75.1219,43.0221 74.2886,45.3554 73,47.5C 72.5172,46.552 72.3505,45.552 72.5,44.5C 75.4906,37.16 73.1573,32.4934 65.5,30.5C 64.6016,29.8423 63.6016,29.1757 62.5,28.5C 70.5378,28.1958 74.8712,32.1958 75.5,40.5 Z"/></g>
<g><path style="opacity:1" fill="#637794" d="M 99.5,38.5 C 98.6988,42.2347 97.6988,45.9014 96.5,49.5C 93.4053,55.4774 94.4053,60.8107 99.5,65.5C 99.5,68.8333 99.5,72.1667 99.5,75.5C 98.834,72.6417 98.1674,69.6417 97.5,66.5C 96.8165,66.1373 96.1499,65.8039 95.5,65.5C 94.1667,64.8333 93.1667,63.8333 92.5,62.5C 93.6401,59.4287 92.9735,56.762 90.5,54.5C 90.6633,52.1432 90.4966,49.8098 90,47.5C 89.2904,46.0267 88.1238,45.3601 86.5,45.5C 86.9051,49.0479 86.4051,52.3812 85,55.5C 84.6667,54.5 84.3333,53.5 84,52.5C 83.6667,52.8333 83.3333,53.1667 83,53.5C 82.6667,52.1667 82.3333,50.8333 82,49.5C 78.579,54.4124 75.9123,59.7458 74,65.5C 71.6262,68.2876 70.2929,67.9542 70,64.5C 69.6174,65.056 69.1174,65.3893 68.5,65.5C 67.1751,64.0474 66.3418,64.3808 66,66.5C 66.3086,61.7377 64.1419,58.9044 59.5,58C 57.3341,56.322 56.0007,54.1553 55.5,51.5C 58.8167,52.3054 61.4834,54.1388 63.5,57C 64.7932,57.49 66.1266,57.6567 67.5,57.5C 66.4376,58.5754 66.4376,59.5754 67.5,60.5C 69.0627,57.0432 70.896,53.7099 73,50.5C 71.7411,53.7571 71.2411,57.0904 71.5,60.5C 71.6667,60.8333 71.8333,61.1667 72,61.5C 75.1109,57.6131 77.4443,53.2798 79,48.5C 84.1959,43.6439 88.1959,37.9772 91,31.5C 93.9981,33.6677 96.8314,36.0011 99.5,38.5 Z"/></g>
<g><path style="opacity:1" fill="#1a1b22" d="M 106.5,15.5 C 106.833,15.5 107.167,15.5 107.5,15.5C 108.239,15.369 108.906,15.5357 109.5,16C 106.855,18.9495 106.855,21.7829 109.5,24.5C 111.334,28.5135 112.001,32.8468 111.5,37.5C 112.819,45.4356 113.486,53.4356 113.5,61.5C 114.5,61.5 115.5,61.5 116.5,61.5C 116.46,58.1194 116.793,54.7861 117.5,51.5C 118.478,51.189 119.145,50.5223 119.5,49.5C 119.071,46.8527 117.738,44.8527 115.5,43.5C 113.67,37.8138 115.004,36.6472 119.5,40C 118.199,41.6155 118.199,43.1155 119.5,44.5C 120.611,50.2826 120.611,55.9493 119.5,61.5C 118.833,61.5 118.5,61.8333 118.5,62.5C 117.245,62.5011 115.912,62.8344 114.5,63.5C 113.5,63.5 112.5,63.5 111.5,63.5C 111.167,65.5 110.833,67.5 110.5,69.5C 110.881,70.9311 111.881,71.7645 113.5,72C 112.692,72.3076 112.025,72.8076 111.5,73.5C 112.994,75.9424 113.994,78.609 114.5,81.5C 113.483,84.028 112.316,84.028 111,81.5C 110.244,77.3118 109.078,73.3118 107.5,69.5C 109.147,67.512 108.814,66.1787 106.5,65.5C 106.073,61.9957 106.073,58.329 106.5,54.5C 106.857,42.2613 106.191,30.0947 104.5,18C 105.056,16.9889 105.722,16.1556 106.5,15.5 Z"/></g>
<g><path style="opacity:1" fill="#46464e" d="M 111.5,37.5 C 112.117,37.6107 112.617,37.944 113,38.5C 113.497,40.8098 113.663,43.1432 113.5,45.5C 117.068,45.7593 118.401,47.7593 117.5,51.5C 116.793,54.7861 116.46,58.1194 116.5,61.5C 115.5,61.5 114.5,61.5 113.5,61.5C 113.486,53.4356 112.819,45.4356 111.5,37.5 Z"/></g>
<g><path style="opacity:1" fill="#666667" d="M 120.5,28.5 C 121.496,43.324 121.829,58.324 121.5,73.5C 120.833,73.5 120.5,73.1667 120.5,72.5C 120.815,68.6286 120.482,64.9619 119.5,61.5C 120.611,55.9493 120.611,50.2826 119.5,44.5C 120.449,39.2599 120.782,33.9265 120.5,28.5 Z"/></g>
<g><path style="opacity:1" fill="#41526c" d="M 90.5,54.5 C 88.7096,59.1145 85.7096,61.9478 81.5,63C 80.0309,66.9299 78.8643,67.0966 78,63.5C 76.2703,65.4019 74.437,67.0686 72.5,68.5C 70.321,68.84 68.4877,69.84 67,71.5C 66.6012,71.2716 66.4346,70.9382 66.5,70.5C 67.9418,69.1805 68.6085,67.5138 68.5,65.5C 69.1174,65.3893 69.6174,65.056 70,64.5C 70.2929,67.9542 71.6262,68.2876 74,65.5C 75.9123,59.7458 78.579,54.4124 82,49.5C 82.3333,50.8333 82.6667,52.1667 83,53.5C 83.3333,53.1667 83.6667,52.8333 84,52.5C 84.3333,53.5 84.6667,54.5 85,55.5C 86.4051,52.3812 86.9051,49.0479 86.5,45.5C 88.1238,45.3601 89.2904,46.0267 90,47.5C 90.4966,49.8098 90.6633,52.1432 90.5,54.5 Z"/></g>
<g><path style="opacity:1" fill="#a0a6ae" d="M 96.5,49.5 C 95.9303,55.1764 96.9303,60.5097 99.5,65.5C 94.4053,60.8107 93.4053,55.4774 96.5,49.5 Z"/></g>
<g><path style="opacity:1" fill="#748ba7" d="M 90.5,54.5 C 92.9735,56.762 93.6401,59.4287 92.5,62.5C 89.3508,62.2114 86.3508,62.7114 83.5,64C 81.6324,68.445 79.2991,72.6116 76.5,76.5C 74.7983,79.0256 73.1317,78.8589 71.5,76C 73.0854,74.7112 74.4187,73.2112 75.5,71.5C 75.4841,69.484 74.4841,68.484 72.5,68.5C 74.437,67.0686 76.2703,65.4019 78,63.5C 78.8643,67.0966 80.0309,66.9299 81.5,63C 85.7096,61.9478 88.7096,59.1145 90.5,54.5 Z"/></g>
<g><path style="opacity:1" fill="#525158" d="M 118.5,62.5 C 119.043,62.56 119.376,62.8933 119.5,63.5C 117.936,65.603 115.936,66.4363 113.5,66C 114.252,65.3292 114.586,64.4959 114.5,63.5C 115.912,62.8344 117.245,62.5011 118.5,62.5 Z"/></g>
<g><path style="opacity:1" fill="#445672" d="M 92.5,62.5 C 93.1667,63.8333 94.1667,64.8333 95.5,65.5C 95.6621,67.5273 95.4955,69.5273 95,71.5C 94.6174,72.056 94.1174,72.3893 93.5,72.5C 94.8896,70.0002 94.7229,67.6668 93,65.5C 92.8295,67.7148 92.1628,69.7148 91,71.5C 92.1024,67.5989 90.6024,65.7655 86.5,66C 85.7476,66.6708 85.4142,67.5041 85.5,68.5C 84.5041,68.4142 83.6708,68.7476 83,69.5C 82.074,71.6917 80.9073,73.6917 79.5,75.5C 78.609,76.1098 77.609,76.4431 76.5,76.5C 79.2991,72.6116 81.6324,68.445 83.5,64C 86.3508,62.7114 89.3508,62.2114 92.5,62.5 Z"/></g>
<g><path style="opacity:1" fill="#dcdddc" d="M 118.5,62.5 C 118.5,61.8333 118.833,61.5 119.5,61.5C 120.482,64.9619 120.815,68.6286 120.5,72.5C 119.833,72.5 119.167,72.5 118.5,72.5C 116.021,71.2051 113.354,70.2051 110.5,69.5C 110.833,67.5 111.167,65.5 111.5,63.5C 112.5,63.5 113.5,63.5 114.5,63.5C 114.586,64.4959 114.252,65.3292 113.5,66C 115.936,66.4363 117.936,65.603 119.5,63.5C 119.376,62.8933 119.043,62.56 118.5,62.5 Z"/></g>
<g><path style="opacity:1" fill="#4d586c" d="M 96.5,49.5 C 97.3764,49.3691 98.0431,49.7025 98.5,50.5C 99.4957,54.5006 101.496,57.8339 104.5,60.5C 105.169,58.3691 105.835,56.3691 106.5,54.5C 106.073,58.329 106.073,61.9957 106.5,65.5C 106.935,67.2967 106.935,69.2967 106.5,71.5C 105.834,74.0277 105.168,76.6944 104.5,79.5C 102.854,78.2214 101.687,76.5547 101,74.5C 100.819,71.3054 100.319,68.3054 99.5,65.5C 96.9303,60.5097 95.9303,55.1764 96.5,49.5 Z"/></g>
<g><path style="opacity:1" fill="#6e7f9b" d="M 93.5,72.5 C 91.4017,73.9626 89.4017,73.7959 87.5,72C 88.5762,70.2739 88.7429,68.4406 88,66.5C 87.2917,67.3805 86.4584,68.0472 85.5,68.5C 85.4142,67.5041 85.7476,66.6708 86.5,66C 90.6024,65.7655 92.1024,67.5989 91,71.5C 92.1628,69.7148 92.8295,67.7148 93,65.5C 94.7229,67.6668 94.8896,70.0002 93.5,72.5 Z"/></g>
<g><path style="opacity:1" fill="#b3c6d6" d="M 55.5,51.5 C 56.0007,54.1553 57.3341,56.322 59.5,58C 64.1419,58.9044 66.3086,61.7377 66,66.5C 66.3418,64.3808 67.1751,64.0474 68.5,65.5C 68.6085,67.5138 67.9418,69.1805 66.5,70.5C 64.5354,70.9483 64.2021,71.9483 65.5,73.5C 66.8027,72.2822 67.8027,72.6155 68.5,74.5C 69.1924,73.9747 69.6924,73.3081 70,72.5C 70.1667,73.1667 70.3333,73.8333 70.5,74.5C 69.4478,76.2234 69.4478,77.8901 70.5,79.5C 70.0302,80.463 69.3635,80.463 68.5,79.5C 65.0455,73.1769 60.8788,67.1769 56,61.5C 55.5,59 55,56.5 54.5,54C 54.528,52.9302 54.8614,52.0968 55.5,51.5 Z"/></g>
<g><path style="opacity:1" fill="#465976" d="M 93.5,72.5 C 93.1961,73.1499 92.8627,73.8165 92.5,74.5C 88.8068,74.7934 85.6401,76.1267 83,78.5C 81.9581,75.1961 83.1247,73.0295 86.5,72C 85.6634,70.9887 85.33,69.8221 85.5,68.5C 86.4584,68.0472 87.2917,67.3805 88,66.5C 88.7429,68.4406 88.5762,70.2739 87.5,72C 89.4017,73.7959 91.4017,73.9626 93.5,72.5 Z"/></g>
<g><path style="opacity:1" fill="#596c8a" d="M 92.5,91.5 C 89.7549,93.5676 86.7549,95.2343 83.5,96.5C 83.7086,95.0783 84.2086,93.745 85,92.5C 85.3333,93.1667 85.6667,93.8333 86,94.5C 88.5963,91.9739 90.4296,89.4739 91.5,87C 89.3722,85.3331 88.0389,83.1664 87.5,80.5C 86.4777,80.8555 85.811,81.5222 85.5,82.5C 84.7377,84.2624 83.4044,85.2624 81.5,85.5C 85.391,75.0849 91.5577,73.7516 100,81.5C 101.071,85.2043 101.238,88.8709 100.5,92.5C 97.8519,90.5576 95.1852,90.2243 92.5,91.5 Z"/></g>
<g><path style="opacity:1" fill="#1e1e20" d="M 118.5,72.5 C 119.167,72.5 119.833,72.5 120.5,72.5C 120.5,73.1667 120.833,73.5 121.5,73.5C 121.5,77.5 121.5,81.5 121.5,85.5C 121.167,85.5 120.833,85.5 120.5,85.5C 118.659,86.4023 117.326,87.7356 116.5,89.5C 116.565,89.9382 116.399,90.2716 116,90.5C 115.833,89.8333 115.667,89.1667 115.5,88.5C 116.976,83.1327 117.976,77.7994 118.5,72.5 Z"/></g>
<g><path style="opacity:1" fill="#a1b3c5" d="M 72.5,68.5 C 74.4841,68.484 75.4841,69.484 75.5,71.5C 74.4187,73.2112 73.0854,74.7112 71.5,76C 73.1317,78.8589 74.7983,79.0256 76.5,76.5C 77.609,76.4431 78.609,76.1098 79.5,75.5C 81.3769,76.6591 81.8769,78.3258 81,80.5C 79.401,82.056 77.901,83.7227 76.5,85.5C 77.7185,85.109 78.5518,85.7756 79,87.5C 79.9947,86.9341 80.828,86.2674 81.5,85.5C 83.4044,85.2624 84.7377,84.2624 85.5,82.5C 87.1852,83.1837 88.1852,84.517 88.5,86.5C 87.0499,87.8498 86.3832,89.5165 86.5,91.5C 82.5203,92.6269 79.0203,91.6269 76,88.5C 75.5357,89.0944 75.369,89.7611 75.5,90.5C 73.3484,89.9232 73.015,88.7565 74.5,87C 71.2229,85.5529 69.2229,83.0529 68.5,79.5C 69.3635,80.463 70.0302,80.463 70.5,79.5C 69.4478,77.8901 69.4478,76.2234 70.5,74.5C 70.3333,73.8333 70.1667,73.1667 70,72.5C 69.6924,73.3081 69.1924,73.9747 68.5,74.5C 67.8027,72.6155 66.8027,72.2822 65.5,73.5C 64.2021,71.9483 64.5354,70.9483 66.5,70.5C 66.4346,70.9382 66.6012,71.2716 67,71.5C 68.4877,69.84 70.321,68.84 72.5,68.5 Z"/></g>
<g><path style="opacity:1" fill="#41434c" d="M 106.5,65.5 C 108.814,66.1787 109.147,67.512 107.5,69.5C 109.078,73.3118 110.244,77.3118 111,81.5C 112.316,84.028 113.483,84.028 114.5,81.5C 113.994,78.609 112.994,75.9424 111.5,73.5C 112.025,72.8076 112.692,72.3076 113.5,72C 111.881,71.7645 110.881,70.9311 110.5,69.5C 113.354,70.2051 116.021,71.2051 118.5,72.5C 117.976,77.7994 116.976,83.1327 115.5,88.5C 115.667,89.1667 115.833,89.8333 116,90.5C 116.399,90.2716 116.565,89.9382 116.5,89.5C 117.708,90.2341 119.041,90.5674 120.5,90.5C 120.5,88.8333 120.5,87.1667 120.5,85.5C 120.833,85.5 121.167,85.5 121.5,85.5C 121.5,92.5 121.5,99.5 121.5,106.5C 120.883,106.611 120.383,106.944 120,107.5C 119.828,102.798 119.328,98.1315 118.5,93.5C 118.406,95.2388 118.239,97.2388 118,99.5C 117.319,97.1053 116.485,94.772 115.5,92.5C 116.095,95.0661 115.428,97.3994 113.5,99.5C 112.454,96.2722 111.788,92.9389 111.5,89.5C 109.321,83.587 107.655,77.587 106.5,71.5C 106.935,69.2967 106.935,67.2967 106.5,65.5 Z"/></g>
<g><path style="opacity:1" fill="#a8a9a9" d="M 120.5,85.5 C 120.5,87.1667 120.5,88.8333 120.5,90.5C 119.041,90.5674 117.708,90.2341 116.5,89.5C 117.326,87.7356 118.659,86.4023 120.5,85.5 Z"/></g>
<g><path style="opacity:1" fill="#7c92ac" d="M 83.5,96.5 C 82.4246,95.4376 81.4246,95.4376 80.5,96.5C 82.2108,98.2403 83.0442,100.24 83,102.5C 82.2917,101.619 81.4584,100.953 80.5,100.5C 79.3054,100.134 78.6387,99.301 78.5,98C 79.0294,96.4411 79.696,94.9411 80.5,93.5C 78.6404,92.6751 76.9738,91.6751 75.5,90.5C 75.369,89.7611 75.5357,89.0944 76,88.5C 79.0203,91.6269 82.5203,92.6269 86.5,91.5C 86.3832,89.5165 87.0499,87.8498 88.5,86.5C 88.1852,84.517 87.1852,83.1837 85.5,82.5C 85.811,81.5222 86.4777,80.8555 87.5,80.5C 88.0389,83.1664 89.3722,85.3331 91.5,87C 90.4296,89.4739 88.5963,91.9739 86,94.5C 85.6667,93.8333 85.3333,93.1667 85,92.5C 84.2086,93.745 83.7086,95.0783 83.5,96.5 Z"/></g>
<g><path style="opacity:1" fill="#868a98" d="M 111.5,89.5 C 111.788,92.9389 112.454,96.2722 113.5,99.5C 113.5,101.5 113.5,103.5 113.5,105.5C 111.846,101.757 110.512,97.7566 109.5,93.5C 109.668,91.8295 110.335,90.4961 111.5,89.5 Z"/></g>
<g><path style="opacity:1" fill="#7487a0" d="M 95.5,65.5 C 96.1499,65.8039 96.8165,66.1373 97.5,66.5C 98.1674,69.6417 98.834,72.6417 99.5,75.5C 103.594,80.3643 106.094,86.0309 107,92.5C 107.807,102.577 107.64,112.577 106.5,122.5C 105.21,123.058 104.377,124.058 104,125.5C 103.316,124.216 103.483,123.049 104.5,122C 101.824,121.383 101.157,122.216 102.5,124.5C 99.8674,125.884 99.8674,127.218 102.5,128.5C 103.904,127.001 104.57,127.334 104.5,129.5C 103.822,132.544 102.989,135.544 102,138.5C 101.578,135.764 101.578,133.098 102,130.5C 100.265,134.537 98.4313,138.537 96.5,142.5C 96.1667,142.5 95.8333,142.5 95.5,142.5C 96.0307,138.241 97.364,134.241 99.5,130.5C 98.8333,129.5 98.1667,128.5 97.5,127.5C 98.1667,127.167 98.8333,126.833 99.5,126.5C 98.7521,122.86 97.7521,119.193 96.5,115.5C 96.6667,115.167 96.8333,114.833 97,114.5C 98.3782,116.213 100.045,117.547 102,118.5C 101.269,114.323 101.436,110.156 102.5,106C 101.123,103.692 99.1229,102.192 96.5,101.5C 94.4451,103.555 92.1117,105.221 89.5,106.5C 88.7582,104.65 87.7582,103.984 86.5,104.5C 88.6971,102.482 91.3637,101.315 94.5,101C 94.1667,100.667 93.8333,100.333 93.5,100C 95.5675,99.3131 97.5675,99.4798 99.5,100.5C 100.956,98.1221 100.623,96.1221 98.5,94.5C 98.0941,95.5575 98.0941,96.8908 98.5,98.5C 96.5165,98.6168 94.8498,97.9501 93.5,96.5C 93.0573,94.713 92.7239,93.0463 92.5,91.5C 95.1852,90.2243 97.8519,90.5576 100.5,92.5C 101.238,88.8709 101.071,85.2043 100,81.5C 91.5577,73.7516 85.391,75.0849 81.5,85.5C 80.828,86.2674 79.9947,86.9341 79,87.5C 78.5518,85.7756 77.7185,85.109 76.5,85.5C 77.901,83.7227 79.401,82.056 81,80.5C 81.8769,78.3258 81.3769,76.6591 79.5,75.5C 80.9073,73.6917 82.074,71.6917 83,69.5C 83.6708,68.7476 84.5041,68.4142 85.5,68.5C 85.33,69.8221 85.6634,70.9887 86.5,72C 83.1247,73.0295 81.9581,75.1961 83,78.5C 85.6401,76.1267 88.8068,74.7934 92.5,74.5C 92.8627,73.8165 93.1961,73.1499 93.5,72.5C 94.1174,72.3893 94.6174,72.056 95,71.5C 95.4955,69.5273 95.6621,67.5273 95.5,65.5 Z"/></g>
<g><path style="opacity:1" fill="#64686b" d="M 121.5,106.5 C 121.5,110.5 121.5,114.5 121.5,118.5C 120.859,121.004 119.859,123.671 118.5,126.5C 118.167,126.5 117.833,126.5 117.5,126.5C 118.221,123.183 118.388,119.849 118,116.5C 117.667,116.833 117.333,117.167 117,117.5C 116.71,115.956 116.044,114.623 115,113.5C 114.28,111.888 114.446,110.388 115.5,109C 114.934,108.005 114.267,107.172 113.5,106.5C 113.5,106.167 113.5,105.833 113.5,105.5C 113.5,103.5 113.5,101.5 113.5,99.5C 115.428,97.3994 116.095,95.0661 115.5,92.5C 116.485,94.772 117.319,97.1053 118,99.5C 118.239,97.2388 118.406,95.2388 118.5,93.5C 119.328,98.1315 119.828,102.798 120,107.5C 120.383,106.944 120.883,106.611 121.5,106.5 Z"/></g>
<g><path style="opacity:1" fill="#acbbcc" d="M 92.5,91.5 C 92.7239,93.0463 93.0573,94.713 93.5,96.5C 94.8498,97.9501 96.5165,98.6168 98.5,98.5C 98.0941,96.8908 98.0941,95.5575 98.5,94.5C 100.623,96.1221 100.956,98.1221 99.5,100.5C 97.5675,99.4798 95.5675,99.3131 93.5,100C 93.8333,100.333 94.1667,100.667 94.5,101C 91.3637,101.315 88.6971,102.482 86.5,104.5C 87.7582,103.984 88.7582,104.65 89.5,106.5C 92.1117,105.221 94.4451,103.555 96.5,101.5C 99.1229,102.192 101.123,103.692 102.5,106C 101.436,110.156 101.269,114.323 102,118.5C 100.045,117.547 98.3782,116.213 97,114.5C 96.8333,114.833 96.6667,115.167 96.5,115.5C 97.7521,119.193 98.7521,122.86 99.5,126.5C 98.8333,126.833 98.1667,127.167 97.5,127.5C 98.1667,128.5 98.8333,129.5 99.5,130.5C 97.364,134.241 96.0307,138.241 95.5,142.5C 90.1938,128.608 85.1938,114.608 80.5,100.5C 81.4584,100.953 82.2917,101.619 83,102.5C 83.0442,100.24 82.2108,98.2403 80.5,96.5C 81.4246,95.4376 82.4246,95.4376 83.5,96.5C 86.7549,95.2343 89.7549,93.5676 92.5,91.5 Z"/></g>
<g><path style="opacity:1" fill="#bbbec3" d="M 99.5,65.5 C 100.319,68.3054 100.819,71.3054 101,74.5C 101.687,76.5547 102.854,78.2214 104.5,79.5C 105.168,76.6944 105.834,74.0277 106.5,71.5C 107.655,77.587 109.321,83.587 111.5,89.5C 110.335,90.4961 109.668,91.8295 109.5,93.5C 110.512,97.7566 111.846,101.757 113.5,105.5C 113.5,105.833 113.5,106.167 113.5,106.5C 114.01,110.813 113.343,114.813 111.5,118.5C 110.831,123.396 109.998,128.396 109,133.5C 107.908,135.117 106.408,136.117 104.5,136.5C 105.167,131.833 105.833,127.167 106.5,122.5C 107.64,112.577 107.807,102.577 107,92.5C 106.094,86.0309 103.594,80.3643 99.5,75.5C 99.5,72.1667 99.5,68.8333 99.5,65.5 Z"/></g>
<g><path style="opacity:1" fill="#808384" d="M 113.5,106.5 C 114.267,107.172 114.934,108.005 115.5,109C 114.446,110.388 114.28,111.888 115,113.5C 116.044,114.623 116.71,115.956 117,117.5C 117.333,117.167 117.667,116.833 118,116.5C 118.388,119.849 118.221,123.183 117.5,126.5C 116.859,127.482 116.193,128.482 115.5,129.5C 116.819,131.532 116.819,133.532 115.5,135.5C 113.771,134.047 112.771,132.047 112.5,129.5C 112.709,128.914 113.043,128.414 113.5,128C 111.656,125.196 110.989,122.03 111.5,118.5C 113.343,114.813 114.01,110.813 113.5,106.5 Z"/></g>
<g><path style="opacity:1" fill="#4f5e76" d="M 106.5,122.5 C 105.833,127.167 105.167,131.833 104.5,136.5C 103.542,138.302 102.875,140.302 102.5,142.5C 100.5,142.5 98.5,142.5 96.5,142.5C 98.4313,138.537 100.265,134.537 102,130.5C 101.578,133.098 101.578,135.764 102,138.5C 102.989,135.544 103.822,132.544 104.5,129.5C 104.57,127.334 103.904,127.001 102.5,128.5C 99.8674,127.218 99.8674,125.884 102.5,124.5C 101.157,122.216 101.824,121.383 104.5,122C 103.483,123.049 103.316,124.216 104,125.5C 104.377,124.058 105.21,123.058 106.5,122.5 Z"/></g>
<g><path style="opacity:1" fill="#a8a9a8" d="M 121.5,118.5 C 121.831,126.528 121.498,134.528 120.5,142.5C 119.833,137.015 119.167,131.681 118.5,126.5C 119.859,123.671 120.859,121.004 121.5,118.5 Z"/></g>
<g><path style="opacity:1" fill="#a8aaa8" d="M 111.5,118.5 C 110.989,122.03 111.656,125.196 113.5,128C 113.043,128.414 112.709,128.914 112.5,129.5C 112.771,132.047 113.771,134.047 115.5,135.5C 113.385,141.727 109.051,144.061 102.5,142.5C 102.875,140.302 103.542,138.302 104.5,136.5C 106.408,136.117 107.908,135.117 109,133.5C 109.998,128.396 110.831,123.396 111.5,118.5 Z"/></g>
</svg>
