<?xml version="1.0" encoding="UTF-8"?>
<!DOCTYPE svg PUBLIC "-//W3C//DTD SVG 1.1//EN" "http://www.w3.org/Graphics/SVG/1.1/DTD/svg11.dtd">
<svg xmlns="http://www.w3.org/2000/svg" version="1.1" width="166px" height="158px" style="shape-rendering:geometricPrecision; text-rendering:geometricPrecision; image-rendering:optimizeQuality; fill-rule:evenodd; clip-rule:evenodd" xmlns:xlink="http://www.w3.org/1999/xlink">
<g><path style="opacity:1" fill="#f4f4f4" d="M -0.5,-0.5 C 54.8333,-0.5 110.167,-0.5 165.5,-0.5C 165.5,52.1667 165.5,104.833 165.5,157.5C 110.167,157.5 54.8333,157.5 -0.5,157.5C -0.5,104.833 -0.5,52.1667 -0.5,-0.5 Z"/></g>
<g><path style="opacity:1" fill="#a9adaf" d="M 116.5,14.5 C 117.705,30.1977 117.705,45.8644 116.5,61.5C 110.52,63.0541 109.687,62.0541 114,58.5C 115.365,48.5566 115.865,38.5566 115.5,28.5C 114.209,28.2627 113.209,28.596 112.5,29.5C 110.952,29.8212 110.285,30.8212 110.5,32.5C 109.522,32.811 108.855,33.4777 108.5,34.5C 109.637,43.1182 109.804,51.7849 109,60.5C 108,59.5 107,58.5 106,57.5C 105.023,58.7736 104.189,58.7736 103.5,57.5C 100.965,43.8872 98.6322,30.2205 96.5,16.5C 93.1667,16.5 89.8333,16.5 86.5,16.5C 93.3894,15.7554 100.389,14.7554 107.5,13.5C 109.593,13.4858 111.426,14.1524 113,15.5C 114.011,14.6634 115.178,14.33 116.5,14.5 Z"/></g>
<g><path style="opacity:1" fill="#c6c8c5" d="M 112.5,29.5 C 114.014,39.1953 113.681,48.862 111.5,58.5C 110.502,49.8589 110.169,41.1922 110.5,32.5C 110.285,30.8212 110.952,29.8212 112.5,29.5 Z"/></g>
<g><path style="opacity:1" fill="#323235" d="M 116.5,14.5 C 119.204,18.6304 120.538,23.297 120.5,28.5C 120.185,38.0854 120.019,47.7521 120,57.5C 119.283,58.0442 118.783,58.7109 118.5,59.5C 118.573,61.0269 117.906,62.0269 116.5,62.5C 116.5,62.1667 116.5,61.8333 116.5,61.5C 117.705,45.8644 117.705,30.1977 116.5,14.5 Z"/></g>
<g><path style="opacity:1" fill="#3d3b2f" d="M 86.5,16.5 C 89.8333,16.5 93.1667,16.5 96.5,16.5C 98.6322,30.2205 100.965,43.8872 103.5,57.5C 102.539,59.2646 102.205,61.2646 102.5,63.5C 101.456,68.2741 98.9563,69.2741 95,66.5C 92.6003,67.0441 90.267,67.7108 88,68.5C 87.6667,65.8333 87.3333,63.1667 87,60.5C 86.6827,62.3008 86.016,62.6341 85,61.5C 84.5,62 84,62.5 83.5,63C 84.2638,65.0693 84.7638,67.236 85,69.5C 85.3333,69.1667 85.6667,68.8333 86,68.5C 86.3333,70.1667 86.6667,71.8333 87,73.5C 87.8928,72.2888 88.7261,72.2888 89.5,73.5C 87.9547,74.4519 86.288,74.7852 84.5,74.5C 84.1924,76.924 84.5258,79.2573 85.5,81.5C 86.2811,80.2713 86.7811,78.938 87,77.5C 87.3173,79.3008 87.984,79.6341 89,78.5C 89.9523,72.7367 91.2857,72.4034 93,77.5C 93.711,75.1009 93.5443,72.7676 92.5,70.5C 93.6888,69.5713 95.0222,69.238 96.5,69.5C 96.4526,75.8532 97.1192,76.0199 98.5,70C 99.8649,70.1433 101.198,70.6433 102.5,71.5C 102.989,72.9952 103.655,74.3285 104.5,75.5C 104.963,78.4824 105.296,81.4824 105.5,84.5C 104.698,85.9516 104.198,87.6183 104,89.5C 102.657,88.7865 101.324,89.1198 100,90.5C 99.5065,92.1341 99.3398,93.8008 99.5,95.5C 95.9438,95.7251 95.6105,94.8918 98.5,93C 98.3699,91.9412 97.8699,91.1079 97,90.5C 95.4152,91.3757 94.4152,92.7091 94,94.5C 93.1502,92.99 92.3169,91.49 91.5,90C 92.5061,88.662 93.5061,87.3287 94.5,86C 93.5,85.6667 92.5,85.3333 91.5,85C 92.8333,84 92.8333,83 91.5,82C 90.5165,81.4092 89.8499,81.7425 89.5,83C 90.3117,87.4884 89.4784,87.6551 87,83.5C 86.5172,84.448 86.3505,85.448 86.5,86.5C 84.8368,84.5073 83.6701,82.1739 83,79.5C 82.6667,73.8333 82.3333,68.1667 82,62.5C 81.79,60.9419 81.29,59.6085 80.5,58.5C 80.5,58.1667 80.5,57.8333 80.5,57.5C 81.6412,54.0524 83.9745,51.8857 87.5,51C 86.6705,49.1839 85.8372,47.3506 85,45.5C 85.2567,50.8416 84.2567,50.8416 82,45.5C 81.2496,44.8742 80.4162,44.3742 79.5,44C 79.8333,43.6667 80.1667,43.3333 80.5,43C 78.2202,39.0533 75.5535,35.3866 72.5,32C 69.8333,31.6667 67.1667,31.3333 64.5,31C 68.5114,30.8337 69.0114,30.0004 66,28.5C 65.51,27.2068 65.3433,25.8734 65.5,24.5C 65.4701,23.5028 65.9701,22.8361 67,22.5C 73.5637,20.589 80.0637,18.589 86.5,16.5 Z"/></g>
<g><path style="opacity:1" fill="#a2a4a7" d="M 75.5,23.5 C 80.4413,26.7529 83.7746,31.0863 85.5,36.5C 83.8008,36.6602 82.1341,36.4935 80.5,36C 82.158,35.2747 82.658,34.108 82,32.5C 79.59,29.6032 77.4233,26.6032 75.5,23.5 Z"/></g>
<g><path style="opacity:1" fill="#565347" d="M 65.5,24.5 C 65.3433,25.8734 65.51,27.2068 66,28.5C 69.0114,30.0004 68.5114,30.8337 64.5,31C 67.1667,31.3333 69.8333,31.6667 72.5,32C 75.5535,35.3866 78.2202,39.0533 80.5,43C 80.1667,43.3333 79.8333,43.6667 79.5,44C 80.4162,44.3742 81.2496,44.8742 82,45.5C 84.2567,50.8416 85.2567,50.8416 85,45.5C 85.8372,47.3506 86.6705,49.1839 87.5,51C 83.9745,51.8857 81.6412,54.0524 80.5,57.5C 78.5395,54.368 76.8728,51.0347 75.5,47.5C 77.5685,40.8052 75.2352,36.3052 68.5,34C 67.2506,33.2599 66.2506,33.4265 65.5,34.5C 63.7538,33.7505 62.7538,32.4172 62.5,30.5C 63.5118,28.4371 64.5118,26.4371 65.5,24.5 Z"/></g>
<g><path style="opacity:1" fill="#585a5c" d="M 67.5,54.5 C 65.8333,54.5 64.1667,54.5 62.5,54.5C 63.5067,63.0203 65.8401,63.5203 69.5,56C 68.944,55.6174 68.6107,55.1174 68.5,54.5C 69.1667,54.5 69.8333,54.5 70.5,54.5C 71.4367,57.8927 70.77,61.0594 68.5,64C 68.9504,65.2853 69.6171,66.452 70.5,67.5C 70.2907,68.086 69.9574,68.586 69.5,69C 71.359,69.6839 73.0257,70.6839 74.5,72C 74.2716,72.3988 73.9382,72.5654 73.5,72.5C 71.3549,73.9885 69.0215,74.9885 66.5,75.5C 66.8174,72.4281 66.4841,69.4281 65.5,66.5C 64.8333,66.8333 64.1667,67.1667 63.5,67.5C 62.8281,66.0508 62.1614,64.7175 61.5,63.5C 60.0484,62.6981 58.3817,62.1981 56.5,62C 53.5601,57.5408 54.8934,54.8742 60.5,54C 63.0385,53.2042 65.3718,53.3709 67.5,54.5 Z"/></g>
<g><path style="opacity:1" fill="#303033" d="M 67.5,54.5 C 67.8333,54.5 68.1667,54.5 68.5,54.5C 68.6107,55.1174 68.944,55.6174 69.5,56C 65.8401,63.5203 63.5067,63.0203 62.5,54.5C 64.1667,54.5 65.8333,54.5 67.5,54.5 Z"/></g>
<g><path style="opacity:1" fill="#413f44" d="M 65.5,34.5 C 66.2506,33.4265 67.2506,33.2599 68.5,34C 75.2352,36.3052 77.5685,40.8052 75.5,47.5C 76.8728,51.0347 78.5395,54.368 80.5,57.5C 80.5,57.8333 80.5,58.1667 80.5,58.5C 81.1337,64.4964 81.3003,70.4964 81,76.5C 79.6054,75.1854 78.6054,75.5188 78,77.5C 76.5315,76.0107 75.0315,74.6774 73.5,73.5C 73.5,73.1667 73.5,72.8333 73.5,72.5C 73.9382,72.5654 74.2716,72.3988 74.5,72C 73.0257,70.6839 71.359,69.6839 69.5,69C 69.9574,68.586 70.2907,68.086 70.5,67.5C 69.6171,66.452 68.9504,65.2853 68.5,64C 70.77,61.0594 71.4367,57.8927 70.5,54.5C 77.3375,45.4546 75.6708,38.788 65.5,34.5 Z"/></g>
<g><path style="opacity:1" fill="#eeeeee" d="M 118.5,59.5 C 119.833,66.5 119.833,73.5 118.5,80.5C 117.108,77.9933 116.108,75.3267 115.5,72.5C 115.46,69.1194 115.793,65.7861 116.5,62.5C 117.906,62.0269 118.573,61.0269 118.5,59.5 Z"/></g>
<g><path style="opacity:1" fill="#96999a" d="M 116.5,61.5 C 116.5,61.8333 116.5,62.1667 116.5,62.5C 115.793,65.7861 115.46,69.1194 115.5,72.5C 114.903,72.7352 114.57,73.2352 114.5,74C 115.409,76.8946 116.409,79.7279 117.5,82.5C 115.125,81.1225 113.459,79.1225 112.5,76.5C 111.816,71.7924 110.982,67.1258 110,62.5C 105.164,65.3398 103.331,69.6732 104.5,75.5C 103.655,74.3285 102.989,72.9952 102.5,71.5C 102.5,68.8333 102.5,66.1667 102.5,63.5C 102.205,61.2646 102.539,59.2646 103.5,57.5C 104.189,58.7736 105.023,58.7736 106,57.5C 107,58.5 108,59.5 109,60.5C 109.804,51.7849 109.637,43.1182 108.5,34.5C 108.855,33.4777 109.522,32.811 110.5,32.5C 110.169,41.1922 110.502,49.8589 111.5,58.5C 113.681,48.862 114.014,39.1953 112.5,29.5C 113.209,28.596 114.209,28.2627 115.5,28.5C 115.865,38.5566 115.365,48.5566 114,58.5C 109.687,62.0541 110.52,63.0541 116.5,61.5 Z"/></g>
<g><path style="opacity:1" fill="#879e97" d="M 61.5,63.5 C 62.1614,64.7175 62.8281,66.0508 63.5,67.5C 64.1667,67.1667 64.8333,66.8333 65.5,66.5C 66.4841,69.4281 66.8174,72.4281 66.5,75.5C 69.0215,74.9885 71.3549,73.9885 73.5,72.5C 73.5,72.8333 73.5,73.1667 73.5,73.5C 74.8854,76.3511 74.2187,78.6844 71.5,80.5C 71.685,81.5837 72.0183,82.5837 72.5,83.5C 71.1779,83.67 70.0113,83.3366 69,82.5C 69.379,80.925 69.2123,79.425 68.5,78C 66.8988,77.7266 65.3988,77.2266 64,76.5C 62.7745,72.6052 61.2745,68.7719 59.5,65C 59.8361,63.9701 60.5028,63.4701 61.5,63.5 Z"/></g>
<g><path style="opacity:1" fill="#4f4d41" d="M 102.5,63.5 C 102.5,66.1667 102.5,68.8333 102.5,71.5C 101.198,70.6433 99.8649,70.1433 98.5,70C 97.1192,76.0199 96.4526,75.8532 96.5,69.5C 95.0222,69.238 93.6888,69.5713 92.5,70.5C 93.5443,72.7676 93.711,75.1009 93,77.5C 91.2857,72.4034 89.9523,72.7367 89,78.5C 87.984,79.6341 87.3173,79.3008 87,77.5C 86.7811,78.938 86.2811,80.2713 85.5,81.5C 84.5258,79.2573 84.1924,76.924 84.5,74.5C 86.288,74.7852 87.9547,74.4519 89.5,73.5C 88.7261,72.2888 87.8928,72.2888 87,73.5C 86.6667,71.8333 86.3333,70.1667 86,68.5C 85.6667,68.8333 85.3333,69.1667 85,69.5C 84.7638,67.236 84.2638,65.0693 83.5,63C 84,62.5 84.5,62 85,61.5C 86.016,62.6341 86.6827,62.3008 87,60.5C 87.3333,63.1667 87.6667,65.8333 88,68.5C 90.267,67.7108 92.6003,67.0441 95,66.5C 98.9563,69.2741 101.456,68.2741 102.5,63.5 Z"/></g>
<g><path style="opacity:1" fill="#b4b4b4" d="M 120.5,28.5 C 121.087,46.3547 121.42,64.3547 121.5,82.5C 119.973,82.573 118.973,81.9063 118.5,80.5C 119.833,73.5 119.833,66.5 118.5,59.5C 118.783,58.7109 119.283,58.0442 120,57.5C 120.019,47.7521 120.185,38.0854 120.5,28.5 Z"/></g>
<g><path style="opacity:1" fill="#38383c" d="M 115.5,72.5 C 116.108,75.3267 117.108,77.9933 118.5,80.5C 118.973,81.9063 119.973,82.573 121.5,82.5C 121.5,84.5 121.5,86.5 121.5,88.5C 121.806,98.2496 121.473,107.916 120.5,117.5C 116.965,119.39 116.631,121.89 119.5,125C 119.361,126.301 118.695,127.134 117.5,127.5C 116.683,125.169 116.016,122.669 115.5,120C 117.576,118.756 118.576,116.923 118.5,114.5C 119.582,113.406 120.248,112.073 120.5,110.5C 119.837,107.019 118.837,103.686 117.5,100.5C 117.5,99.8333 117.833,99.5 118.5,99.5C 119.163,97.5274 119.496,95.3608 119.5,93C 119.672,89.5226 119.006,86.356 117.5,83.5C 117.5,83.1667 117.5,82.8333 117.5,82.5C 116.409,79.7279 115.409,76.8946 114.5,74C 114.57,73.2352 114.903,72.7352 115.5,72.5 Z"/></g>
<g><path style="opacity:1" fill="#828383" d="M 117.5,83.5 C 119.006,86.356 119.672,89.5226 119.5,93C 119.496,95.3608 119.163,97.5274 118.5,99.5C 118.631,98.7611 118.464,98.0944 118,97.5C 116.817,98.731 115.651,98.731 114.5,97.5C 113.4,93.5575 113.233,89.5575 114,85.5C 115,84.1667 116,84.1667 117,85.5C 117.464,84.9056 117.631,84.2389 117.5,83.5 Z"/></g>
<g><path style="opacity:1" fill="#7f978e" d="M 89.5,113.5 C 85.2065,108.674 81.3731,103.341 78,97.5C 75.865,92.9053 74.0316,88.2386 72.5,83.5C 74.0936,83.0805 75.5936,82.4138 77,81.5C 80.0957,83.3057 80.0957,84.9723 77,86.5C 76.3333,87.5 76.3333,88.5 77,89.5C 78.8886,90.0974 80.7219,90.4307 82.5,90.5C 83.6769,92.8735 83.0102,94.7069 80.5,96C 81.7115,98.2822 83.3781,98.7822 85.5,97.5C 86.2716,100.135 86.4382,102.801 86,105.5C 88.1233,105.966 89.6233,107.133 90.5,109C 89.8524,110.44 89.5191,111.94 89.5,113.5 Z"/></g>
<g><path style="opacity:1" fill="#4d4b3e" d="M 105.5,84.5 C 106.569,93.5187 107.903,102.519 109.5,111.5C 108.71,110.391 108.21,109.058 108,107.5C 106.086,113.546 104.086,119.213 102,124.5C 101.147,122.875 100.147,122.542 99,123.5C 98.5045,121.527 98.3379,119.527 98.5,117.5C 98.5875,114.402 98.0875,114.068 97,116.5C 95.6337,105.677 92.1337,95.6769 86.5,86.5C 86.3505,85.448 86.5172,84.448 87,83.5C 89.4784,87.6551 90.3117,87.4884 89.5,83C 89.8499,81.7425 90.5165,81.4092 91.5,82C 92.8333,83 92.8333,84 91.5,85C 92.5,85.3333 93.5,85.6667 94.5,86C 93.5061,87.3287 92.5061,88.662 91.5,90C 92.3169,91.49 93.1502,92.99 94,94.5C 94.4152,92.7091 95.4152,91.3757 97,90.5C 97.8699,91.1079 98.3699,91.9412 98.5,93C 95.6105,94.8918 95.9438,95.7251 99.5,95.5C 99.3398,93.8008 99.5065,92.1341 100,90.5C 101.324,89.1198 102.657,88.7865 104,89.5C 104.198,87.6183 104.698,85.9516 105.5,84.5 Z"/></g>
<g><path style="opacity:1" fill="#4b484a" d="M 80.5,58.5 C 81.29,59.6085 81.79,60.9419 82,62.5C 82.3333,68.1667 82.6667,73.8333 83,79.5C 83.6701,82.1739 84.8368,84.5073 86.5,86.5C 92.1337,95.6769 95.6337,105.677 97,116.5C 98.0875,114.068 98.5875,114.402 98.5,117.5C 97.3475,123.319 97.1808,129.319 98,135.5C 99.1268,132.623 99.7935,129.623 100,126.5C 102.293,131.741 101.46,136.407 97.5,140.5C 95.0066,131.542 92.34,122.542 89.5,113.5C 89.5191,111.94 89.8524,110.44 90.5,109C 89.6233,107.133 88.1233,105.966 86,105.5C 86.4382,102.801 86.2716,100.135 85.5,97.5C 83.3781,98.7822 81.7115,98.2822 80.5,96C 83.0102,94.7069 83.6769,92.8735 82.5,90.5C 80.7219,90.4307 78.8886,90.0974 77,89.5C 76.3333,88.5 76.3333,87.5 77,86.5C 80.0957,84.9723 80.0957,83.3057 77,81.5C 75.5936,82.4138 74.0936,83.0805 72.5,83.5C 72.0183,82.5837 71.685,81.5837 71.5,80.5C 74.2187,78.6844 74.8854,76.3511 73.5,73.5C 75.0315,74.6774 76.5315,76.0107 78,77.5C 78.6054,75.5188 79.6054,75.1854 81,76.5C 81.3003,70.4964 81.1337,64.4964 80.5,58.5 Z"/></g>
<g><path style="opacity:1" fill="#7c7e7f" d="M 117.5,100.5 C 118.837,103.686 119.837,107.019 120.5,110.5C 120.248,112.073 119.582,113.406 118.5,114.5C 114.337,117.38 112.67,116.046 113.5,110.5C 113.667,108.833 113.833,107.167 114,105.5C 115.626,104.045 116.792,102.378 117.5,100.5 Z"/></g>
<g><path style="opacity:1" fill="#a6a9ac" d="M 117.5,82.5 C 117.5,82.8333 117.5,83.1667 117.5,83.5C 117.631,84.2389 117.464,84.9056 117,85.5C 116,84.1667 115,84.1667 114,85.5C 113.233,89.5575 113.4,93.5575 114.5,97.5C 115.651,98.731 116.817,98.731 118,97.5C 118.464,98.0944 118.631,98.7611 118.5,99.5C 117.833,99.5 117.5,99.8333 117.5,100.5C 116.792,102.378 115.626,104.045 114,105.5C 113.833,107.167 113.667,108.833 113.5,110.5C 112.67,116.046 114.337,117.38 118.5,114.5C 118.576,116.923 117.576,118.756 115.5,120C 116.016,122.669 116.683,125.169 117.5,127.5C 117.5,127.833 117.5,128.167 117.5,128.5C 114.834,129.509 114.167,131.176 115.5,133.5C 115.737,134.791 115.404,135.791 114.5,136.5C 114.631,135.761 114.464,135.094 114,134.5C 112.999,137.173 111.499,139.507 109.5,141.5C 109.167,141 108.833,140.5 108.5,140C 110.821,130.59 111.154,121.09 109.5,111.5C 107.903,102.519 106.569,93.5187 105.5,84.5C 105.296,81.4824 104.963,78.4824 104.5,75.5C 103.331,69.6732 105.164,65.3398 110,62.5C 110.982,67.1258 111.816,71.7924 112.5,76.5C 113.459,79.1225 115.125,81.1225 117.5,82.5 Z"/></g>
<g><path style="opacity:1" fill="#3f3d32" d="M 109.5,111.5 C 111.154,121.09 110.821,130.59 108.5,140C 108.833,140.5 109.167,141 109.5,141.5C 111.499,139.507 112.999,137.173 114,134.5C 114.464,135.094 114.631,135.761 114.5,136.5C 113.419,138.764 112.085,140.931 110.5,143C 106.833,143.667 103.167,143.667 99.5,143C 98.6195,142.292 97.9528,141.458 97.5,140.5C 101.46,136.407 102.293,131.741 100,126.5C 99.7935,129.623 99.1268,132.623 98,135.5C 97.1808,129.319 97.3475,123.319 98.5,117.5C 98.3379,119.527 98.5045,121.527 99,123.5C 100.147,122.542 101.147,122.875 102,124.5C 104.086,119.213 106.086,113.546 108,107.5C 108.21,109.058 108.71,110.391 109.5,111.5 Z"/></g>
<g><path style="opacity:1" fill="#d4d4d4" d="M 121.5,88.5 C 122.804,107.018 122.638,125.685 121,144.5C 120.5,135.506 120.334,126.506 120.5,117.5C 121.473,107.916 121.806,98.2496 121.5,88.5 Z"/></g>
<g><path style="opacity:1" fill="#49494e" d="M 117.5,128.5 C 117.598,130.553 116.931,132.22 115.5,133.5C 114.167,131.176 114.834,129.509 117.5,128.5 Z"/></g>
</svg>
