<?xml version="1.0" encoding="UTF-8"?>
<!DOCTYPE svg PUBLIC "-//W3C//DTD SVG 1.1//EN" "http://www.w3.org/Graphics/SVG/1.1/DTD/svg11.dtd">
<svg xmlns="http://www.w3.org/2000/svg" version="1.1" width="166px" height="158px" style="shape-rendering:geometricPrecision; text-rendering:geometricPrecision; image-rendering:optimizeQuality; fill-rule:evenodd; clip-rule:evenodd" xmlns:xlink="http://www.w3.org/1999/xlink">
<g><path style="opacity:1" fill="#f5f5f5" d="M -0.5,-0.5 C 54.8333,-0.5 110.167,-0.5 165.5,-0.5C 165.5,52.1667 165.5,104.833 165.5,157.5C 110.167,157.5 54.8333,157.5 -0.5,157.5C -0.5,104.833 -0.5,52.1667 -0.5,-0.5 Z"/></g>
<g><path style="opacity:1" fill="#e4bdce" d="M 110.5,14.5 C 110.38,16.7345 110.713,18.9011 111.5,21C 109.838,22.099 109.172,23.2656 109.5,24.5C 108.5,24.5 107.5,24.5 106.5,24.5C 106.5,22.5 106.5,20.5 106.5,18.5C 105.552,17.0221 104.219,16.0221 102.5,15.5C 105.167,15.1667 107.833,14.8333 110.5,14.5 Z"/></g>
<g><path style="opacity:1" fill="#dd6fa7" d="M 106.5,18.5 C 106.5,20.5 106.5,22.5 106.5,24.5C 107.5,24.5 108.5,24.5 109.5,24.5C 109.5,25.8333 109.5,27.1667 109.5,28.5C 108.842,27.6016 108.176,26.6016 107.5,25.5C 106.526,27.7427 106.192,30.076 106.5,32.5C 105.357,32.9081 104.357,33.5748 103.5,34.5C 102.738,38.1111 102.238,41.7778 102,45.5C 101.667,44.8333 101.333,44.1667 101,43.5C 100.626,45.4913 99.793,47.158 98.5,48.5C 97.8333,48.5 97.1667,48.5 96.5,48.5C 97.3195,46.1877 98.1529,43.8543 99,41.5C 99.5222,33.7942 99.5222,26.1275 99,18.5C 101.354,18.1084 103.854,18.1084 106.5,18.5 Z"/></g>
<g><path style="opacity:1" fill="#d87ca2" d="M 116.5,17.5 C 117.537,18.9303 118.204,20.597 118.5,22.5C 118.833,23.8333 119.167,25.1667 119.5,26.5C 118.379,28.9542 117.546,31.6209 117,34.5C 115.734,31.5338 114.567,28.5338 113.5,25.5C 112.702,25.9569 112.369,26.6236 112.5,27.5C 111.402,26.3991 111.235,25.0657 112,23.5C 114.163,21.8587 115.663,19.8587 116.5,17.5 Z"/></g>
<g><path style="opacity:1" fill="#ef99c0" d="M 67.5,24.5 C 67.8212,26.0481 68.8212,26.7148 70.5,26.5C 70.615,28.9468 71.615,30.9468 73.5,32.5C 70.9104,32.0818 68.5771,31.0818 66.5,29.5C 65.2054,30.0983 63.8721,30.5983 62.5,31C 63.2524,31.6708 63.5858,32.5041 63.5,33.5C 61.2901,32.5449 60.9568,31.0449 62.5,29C 60.8925,29.0187 59.2259,29.1854 57.5,29.5C 54.1244,32.3834 51.4577,31.7167 49.5,27.5C 49.9767,26.5224 50.6433,25.6891 51.5,25C 56.874,25.3671 62.2073,25.2004 67.5,24.5 Z"/></g>
<g><path style="opacity:1" fill="#f6f0f3" d="M 57.5,29.5 C 55.5,29.5 53.5,29.5 51.5,29.5C 51.0772,26.7569 52.2439,25.4235 55,25.5C 57.1846,25.9212 59.3513,26.4212 61.5,27C 59.9336,27.6082 58.6002,28.4415 57.5,29.5 Z"/></g>
<g><path style="opacity:1" fill="#ec75a8" d="M 85.5,18.5 C 81.483,22.0077 76.8164,24.1744 71.5,25C 72.6184,26.0736 73.6184,27.2402 74.5,28.5C 75.15,24.9794 76.9834,23.9794 80,25.5C 80.2202,30.3707 81.0535,35.0374 82.5,39.5C 81.6491,37.2903 80.3157,35.2903 78.5,33.5C 77.8302,35.2914 77.1635,36.9581 76.5,38.5C 76.9689,35.6067 75.9689,33.6067 73.5,32.5C 71.615,30.9468 70.615,28.9468 70.5,26.5C 68.8212,26.7148 67.8212,26.0481 67.5,24.5C 69.3083,23.0927 71.3083,21.926 73.5,21C 77.6947,20.6683 81.6947,19.835 85.5,18.5 Z"/></g>
<g><path style="opacity:1" fill="#ed9fc9" d="M 102.5,15.5 C 104.219,16.0221 105.552,17.0221 106.5,18.5C 103.854,18.1084 101.354,18.1084 99,18.5C 99.5222,26.1275 99.5222,33.7942 99,41.5C 98.1529,43.8543 97.3195,46.1877 96.5,48.5C 96.1667,48.5 95.8333,48.5 95.5,48.5C 98.9245,39.5755 99.2578,30.5755 96.5,21.5C 95.4884,20.1283 94.4884,18.795 93.5,17.5C 93.6107,16.8826 93.944,16.3826 94.5,16C 97.146,15.5026 99.8127,15.3359 102.5,15.5 Z"/></g>
<g><path style="opacity:1" fill="#db98b2" d="M 110.5,14.5 C 112.199,14.3398 113.866,14.5065 115.5,15C 116.252,15.6708 116.586,16.5041 116.5,17.5C 115.663,19.8587 114.163,21.8587 112,23.5C 111.235,25.0657 111.402,26.3991 112.5,27.5C 112.927,31.8244 113.261,36.1578 113.5,40.5C 115.092,46.6235 114.759,52.6235 112.5,58.5C 111.833,54.0178 111.166,49.6845 110.5,45.5C 110.822,39.642 110.489,33.9753 109.5,28.5C 109.5,27.1667 109.5,25.8333 109.5,24.5C 109.172,23.2656 109.838,22.099 111.5,21C 110.713,18.9011 110.38,16.7345 110.5,14.5 Z"/></g>
<g><path style="opacity:1" fill="#e14c88" d="M 93.5,17.5 C 94.4884,18.795 95.4884,20.1283 96.5,21.5C 92.6947,22.835 88.6947,23.6683 84.5,24C 85.3734,25.045 86.3734,25.8783 87.5,26.5C 87.5,29.5 87.5,32.5 87.5,35.5C 86.5,35.5 85.5,35.5 84.5,35.5C 84.7709,37.3797 84.1042,38.713 82.5,39.5C 81.0535,35.0374 80.2202,30.3707 80,25.5C 76.9834,23.9794 75.15,24.9794 74.5,28.5C 73.6184,27.2402 72.6184,26.0736 71.5,25C 76.8164,24.1744 81.483,22.0077 85.5,18.5C 88.2372,18.5987 90.9039,18.2653 93.5,17.5 Z"/></g>
<g><path style="opacity:1" fill="#e94e90" d="M 73.5,32.5 C 75.9354,38.0888 75.9354,43.7555 73.5,49.5C 72.596,48.791 72.2627,47.791 72.5,46.5C 76.097,37.4447 73.097,33.1114 63.5,33.5C 63.5858,32.5041 63.2524,31.6708 62.5,31C 63.8721,30.5983 65.2054,30.0983 66.5,29.5C 68.5771,31.0818 70.9104,32.0818 73.5,32.5 Z"/></g>
<g><path style="opacity:1" fill="#dd3b7c" d="M 87.5,26.5 C 90.0735,27.8793 91.5735,29.8793 92,32.5C 91,31.5 90,30.5 89,29.5C 89.3483,33.9883 87.8483,37.6549 84.5,40.5C 86.6364,41.8517 86.9698,43.5183 85.5,45.5C 86.6507,46.731 87.8173,46.731 89,45.5C 90.1871,47.0444 90.5205,48.7111 90,50.5C 89.6667,50.1667 89.3333,49.8333 89,49.5C 88.0881,52.5857 86.9214,55.5857 85.5,58.5C 87.3845,59.1973 87.7178,60.1973 86.5,61.5C 88.1083,62.3184 89.7749,62.9851 91.5,63.5C 92.1972,68.0767 92.1972,72.0767 91.5,75.5C 94.2955,78.4702 96.9621,81.6369 99.5,85C 95.5,86 95.5,87 99.5,88C 98.6266,89.045 97.6266,89.8783 96.5,90.5C 96.1667,90.5 95.8333,90.5 95.5,90.5C 95.1667,90.5 94.8333,90.5 94.5,90.5C 94.9175,89.7784 95.5842,89.2784 96.5,89C 93.6428,87.3733 90.6428,86.2067 87.5,85.5C 87.5,85.1667 87.5,84.8333 87.5,84.5C 87.6633,82.1432 87.4966,79.8098 87,77.5C 86.3457,78.6956 85.8457,78.6956 85.5,77.5C 86.1667,76.8333 86.8333,76.1667 87.5,75.5C 85.7103,75.2889 84.0437,75.2889 82.5,75.5C 83.1667,72.1667 83.8333,68.8333 84.5,65.5C 81.972,64.4826 81.972,63.3159 84.5,62C 82.8654,61.4604 81.5321,61.9604 80.5,63.5C 79.7022,61.9223 79.2022,60.2556 79,58.5C 77.5693,60.3635 76.4026,62.3635 75.5,64.5C 76.9082,58.3144 79.5748,52.3144 83.5,46.5C 82.675,45.6143 81.675,45.281 80.5,45.5C 80.7529,47.8273 80.0863,49.8273 78.5,51.5C 78.1667,51 77.8333,50.5 77.5,50C 78.7445,46.6856 78.7445,43.519 77.5,40.5C 77.1667,39.8333 76.8333,39.1667 76.5,38.5C 77.1635,36.9581 77.8302,35.2914 78.5,33.5C 80.3157,35.2903 81.6491,37.2903 82.5,39.5C 84.1042,38.713 84.7709,37.3797 84.5,35.5C 85.5,35.5 86.5,35.5 87.5,35.5C 87.5,32.5 87.5,29.5 87.5,26.5 Z"/></g>
<g><path style="opacity:1" fill="#cc658d" d="M 119.5,26.5 C 120.114,30.1352 120.448,33.8019 120.5,37.5C 118.744,38.5521 118.077,40.2188 118.5,42.5C 117.527,42.0133 116.527,41.5133 115.5,41C 116.731,39.8173 116.731,38.6507 115.5,37.5C 114.824,38.6016 114.158,39.6016 113.5,40.5C 113.261,36.1578 112.927,31.8244 112.5,27.5C 112.369,26.6236 112.702,25.9569 113.5,25.5C 114.567,28.5338 115.734,31.5338 117,34.5C 117.546,31.6209 118.379,28.9542 119.5,26.5 Z"/></g>
<g><path style="opacity:1" fill="#a8999e" d="M 121.5,48.5 C 120.566,47.4324 120.232,46.099 120.5,44.5C 120.5,42.1667 120.5,39.8333 120.5,37.5C 120.448,33.8019 120.114,30.1352 119.5,26.5C 119.167,25.1667 118.833,23.8333 118.5,22.5C 119.302,21.0484 119.802,19.3817 120,17.5C 121.399,27.7683 121.899,38.1017 121.5,48.5 Z"/></g>
<g><path style="opacity:1" fill="#d62163" d="M 96.5,21.5 C 99.2578,30.5755 98.9245,39.5755 95.5,48.5C 92.9544,51.7988 92.9544,55.1322 95.5,58.5C 95.7497,60.674 96.7497,62.3406 98.5,63.5C 97.4295,70.6875 99.2628,77.0209 104,82.5C 104.901,85.5196 105.734,88.5196 106.5,91.5C 106.5,97.5 106.5,103.5 106.5,109.5C 105.833,109.167 105.167,108.833 104.5,108.5C 103.284,106.549 101.618,105.049 99.5,104C 102.657,102.333 102.824,100.833 100,99.5C 99.8826,96.0365 98.7159,93.0365 96.5,90.5C 97.6266,89.8783 98.6266,89.045 99.5,88C 95.5,87 95.5,86 99.5,85C 96.9621,81.6369 94.2955,78.4702 91.5,75.5C 92.1972,72.0767 92.1972,68.0767 91.5,63.5C 89.7749,62.9851 88.1083,62.3184 86.5,61.5C 87.7178,60.1973 87.3845,59.1973 85.5,58.5C 86.9214,55.5857 88.0881,52.5857 89,49.5C 89.3333,49.8333 89.6667,50.1667 90,50.5C 90.5205,48.7111 90.1871,47.0444 89,45.5C 87.8173,46.731 86.6507,46.731 85.5,45.5C 86.9698,43.5183 86.6364,41.8517 84.5,40.5C 87.8483,37.6549 89.3483,33.9883 89,29.5C 90,30.5 91,31.5 92,32.5C 91.5735,29.8793 90.0735,27.8793 87.5,26.5C 86.3734,25.8783 85.3734,25.045 84.5,24C 88.6947,23.6683 92.6947,22.835 96.5,21.5 Z"/></g>
<g><path style="opacity:1" fill="#6b6266" d="M 120.5,37.5 C 120.5,39.8333 120.5,42.1667 120.5,44.5C 119.5,44.1667 118.833,43.5 118.5,42.5C 118.077,40.2188 118.744,38.5521 120.5,37.5 Z"/></g>
<g><path style="opacity:1" fill="#cf508e" d="M 106.5,32.5 C 106.5,41.5 106.5,50.5 106.5,59.5C 101.645,57.4673 98.9783,53.8006 98.5,48.5C 99.793,47.158 100.626,45.4913 101,43.5C 101.333,44.1667 101.667,44.8333 102,45.5C 102.238,41.7778 102.738,38.1111 103.5,34.5C 104.357,33.5748 105.357,32.9081 106.5,32.5 Z"/></g>
<g><path style="opacity:1" fill="#e782b1" d="M 95.5,48.5 C 95.5,51.8333 95.5,55.1667 95.5,58.5C 92.9544,55.1322 92.9544,51.7988 95.5,48.5 Z"/></g>
<g><path style="opacity:1" fill="#e33f80" d="M 67.5,56.5 C 67.719,57.675 67.3857,58.675 66.5,59.5C 65.4822,58.8075 64.4822,58.1408 63.5,57.5C 61.3311,55.6597 59.9977,53.3263 59.5,50.5C 59.8966,49.475 60.5632,49.3083 61.5,50C 62.9984,52.6637 64.9984,54.8304 67.5,56.5 Z"/></g>
<g><path style="opacity:1" fill="#b85075" d="M 110.5,45.5 C 111.166,49.6845 111.833,54.0178 112.5,58.5C 114.759,52.6235 115.092,46.6235 113.5,40.5C 114.158,39.6016 114.824,38.6016 115.5,37.5C 116.731,38.6507 116.731,39.8173 115.5,41C 116.527,41.5133 117.527,42.0133 118.5,42.5C 118.833,43.5 119.5,44.1667 120.5,44.5C 120.232,46.099 120.566,47.4324 121.5,48.5C 121.5,48.8333 121.5,49.1667 121.5,49.5C 121.023,53.6205 120.023,57.6205 118.5,61.5C 118.167,61.5 117.833,61.5 117.5,61.5C 115.958,62.3007 114.292,62.634 112.5,62.5C 112.715,60.8212 112.048,59.8212 110.5,59.5C 109.805,56.4326 108.805,53.4326 107.5,50.5C 108.279,45.8867 108.779,41.22 109,36.5C 109.181,39.6946 109.681,42.6946 110.5,45.5 Z"/></g>
<g><path style="opacity:1" fill="#ef74b1" d="M 72.5,46.5 C 72.2627,47.791 72.596,48.791 73.5,49.5C 71.2938,55.8951 68.6271,61.8951 65.5,67.5C 65.3573,65.7376 65.6906,64.0709 66.5,62.5C 64.7221,61.2742 63.7221,59.6075 63.5,57.5C 64.4822,58.1408 65.4822,58.8075 66.5,59.5C 67.3857,58.675 67.719,57.675 67.5,56.5C 69.7587,53.4737 71.4254,50.1403 72.5,46.5 Z"/></g>
<g><path style="opacity:1" fill="#d43d78" d="M 95.5,48.5 C 95.8333,48.5 96.1667,48.5 96.5,48.5C 97.1667,48.5 97.8333,48.5 98.5,48.5C 98.9783,53.8006 101.645,57.4673 106.5,59.5C 107.727,61.3199 108.727,63.3199 109.5,65.5C 109.66,67.3545 108.993,68.6879 107.5,69.5C 106.532,71.6074 106.198,73.9407 106.5,76.5C 104.799,76.9662 103.299,76.9662 102,76.5C 101.667,72.1667 101.333,67.8333 101,63.5C 100.23,64.5981 99.397,64.5981 98.5,63.5C 96.7497,62.3406 95.7497,60.674 95.5,58.5C 95.5,55.1667 95.5,51.8333 95.5,48.5 Z"/></g>
<g><path style="opacity:1" fill="#f79ac8" d="M 73.5,32.5 C 75.9689,33.6067 76.9689,35.6067 76.5,38.5C 76.8333,39.1667 77.1667,39.8333 77.5,40.5C 77.5169,48.769 75.5169,56.4356 71.5,63.5C 70.6236,63.3691 69.9569,63.7025 69.5,64.5C 68.3873,67.4433 67.054,70.2767 65.5,73C 66.4235,74.8114 67.2569,74.6447 68,72.5C 68.4169,73.756 69.2502,74.4226 70.5,74.5C 70.2606,76.4672 70.5939,78.3005 71.5,80C 70.5842,80.2784 69.9175,80.7784 69.5,81.5C 68.2336,78.5704 66.567,75.9037 64.5,73.5C 64.8333,71.5 65.1667,69.5 65.5,67.5C 68.6271,61.8951 71.2938,55.8951 73.5,49.5C 75.9354,43.7555 75.9354,38.0888 73.5,32.5 Z"/></g>
<g><path style="opacity:1" fill="#f069a6" d="M 77.5,40.5 C 78.7445,43.519 78.7445,46.6856 77.5,50C 77.8333,50.5 78.1667,51 78.5,51.5C 80.0863,49.8273 80.7529,47.8273 80.5,45.5C 81.675,45.281 82.675,45.6143 83.5,46.5C 79.5748,52.3144 76.9082,58.3144 75.5,64.5C 75.1667,65.5 74.5,66.1667 73.5,66.5C 73.0679,65.2905 72.4013,64.2905 71.5,63.5C 75.5169,56.4356 77.5169,48.769 77.5,40.5 Z"/></g>
<g><path style="opacity:1" fill="#cf8ea4" d="M 110.5,59.5 C 112.048,59.8212 112.715,60.8212 112.5,62.5C 114.292,62.634 115.958,62.3007 117.5,61.5C 116.614,65.037 114.281,66.7037 110.5,66.5C 110.5,64.1667 110.5,61.8333 110.5,59.5 Z"/></g>
<g><path style="opacity:1" fill="#eae2e4" d="M 117.5,61.5 C 117.833,61.5 118.167,61.5 118.5,61.5C 118.5,64.5 118.5,67.5 118.5,70.5C 117.5,70.5 116.5,70.5 115.5,70.5C 114.432,69.5655 113.099,69.2322 111.5,69.5C 110.596,68.791 110.263,67.791 110.5,66.5C 114.281,66.7037 116.614,65.037 117.5,61.5 Z"/></g>
<g><path style="opacity:1" fill="#f8b1d5" d="M 59.5,50.5 C 59.9977,53.3263 61.3311,55.6597 63.5,57.5C 63.7221,59.6075 64.7221,61.2742 66.5,62.5C 65.6906,64.0709 65.3573,65.7376 65.5,67.5C 65.1667,69.5 64.8333,71.5 64.5,73.5C 61.8155,67.1207 59.4822,60.454 57.5,53.5C 57.4534,51.9623 58.1201,50.9623 59.5,50.5 Z"/></g>
<g><path style="opacity:1" fill="#de3f7c" d="M 71.5,63.5 C 72.4013,64.2905 73.0679,65.2905 73.5,66.5C 69.7263,68.1564 68.7263,70.823 70.5,74.5C 69.2502,74.4226 68.4169,73.756 68,72.5C 67.2569,74.6447 66.4235,74.8114 65.5,73C 67.054,70.2767 68.3873,67.4433 69.5,64.5C 69.9569,63.7025 70.6236,63.3691 71.5,63.5 Z"/></g>
<g><path style="opacity:1" fill="#797376" d="M 121.5,49.5 C 121.5,57.1667 121.5,64.8333 121.5,72.5C 119.973,72.573 118.973,71.9063 118.5,70.5C 118.5,67.5 118.5,64.5 118.5,61.5C 120.023,57.6205 121.023,53.6205 121.5,49.5 Z"/></g>
<g><path style="opacity:1" fill="#c77c96" d="M 111.5,69.5 C 113.099,69.2322 114.432,69.5655 115.5,70.5C 114.761,70.369 114.094,70.5357 113.5,71C 114.793,71.49 116.127,71.6567 117.5,71.5C 116.4,73.4946 115.4,76.1612 114.5,79.5C 114.113,77.2692 113.947,74.9359 114,72.5C 113.023,73.7736 112.189,73.7736 111.5,72.5C 112.833,71.5 112.833,70.5 111.5,69.5 Z"/></g>
<g><path style="opacity:1" fill="#c14a72" d="M 109.5,28.5 C 110.489,33.9753 110.822,39.642 110.5,45.5C 109.681,42.6946 109.181,39.6946 109,36.5C 108.779,41.22 108.279,45.8867 107.5,50.5C 108.805,53.4326 109.805,56.4326 110.5,59.5C 110.5,61.8333 110.5,64.1667 110.5,66.5C 110.263,67.791 110.596,68.791 111.5,69.5C 112.833,70.5 112.833,71.5 111.5,72.5C 110.503,72.4701 109.836,72.9701 109.5,74C 109.736,77.2096 111.069,79.7096 113.5,81.5C 113.5,82.5 113.5,83.5 113.5,84.5C 112.853,85.2739 112.52,86.2739 112.5,87.5C 112.64,89.0296 113.307,90.0296 114.5,90.5C 114.5,91.8333 114.5,93.1667 114.5,94.5C 113.883,94.3893 113.383,94.056 113,93.5C 112.271,97.3773 112.438,101.211 113.5,105C 112.984,107.669 112.317,110.169 111.5,112.5C 110.77,102.525 110.27,92.5253 110,82.5C 108.101,78.3795 107.268,74.0462 107.5,69.5C 108.993,68.6879 109.66,67.3545 109.5,65.5C 108.727,63.3199 107.727,61.3199 106.5,59.5C 106.5,50.5 106.5,41.5 106.5,32.5C 106.192,30.076 106.526,27.7427 107.5,25.5C 108.176,26.6016 108.842,27.6016 109.5,28.5 Z"/></g>
<g><path style="opacity:1" fill="#ec69a0" d="M 69.5,82.5 C 69.5,82.1667 69.5,81.8333 69.5,81.5C 69.9175,80.7784 70.5842,80.2784 71.5,80C 70.5939,78.3005 70.2606,76.4672 70.5,74.5C 71.8221,74.67 72.9887,74.3366 74,73.5C 74.3095,74.7659 74.8095,75.9326 75.5,77C 74.5,77.8333 73.5,78.6667 72.5,79.5C 75.0761,83.2554 74.0761,84.2554 69.5,82.5 Z"/></g>
<g><path style="opacity:1" fill="#ed6ca8" d="M 87.5,84.5 C 86.7906,77.9648 85.2906,77.9648 83,84.5C 80.2245,87.3318 77.7245,87.1651 75.5,84C 75.8333,83.5 76.1667,83 76.5,82.5C 77.7362,83.2458 79.0695,83.5792 80.5,83.5C 79.9084,80.8728 79.5751,78.2062 79.5,75.5C 78.5,75.5 77.5,75.5 76.5,75.5C 76.7567,72.7429 77.09,69.9096 77.5,67C 77.3158,65.6244 76.6491,64.7911 75.5,64.5C 76.4026,62.3635 77.5693,60.3635 79,58.5C 79.2022,60.2556 79.7022,61.9223 80.5,63.5C 81.5321,61.9604 82.8654,61.4604 84.5,62C 81.972,63.3159 81.972,64.4826 84.5,65.5C 83.8333,68.8333 83.1667,72.1667 82.5,75.5C 84.0437,75.2889 85.7103,75.2889 87.5,75.5C 86.8333,76.1667 86.1667,76.8333 85.5,77.5C 85.8457,78.6956 86.3457,78.6956 87,77.5C 87.4966,79.8098 87.6633,82.1432 87.5,84.5 Z"/></g>
<g><path style="opacity:1" fill="#d8a7b4" d="M 113.5,81.5 C 115.344,82.2039 115.844,83.5372 115,85.5C 114.617,84.944 114.117,84.6107 113.5,84.5C 113.5,83.5 113.5,82.5 113.5,81.5 Z"/></g>
<g><path style="opacity:1" fill="#5a5255" d="M 121.5,84.5 C 121.5,86.5 121.5,88.5 121.5,90.5C 120.222,90.2178 119.222,89.5511 118.5,88.5C 118.5,87.8333 118.5,87.1667 118.5,86.5C 119.29,85.5987 120.29,84.9321 121.5,84.5 Z"/></g>
<g><path style="opacity:1" fill="#f497c6" d="M 75.5,64.5 C 76.6491,64.7911 77.3158,65.6244 77.5,67C 77.09,69.9096 76.7567,72.7429 76.5,75.5C 77.5,75.5 78.5,75.5 79.5,75.5C 79.5751,78.2062 79.9084,80.8728 80.5,83.5C 79.0695,83.5792 77.7362,83.2458 76.5,82.5C 76.1667,83 75.8333,83.5 75.5,84C 77.7245,87.1651 80.2245,87.3318 83,84.5C 85.2906,77.9648 86.7906,77.9648 87.5,84.5C 87.5,84.8333 87.5,85.1667 87.5,85.5C 87.4257,87.4109 86.4257,88.5776 84.5,89C 85.3366,90.0113 85.67,91.1779 85.5,92.5C 79.5171,92.6396 79.1837,93.6396 84.5,95.5C 83.6016,96.1577 82.6016,96.8243 81.5,97.5C 84.5666,102.085 83.9,103.085 79.5,100.5C 76.2013,94.5774 72.8679,88.5774 69.5,82.5C 74.0761,84.2554 75.0761,83.2554 72.5,79.5C 73.5,78.6667 74.5,77.8333 75.5,77C 74.8095,75.9326 74.3095,74.7659 74,73.5C 72.9887,74.3366 71.8221,74.67 70.5,74.5C 68.7263,70.823 69.7263,68.1564 73.5,66.5C 74.5,66.1667 75.1667,65.5 75.5,64.5 Z"/></g>
<g><path style="opacity:1" fill="#dbc8cf" d="M 118.5,86.5 C 118.5,87.1667 118.5,87.8333 118.5,88.5C 115.833,87.8333 115.833,87.1667 118.5,86.5 Z"/></g>
<g><path style="opacity:1" fill="#e64b87" d="M 75.5,86.5 C 77.0698,87.8748 77.9031,89.5415 78,91.5C 77.3333,90.1667 76.6667,90.1667 76,91.5C 75.5065,89.8659 75.3398,88.1992 75.5,86.5 Z"/></g>
<g><path style="opacity:1" fill="#ed6aa5" d="M 87.5,85.5 C 90.6428,86.2067 93.6428,87.3733 96.5,89C 95.5842,89.2784 94.9175,89.7784 94.5,90.5C 93.1667,90.5 91.8333,90.5 90.5,90.5C 88.5,92.1667 86.5,93.8333 84.5,95.5C 79.1837,93.6396 79.5171,92.6396 85.5,92.5C 85.67,91.1779 85.3366,90.0113 84.5,89C 86.4257,88.5776 87.4257,87.4109 87.5,85.5 Z"/></g>
<g><path style="opacity:1" fill="#cf8fa4" d="M 114.5,90.5 C 115.586,90.62 116.253,91.2867 116.5,92.5C 116.253,93.7133 115.586,94.38 114.5,94.5C 114.5,93.1667 114.5,91.8333 114.5,90.5 Z"/></g>
<g><path style="opacity:1" fill="#f087bb" d="M 90.5,90.5 C 91.8333,90.5 93.1667,90.5 94.5,90.5C 94.8333,90.5 95.1667,90.5 95.5,90.5C 97.4451,93.485 98.4451,96.8183 98.5,100.5C 97.0222,100.238 95.6888,100.571 94.5,101.5C 95.3202,103.111 96.6536,103.778 98.5,103.5C 99.2071,106.786 99.5405,110.119 99.5,113.5C 96.925,111.155 95.925,108.155 96.5,104.5C 94.8762,104.64 93.7096,103.973 93,102.5C 91.6032,104.07 90.1032,105.404 88.5,106.5C 87.4168,106.461 86.4168,106.127 85.5,105.5C 85.2514,106.582 85.0848,107.915 85,109.5C 84.6174,108.944 84.1174,108.611 83.5,108.5C 82.7659,107.292 82.4326,105.959 82.5,104.5C 84.2821,103.28 86.2821,102.614 88.5,102.5C 88.5,101.167 88.5,99.8333 88.5,98.5C 89.552,98.6495 90.552,98.4828 91.5,98C 90.565,95.6194 90.2317,93.1194 90.5,90.5 Z"/></g>
<g><path style="opacity:1" fill="#f8aed6" d="M 90.5,90.5 C 90.2317,93.1194 90.565,95.6194 91.5,98C 90.552,98.4828 89.552,98.6495 88.5,98.5C 88.5,99.8333 88.5,101.167 88.5,102.5C 86.2821,102.614 84.2821,103.28 82.5,104.5C 80.7706,103.764 79.7706,102.43 79.5,100.5C 83.9,103.085 84.5666,102.085 81.5,97.5C 82.6016,96.8243 83.6016,96.1577 84.5,95.5C 86.5,93.8333 88.5,92.1667 90.5,90.5 Z"/></g>
<g><path style="opacity:1" fill="#ec8fc2" d="M 106.5,91.5 C 107.658,101.325 107.825,111.325 107,121.5C 106.79,123.058 106.29,124.391 105.5,125.5C 106.194,120.195 106.528,114.862 106.5,109.5C 106.5,103.5 106.5,97.5 106.5,91.5 Z"/></g>
<g><path style="opacity:1" fill="#ac4166" d="M 115.5,70.5 C 116.5,70.5 117.5,70.5 118.5,70.5C 118.973,71.9063 119.973,72.573 121.5,72.5C 121.5,76.5 121.5,80.5 121.5,84.5C 120.29,84.9321 119.29,85.5987 118.5,86.5C 115.833,87.1667 115.833,87.8333 118.5,88.5C 119.222,89.5511 120.222,90.2178 121.5,90.5C 121.5,95.5 121.5,100.5 121.5,105.5C 120.167,106.167 119.167,107.167 118.5,108.5C 115.833,109.167 115.833,109.833 118.5,110.5C 120.226,112.82 120.893,115.487 120.5,118.5C 119.265,118.279 118.265,117.612 117.5,116.5C 115.775,117.015 114.108,117.682 112.5,118.5C 113.59,119.609 113.59,120.609 112.5,121.5C 111.516,118.572 111.183,115.572 111.5,112.5C 112.317,110.169 112.984,107.669 113.5,105C 112.438,101.211 112.271,97.3773 113,93.5C 113.383,94.056 113.883,94.3893 114.5,94.5C 115.586,94.38 116.253,93.7133 116.5,92.5C 116.253,91.2867 115.586,90.62 114.5,90.5C 113.307,90.0296 112.64,89.0296 112.5,87.5C 112.52,86.2739 112.853,85.2739 113.5,84.5C 114.117,84.6107 114.617,84.944 115,85.5C 115.844,83.5372 115.344,82.2039 113.5,81.5C 111.069,79.7096 109.736,77.2096 109.5,74C 109.836,72.9701 110.503,72.4701 111.5,72.5C 112.189,73.7736 113.023,73.7736 114,72.5C 113.947,74.9359 114.113,77.2692 114.5,79.5C 115.4,76.1612 116.4,73.4946 117.5,71.5C 116.127,71.6567 114.793,71.49 113.5,71C 114.094,70.5357 114.761,70.369 115.5,70.5 Z"/></g>
<g><path style="opacity:1" fill="#5e5557" d="M 121.5,105.5 C 121.5,111.833 121.5,118.167 121.5,124.5C 120.698,125.952 120.198,127.618 120,129.5C 119.506,127.866 119.34,126.199 119.5,124.5C 120.341,122.621 120.675,120.621 120.5,118.5C 120.893,115.487 120.226,112.82 118.5,110.5C 118.5,109.833 118.5,109.167 118.5,108.5C 119.167,107.167 120.167,106.167 121.5,105.5 Z"/></g>
<g><path style="opacity:1" fill="#e9629f" d="M 95.5,90.5 C 95.8333,90.5 96.1667,90.5 96.5,90.5C 98.7159,93.0365 99.8826,96.0365 100,99.5C 102.824,100.833 102.657,102.333 99.5,104C 101.618,105.049 103.284,106.549 104.5,108.5C 103.429,112.678 103.429,117.011 104.5,121.5C 101.656,121.657 99.9893,120.324 99.5,117.5C 100.479,117.458 101.479,117.458 102.5,117.5C 101.476,116.148 100.476,114.815 99.5,113.5C 99.5405,110.119 99.2071,106.786 98.5,103.5C 96.6536,103.778 95.3202,103.111 94.5,101.5C 95.6888,100.571 97.0222,100.238 98.5,100.5C 98.4451,96.8183 97.4451,93.485 95.5,90.5 Z"/></g>
<g><path style="opacity:1" fill="#dccdd0" d="M 118.5,108.5 C 118.5,109.167 118.5,109.833 118.5,110.5C 115.833,109.833 115.833,109.167 118.5,108.5 Z"/></g>
<g><path style="opacity:1" fill="#f9b9dd" d="M 88.5,106.5 C 89.5,106.5 90.5,106.5 91.5,106.5C 91.3832,108.484 92.0499,110.15 93.5,111.5C 89.2058,112.667 88.8725,114.001 92.5,115.5C 93.2208,117.686 93.8875,119.853 94.5,122C 92.9194,122.707 91.4194,123.54 90,124.5C 89.8253,127.157 89.9919,129.824 90.5,132.5C 87.536,124.788 85.2027,116.788 83.5,108.5C 84.1174,108.611 84.6174,108.944 85,109.5C 85.0848,107.915 85.2514,106.582 85.5,105.5C 86.4168,106.127 87.4168,106.461 88.5,106.5 Z"/></g>
<g><path style="opacity:1" fill="#c25d82" d="M 111.5,112.5 C 111.183,115.572 111.516,118.572 112.5,121.5C 113.59,120.609 113.59,119.609 112.5,118.5C 114.108,117.682 115.775,117.015 117.5,116.5C 118.265,117.612 119.265,118.279 120.5,118.5C 120.675,120.621 120.341,122.621 119.5,124.5C 118.833,124.5 118.5,124.833 118.5,125.5C 117.542,125.953 116.708,126.619 116,127.5C 115.851,131.133 115.018,134.466 113.5,137.5C 112.527,137.013 111.527,136.513 110.5,136C 111.791,134.708 111.791,133.542 110.5,132.5C 109.833,132.5 109.167,132.5 108.5,132.5C 108.369,125.521 109.369,118.854 111.5,112.5 Z"/></g>
<g><path style="opacity:1" fill="#d65e99" d="M 98.5,63.5 C 99.397,64.5981 100.23,64.5981 101,63.5C 101.333,67.8333 101.667,72.1667 102,76.5C 103.299,76.9662 104.799,76.9662 106.5,76.5C 106.198,73.9407 106.532,71.6074 107.5,69.5C 107.268,74.0462 108.101,78.3795 110,82.5C 110.27,92.5253 110.77,102.525 111.5,112.5C 109.369,118.854 108.369,125.521 108.5,132.5C 108.25,133.922 107.417,134.922 106,135.5C 105.814,132.964 105.314,130.631 104.5,128.5C 104.263,127.209 104.596,126.209 105.5,125.5C 106.29,124.391 106.79,123.058 107,121.5C 107.825,111.325 107.658,101.325 106.5,91.5C 105.734,88.5196 104.901,85.5196 104,82.5C 99.2628,77.0209 97.4295,70.6875 98.5,63.5 Z"/></g>
<g><path style="opacity:1" fill="#868686" d="M 119.5,124.5 C 119.34,126.199 119.506,127.866 120,129.5C 120.198,127.618 120.698,125.952 121.5,124.5C 121.067,129.833 120.567,135.166 120,140.5C 119.088,135.536 118.588,130.536 118.5,125.5C 118.5,124.833 118.833,124.5 119.5,124.5 Z"/></g>
<g><path style="opacity:1" fill="#dd4881" d="M 104.5,108.5 C 105.167,108.833 105.833,109.167 106.5,109.5C 106.528,114.862 106.194,120.195 105.5,125.5C 104.596,126.209 104.263,127.209 104.5,128.5C 104.518,132.446 103.518,136.112 101.5,139.5C 99.1902,137.584 98.8569,135.251 100.5,132.5C 100.081,131.328 99.4147,130.328 98.5,129.5C 99.989,129.467 101.322,128.967 102.5,128C 102.223,124.037 100.556,120.871 97.5,118.5C 96.4958,116.323 97.1625,115.989 99.5,117.5C 99.9893,120.324 101.656,121.657 104.5,121.5C 103.429,117.011 103.429,112.678 104.5,108.5 Z"/></g>
<g><path style="opacity:1" fill="#f7acd6" d="M 99.5,113.5 C 100.476,114.815 101.476,116.148 102.5,117.5C 101.479,117.458 100.479,117.458 99.5,117.5C 97.1625,115.989 96.4958,116.323 97.5,118.5C 97.162,121.157 97.8287,123.49 99.5,125.5C 98.3131,125.554 96.9798,125.887 95.5,126.5C 96.3829,127.548 97.0496,128.715 97.5,130C 95.3965,134.076 94.7298,138.243 95.5,142.5C 92.3394,140.08 90.6727,136.747 90.5,132.5C 89.9919,129.824 89.8253,127.157 90,124.5C 91.4194,123.54 92.9194,122.707 94.5,122C 93.8875,119.853 93.2208,117.686 92.5,115.5C 88.8725,114.001 89.2058,112.667 93.5,111.5C 92.0499,110.15 91.3832,108.484 91.5,106.5C 90.5,106.5 89.5,106.5 88.5,106.5C 90.1032,105.404 91.6032,104.07 93,102.5C 93.7096,103.973 94.8762,104.64 96.5,104.5C 95.925,108.155 96.925,111.155 99.5,113.5 Z"/></g>
<g><path style="opacity:1" fill="#d895af" d="M 110.5,132.5 C 111.791,133.542 111.791,134.708 110.5,136C 111.527,136.513 112.527,137.013 113.5,137.5C 111.648,141.76 108.314,143.427 103.5,142.5C 106.323,139.525 108.656,136.192 110.5,132.5 Z"/></g>
<g><path style="opacity:1" fill="#e16fa2" d="M 97.5,118.5 C 100.556,120.871 102.223,124.037 102.5,128C 101.322,128.967 99.989,129.467 98.5,129.5C 99.4147,130.328 100.081,131.328 100.5,132.5C 98.8569,135.251 99.1902,137.584 101.5,139.5C 103.518,136.112 104.518,132.446 104.5,128.5C 105.314,130.631 105.814,132.964 106,135.5C 107.417,134.922 108.25,133.922 108.5,132.5C 109.167,132.5 109.833,132.5 110.5,132.5C 108.656,136.192 106.323,139.525 103.5,142.5C 100.833,142.5 98.1667,142.5 95.5,142.5C 94.7298,138.243 95.3965,134.076 97.5,130C 97.0496,128.715 96.3829,127.548 95.5,126.5C 96.9798,125.887 98.3131,125.554 99.5,125.5C 97.8287,123.49 97.162,121.157 97.5,118.5 Z"/></g>
</svg>
