<?xml version="1.0" encoding="UTF-8"?>
<!DOCTYPE svg PUBLIC "-//W3C//DTD SVG 1.1//EN" "http://www.w3.org/Graphics/SVG/1.1/DTD/svg11.dtd">
<svg xmlns="http://www.w3.org/2000/svg" version="1.1" width="166px" height="158px" style="shape-rendering:geometricPrecision; text-rendering:geometricPrecision; image-rendering:optimizeQuality; fill-rule:evenodd; clip-rule:evenodd" xmlns:xlink="http://www.w3.org/1999/xlink">
<g><path style="opacity:1" fill="#f5f5f5" d="M -0.5,-0.5 C 54.8333,-0.5 110.167,-0.5 165.5,-0.5C 165.5,52.1667 165.5,104.833 165.5,157.5C 110.167,157.5 54.8333,157.5 -0.5,157.5C -0.5,104.833 -0.5,52.1667 -0.5,-0.5 Z"/></g>
<g><path style="opacity:1" fill="#454545" d="M 105.5,13.5 C 108.614,14.0913 111.114,15.758 113,18.5C 114.688,21.2258 116.188,24.0592 117.5,27C 117,27.5 116.5,28 116,28.5C 114.418,24.106 111.918,20.4393 108.5,17.5C 107.426,16.1154 106.093,14.9487 104.5,14C 104.728,13.6012 105.062,13.4346 105.5,13.5 Z"/></g>
<g><path style="opacity:1" fill="#4a494a" d="M 98.5,15.5 C 99.0967,15.7352 99.4301,16.2352 99.5,17C 97.7795,20.9746 97.1128,25.1412 97.5,29.5C 97.0679,30.7095 96.4013,31.7095 95.5,32.5C 94.9009,29.0369 93.9009,25.7036 92.5,22.5C 95.1897,20.8065 97.1897,18.4732 98.5,15.5 Z"/></g>
<g><path style="opacity:1" fill="#2b2c2c" d="M 65.5,24.5 C 66.4486,23.8476 67.6153,23.5143 69,23.5C 71.8813,24.0278 74.7146,24.6945 77.5,25.5C 77.5,25.8333 77.5,26.1667 77.5,26.5C 75.139,26.3259 72.8056,25.9926 70.5,25.5C 69.0813,24.5489 67.4147,24.2155 65.5,24.5 Z"/></g>
<g><path style="opacity:1" fill="#7d7d7e" d="M 65.5,24.5 C 67.4147,24.2155 69.0813,24.5489 70.5,25.5C 68.8333,25.5 67.1667,25.5 65.5,25.5C 65.8087,28.3455 67.4754,29.8455 70.5,30C 69.552,30.4828 68.552,30.6495 67.5,30.5C 63.7648,29.1035 63.0981,27.1035 65.5,24.5 Z"/></g>
<g><path style="opacity:1" fill="#a8a8a8" d="M 122.5,40.5 C 121.833,34.9861 121.167,29.3195 120.5,23.5C 119.818,24.2427 119.151,24.9094 118.5,25.5C 118.247,23.1727 118.914,21.1727 120.5,19.5C 121.192,20.0253 121.692,20.6919 122,21.5C 122.5,27.8246 122.666,34.1579 122.5,40.5 Z"/></g>
<g><path style="opacity:1" fill="#c73b46" d="M 82.5,24.5 C 84.1439,24.2865 85.6439,24.6198 87,25.5C 88.4538,28.0711 89.6205,30.7378 90.5,33.5C 90.702,35.9496 90.3686,38.283 89.5,40.5C 88.8333,40.5 88.5,40.8333 88.5,41.5C 86.6096,41.7035 85.1096,41.0368 84,39.5C 82.8621,34.5574 80.6955,30.2241 77.5,26.5C 77.5,26.1667 77.5,25.8333 77.5,25.5C 79.0418,24.6993 80.7085,24.366 82.5,24.5 Z"/></g>
<g><path style="opacity:1" fill="#c6c3c5" d="M 92.5,22.5 C 93.9009,25.7036 94.9009,29.0369 95.5,32.5C 95.7311,44.0476 94.0644,44.3809 90.5,33.5C 89.6205,30.7378 88.4538,28.0711 87,25.5C 85.6439,24.6198 84.1439,24.2865 82.5,24.5C 85.6267,23.4192 88.9601,22.7526 92.5,22.5 Z"/></g>
<g><path style="opacity:1" fill="#8b363d" d="M 85.5,35.5 C 86.8333,35.5 88.1667,35.5 89.5,35.5C 89.1144,39.7376 87.4477,40.4043 84.5,37.5C 84.8627,36.8165 85.1961,36.1499 85.5,35.5 Z"/></g>
<g><path style="opacity:1" fill="#292929" d="M 100.5,36.5 C 103.515,41.6975 105.848,47.1975 107.5,53C 105.904,58.7242 105.237,64.5576 105.5,70.5C 104.71,69.3915 104.21,68.0581 104,66.5C 103.667,68.1667 103.333,69.8333 103,71.5C 100.903,65.6952 98.7365,60.0285 96.5,54.5C 96.3338,48.1579 96.5005,41.8246 97,35.5C 97.9265,38.7058 99.0932,39.0392 100.5,36.5 Z"/></g>
<g><path style="opacity:1" fill="#b2b1b4" d="M 97.5,29.5 C 98.6772,31.6794 99.6772,34.0128 100.5,36.5C 99.0932,39.0392 97.9265,38.7058 97,35.5C 96.5005,41.8246 96.3338,48.1579 96.5,54.5C 95.5269,56.0683 95.3603,57.735 96,59.5C 99.4123,67.25 102.912,74.9167 106.5,82.5C 106.963,85.4824 107.296,88.4824 107.5,91.5C 106.624,91.6309 105.957,91.2975 105.5,90.5C 104.894,86.9723 103.728,83.639 102,80.5C 101.581,81.6721 100.915,82.6721 100,83.5C 99.3828,82.5509 99.5494,81.7175 100.5,81C 98.1144,80.7165 97.4477,79.7165 98.5,78C 96.6536,75.7404 94.6536,73.5738 92.5,71.5C 92.2614,66.5366 92.2614,60.8699 92.5,54.5C 92.1997,51.3299 91.8663,48.1632 91.5,45C 91.4313,43.0145 90.7647,41.5145 89.5,40.5C 90.3686,38.283 90.702,35.9496 90.5,33.5C 94.0644,44.3809 95.7311,44.0476 95.5,32.5C 96.4013,31.7095 97.0679,30.7095 97.5,29.5 Z"/></g>
<g><path style="opacity:1" fill="#cacaca" d="M 105.5,13.5 C 105.062,13.4346 104.728,13.6012 104.5,14C 106.093,14.9487 107.426,16.1154 108.5,17.5C 107.5,17.5 106.5,17.5 105.5,17.5C 105.343,18.8734 105.51,20.2068 106,21.5C 106.718,20.5494 107.551,20.3828 108.5,21C 115.322,31.3356 114.822,31.8356 107,22.5C 106.913,26.015 107.746,29.3483 109.5,32.5C 108.903,32.7352 108.57,33.2352 108.5,34C 109.744,37.8102 110.911,41.6436 112,45.5C 113.533,63.8924 115.533,82.2257 118,100.5C 118.667,93.1667 118.667,85.8333 118,78.5C 116.596,69.5511 115.762,60.5511 115.5,51.5C 116.5,51.5 117.5,51.5 118.5,51.5C 118.5,48.5 118.5,45.5 118.5,42.5C 121.13,66.3521 121.13,90.3521 118.5,114.5C 115.88,121.089 113.214,127.756 110.5,134.5C 109.35,135.85 108.683,135.684 108.5,134C 109.233,132.234 109.567,130.401 109.5,128.5C 112.967,121.931 115.134,114.931 116,107.5C 115.197,110.244 114.197,112.911 113,115.5C 111.812,114.437 111.312,113.103 111.5,111.5C 115.763,102.324 115.43,93.3243 110.5,84.5C 110.509,82.6916 110.009,81.0249 109,79.5C 109.492,82.319 109.326,84.9856 108.5,87.5C 108.204,85.597 107.537,83.9303 106.5,82.5C 106.252,79.4196 105.586,76.4196 104.5,73.5C 104.667,72.8333 104.833,72.1667 105,71.5C 105.333,72.5 105.667,73.5 106,74.5C 106.765,72.9343 106.598,71.6009 105.5,70.5C 105.237,64.5576 105.904,58.7242 107.5,53C 105.848,47.1975 103.515,41.6975 100.5,36.5C 99.6772,34.0128 98.6772,31.6794 97.5,29.5C 97.1128,25.1412 97.7795,20.9746 99.5,17C 99.4301,16.2352 99.0967,15.7352 98.5,15.5C 99.5659,14.3079 100.399,14.6412 101,16.5C 102.188,15.4366 102.688,14.1033 102.5,12.5C 103.791,12.2627 104.791,12.596 105.5,13.5 Z"/></g>
<g><path style="opacity:1" fill="#a8a8a8" d="M 109.5,32.5 C 112.272,38.5892 114.272,44.9225 115.5,51.5C 115.762,60.5511 116.596,69.5511 118,78.5C 118.667,85.8333 118.667,93.1667 118,100.5C 115.533,82.2257 113.533,63.8924 112,45.5C 110.911,41.6436 109.744,37.8102 108.5,34C 108.57,33.2352 108.903,32.7352 109.5,32.5 Z"/></g>
<g><path style="opacity:1" fill="#272727" d="M 122.5,40.5 C 123.279,67.1801 123.279,93.8468 122.5,120.5C 121.778,120.918 121.278,121.584 121,122.5C 120.79,120.942 120.29,119.609 119.5,118.5C 119.167,118.5 118.833,118.5 118.5,118.5C 118.5,117.167 118.5,115.833 118.5,114.5C 121.13,90.3521 121.13,66.3521 118.5,42.5C 117.92,38.1211 117.42,33.7878 117,29.5C 117.333,30.1667 117.667,30.8333 118,31.5C 118.495,29.5273 118.662,27.5273 118.5,25.5C 119.151,24.9094 119.818,24.2427 120.5,23.5C 121.167,29.3195 121.833,34.9861 122.5,40.5 Z"/></g>
<g><path style="opacity:1" fill="#ad6666" d="M 69.5,68.5 C 71.0739,70.1016 71.7406,72.1016 71.5,74.5C 71.6716,75.4916 71.3382,76.1583 70.5,76.5C 69.1242,74.9184 68.1242,73.0851 67.5,71C 67.6387,69.699 68.3054,68.8656 69.5,68.5 Z"/></g>
<g><path style="opacity:1" fill="#8d8d8f" d="M 96.5,54.5 C 98.7365,60.0285 100.903,65.6952 103,71.5C 103.333,69.8333 103.667,68.1667 104,66.5C 104.21,68.0581 104.71,69.3915 105.5,70.5C 106.598,71.6009 106.765,72.9343 106,74.5C 105.667,73.5 105.333,72.5 105,71.5C 104.833,72.1667 104.667,72.8333 104.5,73.5C 105.586,76.4196 106.252,79.4196 106.5,82.5C 102.912,74.9167 99.4123,67.25 96,59.5C 95.3603,57.735 95.5269,56.0683 96.5,54.5 Z"/></g>
<g><path style="opacity:1" fill="#d8d9db" d="M 70.5,25.5 C 72.8056,25.9926 75.139,26.3259 77.5,26.5C 80.6955,30.2241 82.8621,34.5574 84,39.5C 85.1096,41.0368 86.6096,41.7035 88.5,41.5C 90.1368,46.0799 91.1368,50.7466 91.5,55.5C 90.7224,58.4624 89.7224,61.2957 88.5,64C 91.4963,67.5703 91.8297,71.237 89.5,75C 91.8833,75.065 92.55,75.8983 91.5,77.5C 92.376,78.2508 93.376,78.7508 94.5,79C 94.1667,79.3333 93.8333,79.6667 93.5,80C 95.0249,81.0086 96.6916,81.5086 98.5,81.5C 98.2501,84.5045 99.5834,86.3378 102.5,87C 101.646,88.881 101.979,90.7143 103.5,92.5C 102.995,93.9185 101.995,94.5852 100.5,94.5C 99.623,91.7423 98.4563,89.0756 97,86.5C 96.5357,87.0944 96.369,87.7611 96.5,88.5C 93.5071,89.1346 90.5071,89.3013 87.5,89C 88.6776,88.0331 90.011,87.5331 91.5,87.5C 92.1414,85.7045 93.1414,84.2045 94.5,83C 92.1263,80.9348 89.9596,81.1015 88,83.5C 87.5,83 87,82.5 86.5,82C 88.2464,81.5291 89.913,80.8624 91.5,80C 89.4311,79.6758 89.0977,78.8425 90.5,77.5C 87.7159,76.6077 85.2159,76.6077 83,77.5C 80.9481,75.4801 81.1147,73.8134 83.5,72.5C 84.3857,73.325 84.719,74.325 84.5,75.5C 87.2431,75.9228 88.5765,74.7561 88.5,72C 87.3333,68.8333 86.1667,65.6667 85,62.5C 81.8525,64.7795 81.6858,67.2795 84.5,70C 82.5643,70.813 80.5643,71.313 78.5,71.5C 80.1004,69.4287 80.6004,67.0953 80,64.5C 79.7167,67.7423 78.8834,68.0756 77.5,65.5C 75.3961,67.5944 74.0628,70.0944 73.5,73C 75.0657,73.2997 76.399,72.7997 77.5,71.5C 76.7848,73.5596 75.4514,75.2263 73.5,76.5C 72.8182,75.7573 72.1515,75.0906 71.5,74.5C 71.7406,72.1016 71.0739,70.1016 69.5,68.5C 71.9698,63.51 75.4698,59.1767 80,55.5C 82.3126,51.0024 82.8126,46.3357 81.5,41.5C 79.7046,39.2975 77.3712,38.1308 74.5,38C 72.6388,34.975 70.3055,32.475 67.5,30.5C 68.552,30.6495 69.552,30.4828 70.5,30C 67.4754,29.8455 65.8087,28.3455 65.5,25.5C 67.1667,25.5 68.8333,25.5 70.5,25.5 Z"/></g>
<g><path style="opacity:1" fill="#a2a4a4" d="M 78.5,71.5 C 78.1667,71.5 77.8333,71.5 77.5,71.5C 76.399,72.7997 75.0657,73.2997 73.5,73C 74.0628,70.0944 75.3961,67.5944 77.5,65.5C 78.8834,68.0756 79.7167,67.7423 80,64.5C 80.6004,67.0953 80.1004,69.4287 78.5,71.5 Z"/></g>
<g><path style="opacity:1" fill="#c9c9cc" d="M 88.5,41.5 C 88.5,40.8333 88.8333,40.5 89.5,40.5C 90.7647,41.5145 91.4313,43.0145 91.5,45C 91.8663,48.1632 92.1997,51.3299 92.5,54.5C 92.2614,60.8699 92.2614,66.5366 92.5,71.5C 94.6536,73.5738 96.6536,75.7404 98.5,78C 97.4477,79.7165 98.1144,80.7165 100.5,81C 99.5494,81.7175 99.3828,82.5509 100,83.5C 100.915,82.6721 101.581,81.6721 102,80.5C 103.728,83.639 104.894,86.9723 105.5,90.5C 105.957,91.2975 106.624,91.6309 107.5,91.5C 108.49,97.6446 108.823,103.978 108.5,110.5C 106.299,115.486 105.299,120.82 105.5,126.5C 104.646,131.231 103.48,135.898 102,140.5C 100.281,141.869 98.4478,142.869 96.5,143.5C 95.0687,142.22 94.4021,140.553 94.5,138.5C 97.683,134.812 100.516,130.812 103,126.5C 103.215,121.085 103.715,115.752 104.5,110.5C 105.07,104.843 103.737,99.5093 100.5,94.5C 101.995,94.5852 102.995,93.9185 103.5,92.5C 101.979,90.7143 101.646,88.881 102.5,87C 99.5834,86.3378 98.2501,84.5045 98.5,81.5C 96.6916,81.5086 95.0249,81.0086 93.5,80C 93.8333,79.6667 94.1667,79.3333 94.5,79C 93.376,78.7508 92.376,78.2508 91.5,77.5C 92.55,75.8983 91.8833,75.065 89.5,75C 91.8297,71.237 91.4963,67.5703 88.5,64C 89.7224,61.2957 90.7224,58.4624 91.5,55.5C 91.1368,50.7466 90.1368,46.0799 88.5,41.5 Z"/></g>
<g><path style="opacity:1" fill="#595959" d="M 110.5,84.5 C 115.43,93.3243 115.763,102.324 111.5,111.5C 113.082,102.405 112.749,93.4049 110.5,84.5 Z"/></g>
<g><path style="opacity:1" fill="#404143" d="M 100.5,94.5 C 103.737,99.5093 105.07,104.843 104.5,110.5C 101.774,110.736 99.441,109.903 97.5,108C 99.8852,107.945 101.219,106.778 101.5,104.5C 100.227,99.0161 98.5604,93.6828 96.5,88.5C 96.369,87.7611 96.5357,87.0944 97,86.5C 98.4563,89.0756 99.623,91.7423 100.5,94.5 Z"/></g>
<g><path style="opacity:1" fill="#545456" d="M 106.5,82.5 C 107.537,83.9303 108.204,85.597 108.5,87.5C 111.146,95.2834 111.146,102.95 108.5,110.5C 108.823,103.978 108.49,97.6446 107.5,91.5C 107.296,88.4824 106.963,85.4824 106.5,82.5 Z"/></g>
<g><path style="opacity:1" fill="#b0b0b0" d="M 110.5,84.5 C 112.749,93.4049 113.082,102.405 111.5,111.5C 111.312,113.103 111.812,114.437 113,115.5C 114.197,112.911 115.197,110.244 116,107.5C 115.134,114.931 112.967,121.931 109.5,128.5C 107.871,130.858 106.705,133.524 106,136.5C 106.016,132.975 105.849,129.642 105.5,126.5C 105.299,120.82 106.299,115.486 108.5,110.5C 111.146,102.95 111.146,95.2834 108.5,87.5C 109.326,84.9856 109.492,82.319 109,79.5C 110.009,81.0249 110.509,82.6916 110.5,84.5 Z"/></g>
<g><path style="opacity:1" fill="#404040" d="M 119.5,118.5 C 120.29,119.609 120.79,120.942 121,122.5C 121.278,121.584 121.778,120.918 122.5,120.5C 122.5,123.167 122.5,125.833 122.5,128.5C 121.732,129.263 121.232,130.263 121,131.5C 120.617,130.944 120.117,130.611 119.5,130.5C 119.5,126.5 119.5,122.5 119.5,118.5 Z"/></g>
<g><path style="opacity:1" fill="#e4e6e8" d="M 96.5,88.5 C 98.5604,93.6828 100.227,99.0161 101.5,104.5C 101.219,106.778 99.8852,107.945 97.5,108C 99.441,109.903 101.774,110.736 104.5,110.5C 103.715,115.752 103.215,121.085 103,126.5C 100.516,130.812 97.683,134.812 94.5,138.5C 91.3224,128.136 88.8224,117.469 87,106.5C 83.6381,99.0989 79.8047,92.0989 75.5,85.5C 79.0805,84.6441 79.2472,83.6441 76,82.5C 73.1862,83.6862 72.3529,82.8529 73.5,80C 71.9443,79.2798 70.9443,78.1132 70.5,76.5C 71.3382,76.1583 71.6716,75.4916 71.5,74.5C 72.1515,75.0906 72.8182,75.7573 73.5,76.5C 75.4514,75.2263 76.7848,73.5596 77.5,71.5C 77.8333,71.5 78.1667,71.5 78.5,71.5C 80.5643,71.313 82.5643,70.813 84.5,70C 81.6858,67.2795 81.8525,64.7795 85,62.5C 86.1667,65.6667 87.3333,68.8333 88.5,72C 88.5765,74.7561 87.2431,75.9228 84.5,75.5C 84.719,74.325 84.3857,73.325 83.5,72.5C 81.1147,73.8134 80.9481,75.4801 83,77.5C 85.2159,76.6077 87.7159,76.6077 90.5,77.5C 89.0977,78.8425 89.4311,79.6758 91.5,80C 89.913,80.8624 88.2464,81.5291 86.5,82C 87,82.5 87.5,83 88,83.5C 89.9596,81.1015 92.1263,80.9348 94.5,83C 93.1414,84.2045 92.1414,85.7045 91.5,87.5C 90.011,87.5331 88.6776,88.0331 87.5,89C 90.5071,89.3013 93.5071,89.1346 96.5,88.5 Z"/></g>
<g><path style="opacity:1" fill="#4a4a4a" d="M 118.5,114.5 C 118.5,115.833 118.5,117.167 118.5,118.5C 118.163,122.425 116.996,126.092 115,129.5C 114.004,131.66 112.504,133.327 110.5,134.5C 113.214,127.756 115.88,121.089 118.5,114.5 Z"/></g>
<g><path style="opacity:1" fill="#8d8d8d" d="M 105.5,126.5 C 105.849,129.642 106.016,132.975 106,136.5C 106.705,133.524 107.871,130.858 109.5,128.5C 109.567,130.401 109.233,132.234 108.5,134C 108.683,135.684 109.35,135.85 110.5,134.5C 107.977,140.668 103.31,143.668 96.5,143.5C 98.4478,142.869 100.281,141.869 102,140.5C 103.48,135.898 104.646,131.231 105.5,126.5 Z"/></g>
<g><path style="opacity:1" fill="#a5a5a5" d="M 122.5,128.5 C 122.892,131.722 122.392,134.722 121,137.5C 119.648,135.406 119.148,133.073 119.5,130.5C 120.117,130.611 120.617,130.944 121,131.5C 121.232,130.263 121.732,129.263 122.5,128.5 Z"/></g>
</svg>
