<?xml version="1.0" encoding="UTF-8"?>
<!DOCTYPE svg PUBLIC "-//W3C//DTD SVG 1.1//EN" "http://www.w3.org/Graphics/SVG/1.1/DTD/svg11.dtd">
<svg xmlns="http://www.w3.org/2000/svg" version="1.1" width="166px" height="158px" style="shape-rendering:geometricPrecision; text-rendering:geometricPrecision; image-rendering:optimizeQuality; fill-rule:evenodd; clip-rule:evenodd" xmlns:xlink="http://www.w3.org/1999/xlink">
<g><path style="opacity:1" fill="#f5f5f5" d="M -0.5,-0.5 C 54.8333,-0.5 110.167,-0.5 165.5,-0.5C 165.5,52.1667 165.5,104.833 165.5,157.5C 110.167,157.5 54.8333,157.5 -0.5,157.5C -0.5,104.833 -0.5,52.1667 -0.5,-0.5 Z"/></g>
<g><path style="opacity:1" fill="#d2d2d2" d="M 115.5,19.5 C 113.991,18.1405 113.324,18.6405 113.5,21C 114.078,25.8644 114.744,30.6978 115.5,35.5C 115.098,49.1742 114.765,63.3408 114.5,78C 115.094,78.4643 115.761,78.631 116.5,78.5C 116.5,81.1667 116.5,83.8333 116.5,86.5C 115.391,86.5569 114.391,86.8902 113.5,87.5C 113.667,66.4974 113.5,45.4974 113,24.5C 112.096,20.3116 109.596,18.4783 105.5,19C 107.093,19.9487 108.426,21.1154 109.5,22.5C 108.503,22.4701 107.836,22.9701 107.5,24C 106.054,27.919 106.22,31.7523 108,35.5C 108.497,28.4968 109.163,28.1635 110,34.5C 110.645,38.3622 110.479,42.1955 109.5,46C 109.833,46.8333 110.167,47.6667 110.5,48.5C 111.495,42.8722 111.829,37.2055 111.5,31.5C 112.656,39.3225 112.823,47.3225 112,55.5C 109.568,56.4496 107.068,56.4496 104.5,55.5C 104.397,52.7814 104.731,50.1147 105.5,47.5C 104.816,44.2749 103.649,41.2749 102,38.5C 101.667,40.8333 101.333,43.1667 101,45.5C 98.7508,35.9298 97.4175,26.2631 97,16.5C 97.7172,15.9558 98.2172,15.2891 98.5,14.5C 103.587,12.6815 108.087,13.6815 112,17.5C 114.599,13.6615 115.766,14.3281 115.5,19.5 Z"/></g>
<g><path style="opacity:1" fill="#acacac" d="M 115.5,19.5 C 116.424,39.1466 116.757,58.8133 116.5,78.5C 115.761,78.631 115.094,78.4643 114.5,78C 114.765,63.3408 115.098,49.1742 115.5,35.5C 114.744,30.6978 114.078,25.8644 113.5,21C 113.324,18.6405 113.991,18.1405 115.5,19.5 Z"/></g>
<g><path style="opacity:1" fill="#a1afd0" d="M 87.5,21.5 C 88.8333,21.5 90.1667,21.5 91.5,21.5C 94.8134,36.7135 97.4801,52.0468 99.5,67.5C 96.3705,62.5974 93.2039,57.5974 90,52.5C 89.5291,54.2464 88.8624,55.913 88,57.5C 87.0138,56.8288 85.8471,56.8288 84.5,57.5C 83.6554,56.3285 82.9887,54.9952 82.5,53.5C 82.9382,53.5654 83.2716,53.3988 83.5,53C 82.6919,52.6924 82.0253,52.1924 81.5,51.5C 82.1667,50.1667 82.8333,48.8333 83.5,47.5C 82.4706,47.7036 81.4706,47.2036 80.5,46C 81.5171,44.9505 81.6838,43.7839 81,42.5C 78.4902,40.3668 76.3235,37.8668 74.5,35C 72.5548,34.9647 70.5548,35.1314 68.5,35.5C 70.1623,36.1152 72.1623,36.9485 74.5,38C 71.4929,38.3013 68.4929,38.1346 65.5,37.5C 64.1201,37.0377 63.4534,36.0377 63.5,34.5C 63.8868,32.7257 64.5535,31.059 65.5,29.5C 63.0339,28.8765 60.7006,28.0432 58.5,27C 61.8818,26.8236 65.2152,26.3236 68.5,25.5C 64.9053,22.9714 61.4053,22.9714 58,25.5C 57.4926,24.0039 57.9926,22.8373 59.5,22C 63.1262,22.3159 66.7929,22.8159 70.5,23.5C 76.1352,22.5049 81.8019,21.8382 87.5,21.5 Z"/></g>
<g><path style="opacity:1" fill="#93a5c8" d="M 75.5,53.5 C 75.6107,54.1174 75.944,54.6174 76.5,55C 75.3279,55.4186 74.3279,56.0853 73.5,57C 73.4205,58.9068 73.7539,60.9068 74.5,63C 72.1088,63.6914 72.1088,64.6914 74.5,66C 73.6198,67.3561 73.2865,68.8561 73.5,70.5C 72.7784,70.9175 72.2784,71.5842 72,72.5C 71.4054,71.1011 71.5721,69.7678 72.5,68.5C 72,67.5 71.5,66.5 71,65.5C 70.6667,65.8333 70.3333,66.1667 70,66.5C 69.1305,63.2374 67.7972,62.9041 66,65.5C 67.9232,60.7248 71.0899,56.7248 75.5,53.5 Z"/></g>
<g><path style="opacity:1" fill="#8c9bbf" d="M 99.5,67.5 C 100.021,71.4809 100.354,75.4809 100.5,79.5C 100.662,81.5273 100.495,83.5273 100,85.5C 98.114,86.9301 96.4473,88.5968 95,90.5C 94.6012,90.2716 94.4346,89.9382 94.5,89.5C 95.5109,87.5976 95.6776,85.5976 95,83.5C 91.7638,74.6989 88.2638,66.0322 84.5,57.5C 85.8471,56.8288 87.0138,56.8288 88,57.5C 88.8624,55.913 89.5291,54.2464 90,52.5C 93.2039,57.5974 96.3705,62.5974 99.5,67.5 Z"/></g>
<g><path style="opacity:1" fill="#d8d9dc" d="M 82.5,53.5 C 82.9887,54.9952 83.6554,56.3285 84.5,57.5C 88.2638,66.0322 91.7638,74.6989 95,83.5C 95.6776,85.5976 95.5109,87.5976 94.5,89.5C 93.5,90.1667 92.5,90.8333 91.5,91.5C 87.4954,91.8306 84.1621,90.4973 81.5,87.5C 82.325,86.6143 83.325,86.281 84.5,86.5C 87.2856,86.0436 88.619,84.3769 88.5,81.5C 86.9988,74.9775 84.9988,68.6442 82.5,62.5C 81.1861,63.3128 80.0195,64.3128 79,65.5C 78.8333,65.1667 78.6667,64.8333 78.5,64.5C 80.0413,62.796 81.3746,60.9626 82.5,59C 81.9561,57.415 81.2894,55.915 80.5,54.5C 80.8417,53.6618 81.5084,53.3284 82.5,53.5 Z"/></g>
<g><path style="opacity:1" fill="#a8b7d5" d="M 80.5,54.5 C 81.2894,55.915 81.9561,57.415 82.5,59C 81.3746,60.9626 80.0413,62.796 78.5,64.5C 78.6667,64.8333 78.8333,65.1667 79,65.5C 80.0195,64.3128 81.1861,63.3128 82.5,62.5C 84.9988,68.6442 86.9988,74.9775 88.5,81.5C 88.619,84.3769 87.2856,86.0436 84.5,86.5C 85.227,84.2834 85.0603,81.9501 84,79.5C 81.1731,78.0014 79.3397,78.8347 78.5,82C 79.2755,84.8224 79.9421,87.6557 80.5,90.5C 78.9684,86.7454 76.9684,83.2454 74.5,80C 75.2764,78.2302 75.1097,76.3969 74,74.5C 73.3457,75.6956 72.8457,75.6956 72.5,74.5C 73.2458,73.2638 73.5792,71.9305 73.5,70.5C 73.2865,68.8561 73.6198,67.3561 74.5,66C 72.1088,64.6914 72.1088,63.6914 74.5,63C 73.7539,60.9068 73.4205,58.9068 73.5,57C 74.3279,56.0853 75.3279,55.4186 76.5,55C 75.944,54.6174 75.6107,54.1174 75.5,53.5C 78.1748,45.6152 79.0081,45.9485 78,54.5C 78.7697,53.4019 79.603,53.4019 80.5,54.5 Z"/></g>
<g><path style="opacity:1" fill="#7f7f7f" d="M 116.5,86.5 C 116.5,88.5 116.5,90.5 116.5,92.5C 115.391,92.4431 114.391,92.1098 113.5,91.5C 112.646,89.965 112.646,88.6316 113.5,87.5C 114.391,86.8902 115.391,86.5569 116.5,86.5 Z"/></g>
<g><path style="opacity:1" fill="#e3e4e4" d="M 98.5,14.5 C 98.2172,15.2891 97.7172,15.9558 97,16.5C 97.4175,26.2631 98.7508,35.9298 101,45.5C 101.333,43.1667 101.667,40.8333 102,38.5C 103.649,41.2749 104.816,44.2749 105.5,47.5C 104.731,50.1147 104.397,52.7814 104.5,55.5C 107.068,56.4496 109.568,56.4496 112,55.5C 112.823,47.3225 112.656,39.3225 111.5,31.5C 111.664,28.8127 111.497,26.146 111,23.5C 110.617,22.944 110.117,22.6107 109.5,22.5C 108.426,21.1154 107.093,19.9487 105.5,19C 109.596,18.4783 112.096,20.3116 113,24.5C 113.5,45.4974 113.667,66.4974 113.5,87.5C 112.646,88.6316 112.646,89.965 113.5,91.5C 112.915,98.2142 112.248,104.881 111.5,111.5C 111.5,112.167 111.5,112.833 111.5,113.5C 110.701,120.326 109.201,126.993 107,133.5C 105.785,124.56 105.118,115.56 105,106.5C 104.827,112.016 104.327,117.349 103.5,122.5C 103.049,107.978 102.049,93.6451 100.5,79.5C 100.354,75.4809 100.021,71.4809 99.5,67.5C 97.4801,52.0468 94.8134,36.7135 91.5,21.5C 90.1667,21.5 88.8333,21.5 87.5,21.5C 91.2947,19.432 94.9614,17.0987 98.5,14.5 Z"/></g>
<g><path style="opacity:1" fill="#a9a9a7" d="M 109.5,22.5 C 110.117,22.6107 110.617,22.944 111,23.5C 111.497,26.146 111.664,28.8127 111.5,31.5C 111.829,37.2055 111.495,42.8722 110.5,48.5C 110.167,47.6667 109.833,46.8333 109.5,46C 110.479,42.1955 110.645,38.3622 110,34.5C 109.163,28.1635 108.497,28.4968 108,35.5C 106.22,31.7523 106.054,27.919 107.5,24C 107.836,22.9701 108.503,22.4701 109.5,22.5 Z"/></g>
<g><path style="opacity:1" fill="#5767a2" d="M 73.5,95.5 C 72.8333,95.5 72.5,95.1667 72.5,94.5C 72.3287,91.2027 72.9954,90.8694 74.5,93.5C 74.1373,94.1835 73.8039,94.8501 73.5,95.5 Z"/></g>
<g><path style="opacity:1" fill="#bdbdbd" d="M 113.5,91.5 C 114.391,92.1098 115.391,92.4431 116.5,92.5C 116.826,101.017 116.493,109.35 115.5,117.5C 115.808,115.076 115.474,112.743 114.5,110.5C 113.583,111.127 112.583,111.461 111.5,111.5C 112.248,104.881 112.915,98.2142 113.5,91.5 Z"/></g>
<g><path style="opacity:1" fill="#a4b2cf" d="M 100.5,79.5 C 102.049,93.6451 103.049,107.978 103.5,122.5C 102.276,127.966 101.443,133.633 101,139.5C 99.951,141.107 98.451,141.773 96.5,141.5C 96.8285,130.721 98.4952,120.221 101.5,110C 100.833,109.667 100.167,109.333 99.5,109C 98.9208,107.575 98.9208,105.908 99.5,104C 97.3215,103.558 96.6548,102.558 97.5,101C 94.7433,99.181 93.7433,96.8476 94.5,94C 93.4293,93.1482 92.4293,92.3149 91.5,91.5C 92.5,90.8333 93.5,90.1667 94.5,89.5C 94.4346,89.9382 94.6012,90.2716 95,90.5C 96.4473,88.5968 98.114,86.9301 100,85.5C 100.495,83.5273 100.662,81.5273 100.5,79.5 Z"/></g>
<g><path style="opacity:1" fill="#becce6" d="M 82.5,53.5 C 81.5084,53.3284 80.8417,53.6618 80.5,54.5C 79.603,53.4019 78.7697,53.4019 78,54.5C 79.0081,45.9485 78.1748,45.6152 75.5,53.5C 71.0899,56.7248 67.9232,60.7248 66,65.5C 67.7972,62.9041 69.1305,63.2374 70,66.5C 70.3333,66.1667 70.6667,65.8333 71,65.5C 71.5,66.5 72,67.5 72.5,68.5C 71.5721,69.7678 71.4054,71.1011 72,72.5C 72.2784,71.5842 72.7784,70.9175 73.5,70.5C 73.5792,71.9305 73.2458,73.2638 72.5,74.5C 72.8457,75.6956 73.3457,75.6956 74,74.5C 75.1097,76.3969 75.2764,78.2302 74.5,80C 76.9684,83.2454 78.9684,86.7454 80.5,90.5C 79.9421,87.6557 79.2755,84.8224 78.5,82C 79.3397,78.8347 81.1731,78.0014 84,79.5C 85.0603,81.9501 85.227,84.2834 84.5,86.5C 83.325,86.281 82.325,86.6143 81.5,87.5C 84.1621,90.4973 87.4954,91.8306 91.5,91.5C 92.4293,92.3149 93.4293,93.1482 94.5,94C 93.7433,96.8476 94.7433,99.181 97.5,101C 96.6548,102.558 97.3215,103.558 99.5,104C 98.9208,105.908 98.9208,107.575 99.5,109C 100.167,109.333 100.833,109.667 101.5,110C 98.4952,120.221 96.8285,130.721 96.5,141.5C 96.1667,141.5 95.8333,141.5 95.5,141.5C 93.6891,141.428 92.3557,140.595 91.5,139C 89.9019,131.774 88.0686,124.608 86,117.5C 82.5084,112.185 79.8418,106.519 78,100.5C 76.0336,99.2197 74.5336,97.553 73.5,95.5C 73.8039,94.8501 74.1373,94.1835 74.5,93.5C 72.9954,90.8694 72.3287,91.2027 72.5,94.5C 70.013,89.367 67.513,84.0337 65,78.5C 64,77.8333 63,77.1667 62,76.5C 62.1486,70.8087 59.6486,66.9754 54.5,65C 55.8663,62.6182 55.533,60.4515 53.5,58.5C 62.6416,61.9731 69.8083,59.3065 75,50.5C 77.2577,47.7222 77.7577,44.7222 76.5,41.5C 72.5557,40.609 68.8891,39.2757 65.5,37.5C 68.4929,38.1346 71.4929,38.3013 74.5,38C 72.1623,36.9485 70.1623,36.1152 68.5,35.5C 70.5548,35.1314 72.5548,34.9647 74.5,35C 76.3235,37.8668 78.4902,40.3668 81,42.5C 81.6838,43.7839 81.5171,44.9505 80.5,46C 81.4706,47.2036 82.4706,47.7036 83.5,47.5C 82.8333,48.8333 82.1667,50.1667 81.5,51.5C 82.0253,52.1924 82.6919,52.6924 83.5,53C 83.2716,53.3988 82.9382,53.5654 82.5,53.5 Z"/></g>
<g><path style="opacity:1" fill="#7195bd" d="M 80.5,90.5 C 84.721,97.6079 87.221,105.275 88,113.5C 84.1871,106.229 81.6871,98.5619 80.5,90.5 Z"/></g>
<g><path style="opacity:1" fill="#606060" d="M 115.5,117.5 C 115.5,122.167 115.5,126.833 115.5,131.5C 114.883,131.611 114.383,131.944 114,132.5C 112.396,126.844 112.563,121.178 114.5,115.5C 113.995,114.081 112.995,113.415 111.5,113.5C 111.5,112.833 111.5,112.167 111.5,111.5C 112.583,111.461 113.583,111.127 114.5,110.5C 115.474,112.743 115.808,115.076 115.5,117.5 Z"/></g>
<g><path style="opacity:1" fill="#d2d2d3" d="M 111.5,113.5 C 112.995,113.415 113.995,114.081 114.5,115.5C 112.563,121.178 112.396,126.844 114,132.5C 114.383,131.944 114.883,131.611 115.5,131.5C 115.196,134.522 114.696,137.522 114,140.5C 113.091,137.089 112.091,133.755 111,130.5C 110.032,137.967 105.866,142.3 98.5,143.5C 96.9704,143.36 95.9704,142.693 95.5,141.5C 95.8333,141.5 96.1667,141.5 96.5,141.5C 98.451,141.773 99.951,141.107 101,139.5C 101.443,133.633 102.276,127.966 103.5,122.5C 104.327,117.349 104.827,112.016 105,106.5C 105.118,115.56 105.785,124.56 107,133.5C 109.201,126.993 110.701,120.326 111.5,113.5 Z"/></g>
</svg>
