<?xml version="1.0" encoding="UTF-8"?>
<!DOCTYPE svg PUBLIC "-//W3C//DTD SVG 1.1//EN" "http://www.w3.org/Graphics/SVG/1.1/DTD/svg11.dtd">
<svg xmlns="http://www.w3.org/2000/svg" version="1.1" width="166px" height="158px" style="shape-rendering:geometricPrecision; text-rendering:geometricPrecision; image-rendering:optimizeQuality; fill-rule:evenodd; clip-rule:evenodd" xmlns:xlink="http://www.w3.org/1999/xlink">
<g><path style="opacity:1" fill="#f5f5f5" d="M -0.5,-0.5 C 54.8333,-0.5 110.167,-0.5 165.5,-0.5C 165.5,52.1667 165.5,104.833 165.5,157.5C 110.167,157.5 54.8333,157.5 -0.5,157.5C -0.5,104.833 -0.5,52.1667 -0.5,-0.5 Z"/></g>
<g><path style="opacity:1" fill="#a9abab" d="M 62.5,14.5 C 61.807,17.9415 60.807,21.2748 59.5,24.5C 58.2502,24.4226 57.4169,23.756 57,22.5C 55.2982,24.2988 55.1315,26.2988 56.5,28.5C 55.9361,30.8193 55.4361,33.1526 55,35.5C 54.6174,36.056 54.1174,36.3893 53.5,36.5C 53.1638,32.2789 52.4971,28.4456 51.5,25C 51.1667,24.5 50.8333,24 50.5,23.5C 49.8182,24.2427 49.1515,24.9094 48.5,25.5C 49.3752,16.9546 54.0418,13.2879 62.5,14.5 Z"/></g>
<g><path style="opacity:1" fill="#a9a9a9" d="M 46.5,30.5 C 45.0015,32.2578 44.6681,34.0912 45.5,36C 44.9558,36.7172 44.2891,37.2172 43.5,37.5C 43.169,29.4723 43.5023,21.4723 44.5,13.5C 45.1668,19.3195 45.8335,24.9861 46.5,30.5 Z"/></g>
<g><path style="opacity:1" fill="#586984" d="M 62.5,14.5 C 64.8333,14.5 67.1667,14.5 69.5,14.5C 68.451,18.9835 66.451,22.9835 63.5,26.5C 63.7876,27.8605 64.121,29.1938 64.5,30.5C 63.9094,31.1515 63.2427,31.8182 62.5,32.5C 63.1272,33.4168 63.4606,34.4168 63.5,35.5C 62.448,35.6495 61.448,35.4828 60.5,35C 61.5171,33.9505 61.6838,32.7839 61,31.5C 60.6232,32.9423 59.7899,33.9423 58.5,34.5C 59.0508,31.1933 59.3841,27.8599 59.5,24.5C 60.807,21.2748 61.807,17.9415 62.5,14.5 Z"/></g>
<g><path style="opacity:1" fill="#828588" d="M 53.5,36.5 C 53.2149,40.9981 52.8816,45.4981 52.5,50C 53.0125,54.6127 54.0125,59.1127 55.5,63.5C 55.4573,64.4164 55.1239,65.0831 54.5,65.5C 52.9044,59.6134 51.2378,53.78 49.5,48C 50.8463,45.206 50.3463,42.706 48,40.5C 47.6667,40.8333 47.3333,41.1667 47,41.5C 46.5499,37.8125 46.7166,34.1458 47.5,30.5C 49.4011,29.065 49.7345,27.3983 48.5,25.5C 49.1515,24.9094 49.8182,24.2427 50.5,23.5C 50.8333,24 51.1667,24.5 51.5,25C 52.4971,28.4456 53.1638,32.2789 53.5,36.5 Z"/></g>
<g><path style="opacity:1" fill="#61646a" d="M 46.5,30.5 C 46.8333,30.5 47.1667,30.5 47.5,30.5C 46.7166,34.1458 46.5499,37.8125 47,41.5C 47.3333,41.1667 47.6667,40.8333 48,40.5C 50.3463,42.706 50.8463,45.206 49.5,48C 51.2378,53.78 52.9044,59.6134 54.5,65.5C 54.6716,66.4916 54.3382,67.1583 53.5,67.5C 52.1324,65.4357 51.1324,63.1024 50.5,60.5C 50.1667,61.8333 49.8333,63.1667 49.5,64.5C 48.6042,61.8564 47.7709,59.1897 47,56.5C 46.719,59.0968 46.5523,61.4301 46.5,63.5C 45.6717,58.8685 45.1717,54.2018 45,49.5C 44.6174,50.056 44.1174,50.3893 43.5,50.5C 43.5,46.1667 43.5,41.8333 43.5,37.5C 44.2891,37.2172 44.9558,36.7172 45.5,36C 44.6681,34.0912 45.0015,32.2578 46.5,30.5 Z"/></g>
<g><path style="opacity:1" fill="#afbece" d="M 69.5,14.5 C 70.5585,15.6002 71.3918,16.9336 72,18.5C 74.5653,27.9509 77.3986,37.2843 80.5,46.5C 79.3406,47.4558 78.1739,48.4558 77,49.5C 75.7147,49.0496 74.548,48.3829 73.5,47.5C 72.8333,48.5 72.1667,49.5 71.5,50.5C 68.7847,48.854 66.7847,46.6873 65.5,44C 65.7995,41.9757 66.6329,41.4757 68,42.5C 68.2078,40.141 68.3744,37.9743 68.5,36C 67.3034,33.9847 65.9701,32.1513 64.5,30.5C 64.121,29.1938 63.7876,27.8605 63.5,26.5C 66.451,22.9835 68.451,18.9835 69.5,14.5 Z"/></g>
<g><path style="opacity:1" fill="#6f7c91" d="M 63.5,35.5 C 64.4778,35.811 65.1445,36.4777 65.5,37.5C 65.1543,38.6956 64.6543,38.6956 64,37.5C 62.9614,38.2438 62.4614,39.2438 62.5,40.5C 62.8174,43.5719 62.4841,46.5719 61.5,49.5C 60.5224,49.0233 59.6891,48.3567 59,47.5C 59.274,54.1305 59.4406,60.7972 59.5,67.5C 58.71,66.3915 58.21,65.0581 58,63.5C 57.1943,53.756 57.361,44.0893 58.5,34.5C 59.7899,33.9423 60.6232,32.9423 61,31.5C 61.6838,32.7839 61.5171,33.9505 60.5,35C 61.448,35.4828 62.448,35.6495 63.5,35.5 Z"/></g>
<g><path style="opacity:1" fill="#a3b2c6" d="M 64.5,30.5 C 65.9701,32.1513 67.3034,33.9847 68.5,36C 68.3744,37.9743 68.2078,40.141 68,42.5C 66.6329,41.4757 65.7995,41.9757 65.5,44C 66.7847,46.6873 68.7847,48.854 71.5,50.5C 72.1667,49.5 72.8333,48.5 73.5,47.5C 74.548,48.3829 75.7147,49.0496 77,49.5C 78.1739,48.4558 79.3406,47.4558 80.5,46.5C 81.5749,50.1458 83.2415,53.4791 85.5,56.5C 83.9826,56.4894 82.8159,55.8228 82,54.5C 81.9558,56.7597 82.7892,58.7597 84.5,60.5C 83.5754,61.5624 82.5754,61.5624 81.5,60.5C 78.14,62.2133 74.8067,63.8799 71.5,65.5C 73.2583,62.6256 72.5916,60.459 69.5,59C 65.7,58.4377 65.0334,59.4377 67.5,62C 66.5509,62.6172 65.7175,62.4506 65,61.5C 63.8808,57.557 65.0474,56.2237 68.5,57.5C 71.592,55.9384 74.7587,54.6051 78,53.5C 78.8893,54.8882 79.3893,54.7215 79.5,53C 77.963,52.617 76.6297,51.7836 75.5,50.5C 74.0186,51.4803 72.6853,52.647 71.5,54C 70.5,54.6667 69.5,54.6667 68.5,54C 65.836,49.6505 63.836,45.1505 62.5,40.5C 62.4614,39.2438 62.9614,38.2438 64,37.5C 64.6543,38.6956 65.1543,38.6956 65.5,37.5C 65.1445,36.4777 64.4778,35.811 63.5,35.5C 63.4606,34.4168 63.1272,33.4168 62.5,32.5C 63.2427,31.8182 63.9094,31.1515 64.5,30.5 Z"/></g>
<g><path style="opacity:1" fill="#3a3c44" d="M 53.5,67.5 C 55.7169,73.3846 57.3836,79.3846 58.5,85.5C 58.5,85.8333 58.5,86.1667 58.5,86.5C 57.5041,86.5858 56.6708,86.2524 56,85.5C 55.6667,82.5 55.3333,79.5 55,76.5C 53.9609,75.2899 52.7942,74.2899 51.5,73.5C 51.5674,72.0413 51.2341,70.7079 50.5,69.5C 50.2949,64.6406 49.2949,64.6406 47.5,69.5C 47.5,68.5 47.5,67.5 47.5,66.5C 46.5,66.5 45.5,66.5 44.5,66.5C 44.5,68.1667 44.5,69.8333 44.5,71.5C 44.1667,71.5 43.8333,71.5 43.5,71.5C 43.5,64.5 43.5,57.5 43.5,50.5C 44.1174,50.3893 44.6174,50.056 45,49.5C 45.1717,54.2018 45.6717,58.8685 46.5,63.5C 46.5523,61.4301 46.719,59.0968 47,56.5C 47.7709,59.1897 48.6042,61.8564 49.5,64.5C 49.8333,63.1667 50.1667,61.8333 50.5,60.5C 51.1324,63.1024 52.1324,65.4357 53.5,67.5 Z"/></g>
<g><path style="opacity:1" fill="#c1c4c9" d="M 59.5,24.5 C 59.3841,27.8599 59.0508,31.1933 58.5,34.5C 57.361,44.0893 57.1943,53.756 58,63.5C 58.21,65.0581 58.71,66.3915 59.5,67.5C 59.757,72.3519 61.4237,76.6852 64.5,80.5C 64.3764,81.1067 64.0431,81.44 63.5,81.5C 62.984,79.8002 61.984,78.4669 60.5,77.5C 59.8324,80.3056 59.1657,82.9723 58.5,85.5C 57.3836,79.3846 55.7169,73.3846 53.5,67.5C 54.3382,67.1583 54.6716,66.4916 54.5,65.5C 55.1239,65.0831 55.4573,64.4164 55.5,63.5C 54.0125,59.1127 53.0125,54.6127 52.5,50C 52.8816,45.4981 53.2149,40.9981 53.5,36.5C 54.1174,36.3893 54.6174,36.056 55,35.5C 55.4361,33.1526 55.9361,30.8193 56.5,28.5C 55.1315,26.2988 55.2982,24.2988 57,22.5C 57.4169,23.756 58.2502,24.4226 59.5,24.5 Z"/></g>
<g><path style="opacity:1" fill="#aeafaf" d="M 47.5,69.5 C 46.5,70.1667 45.5,70.8333 44.5,71.5C 44.5,69.8333 44.5,68.1667 44.5,66.5C 45.5,66.5 46.5,66.5 47.5,66.5C 47.5,67.5 47.5,68.5 47.5,69.5 Z"/></g>
<g><path style="opacity:1" fill="#515157" d="M 50.5,69.5 C 51.2341,70.7079 51.5674,72.0413 51.5,73.5C 51.5858,74.4959 51.2524,75.3292 50.5,76C 51.4429,79.5688 52.4429,83.0688 53.5,86.5C 50.8478,86.5905 48.5145,85.9238 46.5,84.5C 47.1663,80.6475 47.833,76.6475 48.5,72.5C 49.1757,71.3984 49.8423,70.3984 50.5,69.5 Z"/></g>
<g><path style="opacity:1" fill="#252529" d="M 50.5,69.5 C 49.8423,70.3984 49.1757,71.3984 48.5,72.5C 47.833,76.6475 47.1663,80.6475 46.5,84.5C 46.1667,84.5 45.8333,84.5 45.5,84.5C 44.8333,84.1667 44.1667,83.8333 43.5,83.5C 43.5,79.5 43.5,75.5 43.5,71.5C 43.8333,71.5 44.1667,71.5 44.5,71.5C 45.5,70.8333 46.5,70.1667 47.5,69.5C 49.2949,64.6406 50.2949,64.6406 50.5,69.5 Z"/></g>
<g><path style="opacity:1" fill="#7c90aa" d="M 62.5,40.5 C 63.836,45.1505 65.836,49.6505 68.5,54C 69.5,54.6667 70.5,54.6667 71.5,54C 72.6853,52.647 74.0186,51.4803 75.5,50.5C 76.6297,51.7836 77.963,52.617 79.5,53C 79.3893,54.7215 78.8893,54.8882 78,53.5C 74.7587,54.6051 71.592,55.9384 68.5,57.5C 65.0474,56.2237 63.8808,57.557 65,61.5C 65.7175,62.4506 66.5509,62.6172 67.5,62C 65.0334,59.4377 65.7,58.4377 69.5,59C 72.5916,60.459 73.2583,62.6256 71.5,65.5C 69.025,66.7883 66.6917,66.455 64.5,64.5C 63.7622,68.1291 63.9288,71.7957 65,75.5C 66.7742,76.965 68.6075,78.2983 70.5,79.5C 72.6282,80.6291 74.9615,80.7958 77.5,80C 79.242,77.2028 81.242,74.5361 83.5,72C 82.8333,71.3333 82.1667,71.3333 81.5,72C 80.2668,73.6667 78.9335,75.1667 77.5,76.5C 76.9613,73.9584 75.628,71.7918 73.5,70C 76.5443,69.6411 76.8776,68.9745 74.5,68C 75.6217,65.8762 77.1217,64.0429 79,62.5C 79.3333,63.1667 79.6667,63.8333 80,64.5C 80.7914,63.255 81.2914,61.9217 81.5,60.5C 82.5754,61.5624 83.5754,61.5624 84.5,60.5C 82.7892,58.7597 81.9558,56.7597 82,54.5C 82.8159,55.8228 83.9826,56.4894 85.5,56.5C 86.7021,58.945 86.3688,61.2783 84.5,63.5C 86.4899,64.4981 88.4899,65.4981 90.5,66.5C 91.2975,66.9569 91.6309,67.6236 91.5,68.5C 90.5041,68.4142 89.6708,68.7476 89,69.5C 86.4168,65.3172 82.9168,64.1505 78.5,66C 80.4909,67.1585 82.1576,68.6585 83.5,70.5C 85.2438,69.9698 86.7438,69.9698 88,70.5C 87.3746,72.8353 86.208,75.0019 84.5,77C 84.3866,78.6991 85.0532,79.8658 86.5,80.5C 86.1034,81.525 85.4368,81.6917 84.5,81C 83.9288,79.7949 83.2621,78.6283 82.5,77.5C 81.6184,78.7598 80.6184,79.9264 79.5,81C 72.5693,81.097 69.2359,84.597 69.5,91.5C 68.4341,92.6921 67.6008,92.3588 67,90.5C 66.6667,87.5 66.3333,84.5 66,81.5C 65.3064,85.554 65.4731,89.554 66.5,93.5C 65.0337,92.653 64.2004,91.3197 64,89.5C 63.5026,86.854 63.3359,84.1873 63.5,81.5C 64.0431,81.44 64.3764,81.1067 64.5,80.5C 61.4237,76.6852 59.757,72.3519 59.5,67.5C 59.4406,60.7972 59.274,54.1305 59,47.5C 59.6891,48.3567 60.5224,49.0233 61.5,49.5C 62.4841,46.5719 62.8174,43.5719 62.5,40.5 Z"/></g>
<g><path style="opacity:1" fill="#3b4d69" d="M 70.5,79.5 C 73.0783,79.0195 75.4116,78.0195 77.5,76.5C 78.9335,75.1667 80.2668,73.6667 81.5,72C 82.1667,71.3333 82.8333,71.3333 83.5,72C 81.242,74.5361 79.242,77.2028 77.5,80C 74.9615,80.7958 72.6282,80.6291 70.5,79.5 Z"/></g>
<g><path style="opacity:1" fill="#5e718e" d="M 81.5,60.5 C 81.2914,61.9217 80.7914,63.255 80,64.5C 79.6667,63.8333 79.3333,63.1667 79,62.5C 77.1217,64.0429 75.6217,65.8762 74.5,68C 76.8776,68.9745 76.5443,69.6411 73.5,70C 75.628,71.7918 76.9613,73.9584 77.5,76.5C 75.4116,78.0195 73.0783,79.0195 70.5,79.5C 68.6075,78.2983 66.7742,76.965 65,75.5C 63.9288,71.7957 63.7622,68.1291 64.5,64.5C 66.6917,66.455 69.025,66.7883 71.5,65.5C 74.8067,63.8799 78.14,62.2133 81.5,60.5 Z"/></g>
<g><path style="opacity:1" fill="#ededed" d="M 45.5,84.5 C 45.8333,84.5 46.1667,84.5 46.5,84.5C 48.5145,85.9238 50.8478,86.5905 53.5,86.5C 54.404,87.209 54.7373,88.209 54.5,89.5C 52.2143,89.595 50.2143,90.2616 48.5,91.5C 47.609,92.1098 46.609,92.4431 45.5,92.5C 45.5,89.8333 45.5,87.1667 45.5,84.5 Z"/></g>
<g><path style="opacity:1" fill="#758ba8" d="M 92.5,88.5 C 90.8767,89.7794 89.21,91.1128 87.5,92.5C 85.7752,90.2523 84.4419,90.7523 83.5,94C 81.6547,95.128 79.6547,95.628 77.5,95.5C 76.2407,98.366 75.2407,101.366 74.5,104.5C 73.02,101.274 71.3533,97.9408 69.5,94.5C 69.9569,93.7025 70.6236,93.3691 71.5,93.5C 74.877,94.9015 78.2103,94.7348 81.5,93C 83.3729,88.5187 85.7062,84.3521 88.5,80.5C 90.2017,77.9744 91.8683,78.1411 93.5,81C 92.381,82.876 90.7144,83.7093 88.5,83.5C 88.3398,85.1992 88.5065,86.8659 89,88.5C 89.9862,87.8288 91.1529,87.8288 92.5,88.5 Z"/></g>
<g><path style="opacity:1" fill="#9b9c9c" d="M 54.5,89.5 C 54.5,89.8333 54.5,90.1667 54.5,90.5C 53.596,91.209 53.2627,92.209 53.5,93.5C 51.6776,93.1692 50.0109,92.5025 48.5,91.5C 50.2143,90.2616 52.2143,89.595 54.5,89.5 Z"/></g>
<g><path style="opacity:1" fill="#4b5d79" d="M 86.5,80.5 C 87.1667,80.5 87.8333,80.5 88.5,80.5C 85.7062,84.3521 83.3729,88.5187 81.5,93C 78.2103,94.7348 74.877,94.9015 71.5,93.5C 71.1667,92.5 70.5,91.8333 69.5,91.5C 69.2359,84.597 72.5693,81.097 79.5,81C 80.6184,79.9264 81.6184,78.7598 82.5,77.5C 83.2621,78.6283 83.9288,79.7949 84.5,81C 85.4368,81.6917 86.1034,81.525 86.5,80.5 Z"/></g>
<g><path style="opacity:1" fill="#70829d" d="M 72.5,84.5 C 74.1667,84.5 75.8333,84.5 77.5,84.5C 77.2116,90.4419 78.0449,90.7752 80,85.5C 80.4676,91.0615 78.4676,92.3948 74,89.5C 73.6667,88.5 73.3333,87.5 73,86.5C 72.6667,88.1667 72.3333,89.8333 72,91.5C 70.0296,89.0367 70.1963,86.7034 72.5,84.5 Z"/></g>
<g><path style="opacity:1" fill="#9e9e9e" d="M 43.5,83.5 C 44.1667,83.8333 44.8333,84.1667 45.5,84.5C 45.5,87.1667 45.5,89.8333 45.5,92.5C 46.087,93.7666 46.087,94.7666 45.5,95.5C 44.8281,94.0508 44.1614,92.7175 43.5,91.5C 43.5,88.8333 43.5,86.1667 43.5,83.5 Z"/></g>
<g><path style="opacity:1" fill="#4e596d" d="M 63.5,81.5 C 63.3359,84.1873 63.5026,86.854 64,89.5C 64.2004,91.3197 65.0337,92.653 66.5,93.5C 68.5201,97.6858 68.8534,102.019 67.5,106.5C 66.8243,105.398 66.1577,104.398 65.5,103.5C 64.5667,100.63 62.9,98.2964 60.5,96.5C 59.8281,97.9492 59.1614,99.2825 58.5,100.5C 58.8411,95.8489 58.8411,91.1822 58.5,86.5C 58.5,86.1667 58.5,85.8333 58.5,85.5C 59.1657,82.9723 59.8324,80.3056 60.5,77.5C 61.984,78.4669 62.984,79.8002 63.5,81.5 Z"/></g>
<g><path style="opacity:1" fill="#6e819b" d="M 109.5,105.5 C 106.183,104.695 103.517,102.861 101.5,100C 100.207,99.51 98.8734,99.3433 97.5,99.5C 98.5624,98.4246 98.5624,97.4246 97.5,96.5C 96.2424,99.5995 94.7424,102.6 93,105.5C 93.6654,101.692 94.4987,97.859 95.5,94C 94.8333,93.3333 94.1667,93.3333 93.5,94C 90.0921,99.3187 87.0921,104.819 84.5,110.5C 76.0846,116.041 75.5846,115.374 83,108.5C 84.7653,105.968 86.2653,103.301 87.5,100.5C 88.3256,95.5013 90.6589,91.5013 94.5,88.5C 96.4516,87.2153 98.1182,85.5486 99.5,83.5C 99.8333,83.8333 100.167,84.1667 100.5,84.5C 99.5197,85.9814 98.353,87.3147 97,88.5C 96.3013,90.0738 96.6346,91.4071 98,92.5C 98.3333,91.8333 98.6667,91.1667 99,90.5C 98.6914,95.2623 100.858,98.0956 105.5,99C 107.666,100.678 108.999,102.845 109.5,105.5 Z"/></g>
<g><path style="opacity:1" fill="#43536e" d="M 92.5,88.5 C 93.1667,88.5 93.8333,88.5 94.5,88.5C 90.6589,91.5013 88.3256,95.5013 87.5,100.5C 85.6096,100.703 84.1096,100.037 83,98.5C 82.6401,100.608 81.9734,102.608 81,104.5C 80.6667,103.5 80.3333,102.5 80,101.5C 79.0162,104.036 77.8495,106.536 76.5,109C 77.3335,112.076 76.6668,112.242 74.5,109.5C 74.5,107.833 74.5,106.167 74.5,104.5C 75.2407,101.366 76.2407,98.366 77.5,95.5C 79.6547,95.628 81.6547,95.128 83.5,94C 84.4419,90.7523 85.7752,90.2523 87.5,92.5C 89.21,91.1128 90.8767,89.7794 92.5,88.5 Z"/></g>
<g><path style="opacity:1" fill="#a8b9cb" d="M 91.5,68.5 C 98.0027,78.8403 104.503,89.1737 111,99.5C 111.738,101.881 111.238,103.881 109.5,105.5C 108.999,102.845 107.666,100.678 105.5,99C 100.858,98.0956 98.6914,95.2623 99,90.5C 98.6667,91.1667 98.3333,91.8333 98,92.5C 96.6346,91.4071 96.3013,90.0738 97,88.5C 98.353,87.3147 99.5197,85.9814 100.5,84.5C 100.167,84.1667 99.8333,83.8333 99.5,83.5C 98.1182,85.5486 96.4516,87.2153 94.5,88.5C 93.8333,88.5 93.1667,88.5 92.5,88.5C 91.1529,87.8288 89.9862,87.8288 89,88.5C 88.5065,86.8659 88.3398,85.1992 88.5,83.5C 90.7144,83.7093 92.381,82.876 93.5,81C 91.8683,78.1411 90.2017,77.9744 88.5,80.5C 87.8333,80.5 87.1667,80.5 86.5,80.5C 85.0532,79.8658 84.3866,78.6991 84.5,77C 86.208,75.0019 87.3746,72.8353 88,70.5C 86.7438,69.9698 85.2438,69.9698 83.5,70.5C 82.1576,68.6585 80.4909,67.1585 78.5,66C 82.9168,64.1505 86.4168,65.3172 89,69.5C 89.6708,68.7476 90.5041,68.4142 91.5,68.5 Z"/></g>
<g><path style="opacity:1" fill="#9ba0ab" d="M 66.5,93.5 C 70.8157,97.7094 71.4824,102.376 68.5,107.5C 67.5,107.5 66.5,107.5 65.5,107.5C 65.5,106.167 65.5,104.833 65.5,103.5C 66.1577,104.398 66.8243,105.398 67.5,106.5C 68.8534,102.019 68.5201,97.6858 66.5,93.5 Z"/></g>
<g><path style="opacity:1" fill="#667a96" d="M 69.5,91.5 C 70.5,91.8333 71.1667,92.5 71.5,93.5C 70.6236,93.3691 69.9569,93.7025 69.5,94.5C 71.3533,97.9408 73.02,101.274 74.5,104.5C 74.5,106.167 74.5,107.833 74.5,109.5C 73.3338,114.231 72.3338,118.897 71.5,123.5C 70.1667,122.5 68.8333,121.5 67.5,120.5C 67.1667,119.5 66.5,118.833 65.5,118.5C 66.3012,114.765 67.3012,111.099 68.5,107.5C 71.4824,102.376 70.8157,97.7094 66.5,93.5C 65.4731,89.554 65.3064,85.554 66,81.5C 66.3333,84.5 66.6667,87.5 67,90.5C 67.6008,92.3588 68.4341,92.6921 69.5,91.5 Z"/></g>
<g><path style="opacity:1" fill="#3e3f46" d="M 51.5,106.5 C 50.4138,106.62 49.7472,107.287 49.5,108.5C 49.8763,110.803 50.8763,111.137 52.5,109.5C 52.2627,110.791 52.596,111.791 53.5,112.5C 53.5,115.167 53.5,117.833 53.5,120.5C 52.1529,119.829 50.9862,119.829 50,120.5C 49.8829,119.05 50.0495,117.55 50.5,116C 50.2308,114.393 49.3974,113.226 48,112.5C 47.5314,106.818 47.6981,101.152 48.5,95.5C 49.5,95.5 50.5,95.5 51.5,95.5C 51.5,99.1667 51.5,102.833 51.5,106.5 Z"/></g>
<g><path style="opacity:1" fill="#7e7f7f" d="M 43.5,105.5 C 44.1667,107.833 44.8333,110.167 45.5,112.5C 44.5773,116.064 44.244,119.731 44.5,123.5C 43.5104,117.69 43.1771,111.69 43.5,105.5 Z"/></g>
<g><path style="opacity:1" fill="#b6b7bd" d="M 65.5,103.5 C 65.5,104.833 65.5,106.167 65.5,107.5C 66.5,107.5 67.5,107.5 68.5,107.5C 67.3012,111.099 66.3012,114.765 65.5,118.5C 65.3341,123.511 65.5007,128.511 66,133.5C 66.6529,136.139 67.8196,138.473 69.5,140.5C 66.0381,141.482 62.3714,141.815 58.5,141.5C 59.3909,140.739 60.0576,139.739 60.5,138.5C 59.9251,133.012 59.2584,127.679 58.5,122.5C 58.5,115.167 58.5,107.833 58.5,100.5C 59.1614,99.2825 59.8281,97.9492 60.5,96.5C 62.9,98.2964 64.5667,100.63 65.5,103.5 Z"/></g>
<g><path style="opacity:1" fill="#516787" d="M 87.5,100.5 C 86.2653,103.301 84.7653,105.968 83,108.5C 75.5846,115.374 76.0846,116.041 84.5,110.5C 80.0135,114.805 76.5135,119.805 74,125.5C 73.0053,124.934 72.172,124.267 71.5,123.5C 72.3338,118.897 73.3338,114.231 74.5,109.5C 76.6668,112.242 77.3335,112.076 76.5,109C 77.8495,106.536 79.0162,104.036 80,101.5C 80.3333,102.5 80.6667,103.5 81,104.5C 81.9734,102.608 82.6401,100.608 83,98.5C 84.1096,100.037 85.6096,100.703 87.5,100.5 Z"/></g>
<g><path style="opacity:1" fill="#292a30" d="M 54.5,90.5 C 53.7516,97.8088 53.4183,105.142 53.5,112.5C 52.596,111.791 52.2627,110.791 52.5,109.5C 52.4431,108.391 52.1098,107.391 51.5,106.5C 51.5,102.833 51.5,99.1667 51.5,95.5C 50.5,95.5 49.5,95.5 48.5,95.5C 47.6981,101.152 47.5314,106.818 48,112.5C 49.3974,113.226 50.2308,114.393 50.5,116C 50.0495,117.55 49.8829,119.05 50,120.5C 50.9862,119.829 52.1529,119.829 53.5,120.5C 53.665,123.85 53.4983,127.183 53,130.5C 52.3457,129.304 51.8457,129.304 51.5,130.5C 51.8934,134.596 52.5601,137.263 53.5,138.5C 54.9641,140.984 56.6308,140.984 58.5,138.5C 57.6906,136.929 57.3573,135.262 57.5,133.5C 58.4816,130.038 58.815,126.371 58.5,122.5C 59.2584,127.679 59.9251,133.012 60.5,138.5C 60.0576,139.739 59.3909,140.739 58.5,141.5C 56.5648,142.15 54.5648,142.483 52.5,142.5C 49.5949,133.354 48.5949,124.021 49.5,114.5C 47.8007,114.473 46.4674,113.806 45.5,112.5C 44.8333,110.167 44.1667,107.833 43.5,105.5C 43.5,100.833 43.5,96.1667 43.5,91.5C 44.1614,92.7175 44.8281,94.0508 45.5,95.5C 46.087,94.7666 46.087,93.7666 45.5,92.5C 46.609,92.4431 47.609,92.1098 48.5,91.5C 50.0109,92.5025 51.6776,93.1692 53.5,93.5C 53.2627,92.209 53.596,91.209 54.5,90.5 Z"/></g>
<g><path style="opacity:1" fill="#82838b" d="M 51.5,106.5 C 52.1098,107.391 52.4431,108.391 52.5,109.5C 50.8763,111.137 49.8763,110.803 49.5,108.5C 49.7472,107.287 50.4138,106.62 51.5,106.5 Z"/></g>
<g><path style="opacity:1" fill="#373e4a" d="M 45.5,112.5 C 46.4674,113.806 47.8007,114.473 49.5,114.5C 48.5949,124.021 49.5949,133.354 52.5,142.5C 50.0672,142.727 48.4006,141.727 47.5,139.5C 46.9101,138.234 46.4101,136.901 46,135.5C 45.7216,136.416 45.2216,137.082 44.5,137.5C 44.5,132.833 44.5,128.167 44.5,123.5C 44.244,119.731 44.5773,116.064 45.5,112.5 Z"/></g>
<g><path style="opacity:1" fill="#16171f" d="M 51.5,73.5 C 52.7942,74.2899 53.9609,75.2899 55,76.5C 55.3333,79.5 55.6667,82.5 56,85.5C 56.6708,86.2524 57.5041,86.5858 58.5,86.5C 58.8411,91.1822 58.8411,95.8489 58.5,100.5C 58.5,107.833 58.5,115.167 58.5,122.5C 58.815,126.371 58.4816,130.038 57.5,133.5C 56.5768,132.697 55.5768,132.53 54.5,133C 54.8333,133.333 55.1667,133.667 55.5,134C 53.8934,135.049 53.2267,136.549 53.5,138.5C 52.5601,137.263 51.8934,134.596 51.5,130.5C 51.8457,129.304 52.3457,129.304 53,130.5C 53.4983,127.183 53.665,123.85 53.5,120.5C 53.5,117.833 53.5,115.167 53.5,112.5C 53.4183,105.142 53.7516,97.8088 54.5,90.5C 54.5,90.1667 54.5,89.8333 54.5,89.5C 54.7373,88.209 54.404,87.209 53.5,86.5C 52.4429,83.0688 51.4429,79.5688 50.5,76C 51.2524,75.3292 51.5858,74.4959 51.5,73.5 Z"/></g>
<g><path style="opacity:1" fill="#44556f" d="M 97.5,99.5 C 95.9579,104.295 94.1246,108.962 92,113.5C 90.3948,121.388 93.5615,125.721 101.5,126.5C 103.078,128.318 102.578,129.318 100,129.5C 93.4407,127.139 89.6073,123.139 88.5,117.5C 86.8333,117.5 85.1667,117.5 83.5,117.5C 82.5489,118.919 82.2155,120.585 82.5,122.5C 78.4026,125.045 77.7359,128.212 80.5,132C 80.1667,132.167 79.8333,132.333 79.5,132.5C 75.8781,130.213 72.5448,127.547 69.5,124.5C 67.9131,128.308 66.9131,127.975 66.5,123.5C 66.5195,122.274 66.8529,121.274 67.5,120.5C 68.8333,121.5 70.1667,122.5 71.5,123.5C 72.172,124.267 73.0053,124.934 74,125.5C 76.5135,119.805 80.0135,114.805 84.5,110.5C 87.0921,104.819 90.0921,99.3187 93.5,94C 94.1667,93.3333 94.8333,93.3333 95.5,94C 94.4987,97.859 93.6654,101.692 93,105.5C 94.7424,102.6 96.2424,99.5995 97.5,96.5C 98.5624,97.4246 98.5624,98.4246 97.5,99.5 Z"/></g>
<g><path style="opacity:1" fill="#768396" d="M 101.5,126.5 C 103.484,126.484 104.484,127.484 104.5,129.5C 104.182,130.647 103.516,131.481 102.5,132C 106.563,132.038 110.397,132.872 114,134.5C 114.684,135.784 114.517,136.951 113.5,138C 111.5,138.667 109.5,138.667 107.5,138C 109.134,137.506 110.801,137.34 112.5,137.5C 112.64,135.876 111.973,134.71 110.5,134C 105.669,133.222 101.003,133.722 96.5,135.5C 93.7441,134.025 91.2441,132.025 89,129.5C 88.4169,131.002 87.5836,132.335 86.5,133.5C 86.2178,130.943 86.0511,128.277 86,125.5C 85.3333,124.833 84.6667,124.167 84,123.5C 83.8171,126.365 83.3171,129.031 82.5,131.5C 81.1667,128.5 81.1667,125.5 82.5,122.5C 82.2155,120.585 82.5489,118.919 83.5,117.5C 83.3433,118.873 83.51,120.207 84,121.5C 93.9436,133.769 94.777,133.269 86.5,120C 87.0556,118.989 87.7222,118.156 88.5,117.5C 89.6073,123.139 93.4407,127.139 100,129.5C 102.578,129.318 103.078,128.318 101.5,126.5 Z"/></g>
<g><path style="opacity:1" fill="#313940" d="M 83.5,117.5 C 85.1667,117.5 86.8333,117.5 88.5,117.5C 87.7222,118.156 87.0556,118.989 86.5,120C 94.777,133.269 93.9436,133.769 84,121.5C 83.51,120.207 83.3433,118.873 83.5,117.5 Z"/></g>
<g><path style="opacity:1" fill="#4d5d72" d="M 96.5,135.5 C 95.3406,137.25 93.674,138.25 91.5,138.5C 89.4731,136.058 86.8065,134.558 83.5,134C 83.8333,133.667 84.1667,133.333 84.5,133C 83.5842,132.722 82.9175,132.222 82.5,131.5C 83.3171,129.031 83.8171,126.365 84,123.5C 84.6667,124.167 85.3333,124.833 86,125.5C 86.0511,128.277 86.2178,130.943 86.5,133.5C 87.5836,132.335 88.4169,131.002 89,129.5C 91.2441,132.025 93.7441,134.025 96.5,135.5 Z"/></g>
<g><path style="opacity:1" fill="#374459" d="M 65.5,118.5 C 66.5,118.833 67.1667,119.5 67.5,120.5C 66.8529,121.274 66.5195,122.274 66.5,123.5C 66.9131,127.975 67.9131,128.308 69.5,124.5C 72.5448,127.547 75.8781,130.213 79.5,132.5C 79.8333,132.333 80.1667,132.167 80.5,132C 77.7359,128.212 78.4026,125.045 82.5,122.5C 81.1667,125.5 81.1667,128.5 82.5,131.5C 82.9175,132.222 83.5842,132.722 84.5,133C 84.1667,133.333 83.8333,133.667 83.5,134C 86.8065,134.558 89.4731,136.058 91.5,138.5C 84.3014,140.11 76.968,140.777 69.5,140.5C 67.8196,138.473 66.6529,136.139 66,133.5C 65.5007,128.511 65.3341,123.511 65.5,118.5 Z"/></g>
<g><path style="opacity:1" fill="#5d5d65" d="M 57.5,133.5 C 57.3573,135.262 57.6906,136.929 58.5,138.5C 56.6308,140.984 54.9641,140.984 53.5,138.5C 53.2267,136.549 53.8934,135.049 55.5,134C 55.1667,133.667 54.8333,133.333 54.5,133C 55.5768,132.53 56.5768,132.697 57.5,133.5 Z"/></g>
<g><path style="opacity:1" fill="#a1a1a1" d="M 47.5,139.5 C 46.2502,139.577 45.4169,140.244 45,141.5C 44.51,140.207 44.3433,138.873 44.5,137.5C 45.2216,137.082 45.7216,136.416 46,135.5C 46.4101,136.901 46.9101,138.234 47.5,139.5 Z"/></g>
</svg>
