<?xml version="1.0" encoding="UTF-8"?>
<!DOCTYPE svg PUBLIC "-//W3C//DTD SVG 1.1//EN" "http://www.w3.org/Graphics/SVG/1.1/DTD/svg11.dtd">
<svg xmlns="http://www.w3.org/2000/svg" version="1.1" width="166px" height="158px" style="shape-rendering:geometricPrecision; text-rendering:geometricPrecision; image-rendering:optimizeQuality; fill-rule:evenodd; clip-rule:evenodd" xmlns:xlink="http://www.w3.org/1999/xlink">
<g><path style="opacity:1" fill="#f5f5f5" d="M -0.5,-0.5 C 54.8333,-0.5 110.167,-0.5 165.5,-0.5C 165.5,52.1667 165.5,104.833 165.5,157.5C 110.167,157.5 54.8333,157.5 -0.5,157.5C -0.5,104.833 -0.5,52.1667 -0.5,-0.5 Z"/></g>
<g><path style="opacity:1" fill="#99a6b1" d="M 103.5,15.5 C 104.5,15.5 105.5,15.5 106.5,15.5C 107.141,16.4822 107.807,17.4822 108.5,18.5C 106.238,20.9445 105.904,23.6111 107.5,26.5C 107.5,29.5 107.5,32.5 107.5,35.5C 105.933,34.3192 105.099,32.6526 105,30.5C 103.989,31.3366 102.822,31.67 101.5,31.5C 100.658,26.213 100.324,20.8797 100.5,15.5C 101.5,15.5 102.5,15.5 103.5,15.5 Z"/></g>
<g><path style="opacity:1" fill="#b5b6ba" d="M 112.5,14.5 C 112.5,16.1667 112.5,17.8333 112.5,19.5C 111.448,19.3505 110.448,19.5172 109.5,20C 110.669,22.0065 111.335,24.1732 111.5,26.5C 110.167,26.5 108.833,26.5 107.5,26.5C 105.904,23.6111 106.238,20.9445 108.5,18.5C 107.807,17.4822 107.141,16.4822 106.5,15.5C 108.265,14.5386 110.265,14.2053 112.5,14.5 Z"/></g>
<g><path style="opacity:1" fill="#d8d9dc" d="M 80.5,17.5 C 82.1667,17.5 83.8333,17.5 85.5,17.5C 86.9882,22.1014 88.4882,26.7681 90,31.5C 90.7975,33.2588 90.6309,34.9255 89.5,36.5C 87.8849,35.846 86.2182,35.346 84.5,35C 83.2062,32.913 82.0395,30.7463 81,28.5C 80.0855,32.1851 79.4189,31.8518 79,27.5C 78.6667,28.8333 78.3333,30.1667 78,31.5C 76.6667,30.1667 75.3333,28.8333 74,27.5C 73.5172,28.448 73.3505,29.448 73.5,30.5C 72.7784,30.9175 72.2784,31.5842 72,32.5C 65.1445,29.636 64.9778,26.4693 71.5,23C 68.4665,22.3399 65.6331,22.8399 63,24.5C 62.8333,24.1667 62.6667,23.8333 62.5,23.5C 68.3467,21.1272 74.3467,19.1272 80.5,17.5 Z"/></g>
<g><path style="opacity:1" fill="#636363" d="M 121.5,25.5 C 121.5,27.1667 121.5,28.8333 121.5,30.5C 121.5,31.1667 121.5,31.8333 121.5,32.5C 120.833,32.5 120.167,32.5 119.5,32.5C 119.335,29.4816 119.502,26.4816 120,23.5C 120.278,24.4158 120.778,25.0825 121.5,25.5 Z"/></g>
<g><path style="opacity:1" fill="#c6c6cb" d="M 83.5,15.5 C 86.9861,16.2167 90.3194,17.5501 93.5,19.5C 94.6519,27.2386 95.9853,34.9053 97.5,42.5C 95.4357,42.313 93.4357,41.813 91.5,41C 89.4931,37.8189 86.8265,36.6522 83.5,37.5C 83.6236,38.1067 83.9569,38.44 84.5,38.5C 87.724,46.6413 90.0574,54.9746 91.5,63.5C 90.3501,62.1498 89.6834,62.3164 89.5,64C 90.9526,68.769 90.4526,69.269 88,65.5C 88.6305,68.3155 87.9638,70.9822 86,73.5C 84.8006,71.4244 83.3006,69.7577 81.5,68.5C 81.762,67.0222 81.4287,65.6888 80.5,64.5C 79.5846,66.9803 78.0846,67.6469 76,66.5C 75.8078,68.5767 75.3078,70.5767 74.5,72.5C 73.9202,70.3633 72.9202,68.53 71.5,67C 77.0044,64.2108 79.171,59.7108 78,53.5C 77.6667,53.8333 77.3333,54.1667 77,54.5C 76.6667,53.5 76.3333,52.5 76,51.5C 73.4044,55.0305 71.0711,58.6971 69,62.5C 67.7054,59.9949 67.5388,57.3283 68.5,54.5C 70.4223,47.9778 72.4223,41.4778 74.5,35C 74.4915,33.2933 74.1582,31.7933 73.5,30.5C 73.3505,29.448 73.5172,28.448 74,27.5C 75.3333,28.8333 76.6667,30.1667 78,31.5C 78.3333,30.1667 78.6667,28.8333 79,27.5C 79.4189,31.8518 80.0855,32.1851 81,28.5C 82.0395,30.7463 83.2062,32.913 84.5,35C 86.2182,35.346 87.8849,35.846 89.5,36.5C 90.6309,34.9255 90.7975,33.2588 90,31.5C 88.4882,26.7681 86.9882,22.1014 85.5,17.5C 83.8333,17.5 82.1667,17.5 80.5,17.5C 81.2905,16.5987 82.2905,15.9321 83.5,15.5 Z"/></g>
<g><path style="opacity:1" fill="#89939a" d="M 112.5,14.5 C 116.079,14.9106 118.246,16.9106 119,20.5C 119.333,19.5 119.667,18.5 120,17.5C 121.079,20.0627 121.579,22.7294 121.5,25.5C 120.778,25.0825 120.278,24.4158 120,23.5C 119.502,26.4816 119.335,29.4816 119.5,32.5C 118.627,36.7685 118.294,41.1018 118.5,45.5C 117.768,46.8083 116.934,48.1416 116,49.5C 115.5,56.4921 115.334,63.4921 115.5,70.5C 114.448,70.3505 113.448,70.5172 112.5,71C 113.591,73.0639 113.758,75.2305 113,77.5C 112.487,76.4734 111.987,75.4734 111.5,74.5C 110.189,68.0121 110.189,61.5121 111.5,55C 111.192,53.5405 110.525,52.3739 109.5,51.5C 108.703,46.197 108.036,40.8637 107.5,35.5C 107.5,32.5 107.5,29.5 107.5,26.5C 108.833,26.5 110.167,26.5 111.5,26.5C 111.335,24.1732 110.669,22.0065 109.5,20C 110.448,19.5172 111.448,19.3505 112.5,19.5C 112.5,17.8333 112.5,16.1667 112.5,14.5 Z"/></g>
<g><path style="opacity:1" fill="#282929" d="M 119.5,32.5 C 120.167,32.5 120.833,32.5 121.5,32.5C 121.5,46.5 121.5,60.5 121.5,74.5C 120.636,73.3117 119.636,72.1451 118.5,71C 119.833,69.3333 119.833,67.6667 118.5,66C 119.574,65.2613 120.241,64.2613 120.5,63C 120.433,58.2655 120.266,53.4322 120,48.5C 118.961,47.7562 118.461,46.7562 118.5,45.5C 118.294,41.1018 118.627,36.7685 119.5,32.5 Z"/></g>
<g><path style="opacity:1" fill="#b2b7c0" d="M 103.5,15.5 C 102.5,15.5 101.5,15.5 100.5,15.5C 100.324,20.8797 100.658,26.213 101.5,31.5C 102.822,31.67 103.989,31.3366 105,30.5C 105.099,32.6526 105.933,34.3192 107.5,35.5C 108.036,40.8637 108.703,46.197 109.5,51.5C 108.314,54.9377 107.647,58.6044 107.5,62.5C 108.4,80.088 108.567,97.7547 108,115.5C 107.333,116.833 106.333,117.833 105,118.5C 104.987,122.383 103.82,125.716 101.5,128.5C 101.334,124.486 101.501,120.486 102,116.5C 105.155,113.582 106.655,109.915 106.5,105.5C 105.789,96.8484 105.289,88.1818 105,79.5C 103.676,77.1724 102.343,74.8391 101,72.5C 100.817,75.3647 100.317,78.0314 99.5,80.5C 97.734,65.6996 93.234,51.6996 86,38.5C 85.31,37.2617 84.81,37.2617 84.5,38.5C 83.9569,38.44 83.6236,38.1067 83.5,37.5C 86.8265,36.6522 89.4931,37.8189 91.5,41C 93.4357,41.813 95.4357,42.313 97.5,42.5C 95.9853,34.9053 94.6519,27.2386 93.5,19.5C 90.3194,17.5501 86.9861,16.2167 83.5,15.5C 90.296,14.2264 96.9626,14.2264 103.5,15.5 Z"/></g>
<g><path style="opacity:1" fill="#636d73" d="M 118.5,45.5 C 118.461,46.7562 118.961,47.7562 120,48.5C 120.266,53.4322 120.433,58.2655 120.5,63C 120.241,64.2613 119.574,65.2613 118.5,66C 119.833,67.6667 119.833,69.3333 118.5,71C 119.636,72.1451 120.636,73.3117 121.5,74.5C 121.5,77.1667 121.5,79.8333 121.5,82.5C 120.728,83.6935 119.728,84.6935 118.5,85.5C 119.162,81.5341 119.495,77.5341 119.5,73.5C 117.027,73.9118 115.694,72.9118 115.5,70.5C 115.334,63.4921 115.5,56.4921 116,49.5C 116.934,48.1416 117.768,46.8083 118.5,45.5 Z"/></g>
<g><path style="opacity:1" fill="#9295a1" d="M 99.5,80.5 C 98.6829,82.4779 97.1829,83.4779 95,83.5C 91.3059,83.2922 88.1392,81.9588 85.5,79.5C 87.3413,78.7696 89.1746,78.1029 91,77.5C 92.6272,72.9061 92.7939,68.2394 91.5,63.5C 90.0574,54.9746 87.724,46.6413 84.5,38.5C 84.81,37.2617 85.31,37.2617 86,38.5C 93.234,51.6996 97.734,65.6996 99.5,80.5 Z"/></g>
<g><path style="opacity:1" fill="#dee0e3" d="M 81.5,68.5 C 81.3016,70.5753 81.1349,72.5753 81,74.5C 82.0113,73.6634 83.1779,73.33 84.5,73.5C 84.33,74.8221 84.6634,75.9887 85.5,77C 84.4844,77.5194 83.8178,78.3527 83.5,79.5C 86.0419,81.9169 87.5419,84.9169 88,88.5C 88.9745,86.1224 89.6411,86.4557 90,89.5C 90.6667,88.1667 91.3333,86.8333 92,85.5C 92.414,85.9574 92.914,86.2907 93.5,86.5C 94.5237,85.1468 95.857,84.4802 97.5,84.5C 97.33,85.8221 97.6634,86.9887 98.5,88C 96.3143,88.6036 96.1476,89.7703 98,91.5C 99,90.8333 100,90.1667 101,89.5C 102.057,91.2194 102.89,93.0528 103.5,95C 101.699,95.3173 101.366,95.984 102.5,97C 102.167,100 100.5,101.667 97.5,102C 99.3348,102.928 99.6682,104.094 98.5,105.5C 97.2839,106.096 95.9506,106.263 94.5,106C 96.3615,107.028 97.6948,108.528 98.5,110.5C 97.5931,112.256 97.5931,114.089 98.5,116C 97.5427,119.679 96.2094,123.179 94.5,126.5C 94.6097,128.098 94.943,129.765 95.5,131.5C 95.0233,132.478 94.3567,133.311 93.5,134C 93.8943,136.06 93.8943,138.227 93.5,140.5C 91.4165,138.224 89.9165,135.557 89,132.5C 87.9654,126.241 86.2987,120.241 84,114.5C 83.7826,109.447 83.2826,104.447 82.5,99.5C 83.868,98.4063 85.0347,98.7397 86,100.5C 87.0749,92.8583 85.5749,92.0249 81.5,98C 80.8333,98.6667 80.1667,98.6667 79.5,98C 81.4641,95.6878 81.7974,93.1878 80.5,90.5C 79.2798,89.2889 78.1131,89.2889 77,90.5C 76.0206,88.6797 74.5206,87.513 72.5,87C 73.0219,86.4387 73.3552,85.772 73.5,85C 72.3906,82.9534 71.7239,80.7867 71.5,78.5C 69.8333,78.5 68.1667,78.5 66.5,78.5C 67.4907,74.9182 66.4907,71.7515 63.5,69C 64.9842,67.4263 66.6508,66.093 68.5,65C 66.6226,64.4242 64.7892,64.5909 63,65.5C 57.577,63.3666 57.4103,61.3666 62.5,59.5C 63.5539,59.6799 64.5539,60.0133 65.5,60.5C 66.5176,58.4061 67.5176,56.4061 68.5,54.5C 67.5388,57.3283 67.7054,59.9949 69,62.5C 71.0711,58.6971 73.4044,55.0305 76,51.5C 76.3333,52.5 76.6667,53.5 77,54.5C 77.3333,54.1667 77.6667,53.8333 78,53.5C 79.171,59.7108 77.0044,64.2108 71.5,67C 72.9202,68.53 73.9202,70.3633 74.5,72.5C 75.3078,70.5767 75.8078,68.5767 76,66.5C 78.0846,67.6469 79.5846,66.9803 80.5,64.5C 81.4287,65.6888 81.762,67.0222 81.5,68.5 Z"/></g>
<g><path style="opacity:1" fill="#d1d3d9" d="M 91.5,63.5 C 92.7939,68.2394 92.6272,72.9061 91,77.5C 89.1746,78.1029 87.3413,78.7696 85.5,79.5C 88.1392,81.9588 91.3059,83.2922 95,83.5C 97.1829,83.4779 98.6829,82.4779 99.5,80.5C 100.317,78.0314 100.817,75.3647 101,72.5C 102.343,74.8391 103.676,77.1724 105,79.5C 105.289,88.1818 105.789,96.8484 106.5,105.5C 106.655,109.915 105.155,113.582 102,116.5C 101.501,120.486 101.334,124.486 101.5,128.5C 100.36,133.504 98.3599,138.171 95.5,142.5C 94.5,142.167 93.8333,141.5 93.5,140.5C 93.8943,138.227 93.8943,136.06 93.5,134C 94.3567,133.311 95.0233,132.478 95.5,131.5C 94.943,129.765 94.6097,128.098 94.5,126.5C 96.2094,123.179 97.5427,119.679 98.5,116C 97.5931,114.089 97.5931,112.256 98.5,110.5C 97.6948,108.528 96.3615,107.028 94.5,106C 95.9506,106.263 97.2839,106.096 98.5,105.5C 99.6682,104.094 99.3348,102.928 97.5,102C 100.5,101.667 102.167,100 102.5,97C 101.366,95.984 101.699,95.3173 103.5,95C 102.89,93.0528 102.057,91.2194 101,89.5C 100,90.1667 99,90.8333 98,91.5C 96.1476,89.7703 96.3143,88.6036 98.5,88C 97.6634,86.9887 97.33,85.8221 97.5,84.5C 95.857,84.4802 94.5237,85.1468 93.5,86.5C 92.914,86.2907 92.414,85.9574 92,85.5C 91.3333,86.8333 90.6667,88.1667 90,89.5C 89.6411,86.4557 88.9745,86.1224 88,88.5C 87.5419,84.9169 86.0419,81.9169 83.5,79.5C 83.8178,78.3527 84.4844,77.5194 85.5,77C 84.6634,75.9887 84.33,74.8221 84.5,73.5C 83.1779,73.33 82.0113,73.6634 81,74.5C 81.1349,72.5753 81.3016,70.5753 81.5,68.5C 83.3006,69.7577 84.8006,71.4244 86,73.5C 87.9638,70.9822 88.6305,68.3155 88,65.5C 90.4526,69.269 90.9526,68.769 89.5,64C 89.6834,62.3164 90.3501,62.1498 91.5,63.5 Z"/></g>
<g><path style="opacity:1" fill="#7a838b" d="M 121.5,30.5 C 122.833,55.5 122.833,80.5 121.5,105.5C 121.5,104.5 121.5,103.5 121.5,102.5C 121.662,100.473 121.495,98.4727 121,96.5C 119.962,100.241 118.129,103.574 115.5,106.5C 116.325,107.386 117.325,107.719 118.5,107.5C 118.18,110.898 118.513,114.232 119.5,117.5C 120.17,115.709 120.837,114.042 121.5,112.5C 121.5,115.5 121.5,118.5 121.5,121.5C 120.839,122.718 120.172,124.051 119.5,125.5C 118.833,123.167 118.167,120.833 117.5,118.5C 116.702,118.957 116.369,119.624 116.5,120.5C 115.14,118.954 114.14,117.12 113.5,115C 113.836,113.97 114.503,113.47 115.5,113.5C 117.101,114.643 117.767,113.976 117.5,111.5C 117.245,107.93 116.245,107.597 114.5,110.5C 113.844,109.378 113.511,108.045 113.5,106.5C 113.685,103.866 114.685,101.7 116.5,100C 115.368,95.483 114.368,95.6496 113.5,100.5C 112.262,97.8322 112.262,95.1655 113.5,92.5C 112.972,90.6639 112.306,88.9972 111.5,87.5C 110.689,82.9937 110.689,78.6604 111.5,74.5C 111.987,75.4734 112.487,76.4734 113,77.5C 113.758,75.2305 113.591,73.0639 112.5,71C 113.448,70.5172 114.448,70.3505 115.5,70.5C 115.694,72.9118 117.027,73.9118 119.5,73.5C 119.495,77.5341 119.162,81.5341 118.5,85.5C 118.162,88.1569 118.829,90.4902 120.5,92.5C 121.487,89.2317 121.82,85.8984 121.5,82.5C 121.5,79.8333 121.5,77.1667 121.5,74.5C 121.5,60.5 121.5,46.5 121.5,32.5C 121.5,31.8333 121.5,31.1667 121.5,30.5 Z"/></g>
<g><path style="opacity:1" fill="#2a2b2d" d="M 121.5,82.5 C 121.82,85.8984 121.487,89.2317 120.5,92.5C 118.829,90.4902 118.162,88.1569 118.5,85.5C 119.728,84.6935 120.728,83.6935 121.5,82.5 Z"/></g>
<g><path style="opacity:1" fill="#556068" d="M 121.5,102.5 C 120.692,104.22 119.692,105.887 118.5,107.5C 117.325,107.719 116.325,107.386 115.5,106.5C 118.129,103.574 119.962,100.241 121,96.5C 121.495,98.4727 121.662,100.473 121.5,102.5 Z"/></g>
<g><path style="opacity:1" fill="#e5e5e7" d="M 115.5,113.5 C 114.89,112.609 114.557,111.609 114.5,110.5C 116.245,107.597 117.245,107.93 117.5,111.5C 117.767,113.976 117.101,114.643 115.5,113.5 Z"/></g>
<g><path style="opacity:1" fill="#2f3031" d="M 121.5,102.5 C 121.5,103.5 121.5,104.5 121.5,105.5C 121.5,107.833 121.5,110.167 121.5,112.5C 120.837,114.042 120.17,115.709 119.5,117.5C 118.513,114.232 118.18,110.898 118.5,107.5C 119.692,105.887 120.692,104.22 121.5,102.5 Z"/></g>
<g><path style="opacity:1" fill="#889299" d="M 111.5,87.5 C 112.306,88.9972 112.972,90.6639 113.5,92.5C 112.262,95.1655 112.262,97.8322 113.5,100.5C 114.368,95.6496 115.368,95.483 116.5,100C 114.685,101.7 113.685,103.866 113.5,106.5C 113.511,108.045 113.844,109.378 114.5,110.5C 114.557,111.609 114.89,112.609 115.5,113.5C 114.503,113.47 113.836,113.97 113.5,115C 114.14,117.12 115.14,118.954 116.5,120.5C 117.494,121.999 117.494,123.666 116.5,125.5C 115.685,126.837 114.518,127.837 113,128.5C 112.517,129.448 112.351,130.448 112.5,131.5C 112.44,132.043 112.107,132.376 111.5,132.5C 110.239,130.421 109.239,128.254 108.5,126C 109.285,113.096 110.285,100.262 111.5,87.5 Z"/></g>
<g><path style="opacity:1" fill="#98a1aa" d="M 109.5,51.5 C 110.525,52.3739 111.192,53.5405 111.5,55C 110.189,61.5121 110.189,68.0121 111.5,74.5C 110.689,78.6604 110.689,82.9937 111.5,87.5C 110.285,100.262 109.285,113.096 108.5,126C 109.239,128.254 110.239,130.421 111.5,132.5C 112.107,132.376 112.44,132.043 112.5,131.5C 112.589,134.877 111.256,138.044 108.5,141C 104.27,142.29 99.9362,142.79 95.5,142.5C 98.3599,138.171 100.36,133.504 101.5,128.5C 103.82,125.716 104.987,122.383 105,118.5C 106.333,117.833 107.333,116.833 108,115.5C 108.567,97.7547 108.4,80.088 107.5,62.5C 107.647,58.6044 108.314,54.9377 109.5,51.5 Z"/></g>
<g><path style="opacity:1" fill="#b9babb" d="M 121.5,121.5 C 121.922,125.722 121.255,129.722 119.5,133.5C 118.686,131.234 118.186,128.9 118,126.5C 117.617,125.944 117.117,125.611 116.5,125.5C 117.494,123.666 117.494,121.999 116.5,120.5C 116.369,119.624 116.702,118.957 117.5,118.5C 118.167,120.833 118.833,123.167 119.5,125.5C 120.172,124.051 120.839,122.718 121.5,121.5 Z"/></g>
</svg>
