<?xml version="1.0" encoding="UTF-8"?>
<!DOCTYPE svg PUBLIC "-//W3C//DTD SVG 1.1//EN" "http://www.w3.org/Graphics/SVG/1.1/DTD/svg11.dtd">
<svg xmlns="http://www.w3.org/2000/svg" version="1.1" width="158px" height="166px" style="shape-rendering:geometricPrecision; text-rendering:geometricPrecision; image-rendering:optimizeQuality; fill-rule:evenodd; clip-rule:evenodd" xmlns:xlink="http://www.w3.org/1999/xlink">
<g><path style="opacity:1" fill="#f5f5f5" d="M -0.5,-0.5 C 52.1667,-0.5 104.833,-0.5 157.5,-0.5C 157.5,54.8333 157.5,110.167 157.5,165.5C 104.833,165.5 52.1667,165.5 -0.5,165.5C -0.5,110.167 -0.5,54.8333 -0.5,-0.5 Z"/></g>
<g><path style="opacity:1" fill="#7e7f7f" d="M 28.5,44.5 C 35.9818,43.508 43.6484,43.1746 51.5,43.5C 51.5,43.8333 51.5,44.1667 51.5,44.5C 48.9407,44.1984 46.6074,44.5318 44.5,45.5C 39.2599,44.5509 33.9265,44.2175 28.5,44.5 Z"/></g>
<g><path style="opacity:1" fill="#4d4d4e" d="M 51.5,44.5 C 51.5,44.1667 51.5,43.8333 51.5,43.5C 55.8333,43.5 60.1667,43.5 64.5,43.5C 63.5,44.1667 62.5,44.8333 61.5,45.5C 58.4534,45.0098 55.1201,44.6765 51.5,44.5 Z"/></g>
<g><path style="opacity:1" fill="#a7a8a7" d="M 118.5,43.5 C 126.196,43.1692 133.862,43.5025 141.5,44.5C 136.349,45.1668 131.349,45.8335 126.5,46.5C 123.671,45.1407 121.004,44.1407 118.5,43.5 Z"/></g>
<g><path style="opacity:1" fill="#a3a4a2" d="M 64.5,43.5 C 67.5,43.5 70.5,43.5 73.5,43.5C 73.1667,44.1667 72.8333,44.8333 72.5,45.5C 69.8333,45.5 67.1667,45.5 64.5,45.5C 63.5084,45.3284 62.8417,45.6618 62.5,46.5C 61.8333,46.5 61.5,46.1667 61.5,45.5C 62.5,44.8333 63.5,44.1667 64.5,43.5 Z"/></g>
<g><path style="opacity:1" fill="#a6a7a7" d="M 85.5,44.5 C 87.1667,44.5 88.8333,44.5 90.5,44.5C 90.5674,45.9587 90.2341,47.2921 89.5,48.5C 87.7356,47.674 86.4023,46.3407 85.5,44.5 Z"/></g>
<g><path style="opacity:1" fill="#ababab" d="M 18.5,44.5 C 19.2625,45.2679 20.2625,45.7679 21.5,46C 20.0993,46.4101 18.766,46.9101 17.5,47.5C 13.2142,45.1902 13.5475,44.1902 18.5,44.5 Z"/></g>
<g><path style="opacity:1" fill="#e3e4e3" d="M 64.5,45.5 C 67.1667,45.5 69.8333,45.5 72.5,45.5C 72.5,45.8333 72.5,46.1667 72.5,46.5C 71.2051,48.9791 70.2051,51.6458 69.5,54.5C 68.5,54.5 67.5,54.5 66.5,54.5C 65.5,53.8333 64.5,53.1667 63.5,52.5C 63.5,51.8333 63.5,51.1667 63.5,50.5C 64.4959,50.4142 65.3292,50.7476 66,51.5C 66.1667,51 66.3333,50.5 66.5,50C 65.5862,48.5936 64.9195,47.0936 64.5,45.5 Z"/></g>
<g><path style="opacity:1" fill="#1a1a1e" d="M 51.5,44.5 C 55.1201,44.6765 58.4534,45.0098 61.5,45.5C 61.5,46.1667 61.8333,46.5 62.5,46.5C 62.5011,47.7545 62.8344,49.0878 63.5,50.5C 63.5,51.1667 63.5,51.8333 63.5,52.5C 62.209,52.7373 61.209,52.404 60.5,51.5C 61.404,50.791 61.7373,49.791 61.5,48.5C 58.1194,48.5405 54.7861,48.2071 51.5,47.5C 51.189,46.5222 50.5223,45.8555 49.5,45.5C 46.2651,46.5862 43.4317,48.2529 41,50.5C 38.2918,50.1331 35.7918,49.4665 33.5,48.5C 36.0878,48.4567 38.2544,47.4567 40,45.5C 41.6155,46.8009 43.1155,46.8009 44.5,45.5C 46.6074,44.5318 48.9407,44.1984 51.5,44.5 Z"/></g>
<g><path style="opacity:1" fill="#212123" d="M 73.5,43.5 C 77.5,43.5 81.5,43.5 85.5,43.5C 85.5,43.8333 85.5,44.1667 85.5,44.5C 86.4023,46.3407 87.7356,47.674 89.5,48.5C 91.9057,49.5232 91.9057,50.1899 89.5,50.5C 87.9996,50.5472 86.9996,49.8805 86.5,48.5C 81.6833,47.8331 77.0166,47.1665 72.5,46.5C 72.5,46.1667 72.5,45.8333 72.5,45.5C 72.8333,44.8333 73.1667,44.1667 73.5,43.5 Z"/></g>
<g><path style="opacity:1" fill="#39404d" d="M 18.5,44.5 C 21.8333,44.5 25.1667,44.5 28.5,44.5C 33.9265,44.2175 39.2599,44.5509 44.5,45.5C 43.1155,46.8009 41.6155,46.8009 40,45.5C 38.2544,47.4567 36.0878,48.4567 33.5,48.5C 27.0601,49.3602 20.7267,50.6936 14.5,52.5C 14.2729,50.0672 15.2729,48.4006 17.5,47.5C 18.766,46.9101 20.0993,46.4101 21.5,46C 20.2625,45.7679 19.2625,45.2679 18.5,44.5 Z"/></g>
<g><path style="opacity:1" fill="#515057" d="M 62.5,46.5 C 62.8417,45.6618 63.5084,45.3284 64.5,45.5C 64.9195,47.0936 65.5862,48.5936 66.5,50C 66.3333,50.5 66.1667,51 66,51.5C 65.3292,50.7476 64.4959,50.4142 63.5,50.5C 62.8344,49.0878 62.5011,47.7545 62.5,46.5 Z"/></g>
<g><path style="opacity:1" fill="#40424a" d="M 85.5,44.5 C 85.5,44.1667 85.5,43.8333 85.5,43.5C 92.5,43.5 99.5,43.5 106.5,43.5C 106.611,44.1174 106.944,44.6174 107.5,45C 102.798,45.1717 98.1315,45.6717 93.5,46.5C 95.2388,46.5938 97.2388,46.7605 99.5,47C 97.1955,47.8952 94.8622,48.7285 92.5,49.5C 93.533,50.452 94.6996,50.452 96,49.5C 97.2247,49.8623 98.3914,50.3623 99.5,51C 96.3897,52.5244 93.0564,53.3577 89.5,53.5C 85.463,55.5063 81.1297,56.5063 76.5,56.5C 78.9423,55.2814 81.2757,53.7814 83.5,52C 82.5838,51.6258 81.7504,51.1258 81,50.5C 77.0809,51.5856 73.2475,52.9189 69.5,54.5C 70.2051,51.6458 71.2051,48.9791 72.5,46.5C 77.0166,47.1665 81.6833,47.8331 86.5,48.5C 86.9996,49.8805 87.9996,50.5472 89.5,50.5C 91.9057,50.1899 91.9057,49.5232 89.5,48.5C 90.2341,47.2921 90.5674,45.9587 90.5,44.5C 88.8333,44.5 87.1667,44.5 85.5,44.5 Z"/></g>
<g><path style="opacity:1" fill="#6b6f73" d="M 106.5,43.5 C 110.5,43.5 114.5,43.5 118.5,43.5C 121.004,44.1407 123.671,45.1407 126.5,46.5C 126.833,47.1667 127.167,47.8333 127.5,48.5C 127.53,49.4972 127.03,50.1639 126,50.5C 122.879,49.4641 119.713,49.2974 116.5,50C 119.98,50.3012 123.313,51.1345 126.5,52.5C 123.914,53.48 121.247,53.8134 118.5,53.5C 116.324,51.9693 113.824,51.3026 111,51.5C 104.63,52.2405 98.2965,53.2405 92,54.5C 90.9302,54.472 90.0968,54.1386 89.5,53.5C 93.0564,53.3577 96.3897,52.5244 99.5,51C 98.3914,50.3623 97.2247,49.8623 96,49.5C 94.6996,50.452 93.533,50.452 92.5,49.5C 94.8622,48.7285 97.1955,47.8952 99.5,47C 97.2388,46.7605 95.2388,46.5938 93.5,46.5C 98.1315,45.6717 102.798,45.1717 107.5,45C 106.944,44.6174 106.611,44.1174 106.5,43.5 Z"/></g>
<g><path style="opacity:1" fill="#4a4a52" d="M 51.5,47.5 C 54.7861,48.2071 58.1194,48.5405 61.5,48.5C 61.7373,49.791 61.404,50.791 60.5,51.5C 55.7734,51.5236 51.1068,51.6903 46.5,52C 45.1667,50.6667 45.1667,49.3333 46.5,48C 48.1341,47.5065 49.8008,47.3398 51.5,47.5 Z"/></g>
<g><path style="opacity:1" fill="#2c2d35" d="M 51.5,47.5 C 49.8008,47.3398 48.1341,47.5065 46.5,48C 45.1667,49.3333 45.1667,50.6667 46.5,52C 51.1068,51.6903 55.7734,51.5236 60.5,51.5C 61.209,52.404 62.209,52.7373 63.5,52.5C 64.5,53.1667 65.5,53.8333 66.5,54.5C 52.8033,53.7191 39.1367,52.8858 25.5,52C 25.3474,53.2087 25.0141,54.3754 24.5,55.5C 23.2671,55.5676 21.9338,54.9009 20.5,53.5C 16.456,54.1828 15.7894,55.8494 18.5,58.5C 20.0709,57.6906 21.7376,57.3573 23.5,57.5C 25.2646,58.4614 27.2646,58.7947 29.5,58.5C 25.8183,59.2612 21.985,59.9279 18,60.5C 16.9889,59.9444 16.1556,59.2778 15.5,58.5C 14.8505,56.5648 14.5172,54.5648 14.5,52.5C 20.7267,50.6936 27.0601,49.3602 33.5,48.5C 35.7918,49.4665 38.2918,50.1331 41,50.5C 43.4317,48.2529 46.2651,46.5862 49.5,45.5C 50.5223,45.8555 51.189,46.5222 51.5,47.5 Z"/></g>
<g><path style="opacity:1" fill="#191a22" d="M 76.5,56.5 C 74.6943,57.0241 73.0276,57.6908 71.5,58.5C 65.8717,58.9809 60.205,58.9809 54.5,58.5C 46.1667,58.5 37.8333,58.5 29.5,58.5C 27.2646,58.7947 25.2646,58.4614 23.5,57.5C 23.8333,56.8333 24.1667,56.1667 24.5,55.5C 25.0141,54.3754 25.3474,53.2087 25.5,52C 39.1367,52.8858 52.8033,53.7191 66.5,54.5C 67.5,54.5 68.5,54.5 69.5,54.5C 73.2475,52.9189 77.0809,51.5856 81,50.5C 81.7504,51.1258 82.5838,51.6258 83.5,52C 81.2757,53.7814 78.9423,55.2814 76.5,56.5 Z"/></g>
<g><path style="opacity:1" fill="#5f5f66" d="M 24.5,55.5 C 24.1667,56.1667 23.8333,56.8333 23.5,57.5C 21.7376,57.3573 20.0709,57.6906 18.5,58.5C 15.7894,55.8494 16.456,54.1828 20.5,53.5C 21.9338,54.9009 23.2671,55.5676 24.5,55.5 Z"/></g>
<g><path style="opacity:1" fill="#bdc0c5" d="M 118.5,53.5 C 123.396,54.1686 128.396,55.002 133.5,56C 133.833,56.3333 134.167,56.6667 134.5,57C 133.309,57.6979 132.309,58.5313 131.5,59.5C 128.482,59.2962 125.482,58.9629 122.5,58.5C 112.577,57.36 102.577,57.1934 92.5,58C 86.5935,58.7876 81.2602,60.9542 76.5,64.5C 75.8933,64.3764 75.56,64.0431 75.5,63.5C 77.1998,62.984 78.5331,61.984 79.5,60.5C 76.6944,59.8324 74.0277,59.1657 71.5,58.5C 73.0276,57.6908 74.6943,57.0241 76.5,56.5C 81.1297,56.5063 85.463,55.5063 89.5,53.5C 90.0968,54.1386 90.9302,54.472 92,54.5C 98.2965,53.2405 104.63,52.2405 111,51.5C 113.824,51.3026 116.324,51.9693 118.5,53.5 Z"/></g>
<g><path style="opacity:1" fill="#a5a7a6" d="M 127.5,48.5 C 129.711,48.8977 132.044,49.0643 134.5,49C 136.37,50.3662 138.37,51.5328 140.5,52.5C 142.048,55.6152 143.048,58.9486 143.5,62.5C 143.376,63.1067 143.043,63.44 142.5,63.5C 138.99,61.707 135.324,60.3736 131.5,59.5C 132.309,58.5313 133.309,57.6979 134.5,57C 134.167,56.6667 133.833,56.3333 133.5,56C 128.396,55.002 123.396,54.1686 118.5,53.5C 121.247,53.8134 123.914,53.48 126.5,52.5C 123.313,51.1345 119.98,50.3012 116.5,50C 119.713,49.2974 122.879,49.4641 126,50.5C 127.03,50.1639 127.53,49.4972 127.5,48.5 Z"/></g>
<g><path style="opacity:1" fill="#b4b5bb" d="M 15.5,58.5 C 16.1556,59.2778 16.9889,59.9444 18,60.5C 21.985,59.9279 25.8183,59.2612 29.5,58.5C 37.8333,58.5 46.1667,58.5 54.5,58.5C 56.3691,59.1646 58.3691,59.8313 60.5,60.5C 57.8339,63.5043 54.5006,65.5043 50.5,66.5C 49.7025,66.9569 49.3691,67.6236 49.5,68.5C 45.9014,67.3012 42.2347,66.3012 38.5,65.5C 33.4889,65.3341 28.4889,65.5007 23.5,66C 20.8608,66.6529 18.5274,67.8196 16.5,69.5C 15.5184,66.0381 15.185,62.3714 15.5,58.5 Z"/></g>
<g><path style="opacity:1" fill="#556782" d="M 122.5,58.5 C 125.482,58.9629 128.482,59.2962 131.5,59.5C 135.324,60.3736 138.99,61.707 142.5,63.5C 142.5,65.5 142.5,67.5 142.5,69.5C 138.064,69.3616 134.397,67.695 131.5,64.5C 129.812,64.458 128.146,64.458 126.5,64.5C 125.553,62.5446 124.219,62.2113 122.5,63.5C 120.199,62.7312 120.033,61.7312 122,60.5C 123.049,61.5171 124.216,61.6838 125.5,61C 124.058,60.6232 123.058,59.7899 122.5,58.5 Z"/></g>
<g><path style="opacity:1" fill="#515b6f" d="M 71.5,58.5 C 74.0277,59.1657 76.6944,59.8324 79.5,60.5C 78.5331,61.984 77.1998,62.984 75.5,63.5C 69.6064,62.9433 64.2731,64.4433 59.5,68C 56.1832,68.4983 52.8499,68.665 49.5,68.5C 49.3691,67.6236 49.7025,66.9569 50.5,66.5C 54.5006,65.5043 57.8339,63.5043 60.5,60.5C 58.3691,59.8313 56.3691,59.1646 54.5,58.5C 60.205,58.9809 65.8717,58.9809 71.5,58.5 Z"/></g>
<g><path style="opacity:1" fill="#5a6e8c" d="M 91.5,73.5 C 93.1088,74.8979 93.9421,76.5646 94,78.5C 92.1038,76.4701 89.9371,74.8034 87.5,73.5C 85.4749,75.5644 83.1416,76.8977 80.5,77.5C 78.9174,75.4922 77.9174,73.1589 77.5,70.5C 79.861,65.2582 84.0276,62.9249 90,63.5C 90.8333,63.8333 91.6667,64.1667 92.5,64.5C 90.4944,67.4805 90.161,70.4805 91.5,73.5 Z"/></g>
<g><path style="opacity:1" fill="#667b97" d="M 38.5,65.5 C 42.2347,66.3012 45.9014,67.3012 49.5,68.5C 50.7767,69.8976 52.4434,70.5643 54.5,70.5C 57.2332,69.8534 59.8999,69.3534 62.5,69C 59.941,71.103 57.2743,72.9363 54.5,74.5C 52.1667,74.5 49.8333,74.5 47.5,74.5C 42.7694,73.3338 38.1027,72.3338 33.5,71.5C 34.5,70.1667 35.5,68.8333 36.5,67.5C 37.5,67.1667 38.1667,66.5 38.5,65.5 Z"/></g>
<g><path style="opacity:1" fill="#364359" d="M 38.5,65.5 C 38.1667,66.5 37.5,67.1667 36.5,67.5C 33.6965,66.3622 30.6965,66.1955 27.5,67C 27.1667,67.3333 26.8333,67.6667 26.5,68C 28.6177,69.3454 30.6177,69.8454 32.5,69.5C 29.4534,72.5448 26.7867,75.8781 24.5,79.5C 25.1098,80.5051 25.7764,80.3385 26.5,79C 30.3295,77.7819 32.9962,78.9486 34.5,82.5C 31.1812,80.9043 28.1812,81.2376 25.5,83.5C 24.1751,84.9526 23.3418,84.6192 23,82.5C 22.6667,84.8333 22.3333,87.1667 22,89.5C 21.586,89.0426 21.086,88.7093 20.5,88.5C 19.8243,89.6016 19.1577,90.6016 18.5,91.5C 16.8896,84.3014 16.223,76.968 16.5,69.5C 18.5274,67.8196 20.8608,66.6529 23.5,66C 28.4889,65.5007 33.4889,65.3341 38.5,65.5 Z"/></g>
<g><path style="opacity:1" fill="#b0bfcf" d="M 126.5,64.5 C 128.146,64.458 129.812,64.458 131.5,64.5C 134.397,67.695 138.064,69.3616 142.5,69.5C 140.402,70.935 138.069,72.1016 135.5,73C 127.149,75.5124 118.816,78.0124 110.5,80.5C 109.713,78.8958 108.38,78.2291 106.5,78.5C 105.457,75.0179 104.29,71.6845 103,68.5C 106.351,66.0064 110.185,64.8397 114.5,65C 115.056,64.6174 115.389,64.1174 115.5,63.5C 116.423,62.6971 117.423,62.5304 118.5,63C 112.997,69.2525 113.664,69.9192 120.5,65C 122.135,64.4604 123.468,64.9604 124.5,66.5C 125.522,66.1445 126.189,65.4778 126.5,64.5 Z"/></g>
<g><path style="opacity:1" fill="#788aa3" d="M 122.5,58.5 C 123.058,59.7899 124.058,60.6232 125.5,61C 124.216,61.6838 123.049,61.5171 122,60.5C 120.033,61.7312 120.199,62.7312 122.5,63.5C 124.219,62.2113 125.553,62.5446 126.5,64.5C 126.189,65.4778 125.522,66.1445 124.5,66.5C 123.468,64.9604 122.135,64.4604 120.5,65C 113.664,69.9192 112.997,69.2525 118.5,63C 117.423,62.5304 116.423,62.6971 115.5,63.5C 112.223,63.7839 109.057,63.4505 106,62.5C 103.289,64.6251 101.289,67.2917 100,70.5C 99.3486,68.765 99.5153,67.0983 100.5,65.5C 98.1221,64.0437 96.1221,64.3771 94.5,66.5C 95.5575,66.9059 96.8908,66.9059 98.5,66.5C 98.28,71.0635 96.1134,72.7301 92,71.5C 91.5357,72.0944 91.369,72.7611 91.5,73.5C 90.161,70.4805 90.4944,67.4805 92.5,64.5C 91.6667,64.1667 90.8333,63.8333 90,63.5C 84.0276,62.9249 79.861,65.2582 77.5,70.5C 76.6618,70.8417 76.3284,71.5084 76.5,72.5C 74.3193,72.7163 72.6526,71.883 71.5,70C 66.0621,68.4471 63.0621,70.4471 62.5,76C 62.4076,78.8139 63.4076,81.1473 65.5,83C 69.7499,83.7971 73.4165,85.6305 76.5,88.5C 79.0256,90.2017 78.8589,91.8683 76,93.5C 74.124,92.381 73.2907,90.7144 73.5,88.5C 71.8008,88.3398 70.1341,88.5065 68.5,89C 69.1712,89.9862 69.1712,91.1529 68.5,92.5C 67.0686,90.563 65.4019,88.7297 63.5,87C 67.0966,86.1357 66.9299,84.9691 63,83.5C 61.9478,79.2904 59.1145,76.2904 54.5,74.5C 57.2743,72.9363 59.941,71.103 62.5,69C 59.8999,69.3534 57.2332,69.8534 54.5,70.5C 52.4434,70.5643 50.7767,69.8976 49.5,68.5C 52.8499,68.665 56.1832,68.4983 59.5,68C 64.2731,64.4433 69.6064,62.9433 75.5,63.5C 75.56,64.0431 75.8933,64.3764 76.5,64.5C 81.2602,60.9542 86.5935,58.7876 92.5,58C 102.577,57.1934 112.577,57.36 122.5,58.5 Z"/></g>
<g><path style="opacity:1" fill="#536889" d="M 33.5,71.5 C 38.1027,72.3338 42.7694,73.3338 47.5,74.5C 46.1938,75.4674 45.5271,76.8007 45.5,78.5C 49.0479,78.0949 52.3812,78.5949 55.5,80C 54.5,80.3333 53.5,80.6667 52.5,81C 54.3921,81.9734 56.3921,82.6401 58.5,83C 57.2131,84.7859 55.7131,84.9526 54,83.5C 52.9701,83.8361 52.4701,84.5028 52.5,85.5C 48.5781,83.0845 45.0781,80.0845 42,76.5C 41.3333,77.1667 41.3333,77.8333 42,78.5C 44.0396,80.3702 45.8729,82.3702 47.5,84.5C 43.728,81.9059 40.0613,79.0726 36.5,76C 34.913,75.1376 33.2464,74.4709 31.5,74C 32.0659,73.0053 32.7326,72.172 33.5,71.5 Z"/></g>
<g><path style="opacity:1" fill="#3d4e6a" d="M 77.5,70.5 C 77.9174,73.1589 78.9174,75.4922 80.5,77.5C 82.8835,78.8851 84.5501,80.8851 85.5,83.5C 83.1003,81.3057 80.4336,79.639 77.5,78.5C 76.6586,76.6208 76.3253,74.6208 76.5,72.5C 76.3284,71.5084 76.6618,70.8417 77.5,70.5 Z"/></g>
<g><path style="opacity:1" fill="#495b77" d="M 76.5,72.5 C 76.3253,74.6208 76.6586,76.6208 77.5,78.5C 76.3552,79.7927 76.6885,80.9593 78.5,82C 75.1961,83.0419 73.0295,81.8753 72,78.5C 69.9521,79.4232 68.1188,78.9232 66.5,77C 67.938,76.7811 69.2713,76.2811 70.5,75.5C 68.2578,72.9255 66.5911,73.4255 65.5,77C 68.6694,80.0009 72.0028,82.8342 75.5,85.5C 76.1098,86.391 76.4431,87.391 76.5,88.5C 73.4165,85.6305 69.7499,83.7971 65.5,83C 63.4076,81.1473 62.4076,78.8139 62.5,76C 63.0621,70.4471 66.0621,68.4471 71.5,70C 72.6526,71.883 74.3193,72.7163 76.5,72.5 Z"/></g>
<g><path style="opacity:1" fill="#acbbce" d="M 104.5,82.5 C 103.167,83.5 101.833,84.5 100.5,85.5C 100.511,83.9826 101.177,82.8159 102.5,82C 100.953,81.6666 99.6199,82.1666 98.5,83.5C 95.3437,79.1395 96.1771,75.8062 101,73.5C 102.602,75.2627 103.102,77.096 102.5,79C 103.5,79.3333 104.5,79.6667 105.5,80C 104.748,80.6708 104.414,81.5041 104.5,82.5 Z"/></g>
<g><path style="opacity:1" fill="#40516b" d="M 47.5,74.5 C 49.8333,74.5 52.1667,74.5 54.5,74.5C 59.1145,76.2904 61.9478,79.2904 63,83.5C 66.9299,84.9691 67.0966,86.1357 63.5,87C 65.4019,88.7297 67.0686,90.563 68.5,92.5C 68.933,95.1955 70.2663,97.3621 72.5,99C 70.3264,98.0628 67.9931,97.2294 65.5,96.5C 64.3984,94.9081 65.065,94.0748 67.5,94C 66.8333,93 66.1667,92 65.5,91C 61.1784,89.0619 56.8451,87.2286 52.5,85.5C 52.4701,84.5028 52.9701,83.8361 54,83.5C 55.7131,84.9526 57.2131,84.7859 58.5,83C 56.3921,82.6401 54.3921,81.9734 52.5,81C 53.5,80.6667 54.5,80.3333 55.5,80C 52.3812,78.5949 49.0479,78.0949 45.5,78.5C 45.5271,76.8007 46.1938,75.4674 47.5,74.5 Z"/></g>
<g><path style="opacity:1" fill="#7187a3" d="M 77.5,78.5 C 80.4336,79.639 83.1003,81.3057 85.5,83.5C 87.6031,84.98 87.6031,86.1466 85.5,87C 85.7284,87.3988 86.0618,87.5654 86.5,87.5C 86.44,88.0431 86.1067,88.3764 85.5,88.5C 83.7221,86.0554 81.3887,84.3887 78.5,83.5C 76.9623,83.4534 75.9623,84.1201 75.5,85.5C 72.0028,82.8342 68.6694,80.0009 65.5,77C 66.5911,73.4255 68.2578,72.9255 70.5,75.5C 69.2713,76.2811 67.938,76.7811 66.5,77C 68.1188,78.9232 69.9521,79.4232 72,78.5C 73.0295,81.8753 75.1961,83.0419 78.5,82C 76.6885,80.9593 76.3552,79.7927 77.5,78.5 Z"/></g>
<g><path style="opacity:1" fill="#516177" d="M 25.5,83.5 C 33.7989,82.1893 34.9655,83.856 29,88.5C 27.6626,87.2351 26.1626,86.7351 24.5,87C 25.3279,87.9147 26.3279,88.5814 27.5,89C 26.0692,89.4652 24.9025,90.2986 24,91.5C 23.9504,93.744 23.1171,95.4107 21.5,96.5C 19.7497,95.3406 18.7497,93.674 18.5,91.5C 19.1577,90.6016 19.8243,89.6016 20.5,88.5C 21.086,88.7093 21.586,89.0426 22,89.5C 22.3333,87.1667 22.6667,84.8333 23,82.5C 23.3418,84.6192 24.1751,84.9526 25.5,83.5 Z"/></g>
<g><path style="opacity:1" fill="#30383e" d="M 39.5,83.5 C 39.5,85.1667 39.5,86.8333 39.5,88.5C 38.8444,87.7222 38.0111,87.0556 37,86.5C 23.7312,94.777 23.2312,93.9436 35.5,84C 36.7932,83.51 38.1266,83.3433 39.5,83.5 Z"/></g>
<g><path style="opacity:1" fill="#8fa2b7" d="M 115.5,63.5 C 115.389,64.1174 115.056,64.6174 114.5,65C 110.185,64.8397 106.351,66.0064 103,68.5C 104.29,71.6845 105.457,75.0179 106.5,78.5C 108.38,78.2291 109.713,78.8958 110.5,80.5C 108.685,81.6298 106.685,82.2964 104.5,82.5C 104.414,81.5041 104.748,80.6708 105.5,80C 104.5,79.6667 103.5,79.3333 102.5,79C 103.102,77.096 102.602,75.2627 101,73.5C 96.1771,75.8062 95.3437,79.1395 98.5,83.5C 99.6199,82.1666 100.953,81.6666 102.5,82C 101.177,82.8159 100.511,83.9826 100.5,85.5C 96.9255,86.2893 93.5921,87.6226 90.5,89.5C 89.448,89.6495 88.448,89.4828 87.5,89C 91.6828,86.4168 92.8495,82.9168 91,78.5C 89.5169,81.6908 88.0169,84.6908 86.5,87.5C 86.0618,87.5654 85.7284,87.3988 85.5,87C 87.6031,86.1466 87.6031,84.98 85.5,83.5C 84.5501,80.8851 82.8835,78.8851 80.5,77.5C 83.1416,76.8977 85.4749,75.5644 87.5,73.5C 89.9371,74.8034 92.1038,76.4701 94,78.5C 93.9421,76.5646 93.1088,74.8979 91.5,73.5C 91.369,72.7611 91.5357,72.0944 92,71.5C 96.1134,72.7301 98.28,71.0635 98.5,66.5C 96.8908,66.9059 95.5575,66.9059 94.5,66.5C 96.1221,64.3771 98.1221,64.0437 100.5,65.5C 99.5153,67.0983 99.3486,68.765 100,70.5C 101.289,67.2917 103.289,64.6251 106,62.5C 109.057,63.4505 112.223,63.7839 115.5,63.5 Z"/></g>
<g><path style="opacity:1" fill="#4a5b76" d="M 36.5,67.5 C 35.5,68.8333 34.5,70.1667 33.5,71.5C 32.7326,72.172 32.0659,73.0053 31.5,74C 33.2464,74.4709 34.913,75.1376 36.5,76C 40.0613,79.0726 43.728,81.9059 47.5,84.5C 52.6534,87.3333 57.8201,90.3333 63,93.5C 63.6667,94.1667 63.6667,94.8333 63,95.5C 59.4338,94.6055 55.9338,93.7722 52.5,93C 54.596,94.7658 56.9293,96.0991 59.5,97C 60.6956,97.6543 60.6956,98.1543 59.5,98.5C 58.8165,98.1373 58.1499,97.8039 57.5,97.5C 52.9886,96.0689 48.6553,94.4022 44.5,92.5C 45.552,92.6495 46.552,92.4828 47.5,92C 45.3554,90.7114 43.0221,89.8781 40.5,89.5C 40.5,88.8333 40.1667,88.5 39.5,88.5C 39.5,86.8333 39.5,85.1667 39.5,83.5C 38.0813,82.5489 36.4147,82.2155 34.5,82.5C 32.9962,78.9486 30.3295,77.7819 26.5,79C 25.7764,80.3385 25.1098,80.5051 24.5,79.5C 26.7867,75.8781 29.4534,72.5448 32.5,69.5C 30.6177,69.8454 28.6177,69.3454 26.5,68C 26.8333,67.6667 27.1667,67.3333 27.5,67C 30.6965,66.1955 33.6965,66.3622 36.5,67.5 Z"/></g>
<g><path style="opacity:1" fill="#38465e" d="M 40.5,89.5 C 43.0221,89.8781 45.3554,90.7114 47.5,92C 46.552,92.4828 45.552,92.6495 44.5,92.5C 36.6688,89.6689 32.0021,92.3356 30.5,100.5C 28.9988,103.174 27.9988,103.007 27.5,100C 29.309,93.3563 33.6423,89.8563 40.5,89.5 Z"/></g>
<g><path style="opacity:1" fill="#778498" d="M 34.5,82.5 C 36.4147,82.2155 38.0813,82.5489 39.5,83.5C 38.1266,83.3433 36.7932,83.51 35.5,84C 23.2312,93.9436 23.7312,94.777 37,86.5C 38.0111,87.0556 38.8444,87.7222 39.5,88.5C 40.1667,88.5 40.5,88.8333 40.5,89.5C 33.6423,89.8563 29.309,93.3563 27.5,100C 27.9988,103.007 28.9988,103.174 30.5,100.5C 29.7459,104.467 27.9126,105.133 25,102.5C 24.9616,106.563 24.1283,110.397 22.5,114C 21.2161,114.684 20.0495,114.517 19,113.5C 18.3333,111.5 18.3333,109.5 19,107.5C 19.4935,109.134 19.6602,110.801 19.5,112.5C 21.1238,112.64 22.2904,111.973 23,110.5C 23.7794,105.682 23.2794,101.015 21.5,96.5C 23.1171,95.4107 23.9504,93.744 24,91.5C 24.9025,90.2986 26.0692,89.4652 27.5,89C 26.3279,88.5814 25.3279,87.9147 24.5,87C 26.1626,86.7351 27.6626,87.2351 29,88.5C 34.9655,83.856 33.7989,82.1893 25.5,83.5C 28.1812,81.2376 31.1812,80.9043 34.5,82.5 Z"/></g>
<g><path style="opacity:1" fill="#70849e" d="M 52.5,85.5 C 56.8451,87.2286 61.1784,89.0619 65.5,91C 66.1667,92 66.8333,93 67.5,94C 65.065,94.0748 64.3984,94.9081 65.5,96.5C 64.4481,96.7711 63.1147,96.9378 61.5,97C 63.087,97.8624 64.7536,98.5291 66.5,99C 61.7377,98.6914 58.9044,100.858 58,105.5C 56.322,107.666 54.1553,108.999 51.5,109.5C 51.9842,106.345 53.6509,104.012 56.5,102.5C 57.3094,100.929 57.6427,99.2624 57.5,97.5C 58.1499,97.8039 58.8165,98.1373 59.5,98.5C 60.6956,98.1543 60.6956,97.6543 59.5,97C 56.9293,96.0991 54.596,94.7658 52.5,93C 55.9338,93.7722 59.4338,94.6055 63,95.5C 63.6667,94.8333 63.6667,94.1667 63,93.5C 57.8201,90.3333 52.6534,87.3333 47.5,84.5C 45.8729,82.3702 44.0396,80.3702 42,78.5C 41.3333,77.8333 41.3333,77.1667 42,76.5C 45.0781,80.0845 48.5781,83.0845 52.5,85.5 Z"/></g>
<g><path style="opacity:1" fill="#a7bacb" d="M 90.5,89.5 C 80.5956,95.4665 70.9289,101.967 61.5,109C 59,109.5 56.5,110 54,110.5C 52.9302,110.472 52.0968,110.139 51.5,109.5C 54.1553,108.999 56.322,107.666 58,105.5C 58.9044,100.858 61.7377,98.6914 66.5,99C 64.7536,98.5291 63.087,97.8624 61.5,97C 63.1147,96.9378 64.4481,96.7711 65.5,96.5C 67.9931,97.2294 70.3264,98.0628 72.5,99C 70.2663,97.3621 68.933,95.1955 68.5,92.5C 69.1712,91.1529 69.1712,89.9862 68.5,89C 70.1341,88.5065 71.8008,88.3398 73.5,88.5C 73.2907,90.7144 74.124,92.381 76,93.5C 78.8589,91.8683 79.0256,90.2017 76.5,88.5C 76.4431,87.391 76.1098,86.391 75.5,85.5C 75.9623,84.1201 76.9623,83.4534 78.5,83.5C 81.3887,84.3887 83.7221,86.0554 85.5,88.5C 86.1067,88.3764 86.44,88.0431 86.5,87.5C 88.0169,84.6908 89.5169,81.6908 91,78.5C 92.8495,82.9168 91.6828,86.4168 87.5,89C 88.448,89.4828 89.448,89.6495 90.5,89.5 Z"/></g>
</svg>
