<?xml version="1.0" encoding="UTF-8"?>
<!DOCTYPE svg PUBLIC "-//W3C//DTD SVG 1.1//EN" "http://www.w3.org/Graphics/SVG/1.1/DTD/svg11.dtd">
<svg xmlns="http://www.w3.org/2000/svg" version="1.1" width="166px" height="158px" style="shape-rendering:geometricPrecision; text-rendering:geometricPrecision; image-rendering:optimizeQuality; fill-rule:evenodd; clip-rule:evenodd" xmlns:xlink="http://www.w3.org/1999/xlink">
<g><path style="opacity:1" fill="#f5f5f5" d="M -0.5,-0.5 C 54.8333,-0.5 110.167,-0.5 165.5,-0.5C 165.5,52.1667 165.5,104.833 165.5,157.5C 110.167,157.5 54.8333,157.5 -0.5,157.5C -0.5,104.833 -0.5,52.1667 -0.5,-0.5 Z"/></g>
<g><path style="opacity:1" fill="#d690ac" d="M 61.5,14.5 C 60.2112,15.6366 59.2112,16.9699 58.5,18.5C 56.4793,20.0324 54.9793,22.0324 54,24.5C 53.51,23.2068 53.3433,21.8734 53.5,20.5C 52.5,20.5 51.5,20.5 50.5,20.5C 52.5122,15.6575 56.1788,13.6575 61.5,14.5 Z"/></g>
<g><path style="opacity:1" fill="#e774a6" d="M 61.5,14.5 C 64.7131,14.19 67.7131,14.5233 70.5,15.5C 70.0182,19.4492 69.0182,23.2825 67.5,27C 69.9065,29.0921 69.9065,31.0921 67.5,33C 68.4231,35.0408 68.7564,37.2075 68.5,39.5C 67.8826,39.3893 67.3826,39.056 67,38.5C 67.304,34.4394 65.804,31.2727 62.5,29C 63.6776,28.0331 65.011,27.5331 66.5,27.5C 65.5853,26.6721 64.9186,25.6721 64.5,24.5C 65.2234,22.2178 65.5567,19.8845 65.5,17.5C 64.5,17.5 63.5,17.5 62.5,17.5C 61.4172,21.0845 60.7506,24.7512 60.5,28.5C 60.0603,26.1561 59.0603,24.1561 57.5,22.5C 58.2341,21.2921 58.5674,19.9587 58.5,18.5C 59.2112,16.9699 60.2112,15.6366 61.5,14.5 Z"/></g>
<g><path style="opacity:1" fill="#f8b5da" d="M 70.5,15.5 C 71.4584,15.9528 72.2917,16.6195 73,17.5C 76.5323,27.6031 79.3656,37.9364 81.5,48.5C 80.8826,48.3893 80.3826,48.056 80,47.5C 79.9152,49.0846 79.7486,50.4179 79.5,51.5C 78.8333,51.1667 78.1667,50.8333 77.5,50.5C 75.5029,51.7474 73.5029,52.5808 71.5,53C 70.1667,50 68.8333,47 67.5,44C 70.6424,42.982 70.9758,41.8153 68.5,40.5C 68.5,40.1667 68.5,39.8333 68.5,39.5C 68.7564,37.2075 68.4231,35.0408 67.5,33C 69.9065,31.0921 69.9065,29.0921 67.5,27C 69.0182,23.2825 70.0182,19.4492 70.5,15.5 Z"/></g>
<g><path style="opacity:1" fill="#7c7b7b" d="M 46.5,31.5 C 44.8325,33.4786 44.1658,35.812 44.5,38.5C 44.1667,38.5 43.8333,38.5 43.5,38.5C 43.3337,31.4921 43.5004,24.4921 44,17.5C 44.3333,17.1667 44.6667,16.8333 45,16.5C 46.2503,21.4195 46.7503,26.4195 46.5,31.5 Z"/></g>
<g><path style="opacity:1" fill="#e1528e" d="M 68.5,39.5 C 68.5,39.8333 68.5,40.1667 68.5,40.5C 65.7897,41.407 63.623,40.407 62,37.5C 62.0173,39.5676 63.0173,41.2343 65,42.5C 65.2963,45.7058 65.7963,48.8725 66.5,52C 67.6133,53.3943 68.9466,54.561 70.5,55.5C 69.3112,56.4287 67.9778,56.762 66.5,56.5C 66.5,58.1667 66.5,59.8333 66.5,61.5C 65.2805,59.6772 63.9472,58.6772 62.5,58.5C 64.9913,57.4593 64.9913,56.6259 62.5,56C 63.1667,54.6667 64.1667,53.6667 65.5,53C 63.0043,51.3335 60.671,49.5002 58.5,47.5C 58.4724,42.1383 58.8058,36.8049 59.5,31.5C 60.404,30.791 60.7373,29.791 60.5,28.5C 60.7506,24.7512 61.4172,21.0845 62.5,17.5C 63.5,17.5 64.5,17.5 65.5,17.5C 65.5567,19.8845 65.2234,22.2178 64.5,24.5C 64.9186,25.6721 65.5853,26.6721 66.5,27.5C 65.011,27.5331 63.6776,28.0331 62.5,29C 65.804,31.2727 67.304,34.4394 67,38.5C 67.3826,39.056 67.8826,39.3893 68.5,39.5 Z"/></g>
<g><path style="opacity:1" fill="#ded1d5" d="M 46.5,46.5 C 49.1667,47.1667 49.1667,47.8333 46.5,48.5C 46.5,47.8333 46.5,47.1667 46.5,46.5 Z"/></g>
<g><path style="opacity:1" fill="#565051" d="M 43.5,38.5 C 43.8333,38.5 44.1667,38.5 44.5,38.5C 44.1072,41.5133 44.7739,44.1799 46.5,46.5C 46.5,47.1667 46.5,47.8333 46.5,48.5C 45.8333,49.8333 44.8333,50.8333 43.5,51.5C 43.5,47.1667 43.5,42.8333 43.5,38.5 Z"/></g>
<g><path style="opacity:1" fill="#a93d61" d="M 44.5,38.5 C 46.5909,39.8654 48.9242,40.5321 51.5,40.5C 51.5838,48.2924 51.5838,55.9591 51.5,63.5C 50.791,62.596 49.791,62.2627 48.5,62.5C 48.1568,64.4832 48.8235,65.8166 50.5,66.5C 52.229,67.9527 53.229,69.9527 53.5,72.5C 53.0431,73.2975 52.3764,73.6309 51.5,73.5C 50.4768,71.0943 49.8101,71.0943 49.5,73.5C 49.7472,74.7133 50.4138,75.38 51.5,75.5C 53.9388,77.1002 55.2721,79.4335 55.5,82.5C 55.2528,83.7133 54.5862,84.38 53.5,84.5C 52.8106,83.2264 51.9772,83.2264 51,84.5C 51.0534,82.0641 50.8867,79.7308 50.5,77.5C 49.3655,80.1668 48.3655,82.8334 47.5,85.5C 51.8383,85.6219 52.1716,85.9553 48.5,86.5C 47.8333,86.5 47.1667,86.5 46.5,86.5C 45.7095,85.5987 44.7095,84.9321 43.5,84.5C 43.5,80.5 43.5,76.5 43.5,72.5C 44.7095,72.0679 45.7095,71.4013 46.5,70.5C 49.1667,69.8333 49.1667,69.1667 46.5,68.5C 45.5,67.8333 44.5,67.1667 43.5,66.5C 43.5,61.5 43.5,56.5 43.5,51.5C 44.8333,50.8333 45.8333,49.8333 46.5,48.5C 49.1667,47.8333 49.1667,47.1667 46.5,46.5C 44.7739,44.1799 44.1072,41.5133 44.5,38.5 Z"/></g>
<g><path style="opacity:1" fill="#f18ec0" d="M 68.5,40.5 C 70.9758,41.8153 70.6424,42.982 67.5,44C 68.8333,47 70.1667,50 71.5,53C 73.5029,52.5808 75.5029,51.7474 77.5,50.5C 78.1667,50.8333 78.8333,51.1667 79.5,51.5C 79.7486,50.4179 79.9152,49.0846 80,47.5C 80.3826,48.056 80.8826,48.3893 81.5,48.5C 82.2341,49.7079 82.5674,51.0413 82.5,52.5C 78.2129,53.7906 75.2129,56.4573 73.5,60.5C 71.4889,58.6129 69.4889,58.4463 67.5,60C 68.5719,61.2837 69.9052,61.6171 71.5,61C 72.3702,65.2805 73.3702,65.4472 74.5,61.5C 75.2223,62.5511 76.2223,63.2178 77.5,63.5C 76.8549,64.8118 75.8549,65.8118 74.5,66.5C 71.304,65.6291 68.6373,63.9625 66.5,61.5C 66.5,59.8333 66.5,58.1667 66.5,56.5C 67.9778,56.762 69.3112,56.4287 70.5,55.5C 68.9466,54.561 67.6133,53.3943 66.5,52C 65.7963,48.8725 65.2963,45.7058 65,42.5C 63.0173,41.2343 62.0173,39.5676 62,37.5C 63.623,40.407 65.7897,41.407 68.5,40.5 Z"/></g>
<g><path style="opacity:1" fill="#e47fb6" d="M 59.5,31.5 C 58.8058,36.8049 58.4724,42.1383 58.5,47.5C 58.1189,56.6011 58.7855,65.6011 60.5,74.5C 58.745,72.2388 57.5784,69.5722 57,66.5C 56.8333,62.8333 56.6667,59.1667 56.5,55.5C 56.3451,47.209 57.3451,39.209 59.5,31.5 Z"/></g>
<g><path style="opacity:1" fill="#e565a1" d="M 73.5,60.5 C 73.5,61.1667 73.8333,61.5 74.5,61.5C 73.3702,65.4472 72.3702,65.2805 71.5,61C 69.9052,61.6171 68.5719,61.2837 67.5,60C 69.4889,58.4463 71.4889,58.6129 73.5,60.5 Z"/></g>
<g><path style="opacity:1" fill="#f7a7d3" d="M 82.5,52.5 C 84.3671,53.7598 85.7005,55.4265 86.5,57.5C 83.2093,54.5954 82.2093,55.262 83.5,59.5C 81.4714,60.8435 79.4714,62.1769 77.5,63.5C 76.2223,63.2178 75.2223,62.5511 74.5,61.5C 73.8333,61.5 73.5,61.1667 73.5,60.5C 75.2129,56.4573 78.2129,53.7906 82.5,52.5 Z"/></g>
<g><path style="opacity:1" fill="#ca879c" d="M 51.5,63.5 C 51.4431,64.609 51.1098,65.609 50.5,66.5C 48.8235,65.8166 48.1568,64.4832 48.5,62.5C 49.791,62.2627 50.791,62.596 51.5,63.5 Z"/></g>
<g><path style="opacity:1" fill="#585456" d="M 43.5,66.5 C 44.5,67.1667 45.5,67.8333 46.5,68.5C 46.5,69.1667 46.5,69.8333 46.5,70.5C 45.7095,71.4013 44.7095,72.0679 43.5,72.5C 43.5,70.5 43.5,68.5 43.5,66.5 Z"/></g>
<g><path style="opacity:1" fill="#d9c0c8" d="M 46.5,68.5 C 49.1667,69.1667 49.1667,69.8333 46.5,70.5C 46.5,69.8333 46.5,69.1667 46.5,68.5 Z"/></g>
<g><path style="opacity:1" fill="#f49ccc" d="M 86.5,59.5 C 87.4411,61.7721 88.7745,63.7721 90.5,65.5C 88.7741,65.1854 87.1075,65.0187 85.5,65C 86.376,66.586 87.376,68.086 88.5,69.5C 84.2852,70.8783 81.1185,73.545 79,77.5C 78.8333,76 78.6667,74.5 78.5,73C 78.6292,71.0194 79.2958,69.3528 80.5,68C 79.269,66.8173 79.269,65.6507 80.5,64.5C 81.7362,65.2458 83.0695,65.5792 84.5,65.5C 84.595,63.2143 85.2616,61.2143 86.5,59.5 Z"/></g>
<g><path style="opacity:1" fill="#f7a9d2" d="M 91.5,68.5 C 92.2378,70.9402 93.5712,72.9402 95.5,74.5C 90.9239,72.7446 89.9239,73.7446 92.5,77.5C 90.3528,78.8353 88.3528,78.6686 86.5,77C 87.5707,76.1482 88.5707,75.3149 89.5,74.5C 89.595,72.2143 90.2616,70.2143 91.5,68.5 Z"/></g>
<g><path style="opacity:1" fill="#d45a95" d="M 57.5,22.5 C 59.0603,24.1561 60.0603,26.1561 60.5,28.5C 60.7373,29.791 60.404,30.791 59.5,31.5C 57.3451,39.209 56.3451,47.209 56.5,55.5C 56.6667,59.1667 56.8333,62.8333 57,66.5C 57.5784,69.5722 58.745,72.2388 60.5,74.5C 62.9236,77.0078 64.5903,80.0078 65.5,83.5C 65.6633,85.8568 65.4966,88.1902 65,90.5C 64.8198,87.0445 64.1532,83.7111 63,80.5C 61.7012,80.0338 60.2012,80.0338 58.5,80.5C 58.8016,83.0593 58.4682,85.3926 57.5,87.5C 55.129,73.7103 53.7956,59.7103 53.5,45.5C 55.409,37.8707 56.7424,30.2041 57.5,22.5 Z"/></g>
<g><path style="opacity:1" fill="#d9a8b5" d="M 51.5,73.5 C 51.5,74.1667 51.5,74.8333 51.5,75.5C 50.4138,75.38 49.7472,74.7133 49.5,73.5C 49.8101,71.0943 50.4768,71.0943 51.5,73.5 Z"/></g>
<g><path style="opacity:1" fill="#f184b5" d="M 89.5,74.5 C 88.5707,75.3149 87.5707,76.1482 86.5,77C 88.3528,78.6686 90.3528,78.8353 92.5,77.5C 89.9239,73.7446 90.9239,72.7446 95.5,74.5C 95.1667,77.1667 94.8333,79.8333 94.5,82.5C 96.037,85.6853 95.3704,88.352 92.5,90.5C 90.9139,91.4132 89.4139,91.4132 88,90.5C 88.1282,88.555 87.9615,86.7216 87.5,85C 90.5201,81.1727 89.8534,80.006 85.5,81.5C 85.1231,78.4752 84.9565,75.4752 85,72.5C 86.3297,73.5822 87.8297,74.2488 89.5,74.5 Z"/></g>
<g><path style="opacity:1" fill="#c77c96" d="M 53.5,84.5 C 52.1667,85.5 52.1667,86.5 53.5,87.5C 51.5853,87.7845 49.9187,87.4511 48.5,86.5C 52.1716,85.9553 51.8383,85.6219 47.5,85.5C 48.3655,82.8334 49.3655,80.1668 50.5,77.5C 50.8867,79.7308 51.0534,82.0641 51,84.5C 51.9772,83.2264 52.8106,83.2264 53.5,84.5 Z"/></g>
<g><path style="opacity:1" fill="#c04f77" d="M 58.5,18.5 C 58.5674,19.9587 58.2341,21.2921 57.5,22.5C 56.7424,30.2041 55.409,37.8707 53.5,45.5C 53.7956,59.7103 55.129,73.7103 57.5,87.5C 57.5,87.8333 57.5,88.1667 57.5,88.5C 56.1001,89.0998 55.1001,90.0998 54.5,91.5C 54.5,91.1667 54.5,90.8333 54.5,90.5C 54.7373,89.209 54.404,88.209 53.5,87.5C 52.1667,86.5 52.1667,85.5 53.5,84.5C 54.5862,84.38 55.2528,83.7133 55.5,82.5C 55.2721,79.4335 53.9388,77.1002 51.5,75.5C 51.5,74.8333 51.5,74.1667 51.5,73.5C 52.3764,73.6309 53.0431,73.2975 53.5,72.5C 53.229,69.9527 52.229,67.9527 50.5,66.5C 51.1098,65.609 51.4431,64.609 51.5,63.5C 51.5838,55.9591 51.5838,48.2924 51.5,40.5C 48.9242,40.5321 46.5909,39.8654 44.5,38.5C 44.1658,35.812 44.8325,33.4786 46.5,31.5C 48.9457,30.6079 49.6123,29.1079 48.5,27C 49.2301,24.846 49.8968,22.6794 50.5,20.5C 51.5,20.5 52.5,20.5 53.5,20.5C 53.3433,21.8734 53.51,23.2068 54,24.5C 54.9793,22.0324 56.4793,20.0324 58.5,18.5 Z"/></g>
<g><path style="opacity:1" fill="#ee6ea9" d="M 86.5,57.5 C 86.5,58.1667 86.5,58.8333 86.5,59.5C 85.2616,61.2143 84.595,63.2143 84.5,65.5C 83.0695,65.5792 81.7362,65.2458 80.5,64.5C 79.269,65.6507 79.269,66.8173 80.5,68C 79.2958,69.3528 78.6292,71.0194 78.5,73C 78.6667,74.5 78.8333,76 79,77.5C 81.1185,73.545 84.2852,70.8783 88.5,69.5C 87.376,68.086 86.376,66.586 85.5,65C 87.1075,65.0187 88.7741,65.1854 90.5,65.5C 91.1098,66.391 91.4431,67.391 91.5,68.5C 90.2616,70.2143 89.595,72.2143 89.5,74.5C 87.8297,74.2488 86.3297,73.5822 85,72.5C 84.9565,75.4752 85.1231,78.4752 85.5,81.5C 89.8534,80.006 90.5201,81.1727 87.5,85C 87.9615,86.7216 88.1282,88.555 88,90.5C 89.4139,91.4132 90.9139,91.4132 92.5,90.5C 92.2627,91.791 92.596,92.791 93.5,93.5C 89.1943,100.475 87.1943,108.141 87.5,116.5C 86.6829,114.031 86.1829,111.365 86,108.5C 84.6861,109.313 83.5195,110.313 82.5,111.5C 82.1667,111.167 81.8333,110.833 81.5,110.5C 84.7547,104.992 87.7547,99.325 90.5,93.5C 90.0302,92.537 89.3635,92.537 88.5,93.5C 86.5891,93.4257 85.4224,92.4257 85,90.5C 84.6667,91.1667 84.3333,91.8333 84,92.5C 83.5161,90.8225 82.6828,90.1558 81.5,90.5C 82.4922,87.2214 82.6588,83.8881 82,80.5C 80.9505,81.5171 79.7839,81.6838 78.5,81C 79.4506,80.2825 79.6172,79.4491 79,78.5C 78.2825,79.4506 77.4491,79.6172 76.5,79C 77.6023,76.5991 77.769,74.0991 77,71.5C 73.5961,70.5429 70.4295,69.2095 67.5,67.5C 71.2434,67.5408 71.4101,66.8741 68,65.5C 67.2086,64.255 66.7086,62.9217 66.5,61.5C 68.6373,63.9625 71.304,65.6291 74.5,66.5C 75.8549,65.8118 76.8549,64.8118 77.5,63.5C 79.4714,62.1769 81.4714,60.8435 83.5,59.5C 82.2093,55.262 83.2093,54.5954 86.5,57.5 Z"/></g>
<g><path style="opacity:1" fill="#d9367a" d="M 67.5,67.5 C 70.4295,69.2095 73.5961,70.5429 77,71.5C 77.769,74.0991 77.6023,76.5991 76.5,79C 77.4491,79.6172 78.2825,79.4506 79,78.5C 79.6172,79.4491 79.4506,80.2825 78.5,81C 79.7839,81.6838 80.9505,81.5171 82,80.5C 82.6588,83.8881 82.4922,87.2214 81.5,90.5C 80.3079,91.5659 80.6412,92.3992 82.5,93C 81.3066,94.0946 79.9733,94.928 78.5,95.5C 77.0028,94.6942 75.3361,94.0276 73.5,93.5C 72.0594,90.2752 72.3927,87.2752 74.5,84.5C 73.8333,83.8333 73.1667,83.1667 72.5,82.5C 73.8333,81.5 73.8333,80.5 72.5,79.5C 69.8185,77.2857 67.4852,74.7857 65.5,72C 69.5,71 69.5,70 65.5,69C 66.0442,68.2828 66.7109,67.7828 67.5,67.5 Z"/></g>
<g><path style="opacity:1" fill="#eae3e5" d="M 46.5,86.5 C 47.1667,86.5 47.8333,86.5 48.5,86.5C 49.9187,87.4511 51.5853,87.7845 53.5,87.5C 54.404,88.209 54.7373,89.209 54.5,90.5C 51.1427,90.2159 48.8094,91.5493 47.5,94.5C 47.5,95.1667 47.1667,95.5 46.5,95.5C 46.5,92.5 46.5,89.5 46.5,86.5 Z"/></g>
<g><path style="opacity:1" fill="#de3e7b" d="M 94.5,82.5 C 95.7498,82.5774 96.5831,83.244 97,84.5C 97.5354,82.7295 98.3687,82.3961 99.5,83.5C 98.4215,86.2069 97.4215,88.8736 96.5,91.5C 95.2905,91.9321 94.2905,92.5987 93.5,93.5C 92.596,92.791 92.2627,91.791 92.5,90.5C 95.3704,88.352 96.037,85.6853 94.5,82.5 Z"/></g>
<g><path style="opacity:1" fill="#f8add2" d="M 95.5,74.5 C 96.2868,78.0618 98.1201,81.0618 101,83.5C 103.267,90.1356 105.434,96.8023 107.5,103.5C 107.547,105.038 106.88,106.038 105.5,106.5C 105.319,103.805 104.319,101.472 102.5,99.5C 100.779,96.2751 99.2793,92.9418 98,89.5C 97.8413,91.3427 97.3413,92.0093 96.5,91.5C 97.4215,88.8736 98.4215,86.2069 99.5,83.5C 98.3687,82.3961 97.5354,82.7295 97,84.5C 96.5831,83.244 95.7498,82.5774 94.5,82.5C 94.8333,79.8333 95.1667,77.1667 95.5,74.5 Z"/></g>
<g><path style="opacity:1" fill="#666566" d="M 43.5,84.5 C 44.7095,84.9321 45.7095,85.5987 46.5,86.5C 46.5,89.5 46.5,92.5 46.5,95.5C 45.7095,96.4013 44.7095,97.0679 43.5,97.5C 43.5,93.1667 43.5,88.8333 43.5,84.5 Z"/></g>
<g><path style="opacity:1" fill="#d5407c" d="M 65.5,83.5 C 66.3213,86.6414 66.8213,89.9748 67,93.5C 68.3717,94.9101 69.205,96.5767 69.5,98.5C 69.6061,101.615 68.6061,104.281 66.5,106.5C 65.3106,102.64 62.9773,99.6401 59.5,97.5C 60.1175,95.7708 61.1175,94.2708 62.5,93C 60.7703,91.1476 59.6036,91.3143 59,93.5C 58.8019,91.6183 58.3019,89.9516 57.5,88.5C 57.5,88.1667 57.5,87.8333 57.5,87.5C 58.4682,85.3926 58.8016,83.0593 58.5,80.5C 60.2012,80.0338 61.7012,80.0338 63,80.5C 64.1532,83.7111 64.8198,87.0445 65,90.5C 65.4966,88.1902 65.6633,85.8568 65.5,83.5 Z"/></g>
<g><path style="opacity:1" fill="#e65491" d="M 81.5,90.5 C 82.6828,90.1558 83.5161,90.8225 84,92.5C 84.3333,91.8333 84.6667,91.1667 85,90.5C 85.4224,92.4257 86.5891,93.4257 88.5,93.5C 88.2005,97.2813 86.2005,99.4479 82.5,100C 81.7734,101.399 81.2734,102.899 81,104.5C 80.6667,103.833 80.3333,103.167 80,102.5C 79.3333,103.833 78.6667,105.167 78,106.5C 78.1529,103.826 78.6529,101.16 79.5,98.5C 79.0825,97.7784 78.4158,97.2784 77.5,97C 78.056,96.6174 78.3893,96.1174 78.5,95.5C 79.9733,94.928 81.3066,94.0946 82.5,93C 80.6412,92.3992 80.3079,91.5659 81.5,90.5 Z"/></g>
<g><path style="opacity:1" fill="#e44483" d="M 102.5,99.5 C 104.319,101.472 105.319,103.805 105.5,106.5C 105.103,107.525 104.437,107.692 103.5,107C 101.666,104.337 99.6664,101.837 97.5,99.5C 97.3691,98.6236 97.7025,97.9569 98.5,97.5C 99.6223,98.6302 100.956,99.2969 102.5,99.5 Z"/></g>
<g><path style="opacity:1" fill="#f58dc1" d="M 102.5,99.5 C 100.956,99.2969 99.6223,98.6302 98.5,97.5C 97.7025,97.9569 97.3691,98.6236 97.5,99.5C 95.5953,101.88 94.262,104.547 93.5,107.5C 93.6495,106.448 93.4828,105.448 93,104.5C 89.7195,110.2 88.8862,116.2 90.5,122.5C 90.1543,123.696 89.6543,123.696 89,122.5C 88.51,121.207 88.3433,119.873 88.5,118.5C 88.1667,117.833 87.8333,117.167 87.5,116.5C 87.1943,108.141 89.1943,100.475 93.5,93.5C 94.2905,92.5987 95.2905,91.9321 96.5,91.5C 97.3413,92.0093 97.8413,91.3427 98,89.5C 99.2793,92.9418 100.779,96.2751 102.5,99.5 Z"/></g>
<g><path style="opacity:1" fill="#c4406b" d="M 57.5,88.5 C 58.3019,89.9516 58.8019,91.6183 59,93.5C 59.6036,91.3143 60.7703,91.1476 62.5,93C 61.1175,94.2708 60.1175,95.7708 59.5,97.5C 58.5067,106.318 58.1734,115.318 58.5,124.5C 58.628,126.655 58.128,128.655 57,130.5C 56.2262,122.137 56.3928,113.804 57.5,105.5C 56.9265,102.938 55.5932,100.938 53.5,99.5C 54.2653,96.9039 54.5987,94.2372 54.5,91.5C 55.1001,90.0998 56.1001,89.0998 57.5,88.5 Z"/></g>
<g><path style="opacity:1" fill="#b64d73" d="M 47.5,94.5 C 49.1992,94.3398 50.8659,94.5065 52.5,95C 50.6098,101.406 50.2765,107.906 51.5,114.5C 51.8134,117.247 51.48,119.914 50.5,122.5C 49.0452,119.9 47.7119,117.233 46.5,114.5C 45.1581,112.639 44.1581,110.639 43.5,108.5C 43.5,104.833 43.5,101.167 43.5,97.5C 44.7095,97.0679 45.7095,96.4013 46.5,95.5C 47.1667,95.5 47.5,95.1667 47.5,94.5 Z"/></g>
<g><path style="opacity:1" fill="#cf508e" d="M 59.5,97.5 C 62.9773,99.6401 65.3106,102.64 66.5,106.5C 65.2171,108.606 64.3838,110.94 64,113.5C 63.3333,110.833 62.6667,110.833 62,113.5C 61.3792,117.25 60.5458,120.916 59.5,124.5C 59.1667,124.5 58.8333,124.5 58.5,124.5C 58.1734,115.318 58.5067,106.318 59.5,97.5 Z"/></g>
<g><path style="opacity:1" fill="#d992ae" d="M 54.5,90.5 C 54.5,90.8333 54.5,91.1667 54.5,91.5C 54.5987,94.2372 54.2653,96.9039 53.5,99.5C 53.8629,109.17 54.3629,118.837 55,128.5C 55.4101,129.901 55.9101,131.234 56.5,132.5C 54.6214,132.393 54.2881,132.893 55.5,134C 54.572,134.388 53.9054,135.055 53.5,136C 54.2865,138.099 54.6199,140.266 54.5,142.5C 53.5,142.5 52.5,142.5 51.5,142.5C 50.5041,142.586 49.6708,142.252 49,141.5C 48.0093,139.192 47.176,136.859 46.5,134.5C 47.322,132.611 48.1553,130.611 49,128.5C 49.8333,129.5 50.6667,130.5 51.5,131.5C 52.8157,125.68 52.8157,120.013 51.5,114.5C 50.2765,107.906 50.6098,101.406 52.5,95C 50.8659,94.5065 49.1992,94.3398 47.5,94.5C 48.8094,91.5493 51.1427,90.2159 54.5,90.5 Z"/></g>
<g><path style="opacity:1" fill="#c55b82" d="M 53.5,99.5 C 55.5932,100.938 56.9265,102.938 57.5,105.5C 56.3928,113.804 56.2262,122.137 57,130.5C 58.128,128.655 58.628,126.655 58.5,124.5C 58.8333,124.5 59.1667,124.5 59.5,124.5C 59.9422,128.154 60.2756,131.821 60.5,135.5C 60.5,136.5 60.5,137.5 60.5,138.5C 59.4548,136.23 58.1214,134.23 56.5,132.5C 55.9101,131.234 55.4101,129.901 55,128.5C 54.3629,118.837 53.8629,109.17 53.5,99.5 Z"/></g>
<g><path style="opacity:1" fill="#dc66a3" d="M 69.5,98.5 C 72.1667,101.833 72.1667,105.167 69.5,108.5C 67.937,110.617 66.6036,112.95 65.5,115.5C 64.8333,121.833 64.1667,128.167 63.5,134.5C 62.5832,135.127 61.5832,135.461 60.5,135.5C 60.2756,131.821 59.9422,128.154 59.5,124.5C 60.5458,120.916 61.3792,117.25 62,113.5C 62.6667,110.833 63.3333,110.833 64,113.5C 64.3838,110.94 65.2171,108.606 66.5,106.5C 68.6061,104.281 69.6061,101.615 69.5,98.5 Z"/></g>
<g><path style="opacity:1" fill="#9a9093" d="M 43.5,108.5 C 44.1581,110.639 45.1581,112.639 46.5,114.5C 46.212,117.397 45.5454,120.23 44.5,123C 45.1074,126.143 45.4408,129.31 45.5,132.5C 45.6621,134.527 45.4955,136.527 45,138.5C 43.6048,128.566 43.1048,118.566 43.5,108.5 Z"/></g>
<g><path style="opacity:1" fill="#dc3b7c" d="M 87.5,116.5 C 87.8333,117.167 88.1667,117.833 88.5,118.5C 87.5489,119.919 87.2155,121.585 87.5,123.5C 85.0661,122.229 83.5661,120.229 83,117.5C 82.2516,119.84 82.7516,121.84 84.5,123.5C 84.2229,126.448 84.5562,129.281 85.5,132C 83.4546,132.49 81.4546,132.323 79.5,131.5C 78.8826,131.389 78.3826,131.056 78,130.5C 76.7873,127.232 76.454,123.899 77,120.5C 79.0176,118.65 80.8509,116.65 82.5,114.5C 81.336,114.835 80.0026,114.835 78.5,114.5C 79.2458,113.264 79.5792,111.93 79.5,110.5C 75.7678,112.134 74.2678,110.801 75,106.5C 75.3333,106.833 75.6667,107.167 76,107.5C 75.9128,103.878 77.0795,100.878 79.5,98.5C 78.6529,101.16 78.1529,103.826 78,106.5C 78.6667,105.167 79.3333,103.833 80,102.5C 80.3333,103.167 80.6667,103.833 81,104.5C 81.2734,102.899 81.7734,101.399 82.5,100C 86.2005,99.4479 88.2005,97.2813 88.5,93.5C 89.3635,92.537 90.0302,92.537 90.5,93.5C 87.7547,99.325 84.7547,104.992 81.5,110.5C 81.8333,110.833 82.1667,111.167 82.5,111.5C 83.5195,110.313 84.6861,109.313 86,108.5C 86.1829,111.365 86.6829,114.031 87.5,116.5 Z"/></g>
<g><path style="opacity:1" fill="#d52262" d="M 58.5,47.5 C 60.671,49.5002 63.0043,51.3335 65.5,53C 64.1667,53.6667 63.1667,54.6667 62.5,56C 64.9913,56.6259 64.9913,57.4593 62.5,58.5C 63.9472,58.6772 65.2805,59.6772 66.5,61.5C 66.7086,62.9217 67.2086,64.255 68,65.5C 71.4101,66.8741 71.2434,67.5408 67.5,67.5C 66.7109,67.7828 66.0442,68.2828 65.5,69C 69.5,70 69.5,71 65.5,72C 67.4852,74.7857 69.8185,77.2857 72.5,79.5C 73.8333,80.5 73.8333,81.5 72.5,82.5C 73.1667,83.1667 73.8333,83.8333 74.5,84.5C 72.3927,87.2752 72.0594,90.2752 73.5,93.5C 75.3361,94.0276 77.0028,94.6942 78.5,95.5C 78.3893,96.1174 78.056,96.6174 77.5,97C 78.4158,97.2784 79.0825,97.7784 79.5,98.5C 77.0795,100.878 75.9128,103.878 76,107.5C 75.6667,107.167 75.3333,106.833 75,106.5C 74.2678,110.801 75.7678,112.134 79.5,110.5C 79.5792,111.93 79.2458,113.264 78.5,114.5C 80.0026,114.835 81.336,114.835 82.5,114.5C 80.8509,116.65 79.0176,118.65 77,120.5C 76.454,123.899 76.7873,127.232 78,130.5C 78.3826,131.056 78.8826,131.389 79.5,131.5C 79.6107,132.117 79.944,132.617 80.5,133C 76.3053,133.332 72.3053,134.165 68.5,135.5C 66.6877,129.353 66.021,123.02 66.5,116.5C 68.0198,114.11 69.0198,111.443 69.5,108.5C 72.1667,105.167 72.1667,101.833 69.5,98.5C 69.205,96.5767 68.3717,94.9101 67,93.5C 66.8213,89.9748 66.3213,86.6414 65.5,83.5C 64.5903,80.0078 62.9236,77.0078 60.5,74.5C 58.7855,65.6011 58.1189,56.6011 58.5,47.5 Z"/></g>
<g><path style="opacity:1" fill="#e85594" d="M 93.5,107.5 C 91.769,111.682 91.269,116.016 92,120.5C 94.5418,122.182 97.3751,123.182 100.5,123.5C 101.091,124.151 101.757,124.818 102.5,125.5C 101.264,126.357 99.931,127.023 98.5,127.5C 96.2707,126.037 93.9373,125.203 91.5,125C 92.3805,125.708 93.0472,126.542 93.5,127.5C 93.5912,129.698 92.9245,130.031 91.5,128.5C 90.1667,126.833 88.8333,125.167 87.5,123.5C 87.2155,121.585 87.5489,119.919 88.5,118.5C 88.3433,119.873 88.51,121.207 89,122.5C 89.6543,123.696 90.1543,123.696 90.5,122.5C 88.8862,116.2 89.7195,110.2 93,104.5C 93.4828,105.448 93.6495,106.448 93.5,107.5 Z"/></g>
<g><path style="opacity:1" fill="#cf6c93" d="M 46.5,114.5 C 47.7119,117.233 49.0452,119.9 50.5,122.5C 51.48,119.914 51.8134,117.247 51.5,114.5C 52.8157,120.013 52.8157,125.68 51.5,131.5C 50.6667,130.5 49.8333,129.5 49,128.5C 48.1553,130.611 47.322,132.611 46.5,134.5C 46.6716,133.508 46.3382,132.842 45.5,132.5C 45.4408,129.31 45.1074,126.143 44.5,123C 45.5454,120.23 46.212,117.397 46.5,114.5 Z"/></g>
<g><path style="opacity:1" fill="#ee89ba" d="M 87.5,123.5 C 88.8333,125.167 90.1667,126.833 91.5,128.5C 89.7986,129.211 88.7986,130.545 88.5,132.5C 86.9779,129.678 85.6446,126.678 84.5,123.5C 82.7516,121.84 82.2516,119.84 83,117.5C 83.5661,120.229 85.0661,122.229 87.5,123.5 Z"/></g>
<g><path style="opacity:1" fill="#f5a1cd" d="M 100.5,123.5 C 101.5,123.5 102.5,123.5 103.5,123.5C 103.634,125.292 103.301,126.958 102.5,128.5C 100.118,130.046 97.4509,130.713 94.5,130.5C 94.7373,129.209 94.404,128.209 93.5,127.5C 93.0472,126.542 92.3805,125.708 91.5,125C 93.9373,125.203 96.2707,126.037 98.5,127.5C 99.931,127.023 101.264,126.357 102.5,125.5C 101.757,124.818 101.091,124.151 100.5,123.5 Z"/></g>
<g><path style="opacity:1" fill="#f6f2f4" d="M 107.5,127.5 C 109.5,127.5 111.5,127.5 113.5,127.5C 113.737,128.791 113.404,129.791 112.5,130.5C 109.287,130.81 106.287,130.477 103.5,129.5C 105.153,129.34 106.486,128.674 107.5,127.5 Z"/></g>
<g><path style="opacity:1" fill="#f0cbd8" d="M 103.5,129.5 C 106.287,130.477 109.287,130.81 112.5,130.5C 110.833,131.167 109.167,131.833 107.5,132.5C 105.236,131.781 102.903,131.448 100.5,131.5C 101.29,130.599 102.29,129.932 103.5,129.5 Z"/></g>
<g><path style="opacity:1" fill="#e089a6" d="M 107.5,132.5 C 109.167,131.833 110.833,131.167 112.5,130.5C 113.404,129.791 113.737,128.791 113.5,127.5C 111.5,127.5 109.5,127.5 107.5,127.5C 110.876,124.617 113.542,125.283 115.5,129.5C 113.575,132.172 110.908,133.172 107.5,132.5 Z"/></g>
<g><path style="opacity:1" fill="#eb749f" d="M 93.5,127.5 C 94.404,128.209 94.7373,129.209 94.5,130.5C 97.4509,130.713 100.118,130.046 102.5,128.5C 104.117,127.962 105.784,127.629 107.5,127.5C 106.486,128.674 105.153,129.34 103.5,129.5C 102.29,129.932 101.29,130.599 100.5,131.5C 91.7656,135.961 82.4323,138.294 72.5,138.5C 77.8876,136.624 83.2209,134.624 88.5,132.5C 88.7986,130.545 89.7986,129.211 91.5,128.5C 92.9245,130.031 93.5912,129.698 93.5,127.5 Z"/></g>
<g><path style="opacity:1" fill="#e65689" d="M 84.5,123.5 C 85.6446,126.678 86.9779,129.678 88.5,132.5C 83.2209,134.624 77.8876,136.624 72.5,138.5C 72.5,139.167 72.1667,139.5 71.5,139.5C 70.5116,138.205 69.5116,136.872 68.5,135.5C 72.3053,134.165 76.3053,133.332 80.5,133C 79.944,132.617 79.6107,132.117 79.5,131.5C 81.4546,132.323 83.4546,132.49 85.5,132C 84.5562,129.281 84.2229,126.448 84.5,123.5 Z"/></g>
<g><path style="opacity:1" fill="#e280b4" d="M 69.5,108.5 C 69.0198,111.443 68.0198,114.11 66.5,116.5C 65.4646,123.696 65.2979,131.029 66,138.5C 64.2933,139.138 62.46,139.138 60.5,138.5C 60.5,137.5 60.5,136.5 60.5,135.5C 61.5832,135.461 62.5832,135.127 63.5,134.5C 64.1667,128.167 64.8333,121.833 65.5,115.5C 66.6036,112.95 67.937,110.617 69.5,108.5 Z"/></g>
<g><path style="opacity:1" fill="#e79ac1" d="M 66.5,116.5 C 66.021,123.02 66.6877,129.353 68.5,135.5C 69.5116,136.872 70.5116,138.205 71.5,139.5C 71.3893,140.117 71.056,140.617 70.5,141C 67.854,141.497 65.1873,141.664 62.5,141.5C 61.4324,140.566 60.099,140.232 58.5,140.5C 58.1417,137.733 57.475,135.067 56.5,132.5C 58.1214,134.23 59.4548,136.23 60.5,138.5C 62.46,139.138 64.2933,139.138 66,138.5C 65.2979,131.029 65.4646,123.696 66.5,116.5 Z"/></g>
<g><path style="opacity:1" fill="#e5c2d2" d="M 56.5,132.5 C 57.475,135.067 58.1417,137.733 58.5,140.5C 60.099,140.232 61.4324,140.566 62.5,141.5C 59.4196,141.748 56.4196,142.414 53.5,143.5C 52.5836,143.457 51.9169,143.124 51.5,142.5C 52.5,142.5 53.5,142.5 54.5,142.5C 54.6199,140.266 54.2865,138.099 53.5,136C 53.9054,135.055 54.572,134.388 55.5,134C 54.2881,132.893 54.6214,132.393 56.5,132.5 Z"/></g>
</svg>
