<?xml version="1.0" encoding="UTF-8"?>
<!DOCTYPE svg PUBLIC "-//W3C//DTD SVG 1.1//EN" "http://www.w3.org/Graphics/SVG/1.1/DTD/svg11.dtd">
<svg xmlns="http://www.w3.org/2000/svg" version="1.1" width="166px" height="158px" style="shape-rendering:geometricPrecision; text-rendering:geometricPrecision; image-rendering:optimizeQuality; fill-rule:evenodd; clip-rule:evenodd" xmlns:xlink="http://www.w3.org/1999/xlink">
<g><path style="opacity:1" fill="#f5f5f5" d="M -0.5,-0.5 C 54.8333,-0.5 110.167,-0.5 165.5,-0.5C 165.5,52.1667 165.5,104.833 165.5,157.5C 110.167,157.5 54.8333,157.5 -0.5,157.5C -0.5,104.833 -0.5,52.1667 -0.5,-0.5 Z"/></g>
<g><path style="opacity:1" fill="#c4d2eb" d="M 69.5,15.5 C 71.3109,15.572 72.6443,16.4053 73.5,18C 75.5108,25.8613 77.6775,33.6946 80,41.5C 83.2638,46.0877 85.5972,51.0877 87,56.5C 88.9664,57.7803 90.4664,59.447 91.5,61.5C 90.0462,63.2633 90.3796,64.5967 92.5,65.5C 95.4148,69.0586 97.7482,73.0586 99.5,77.5C 97.8828,76.962 96.2161,76.6287 94.5,76.5C 94.5923,72.9286 92.9257,71.7619 89.5,73C 90.4506,73.7175 90.6172,74.5509 90,75.5C 88.2366,72.2852 86.4033,69.2852 84.5,66.5C 83.3246,58.4723 80.8246,50.8056 77,43.5C 76.5702,46.1922 76.7369,48.8589 77.5,51.5C 77.8747,54.9067 76.8747,55.4067 74.5,53C 73.9437,50.7635 72.9437,48.7635 71.5,47C 72.0714,43.8553 72.0714,40.8553 71.5,38C 70.8333,37.3333 70.1667,36.6667 69.5,36C 71.0347,32.9937 71.5347,29.827 71,26.5C 70.6667,26.8333 70.3333,27.1667 70,27.5C 69.5012,23.5138 69.3345,19.5138 69.5,15.5 Z"/></g>
<g><path style="opacity:1" fill="#97a5c4" d="M 67.5,15.5 C 68.4585,24.123 67.1251,32.2896 63.5,40C 63.8333,40.3333 64.1667,40.6667 64.5,41C 63.7734,42.3988 63.2734,43.8988 63,45.5C 62.501,41.1794 62.3343,36.8461 62.5,32.5C 62.309,27.1007 62.809,21.7674 64,16.5C 65.0113,15.6634 66.1779,15.33 67.5,15.5 Z"/></g>
<g><path style="opacity:1" fill="#717171" d="M 52.5,25.5 C 52.665,28.8499 52.4983,32.1832 52,35.5C 51.7679,36.7375 51.2679,37.7375 50.5,38.5C 50.5,37.8333 50.1667,37.5 49.5,37.5C 49.5,35.8333 49.5,34.1667 49.5,32.5C 49.2114,29.3508 49.7114,26.3508 51,23.5C 51.2784,24.4158 51.7784,25.0825 52.5,25.5 Z"/></g>
<g><path style="opacity:1" fill="#444444" d="M 49.5,37.5 C 50.1667,37.5 50.5,37.8333 50.5,38.5C 49.9162,41.285 50.9162,42.9517 53.5,43.5C 53.5,44.1667 53.5,44.8333 53.5,45.5C 52.4168,45.5394 51.4168,45.8728 50.5,46.5C 49.5159,43.5719 49.1826,40.5719 49.5,37.5 Z"/></g>
<g><path style="opacity:1" fill="#dadadb" d="M 69.5,15.5 C 69.1667,15.5 68.8333,15.5 68.5,15.5C 68.1667,15.5 67.8333,15.5 67.5,15.5C 66.1779,15.33 65.0113,15.6634 64,16.5C 62.809,21.7674 62.309,27.1007 62.5,32.5C 61.8367,34.6413 61.5034,36.9746 61.5,39.5C 62.6291,52.3124 63.6291,64.9791 64.5,77.5C 65.3497,89.6332 67.0164,101.633 69.5,113.5C 69.5,114.167 69.5,114.833 69.5,115.5C 68.71,116.609 68.21,117.942 68,119.5C 67.6667,118.5 67.3333,117.5 67,116.5C 64.6075,99.4151 61.9408,82.4151 59,65.5C 58.5001,53.5046 58.3335,41.5046 58.5,29.5C 57.5,29.5 56.5,29.5 55.5,29.5C 54.8333,34.1667 54.1667,38.8333 53.5,43.5C 50.9162,42.9517 49.9162,41.285 50.5,38.5C 51.2679,37.7375 51.7679,36.7375 52,35.5C 52.4983,32.1832 52.665,28.8499 52.5,25.5C 53.1174,25.6107 53.6174,25.944 54,26.5C 54.9058,19.2624 58.9058,14.9291 66,13.5C 67.6991,13.3866 68.8658,14.0532 69.5,15.5 Z"/></g>
<g><path style="opacity:1" fill="#7295bd" d="M 84.5,66.5 C 82.3168,61.4436 79.9835,56.4436 77.5,51.5C 76.7369,48.8589 76.5702,46.1922 77,43.5C 80.8246,50.8056 83.3246,58.4723 84.5,66.5 Z"/></g>
<g><path style="opacity:1" fill="#a9b7d5" d="M 67.5,15.5 C 67.8333,15.5 68.1667,15.5 68.5,15.5C 69.1358,24.3946 68.1358,33.0613 65.5,41.5C 65.6667,42.5 65.8333,43.5 66,44.5C 66.6543,43.3044 67.1543,43.3044 67.5,44.5C 66.3387,46.2237 66.5053,47.8904 68,49.5C 69.8783,51.0429 71.3783,52.8762 72.5,55C 72.1667,55.3333 71.8333,55.6667 71.5,56C 72.8333,57 74.1667,58 75.5,59C 74.1667,59.6667 74.1667,60.3333 75.5,61C 74.8333,61.3333 74.1667,61.6667 73.5,62C 74.6843,63.1455 74.6843,64.3121 73.5,65.5C 72.5,66.1667 71.5,66.8333 70.5,67.5C 70.5654,67.0618 70.3988,66.7284 70,66.5C 68.5527,68.4032 66.886,70.0699 65,71.5C 64.5045,73.4727 64.3379,75.4727 64.5,77.5C 63.6291,64.9791 62.6291,52.3124 61.5,39.5C 61.5034,36.9746 61.8367,34.6413 62.5,32.5C 62.3343,36.8461 62.501,41.1794 63,45.5C 63.2734,43.8988 63.7734,42.3988 64.5,41C 64.1667,40.6667 63.8333,40.3333 63.5,40C 67.1251,32.2896 68.4585,24.123 67.5,15.5 Z"/></g>
<g><path style="opacity:1" fill="#bebebe" d="M 49.5,32.5 C 49.5,34.1667 49.5,35.8333 49.5,37.5C 49.1826,40.5719 49.5159,43.5719 50.5,46.5C 51.4168,45.8728 52.4168,45.5394 53.5,45.5C 52.3311,52.8529 51.9978,60.1863 52.5,67.5C 51.1667,66.5 49.8333,65.5 48.5,64.5C 48.1722,53.6536 48.5056,42.9869 49.5,32.5 Z"/></g>
<g><path style="opacity:1" fill="#4a5894" d="M 91.5,61.5 C 92.4345,62.5676 92.7678,63.901 92.5,65.5C 90.3796,64.5967 90.0462,63.2633 91.5,61.5 Z"/></g>
<g><path style="opacity:1" fill="#7a7a7a" d="M 48.5,64.5 C 49.8333,65.5 51.1667,66.5 52.5,67.5C 52.6716,68.4916 52.3382,69.1583 51.5,69.5C 50.609,70.1098 49.609,70.4431 48.5,70.5C 48.5,68.5 48.5,66.5 48.5,64.5 Z"/></g>
<g><path style="opacity:1" fill="#d9dadc" d="M 73.5,65.5 C 77.4062,65.4673 80.7395,66.8006 83.5,69.5C 81.9223,70.2978 80.2556,70.7978 78.5,71C 77.1059,71.956 76.4393,73.2894 76.5,75C 78.8683,84.1505 81.535,93.1505 84.5,102C 84.1639,103.03 83.4972,103.53 82.5,103.5C 77.4828,92.9619 73.1495,82.1286 69.5,71C 69.6483,69.7441 69.9816,68.5774 70.5,67.5C 71.5,66.8333 72.5,66.1667 73.5,65.5 Z"/></g>
<g><path style="opacity:1" fill="#e3e3e3" d="M 69.5,115.5 C 70.5968,122.153 72.2635,128.653 74.5,135C 75.448,135.483 76.448,135.649 77.5,135.5C 73.7053,137.568 70.0386,139.901 66.5,142.5C 68.0146,140.497 68.6813,138.163 68.5,135.5C 67.811,129.743 66.6443,124.076 65,118.5C 64.3374,121.869 64.5041,125.203 65.5,128.5C 65.3333,129.167 65.1667,129.833 65,130.5C 64.7104,128.956 64.0437,127.623 63,126.5C 62.8138,129.036 62.3138,131.369 61.5,133.5C 60.3915,132.71 59.0581,132.21 57.5,132C 58.4438,129.281 58.7771,126.448 58.5,123.5C 57.6981,117.848 57.5314,112.182 58,106.5C 60.0652,105.372 60.7319,103.706 60,101.5C 57.6721,105.445 55.8388,105.112 54.5,100.5C 53.914,100.709 53.414,101.043 53,101.5C 52.1772,109.677 52.3439,117.677 53.5,125.5C 53.3359,128.187 53.5026,130.854 54,133.5C 54.7083,134.381 55.5416,135.047 56.5,135.5C 57.4293,136.315 58.4293,137.148 59.5,138C 57.4328,138.536 55.5994,138.036 54,136.5C 52.9562,134.285 52.2895,131.952 52,129.5C 51.5,109.503 51.3334,89.5028 51.5,69.5C 52.3382,69.1583 52.6716,68.4916 52.5,67.5C 51.9978,60.1863 52.3311,52.8529 53.5,45.5C 53.5,44.8333 53.5,44.1667 53.5,43.5C 54.1667,38.8333 54.8333,34.1667 55.5,29.5C 56.5,29.5 57.5,29.5 58.5,29.5C 58.3335,41.5046 58.5001,53.5046 59,65.5C 61.9408,82.4151 64.6075,99.4151 67,116.5C 67.3333,117.5 67.6667,118.5 68,119.5C 68.21,117.942 68.71,116.609 69.5,115.5 Z"/></g>
<g><path style="opacity:1" fill="#9e9e9e" d="M 48.5,78.5 C 49.2389,78.369 49.9056,78.5357 50.5,79C 50.2979,91.2126 50.2979,103.213 50.5,115C 49.9056,115.464 49.2389,115.631 48.5,115.5C 48.5,103.167 48.5,90.8333 48.5,78.5 Z"/></g>
<g><path style="opacity:1" fill="#9aacce" d="M 84.5,66.5 C 86.4033,69.2852 88.2366,72.2852 90,75.5C 90.6172,74.5509 90.4506,73.7175 89.5,73C 92.9257,71.7619 94.5923,72.9286 94.5,76.5C 96.2161,76.6287 97.8828,76.962 99.5,77.5C 100.306,78.7281 101.306,79.7281 102.5,80.5C 102.19,81.7383 101.69,81.7383 101,80.5C 100.167,82.5 99.3333,84.5 98.5,86.5C 97.5,85.1667 96.5,83.8333 95.5,82.5C 96.8334,81.3801 97.3334,80.0468 97,78.5C 95.3066,77.8155 93.8066,76.8155 92.5,75.5C 92.7825,79.0943 92.4492,82.761 91.5,86.5C 90.7611,86.369 90.0944,86.5357 89.5,87C 87.4514,89.5934 85.2848,92.0934 83,94.5C 82.3333,93.5 82.3333,92.5 83,91.5C 84.2362,90.6008 85.0696,89.4341 85.5,88C 84.1388,86.0378 82.9721,84.2044 82,82.5C 83,83.8333 84,83.8333 85,82.5C 86.0929,86.8383 87.9263,87.3383 90.5,84C 88.1979,78.2601 86.1979,72.4267 84.5,66.5 Z"/></g>
<g><path style="opacity:1" fill="#bcc9e3" d="M 102.5,80.5 C 104.068,82.8109 104.902,85.4776 105,88.5C 106.833,89.6667 108.667,90.8333 110.5,92C 109.446,93.3876 109.28,94.8876 110,96.5C 112.074,99.078 114.574,101.078 117.5,102.5C 115.813,103.568 114.146,103.401 112.5,102C 111.743,100.488 110.743,99.1545 109.5,98C 105.5,97.3333 101.5,97.3333 97.5,98C 94.0311,101.812 90.6977,105.645 87.5,109.5C 87.5,108.833 87.5,108.167 87.5,107.5C 91.4461,102.543 95.4461,97.5434 99.5,92.5C 98.4305,92.6399 97.2639,92.6399 96,92.5C 95,89.8333 94,87.1667 93,84.5C 92.7216,85.4158 92.2216,86.0825 91.5,86.5C 92.4492,82.761 92.7825,79.0943 92.5,75.5C 93.8066,76.8155 95.3066,77.8155 97,78.5C 97.3334,80.0468 96.8334,81.3801 95.5,82.5C 96.5,83.8333 97.5,85.1667 98.5,86.5C 99.3333,84.5 100.167,82.5 101,80.5C 101.69,81.7383 102.19,81.7383 102.5,80.5 Z"/></g>
<g><path style="opacity:1" fill="#91a4c7" d="M 87.5,107.5 C 87.9365,103.86 89.6032,101.026 92.5,99C 91.5209,97.2215 91.8542,95.5548 93.5,94C 92.1328,91.6985 91.4661,89.1985 91.5,86.5C 92.2216,86.0825 92.7216,85.4158 93,84.5C 94,87.1667 95,89.8333 96,92.5C 97.2639,92.6399 98.4305,92.6399 99.5,92.5C 95.4461,97.5434 91.4461,102.543 87.5,107.5 Z"/></g>
<g><path style="opacity:1" fill="#b4c1dd" d="M 68.5,15.5 C 68.8333,15.5 69.1667,15.5 69.5,15.5C 69.3345,19.5138 69.5012,23.5138 70,27.5C 70.3333,27.1667 70.6667,26.8333 71,26.5C 71.5347,29.827 71.0347,32.9937 69.5,36C 70.1667,36.6667 70.8333,37.3333 71.5,38C 72.0714,40.8553 72.0714,43.8553 71.5,47C 72.9437,48.7635 73.9437,50.7635 74.5,53C 76.8747,55.4067 77.8747,54.9067 77.5,51.5C 79.9835,56.4436 82.3168,61.4436 84.5,66.5C 86.1979,72.4267 88.1979,78.2601 90.5,84C 87.9263,87.3383 86.0929,86.8383 85,82.5C 84,83.8333 83,83.8333 82,82.5C 82.9721,84.2044 84.1388,86.0378 85.5,88C 85.0696,89.4341 84.2362,90.6008 83,91.5C 82.3333,92.5 82.3333,93.5 83,94.5C 85.2848,92.0934 87.4514,89.5934 89.5,87C 90.0944,86.5357 90.7611,86.369 91.5,86.5C 91.4661,89.1985 92.1328,91.6985 93.5,94C 91.8542,95.5548 91.5209,97.2215 92.5,99C 89.6032,101.026 87.9365,103.86 87.5,107.5C 87.5,108.167 87.5,108.833 87.5,109.5C 87.3379,111.527 87.5045,113.527 88,115.5C 91.7817,116.739 95.6151,117.905 99.5,119C 101.968,121.716 101.968,124.549 99.5,127.5C 108.56,129.535 108.56,130.535 99.5,130.5C 98.5968,127.075 97.0968,126.742 95,129.5C 93.3721,128.181 93.5387,126.848 95.5,125.5C 95.1667,125.167 94.8333,124.833 94.5,124.5C 91.6231,125.67 89.4564,125.004 88,122.5C 87.6667,123.167 87.3333,123.833 87,124.5C 84.578,120.656 81.9113,116.99 79,113.5C 78.3856,111.687 78.7189,111.353 80,112.5C 80.1667,112 80.3333,111.5 80.5,111C 79.0355,107.898 79.7021,105.398 82.5,103.5C 83.4972,103.53 84.1639,103.03 84.5,102C 81.535,93.1505 78.8683,84.1505 76.5,75C 76.4393,73.2894 77.1059,71.956 78.5,71C 80.2556,70.7978 81.9223,70.2978 83.5,69.5C 80.7395,66.8006 77.4062,65.4673 73.5,65.5C 74.6843,64.3121 74.6843,63.1455 73.5,62C 74.1667,61.6667 74.8333,61.3333 75.5,61C 74.1667,60.3333 74.1667,59.6667 75.5,59C 74.1667,58 72.8333,57 71.5,56C 71.8333,55.6667 72.1667,55.3333 72.5,55C 71.3783,52.8762 69.8783,51.0429 68,49.5C 66.5053,47.8904 66.3387,46.2237 67.5,44.5C 67.1543,43.3044 66.6543,43.3044 66,44.5C 65.8333,43.5 65.6667,42.5 65.5,41.5C 68.1358,33.0613 69.1358,24.3946 68.5,15.5 Z"/></g>
<g><path style="opacity:1" fill="#94a2c6" d="M 70.5,67.5 C 69.9816,68.5774 69.6483,69.7441 69.5,71C 73.1495,82.1286 77.4828,92.9619 82.5,103.5C 79.7021,105.398 79.0355,107.898 80.5,111C 80.3333,111.5 80.1667,112 80,112.5C 78.7189,111.353 78.3856,111.687 79,113.5C 81.9113,116.99 84.578,120.656 87,124.5C 87.3333,123.833 87.6667,123.167 88,122.5C 89.4564,125.004 91.6231,125.67 94.5,124.5C 94.8333,124.833 95.1667,125.167 95.5,125.5C 93.5387,126.848 93.3721,128.181 95,129.5C 97.0968,126.742 98.5968,127.075 99.5,130.5C 98.209,130.263 97.209,130.596 96.5,131.5C 95.8501,131.804 95.1835,132.137 94.5,132.5C 92.8509,130.35 91.0176,128.35 89,126.5C 88.6667,127.167 88.3333,127.833 88,128.5C 87,127.167 86,125.833 85,124.5C 84.6667,124.833 84.3333,125.167 84,125.5C 81.9083,122.319 79.575,119.319 77,116.5C 74.8913,117.035 74.3913,118.035 75.5,119.5C 75.1924,120.308 74.6924,120.975 74,121.5C 72.3952,118.809 70.8952,116.142 69.5,113.5C 67.0164,101.633 65.3497,89.6332 64.5,77.5C 64.3379,75.4727 64.5045,73.4727 65,71.5C 66.886,70.0699 68.5527,68.4032 70,66.5C 70.3988,66.7284 70.5654,67.0618 70.5,67.5 Z"/></g>
<g><path style="opacity:1" fill="#c4c4c4" d="M 58.5,123.5 C 57.7784,123.082 57.2784,122.416 57,121.5C 56.6667,123.5 56.3333,125.5 56,127.5C 54.5172,121.157 54.0172,114.824 54.5,108.5C 53.6701,113.833 53.3368,119.499 53.5,125.5C 52.3439,117.677 52.1772,109.677 53,101.5C 53.414,101.043 53.914,100.709 54.5,100.5C 55.8388,105.112 57.6721,105.445 60,101.5C 60.7319,103.706 60.0652,105.372 58,106.5C 57.5314,112.182 57.6981,117.848 58.5,123.5 Z"/></g>
<g><path style="opacity:1" fill="#a7a7a6" d="M 58.5,123.5 C 58.7771,126.448 58.4438,129.281 57.5,132C 59.0581,132.21 60.3915,132.71 61.5,133.5C 60.1805,134.942 58.5138,135.608 56.5,135.5C 55.5416,135.047 54.7083,134.381 54,133.5C 53.5026,130.854 53.3359,128.187 53.5,125.5C 53.3368,119.499 53.6701,113.833 54.5,108.5C 54.0172,114.824 54.5172,121.157 56,127.5C 56.3333,125.5 56.6667,123.5 57,121.5C 57.2784,122.416 57.7784,123.082 58.5,123.5 Z"/></g>
<g><path style="opacity:1" fill="#a2b0d1" d="M 69.5,113.5 C 70.8952,116.142 72.3952,118.809 74,121.5C 74.6924,120.975 75.1924,120.308 75.5,119.5C 74.3913,118.035 74.8913,117.035 77,116.5C 79.575,119.319 81.9083,122.319 84,125.5C 84.3333,125.167 84.6667,124.833 85,124.5C 86,125.833 87,127.167 88,128.5C 88.3333,127.833 88.6667,127.167 89,126.5C 91.0176,128.35 92.8509,130.35 94.5,132.5C 95.1835,132.137 95.8501,131.804 96.5,131.5C 99.5341,133.018 102.867,133.851 106.5,134C 106.167,134.333 105.833,134.667 105.5,135C 101.321,134.949 97.1541,134.449 93,133.5C 87.832,134.223 82.6653,134.889 77.5,135.5C 76.448,135.649 75.448,135.483 74.5,135C 72.2635,128.653 70.5968,122.153 69.5,115.5C 69.5,114.833 69.5,114.167 69.5,113.5 Z"/></g>
<g><path style="opacity:1" fill="#d2d2d2" d="M 51.5,69.5 C 51.3334,89.5028 51.5,109.503 52,129.5C 52.2895,131.952 52.9562,134.285 54,136.5C 55.5994,138.036 57.4328,138.536 59.5,138C 58.4293,137.148 57.4293,136.315 56.5,135.5C 58.5138,135.608 60.1805,134.942 61.5,133.5C 62.3138,131.369 62.8138,129.036 63,126.5C 64.0437,127.623 64.7104,128.956 65,130.5C 65.1667,129.833 65.3333,129.167 65.5,128.5C 64.5041,125.203 64.3374,121.869 65,118.5C 66.6443,124.076 67.811,129.743 68.5,135.5C 68.6813,138.163 68.0146,140.497 66.5,142.5C 61.4135,144.318 56.9135,143.318 53,139.5C 52.3333,140.833 51.6667,142.167 51,143.5C 49.0886,134.363 48.2553,125.03 48.5,115.5C 49.2389,115.631 49.9056,115.464 50.5,115C 50.2979,103.213 50.2979,91.2126 50.5,79C 49.9056,78.5357 49.2389,78.369 48.5,78.5C 48.5,75.8333 48.5,73.1667 48.5,70.5C 49.609,70.4431 50.609,70.1098 51.5,69.5 Z"/></g>
</svg>
