<?xml version="1.0" encoding="UTF-8"?>
<!DOCTYPE svg PUBLIC "-//W3C//DTD SVG 1.1//EN" "http://www.w3.org/Graphics/SVG/1.1/DTD/svg11.dtd">
<svg xmlns="http://www.w3.org/2000/svg" version="1.1" width="158px" height="166px" style="shape-rendering:geometricPrecision; text-rendering:geometricPrecision; image-rendering:optimizeQuality; fill-rule:evenodd; clip-rule:evenodd" xmlns:xlink="http://www.w3.org/1999/xlink">
<g><path style="opacity:1" fill="#f5f5f5" d="M -0.5,-0.5 C 52.1667,-0.5 104.833,-0.5 157.5,-0.5C 157.5,54.8333 157.5,110.167 157.5,165.5C 104.833,165.5 52.1667,165.5 -0.5,165.5C -0.5,110.167 -0.5,54.8333 -0.5,-0.5 Z"/></g>
<g><path style="opacity:1" fill="#2c2c2c" d="M 139.5,54.5 C 138.666,55.7479 137.333,56.4146 135.5,56.5C 112.302,53.3745 89.3019,54.3745 66.5,59.5C 70.6046,55.898 74.6046,52.0647 78.5,48C 59.6955,48.3494 41.0288,48.6827 22.5,49C 24.9768,50.6427 27.3102,52.476 29.5,54.5C 30.4255,53.3595 31.2588,53.3595 32,54.5C 32.3333,53.5 32.6667,52.5 33,51.5C 33.4652,52.9308 34.2986,54.0975 35.5,55C 37.2275,54.4742 38.8941,54.6409 40.5,55.5C 37.7829,58.1445 34.9495,58.1445 32,55.5C 31.5,56.5 31,57.5 30.5,58.5C 37.3105,59.0351 43.9772,59.8684 50.5,61C 42.8792,60.6519 35.3792,60.4852 28,60.5C 26.5187,61.4709 25.6854,62.8042 25.5,64.5C 22.8127,64.6641 20.146,64.4974 17.5,64C 15.8934,62.951 15.2267,61.451 15.5,59.5C 14.8101,55.0748 15.8101,51.2415 18.5,48C 1.16667,47.3333 1.16667,46.6667 18.5,46C 57.8333,45.3333 97.1667,45.3333 136.5,46C 138.833,46.3333 141.167,46.6667 143.5,47C 136.177,47.7769 128.843,48.4436 121.5,49C 127.731,49.909 133.731,51.7423 139.5,54.5 Z"/></g>
<g><path style="opacity:1" fill="#353636" d="M 66.5,59.5 C 58.9354,61.6472 51.2688,63.4806 43.5,65C 38.0299,65.8512 32.6966,65.3512 27.5,63.5C 26.8165,63.8627 26.1499,64.1961 25.5,64.5C 25.6854,62.8042 26.5187,61.4709 28,60.5C 35.3792,60.4852 42.8792,60.6519 50.5,61C 43.9772,59.8684 37.3105,59.0351 30.5,58.5C 31,57.5 31.5,56.5 32,55.5C 34.9495,58.1445 37.7829,58.1445 40.5,55.5C 38.8941,54.6409 37.2275,54.4742 35.5,55C 34.2986,54.0975 33.4652,52.9308 33,51.5C 32.6667,52.5 32.3333,53.5 32,54.5C 31.2588,53.3595 30.4255,53.3595 29.5,54.5C 27.3102,52.476 24.9768,50.6427 22.5,49C 41.0288,48.6827 59.6955,48.3494 78.5,48C 74.6046,52.0647 70.6046,55.898 66.5,59.5 Z"/></g>
<g><path style="opacity:1" fill="#687376" d="M 40.5,55.5 C 41.5245,53.7988 43.0245,52.4655 45,51.5C 46.2197,52.3881 47.5531,53.0548 49,53.5C 53.01,51.8647 57.1767,51.1981 61.5,51.5C 61.5923,55.0714 59.9257,56.2381 56.5,55C 58.8146,53.6325 58.8146,52.7991 56.5,52.5C 54.3131,53.758 51.9798,54.758 49.5,55.5C 46.4807,54.174 43.4807,54.174 40.5,55.5 Z"/></g>
<g><path style="opacity:1" fill="#606e75" d="M 139.5,54.5 C 142.522,57.2881 143.189,60.6214 141.5,64.5C 138.802,64.5497 136.636,63.5497 135,61.5C 133.594,62.6682 132.428,62.3348 131.5,60.5C 128.842,61.2141 126.342,62.8807 124,65.5C 122.319,63.7059 120.486,63.2059 118.5,64C 118.07,63.0805 117.736,62.2472 117.5,61.5C 116.065,63.4011 114.398,63.7345 112.5,62.5C 113.747,60.5029 114.581,58.5029 115,56.5C 113.075,58.9734 111.242,58.9734 109.5,56.5C 109.002,57.6034 108.669,58.6034 108.5,59.5C 107.522,59.0233 106.689,58.3567 106,57.5C 105.667,57.8333 105.333,58.1667 105,58.5C 105.128,63.979 104.128,64.3123 102,59.5C 101.026,61.8776 100.359,61.5443 100,58.5C 99.7508,59.624 99.2508,60.624 98.5,61.5C 98.0337,57.4536 96.7004,57.6203 94.5,62C 93.1011,62.5946 91.7678,62.4279 90.5,61.5C 89.2011,62.09 88.3678,63.09 88,64.5C 87.3333,63.1667 86.6667,63.1667 86,64.5C 85.6667,63.8333 85.3333,63.1667 85,62.5C 84.2747,64.158 83.108,64.658 81.5,64C 83.7752,61.1184 83.1085,60.7851 79.5,63C 80.2524,63.6708 80.5858,64.5041 80.5,65.5C 69.5614,67.5582 59.0614,70.8915 49,75.5C 48.6121,74.572 47.9454,73.9054 47,73.5C 45.8767,75.0997 44.3767,76.0997 42.5,76.5C 42.7394,74.5328 42.4061,72.6995 41.5,71C 38.3093,70.969 35.1427,71.469 32,72.5C 27.9604,69.7358 24.1271,70.0691 20.5,73.5C 22.3121,73.426 24.3121,73.7593 26.5,74.5C 25.0528,74.6772 23.7195,75.6772 22.5,77.5C 18.8852,76.752 17.7185,74.752 19,71.5C 17.7741,73.5477 16.2741,73.881 14.5,72.5C 14.1818,67.9677 14.5151,63.6344 15.5,59.5C 15.2267,61.451 15.8934,62.951 17.5,64C 20.146,64.4974 22.8127,64.6641 25.5,64.5C 26.1499,64.1961 26.8165,63.8627 27.5,63.5C 32.6966,65.3512 38.0299,65.8512 43.5,65C 51.2688,63.4806 58.9354,61.6472 66.5,59.5C 89.3019,54.3745 112.302,53.3745 135.5,56.5C 137.333,56.4146 138.666,55.7479 139.5,54.5 Z"/></g>
<g><path style="opacity:1" fill="#71838c" d="M 141.5,64.5 C 140.589,70.6653 136.922,73.332 130.5,72.5C 130.918,71.7784 131.584,71.2784 132.5,71C 122.603,68.8698 112.77,67.7032 103,67.5C 99.3026,67.8551 95.8026,68.5218 92.5,69.5C 91.6364,68.3117 90.6364,67.1451 89.5,66C 86.5184,65.502 83.5184,65.3354 80.5,65.5C 80.5858,64.5041 80.2524,63.6708 79.5,63C 83.1085,60.7851 83.7752,61.1184 81.5,64C 83.108,64.658 84.2747,64.158 85,62.5C 85.3333,63.1667 85.6667,63.8333 86,64.5C 86.6667,63.1667 87.3333,63.1667 88,64.5C 88.3678,63.09 89.2011,62.09 90.5,61.5C 91.7678,62.4279 93.1011,62.5946 94.5,62C 96.7004,57.6203 98.0337,57.4536 98.5,61.5C 99.2508,60.624 99.7508,59.624 100,58.5C 100.359,61.5443 101.026,61.8776 102,59.5C 104.128,64.3123 105.128,63.979 105,58.5C 105.333,58.1667 105.667,57.8333 106,57.5C 106.689,58.3567 107.522,59.0233 108.5,59.5C 108.669,58.6034 109.002,57.6034 109.5,56.5C 111.242,58.9734 113.075,58.9734 115,56.5C 114.581,58.5029 113.747,60.5029 112.5,62.5C 114.398,63.7345 116.065,63.4011 117.5,61.5C 117.736,62.2472 118.07,63.0805 118.5,64C 120.486,63.2059 122.319,63.7059 124,65.5C 126.342,62.8807 128.842,61.2141 131.5,60.5C 132.428,62.3348 133.594,62.6682 135,61.5C 136.636,63.5497 138.802,64.5497 141.5,64.5 Z"/></g>
<g><path style="opacity:1" fill="#7e989f" d="M 80.5,65.5 C 83.5184,65.3354 86.5184,65.502 89.5,66C 90.6364,67.1451 91.6364,68.3117 92.5,69.5C 91.4519,76.8765 87.1186,80.8765 79.5,81.5C 80.3686,79.283 80.702,76.9496 80.5,74.5C 69.7354,75.1933 59.0688,76.5267 48.5,78.5C 48.5,82.8333 48.5,87.1667 48.5,91.5C 46.5,90.8333 44.5,90.1667 42.5,89.5C 41.2057,85.0661 41.2057,80.7327 42.5,76.5C 44.3767,76.0997 45.8767,75.0997 47,73.5C 47.9454,73.9054 48.6121,74.572 49,75.5C 59.0614,70.8915 69.5614,67.5582 80.5,65.5 Z"/></g>
<g><path style="opacity:1" fill="#48626f" d="M 79.5,81.5 C 77.1432,81.3367 74.8098,81.5034 72.5,82C 73.5171,83.0495 73.6838,84.2161 73,85.5C 71.9505,84.4829 70.7839,84.3162 69.5,85C 69.1286,86.6033 68.7952,88.1033 68.5,89.5C 65.7743,89.2639 63.441,90.0972 61.5,92C 62.1667,92.6667 62.8333,93.3333 63.5,94C 62.0953,95.2692 60.4286,95.7692 58.5,95.5C 58.5,96.5 58.5,97.5 58.5,98.5C 55.9398,97.0749 53.6065,96.0749 51.5,95.5C 51.5323,93.3812 50.5323,92.0478 48.5,91.5C 48.5,87.1667 48.5,82.8333 48.5,78.5C 59.0688,76.5267 69.7354,75.1933 80.5,74.5C 80.702,76.9496 80.3686,79.283 79.5,81.5 Z"/></g>
<g><path style="opacity:1" fill="#7a929a" d="M 22.5,77.5 C 24.2123,80.7109 26.879,82.5443 30.5,83C 25.9146,84.7949 21.2479,86.2949 16.5,87.5C 15.2926,82.586 14.6259,77.586 14.5,72.5C 16.2741,73.881 17.7741,73.5477 19,71.5C 17.7185,74.752 18.8852,76.752 22.5,77.5 Z"/></g>
<g><path style="opacity:1" fill="#97afb6" d="M 111.5,77.5 C 111.461,78.5832 111.127,79.5832 110.5,80.5C 105.797,81.5153 102.131,84.0153 99.5,88C 97.4144,88.3153 95.4144,88.8153 93.5,89.5C 93.2148,87.712 93.5481,86.0453 94.5,84.5C 95.3857,85.325 95.719,86.325 95.5,87.5C 97.6807,87.7163 99.3474,86.883 100.5,85C 99.5,84.6667 98.5,84.3333 97.5,84C 100.983,78.7513 105.65,76.5847 111.5,77.5 Z"/></g>
<g><path style="opacity:1" fill="#56707e" d="M 130.5,72.5 C 123.68,72.79 117.347,74.4566 111.5,77.5C 105.65,76.5847 100.983,78.7513 97.5,84C 98.5,84.3333 99.5,84.6667 100.5,85C 99.3474,86.883 97.6807,87.7163 95.5,87.5C 95.719,86.325 95.3857,85.325 94.5,84.5C 93.5481,86.0453 93.2148,87.712 93.5,89.5C 90.7634,90.1676 88.2634,91.5009 86,93.5C 85.228,93.3552 84.5613,93.0219 84,92.5C 83.9005,94.6526 83.0672,96.3192 81.5,97.5C 76.4932,97.9902 75.8265,97.1568 79.5,95C 76.7952,92.2076 73.4618,90.8743 69.5,91C 68.944,90.6174 68.6107,90.1174 68.5,89.5C 68.7952,88.1033 69.1286,86.6033 69.5,85C 70.7839,84.3162 71.9505,84.4829 73,85.5C 73.6838,84.2161 73.5171,83.0495 72.5,82C 74.8098,81.5034 77.1432,81.3367 79.5,81.5C 87.1186,80.8765 91.4519,76.8765 92.5,69.5C 95.8026,68.5218 99.3026,67.8551 103,67.5C 112.77,67.7032 122.603,68.8698 132.5,71C 131.584,71.2784 130.918,71.7784 130.5,72.5 Z"/></g>
<g><path style="opacity:1" fill="#5d7582" d="M 42.5,76.5 C 41.2057,80.7327 41.2057,85.0661 42.5,89.5C 35.7482,91.1256 29.2482,93.459 23,96.5C 21.5349,95.6705 20.0349,95.5038 18.5,96C 17.511,98.1585 15.8444,99.3252 13.5,99.5C 14.7311,98.2823 15.8978,96.949 17,95.5C 17.6667,94.1667 17.6667,92.8333 17,91.5C 15.0065,92.914 12.8398,93.914 10.5,94.5C 11.9997,92.8214 13.833,91.4881 16,90.5C 16.4828,89.552 16.6495,88.552 16.5,87.5C 21.2479,86.2949 25.9146,84.7949 30.5,83C 26.879,82.5443 24.2123,80.7109 22.5,77.5C 23.7195,75.6772 25.0528,74.6772 26.5,74.5C 24.3121,73.7593 22.3121,73.426 20.5,73.5C 24.1271,70.0691 27.9604,69.7358 32,72.5C 35.1427,71.469 38.3093,70.969 41.5,71C 42.4061,72.6995 42.7394,74.5328 42.5,76.5 Z"/></g>
<g><path style="opacity:1" fill="#eaedee" d="M 13.5,99.5 C 9.66958,99.5042 8.66958,97.8375 10.5,94.5C 12.8398,93.914 15.0065,92.914 17,91.5C 17.6667,92.8333 17.6667,94.1667 17,95.5C 15.8978,96.949 14.7311,98.2823 13.5,99.5 Z"/></g>
<g><path style="opacity:1" fill="#536670" d="M 10.5,94.5 C 8.66958,97.8375 9.66958,99.5042 13.5,99.5C 9.50618,101.349 8.00618,100.015 9,95.5C 9.38258,94.944 9.88258,94.6107 10.5,94.5 Z"/></g>
<g><path style="opacity:1" fill="#849da4" d="M 68.5,89.5 C 68.6107,90.1174 68.944,90.6174 69.5,91C 73.4618,90.8743 76.7952,92.2076 79.5,95C 75.8265,97.1568 76.4932,97.9902 81.5,97.5C 80.0813,98.4511 78.4147,98.7845 76.5,98.5C 76.8334,103.281 74.8334,104.614 70.5,102.5C 66.6748,100.958 62.6748,99.6245 58.5,98.5C 58.5,97.5 58.5,96.5 58.5,95.5C 60.4286,95.7692 62.0953,95.2692 63.5,94C 62.8333,93.3333 62.1667,92.6667 61.5,92C 63.441,90.0972 65.7743,89.2639 68.5,89.5 Z"/></g>
<g><path style="opacity:1" fill="#798990" d="M 51.5,95.5 C 53.6065,96.0749 55.9398,97.0749 58.5,98.5C 62.6748,99.6245 66.6748,100.958 70.5,102.5C 67.5885,104.802 65.2552,107.636 63.5,111C 61.9221,112.094 60.2554,112.928 58.5,113.5C 58.9528,112.542 59.6195,111.708 60.5,111C 58.0935,110.743 56.4268,109.576 55.5,107.5C 55.6107,106.883 55.944,106.383 56.5,106C 54.117,102.801 52.4503,99.3006 51.5,95.5 Z"/></g>
<g><path style="opacity:1" fill="#6f7f85" d="M 55.5,107.5 C 53.9192,109.142 53.2525,111.142 53.5,113.5C 52.3871,112.054 52.2204,110.387 53,108.5C 53.6708,107.748 54.5041,107.414 55.5,107.5 Z"/></g>
<g><path style="opacity:1" fill="#d9dddf" d="M 55.5,107.5 C 56.4268,109.576 58.0935,110.743 60.5,111C 59.6195,111.708 58.9528,112.542 58.5,113.5C 56.8333,114.833 55.1667,114.833 53.5,113.5C 53.2525,111.142 53.9192,109.142 55.5,107.5 Z"/></g>
</svg>
