<?xml version="1.0" encoding="UTF-8"?>
<!DOCTYPE svg PUBLIC "-//W3C//DTD SVG 1.1//EN" "http://www.w3.org/Graphics/SVG/1.1/DTD/svg11.dtd">
<svg xmlns="http://www.w3.org/2000/svg" version="1.1" width="166px" height="158px" style="shape-rendering:geometricPrecision; text-rendering:geometricPrecision; image-rendering:optimizeQuality; fill-rule:evenodd; clip-rule:evenodd" xmlns:xlink="http://www.w3.org/1999/xlink">
<g><path style="opacity:1" fill="#f5f5f5" d="M -0.5,-0.5 C 54.8333,-0.5 110.167,-0.5 165.5,-0.5C 165.5,52.1667 165.5,104.833 165.5,157.5C 110.167,157.5 54.8333,157.5 -0.5,157.5C -0.5,104.833 -0.5,52.1667 -0.5,-0.5 Z"/></g>
<g><path style="opacity:1" fill="#331a1e" d="M 98.5,16.5 C 99.455,21.42 100.122,26.42 100.5,31.5C 99.1779,31.33 98.0113,31.6634 97,32.5C 95.1576,27.7583 93.3243,23.0917 91.5,18.5C 93.2789,16.6565 95.6122,15.9898 98.5,16.5 Z"/></g>
<g><path style="opacity:1" fill="#b9babd" d="M 71.5,20.5 C 73.6074,19.5318 75.9407,19.1984 78.5,19.5C 81.4019,24.9048 85.2353,29.5714 90,33.5C 90.4643,32.9056 90.631,32.2389 90.5,31.5C 91.2485,32.531 91.9152,33.6976 92.5,35C 92.2716,35.3988 91.9382,35.5654 91.5,35.5C 88.5335,35.0114 85.8668,33.8448 83.5,32C 80.8333,28.3333 78.1667,24.6667 75.5,21C 74.2068,20.51 72.8734,20.3433 71.5,20.5 Z"/></g>
<g><path style="opacity:1" fill="#3b3b3d" d="M 109.5,14.5 C 109.5,14.8333 109.5,15.1667 109.5,15.5C 106.234,15.4326 104.734,17.0992 105,20.5C 104.506,18.8659 104.34,17.1992 104.5,15.5C 102.265,15.2053 100.265,15.5386 98.5,16.5C 95.6122,15.9898 93.2789,16.6565 91.5,18.5C 93.3113,27.1187 95.9779,35.4521 99.5,43.5C 98.635,44.5827 97.635,44.7494 96.5,44C 94.4436,41.3859 92.7769,38.5525 91.5,35.5C 91.9382,35.5654 92.2716,35.3988 92.5,35C 91.9152,33.6976 91.2485,32.531 90.5,31.5C 88.5843,26.3279 87.2509,20.9945 86.5,15.5C 93.0154,14.7613 99.6821,14.0946 106.5,13.5C 107.584,13.685 108.584,14.0183 109.5,14.5 Z"/></g>
<g><path style="opacity:1" fill="#d4d6d9" d="M 86.5,15.5 C 87.2509,20.9945 88.5843,26.3279 90.5,31.5C 90.631,32.2389 90.4643,32.9056 90,33.5C 85.2353,29.5714 81.4019,24.9048 78.5,19.5C 80.8531,17.6567 83.5198,16.3234 86.5,15.5 Z"/></g>
<g><path style="opacity:1" fill="#832a42" d="M 119.5,31.5 C 119.833,32.1667 120.167,32.8333 120.5,33.5C 117.54,32.968 117.207,32.3013 119.5,31.5 Z"/></g>
<g><path style="opacity:1" fill="#706266" d="M 122.5,28.5 C 122.5,46.5 122.5,64.5 122.5,82.5C 121.833,70.1667 121.167,57.8333 120.5,45.5C 120.865,42.2544 119.865,39.5877 117.5,37.5C 118.274,36.2888 119.107,36.2888 120,37.5C 120.49,36.2068 120.657,34.8734 120.5,33.5C 120.167,32.8333 119.833,32.1667 119.5,31.5C 120.573,30.7494 120.74,29.7494 120,28.5C 115.553,26.1241 115.553,25.4574 120,26.5C 120.667,25.5 120.667,24.5 120,23.5C 118.082,22.4582 116.249,21.2915 114.5,20C 116.256,19.8595 117.922,20.3595 119.5,21.5C 120.086,21.2907 120.586,20.9574 121,20.5C 121.183,23.3647 121.683,26.0314 122.5,28.5 Z"/></g>
<g><path style="opacity:1" fill="#252426" d="M 109.5,15.5 C 113.379,28.1777 115.712,41.1777 116.5,54.5C 116.106,56.9546 114.94,58.9546 113,60.5C 112.471,65.8538 112.638,71.1871 113.5,76.5C 113.483,78.0281 112.816,78.5281 111.5,78C 110.057,75.6162 108.723,73.1162 107.5,70.5C 106.246,63.5392 105.246,56.5392 104.5,49.5C 103.833,48.5 103.167,47.5 102.5,46.5C 102.167,46.6667 101.833,46.8333 101.5,47C 103.714,55.3289 105.047,63.8289 105.5,72.5C 104.5,71.1667 103.5,69.8333 102.5,68.5C 99.3255,63.4844 96.6588,58.1511 94.5,52.5C 93.7841,49.4024 92.2841,46.7357 90,44.5C 90.4655,48.3962 91.6322,52.0629 93.5,55.5C 93.7329,58.5418 94.7329,61.2084 96.5,63.5C 96.9628,66.221 97.6295,68.8877 98.5,71.5C 97.603,70.4019 96.7697,70.4019 96,71.5C 95.5814,70.3279 94.9147,69.3279 94,68.5C 94.6981,66.2362 94.1981,64.4028 92.5,63C 92.8333,62 93.1667,61 93.5,60C 91.6116,57.8104 89.4449,55.9771 87,54.5C 86.1357,50.9034 84.9691,51.0701 83.5,55C 84.8009,56.6155 84.8009,58.1155 83.5,59.5C 82.8404,55.6873 81.6738,52.0207 80,48.5C 77.0492,46.9239 73.8826,46.2572 70.5,46.5C 69.1663,38.4988 67.8329,30.4988 66.5,22.5C 67.7804,21.0687 69.4471,20.4021 71.5,20.5C 72.8734,20.3433 74.2068,20.51 75.5,21C 78.1667,24.6667 80.8333,28.3333 83.5,32C 85.8668,33.8448 88.5335,35.0114 91.5,35.5C 92.7769,38.5525 94.4436,41.3859 96.5,44C 97.635,44.7494 98.635,44.5827 99.5,43.5C 95.9779,35.4521 93.3113,27.1187 91.5,18.5C 93.3243,23.0917 95.1576,27.7583 97,32.5C 98.0113,31.6634 99.1779,31.33 100.5,31.5C 100.122,26.42 99.455,21.42 98.5,16.5C 100.265,15.5386 102.265,15.2053 104.5,15.5C 104.34,17.1992 104.506,18.8659 105,20.5C 104.734,17.0992 106.234,15.4326 109.5,15.5 Z"/></g>
<g><path style="opacity:1" fill="#6c1b28" d="M 94.5,52.5 C 93.596,53.209 93.2627,54.209 93.5,55.5C 91.6322,52.0629 90.4655,48.3962 90,44.5C 92.2841,46.7357 93.7841,49.4024 94.5,52.5 Z"/></g>
<g><path style="opacity:1" fill="#dadbdf" d="M 66.5,22.5 C 67.8329,30.4988 69.1663,38.4988 70.5,46.5C 73.8826,46.2572 77.0492,46.9239 80,48.5C 81.6738,52.0207 82.8404,55.6873 83.5,59.5C 86.0294,66.4214 88.3627,73.4214 90.5,80.5C 89.7321,81.2625 89.2321,82.2625 89,83.5C 86.9937,78.1568 84.9937,72.8234 83,67.5C 80.4966,65.0737 78.1632,62.407 76,59.5C 75.6667,61.5 75.3333,63.5 75,65.5C 73.295,67.5766 72.1283,69.91 71.5,72.5C 70.6457,73.6316 70.6457,74.965 71.5,76.5C 69.3757,74.9408 67.709,72.9408 66.5,70.5C 67.3279,69.5853 68.3279,68.9186 69.5,68.5C 70.5827,67.635 70.7494,66.635 70,65.5C 69.1841,66.8228 68.0174,67.4894 66.5,67.5C 67.6935,64.9476 69.0268,62.4476 70.5,60C 69.7107,56.9031 68.544,56.7364 67,59.5C 66.5992,62.6994 65.7659,65.6994 64.5,68.5C 61.3808,66.7089 59.3808,64.0422 58.5,60.5C 59.9616,59.5423 61.2949,58.3756 62.5,57C 59.7831,55.1608 58.1164,55.9941 57.5,59.5C 55.067,57.3824 53.4003,54.7157 52.5,51.5C 52.7019,49.0773 53.8686,47.4106 56,46.5C 59.1091,47.9712 62.2757,49.3046 65.5,50.5C 65.8333,49.8333 66.1667,49.1667 66.5,48.5C 65.2441,43.3095 63.9107,38.1428 62.5,33C 63.359,29.0994 64.6924,25.5994 66.5,22.5 Z"/></g>
<g><path style="opacity:1" fill="#813240" d="M 58.5,60.5 C 57.8333,60.5 57.5,60.1667 57.5,59.5C 58.1164,55.9941 59.7831,55.1608 62.5,57C 61.2949,58.3756 59.9616,59.5423 58.5,60.5 Z"/></g>
<g><path style="opacity:1" fill="#9e9fa3" d="M 66.5,67.5 C 65.8333,67.8333 65.1667,68.1667 64.5,68.5C 65.7659,65.6994 66.5992,62.6994 67,59.5C 68.544,56.7364 69.7107,56.9031 70.5,60C 69.0268,62.4476 67.6935,64.9476 66.5,67.5 Z"/></g>
<g><path style="opacity:1" fill="#e4e6e9" d="M 90.5,80.5 C 91.2899,81.7942 92.2899,82.9609 93.5,84C 99.4544,86.3105 105.121,89.1439 110.5,92.5C 111.183,92.1373 111.85,91.8039 112.5,91.5C 112.666,100.839 112.5,110.173 112,119.5C 110.173,123.281 109.173,127.281 109,131.5C 108.506,129.866 108.34,128.199 108.5,126.5C 109.673,115.772 109.673,105.772 108.5,96.5C 108.67,102.078 106.337,106.245 101.5,109C 102.776,111.724 103.442,114.724 103.5,118C 103.333,120.833 103.167,123.667 103,126.5C 102.333,128.5 101,129.833 99,130.5C 98.6667,132.5 98.3333,134.5 98,136.5C 97.6667,128.5 97.3333,120.5 97,112.5C 96.8034,120.911 96.3034,129.245 95.5,137.5C 94.0418,135.068 92.8751,132.401 92,129.5C 91.3768,118.395 88.3768,108.062 83,98.5C 82.51,97.2068 82.3433,95.8734 82.5,94.5C 83.3235,92.5454 83.4901,90.5454 83,88.5C 80.2738,85.7144 78.6072,82.381 78,78.5C 75.9203,76.3437 73.7536,74.3437 71.5,72.5C 72.1283,69.91 73.295,67.5766 75,65.5C 75.3333,63.5 75.6667,61.5 76,59.5C 78.1632,62.407 80.4966,65.0737 83,67.5C 84.9937,72.8234 86.9937,78.1568 89,83.5C 89.2321,82.2625 89.7321,81.2625 90.5,80.5 Z"/></g>
<g><path style="opacity:1" fill="#313032" d="M 113.5,76.5 C 114.927,81.5012 114.594,86.5012 112.5,91.5C 111.85,91.8039 111.183,92.1373 110.5,92.5C 105.121,89.1439 99.4544,86.3105 93.5,84C 92.2899,82.9609 91.2899,81.7942 90.5,80.5C 88.3627,73.4214 86.0294,66.4214 83.5,59.5C 84.8009,58.1155 84.8009,56.6155 83.5,55C 84.9691,51.0701 86.1357,50.9034 87,54.5C 89.4449,55.9771 91.6116,57.8104 93.5,60C 93.1667,61 92.8333,62 92.5,63C 94.1981,64.4028 94.6981,66.2362 94,68.5C 94.9147,69.3279 95.5814,70.3279 96,71.5C 96.7697,70.4019 97.603,70.4019 98.5,71.5C 98.5,73.5 98.5,75.5 98.5,77.5C 90.9831,76.9869 90.6497,78.3202 97.5,81.5C 98.8175,81.821 100.151,82.1543 101.5,82.5C 103.038,82.5466 104.038,81.8799 104.5,80.5C 105.473,78.0521 105.806,75.3854 105.5,72.5C 105.047,63.8289 103.714,55.3289 101.5,47C 101.833,46.8333 102.167,46.6667 102.5,46.5C 103.167,47.5 103.833,48.5 104.5,49.5C 105.246,56.5392 106.246,63.5392 107.5,70.5C 108.723,73.1162 110.057,75.6162 111.5,78C 112.816,78.5281 113.483,78.0281 113.5,76.5 Z"/></g>
<g><path style="opacity:1" fill="#cbc1ca" d="M 94.5,52.5 C 96.6588,58.1511 99.3255,63.4844 102.5,68.5C 104,72.3301 104.667,76.3301 104.5,80.5C 104.038,81.8799 103.038,82.5466 101.5,82.5C 100.151,82.1543 98.8175,81.821 97.5,81.5C 96.5371,79.7016 97.2038,78.3683 99.5,77.5C 100.569,72.3783 99.5694,67.7116 96.5,63.5C 96.2671,60.4582 95.2671,57.7916 93.5,55.5C 93.2627,54.209 93.596,53.209 94.5,52.5 Z"/></g>
<g><path style="opacity:1" fill="#772c38" d="M 93.5,55.5 C 95.2671,57.7916 96.2671,60.4582 96.5,63.5C 94.7329,61.2084 93.7329,58.5418 93.5,55.5 Z"/></g>
<g><path style="opacity:1" fill="#a3a3a9" d="M 119.5,54.5 C 117.995,64.9073 118.328,75.2406 120.5,85.5C 118.955,84.7703 118.122,83.437 118,81.5C 115.611,72.189 116.111,63.189 119.5,54.5 Z"/></g>
<g><path style="opacity:1" fill="#70323b" d="M 102.5,68.5 C 103.5,69.8333 104.5,71.1667 105.5,72.5C 105.806,75.3854 105.473,78.0521 104.5,80.5C 104.667,76.3301 104,72.3301 102.5,68.5 Z"/></g>
<g><path style="opacity:1" fill="#7b3944" d="M 96.5,63.5 C 99.5694,67.7116 100.569,72.3783 99.5,77.5C 97.2038,78.3683 96.5371,79.7016 97.5,81.5C 90.6497,78.3202 90.9831,76.9869 98.5,77.5C 98.5,75.5 98.5,73.5 98.5,71.5C 97.6295,68.8877 96.9628,66.221 96.5,63.5 Z"/></g>
<g><path style="opacity:1" fill="#353436" d="M 120.5,45.5 C 121.167,57.8333 121.833,70.1667 122.5,82.5C 122.618,96.1814 122.284,109.848 121.5,123.5C 120.778,124.551 119.778,125.218 118.5,125.5C 118.5,124.167 118.5,122.833 118.5,121.5C 118.5,120.5 118.5,119.5 118.5,118.5C 120.28,117.01 120.946,115.01 120.5,112.5C 120.179,110.952 119.179,110.285 117.5,110.5C 118.568,109.566 119.901,109.232 121.5,109.5C 121.801,101.414 121.467,93.4144 120.5,85.5C 118.328,75.2406 117.995,64.9073 119.5,54.5C 119.704,51.4824 120.037,48.4824 120.5,45.5 Z"/></g>
<g><path style="opacity:1" fill="#bcbec0" d="M 71.5,72.5 C 73.7536,74.3437 75.9203,76.3437 78,78.5C 78.6072,82.381 80.2738,85.7144 83,88.5C 83.4901,90.5454 83.3235,92.5454 82.5,94.5C 81.8826,94.3893 81.3826,94.056 81,93.5C 81.3156,89.8629 79.9823,87.1962 77,85.5C 76.3333,82.8333 75.6667,80.1667 75,77.5C 73.6651,76.9205 72.4985,76.5872 71.5,76.5C 70.6457,74.965 70.6457,73.6316 71.5,72.5 Z"/></g>
<g><path style="opacity:1" fill="#7a0e29" d="M 117.5,110.5 C 119.179,110.285 120.179,110.952 120.5,112.5C 119.022,112.762 117.689,112.429 116.5,111.5C 116.624,110.893 116.957,110.56 117.5,110.5 Z"/></g>
<g><path style="opacity:1" fill="#c6c7cc" d="M 122.5,28.5 C 121.683,26.0314 121.183,23.3647 121,20.5C 120.586,20.9574 120.086,21.2907 119.5,21.5C 117.922,20.3595 116.256,19.8595 114.5,20C 116.249,21.2915 118.082,22.4582 120,23.5C 120.667,24.5 120.667,25.5 120,26.5C 115.553,25.4574 115.553,26.1241 120,28.5C 120.74,29.7494 120.573,30.7494 119.5,31.5C 117.207,32.3013 117.54,32.968 120.5,33.5C 120.657,34.8734 120.49,36.2068 120,37.5C 119.107,36.2888 118.274,36.2888 117.5,37.5C 119.865,39.5877 120.865,42.2544 120.5,45.5C 120.037,48.4824 119.704,51.4824 119.5,54.5C 116.111,63.189 115.611,72.189 118,81.5C 118.122,83.437 118.955,84.7703 120.5,85.5C 121.467,93.4144 121.801,101.414 121.5,109.5C 119.901,109.232 118.568,109.566 117.5,110.5C 116.957,110.56 116.624,110.893 116.5,111.5C 117.689,112.429 119.022,112.762 120.5,112.5C 120.946,115.01 120.28,117.01 118.5,118.5C 116.654,118.222 115.32,118.889 114.5,120.5C 115.689,121.429 117.022,121.762 118.5,121.5C 118.5,122.833 118.5,124.167 118.5,125.5C 118.192,127.924 118.526,130.257 119.5,132.5C 120.17,130.709 120.837,129.042 121.5,127.5C 120.081,148.417 118.414,148.417 116.5,127.5C 112.5,128.167 112.5,128.833 116.5,129.5C 115.281,133.24 113.781,136.907 112,140.5C 109.586,143.48 106.752,144.147 103.5,142.5C 104.75,142.423 105.583,141.756 106,140.5C 106.902,135.706 107.735,131.039 108.5,126.5C 108.34,128.199 108.506,129.866 109,131.5C 109.173,127.281 110.173,123.281 112,119.5C 112.5,110.173 112.666,100.839 112.5,91.5C 114.594,86.5012 114.927,81.5012 113.5,76.5C 112.638,71.1871 112.471,65.8538 113,60.5C 114.94,58.9546 116.106,56.9546 116.5,54.5C 115.712,41.1777 113.379,28.1777 109.5,15.5C 109.5,15.1667 109.5,14.8333 109.5,14.5C 112.249,14.2739 114.916,14.6072 117.5,15.5C 118.281,14.2634 119.281,13.2634 120.5,12.5C 121.97,17.73 122.637,23.0633 122.5,28.5 Z"/></g>
<g><path style="opacity:1" fill="#83464f" d="M 118.5,118.5 C 118.5,119.5 118.5,120.5 118.5,121.5C 117.022,121.762 115.689,121.429 114.5,120.5C 115.32,118.889 116.654,118.222 118.5,118.5 Z"/></g>
<g><path style="opacity:1" fill="#94959b" d="M 108.5,126.5 C 107.735,131.039 106.902,135.706 106,140.5C 105.583,141.756 104.75,142.423 103.5,142.5C 103.167,142.5 102.833,142.5 102.5,142.5C 106.864,127.551 108.864,112.218 108.5,96.5C 109.673,105.772 109.673,115.772 108.5,126.5 Z"/></g>
<g><path style="opacity:1" fill="#752735" d="M 116.5,127.5 C 116.5,128.167 116.5,128.833 116.5,129.5C 112.5,128.833 112.5,128.167 116.5,127.5 Z"/></g>
<g><path style="opacity:1" fill="#7b7b7b" d="M 121.5,123.5 C 121.5,124.833 121.5,126.167 121.5,127.5C 120.837,129.042 120.17,130.709 119.5,132.5C 118.526,130.257 118.192,127.924 118.5,125.5C 119.778,125.218 120.778,124.551 121.5,123.5 Z"/></g>
<g><path style="opacity:1" fill="#d6d7da" d="M 108.5,96.5 C 108.864,112.218 106.864,127.551 102.5,142.5C 99.1665,142.019 96.8331,140.353 95.5,137.5C 96.3034,129.245 96.8034,120.911 97,112.5C 97.3333,120.5 97.6667,128.5 98,136.5C 98.3333,134.5 98.6667,132.5 99,130.5C 101,129.833 102.333,128.5 103,126.5C 103.167,123.667 103.333,120.833 103.5,118C 103.442,114.724 102.776,111.724 101.5,109C 106.337,106.245 108.67,102.078 108.5,96.5 Z"/></g>
</svg>
