<?xml version="1.0" encoding="UTF-8"?>
<!DOCTYPE svg PUBLIC "-//W3C//DTD SVG 1.1//EN" "http://www.w3.org/Graphics/SVG/1.1/DTD/svg11.dtd">
<svg xmlns="http://www.w3.org/2000/svg" version="1.1" width="166px" height="158px" style="shape-rendering:geometricPrecision; text-rendering:geometricPrecision; image-rendering:optimizeQuality; fill-rule:evenodd; clip-rule:evenodd" xmlns:xlink="http://www.w3.org/1999/xlink">
<g><path style="opacity:1" fill="#f5f5f5" d="M -0.5,-0.5 C 54.8333,-0.5 110.167,-0.5 165.5,-0.5C 165.5,52.1667 165.5,104.833 165.5,157.5C 110.167,157.5 54.8333,157.5 -0.5,157.5C -0.5,104.833 -0.5,52.1667 -0.5,-0.5 Z"/></g>
<g><path style="opacity:1" fill="#858585" d="M 68.5,13.5 C 66.5522,14.1312 64.7189,15.1312 63,16.5C 61.4759,22.2739 59.8092,27.9405 58,33.5C 58.9687,28.9257 59.302,24.259 59,19.5C 58.6411,22.5443 57.9745,22.8776 57,20.5C 56.2917,21.3805 55.4584,22.0472 54.5,22.5C 57.0491,16.2959 61.7158,13.2959 68.5,13.5 Z"/></g>
<g><path style="opacity:1" fill="#989898" d="M 45.5,26.5 C 44.7784,26.0825 44.2784,25.4158 44,24.5C 43.7679,25.7375 43.2679,26.7375 42.5,27.5C 42.3379,25.4727 42.5045,23.4727 43,21.5C 43.414,21.0426 43.914,20.7093 44.5,20.5C 45.4656,22.396 45.7989,24.396 45.5,26.5 Z"/></g>
<g><path style="opacity:1" fill="#424242" d="M 54.5,22.5 C 54.5,23.1667 54.5,23.8333 54.5,24.5C 51.8977,28.7057 49.5643,33.039 47.5,37.5C 47.3379,35.4727 47.5045,33.4727 48,31.5C 49.8871,29.9739 50.8871,27.9739 51,25.5C 52.0391,24.2899 53.2058,23.2899 54.5,22.5 Z"/></g>
<g><path style="opacity:1" fill="#3f3f3f" d="M 45.5,26.5 C 45.3345,30.5138 45.5012,34.5138 46,38.5C 46.3826,37.944 46.8826,37.6107 47.5,37.5C 47.7845,39.4147 47.4511,41.0813 46.5,42.5C 45.2801,39.3085 44.4468,35.9752 44,32.5C 43.79,34.0581 43.29,35.3915 42.5,36.5C 42.5,33.5 42.5,30.5 42.5,27.5C 43.2679,26.7375 43.7679,25.7375 44,24.5C 44.2784,25.4158 44.7784,26.0825 45.5,26.5 Z"/></g>
<g><path style="opacity:1" fill="#e5e6e8" d="M 69.5,15.5 C 70.933,18.2823 72.0997,21.2823 73,24.5C 75.0843,33.4206 76.751,42.4206 78,51.5C 81.1306,56.0615 82.9639,61.0615 83.5,66.5C 86.518,66.7998 88.518,68.4665 89.5,71.5C 85.9195,72.3559 85.7528,73.3559 89,74.5C 91.8138,73.3138 92.6471,74.1471 91.5,77C 92.7101,78.0391 93.7101,79.2058 94.5,80.5C 93.6618,80.8417 93.3284,81.5084 93.5,82.5C 92.8485,81.9094 92.1818,81.2427 91.5,80.5C 90.8933,80.6236 90.56,80.9569 90.5,81.5C 89.1411,80.9935 88.1411,79.9935 87.5,78.5C 86.5344,80.396 86.2011,82.396 86.5,84.5C 85.1779,84.33 84.0113,84.6634 83,85.5C 83.4978,83.4731 83.3311,81.4731 82.5,79.5C 81.2836,80.0016 80.1169,80.3349 79,80.5C 77.1049,78.5652 77.4382,76.8985 80,75.5C 80.3333,76.1667 80.6667,76.8333 81,77.5C 81.0343,75.8204 81.201,74.3204 81.5,73C 79.8659,72.5065 78.1992,72.3398 76.5,72.5C 78.2605,67.457 76.4272,66.1236 71,68.5C 69.1739,67.9896 69.0072,67.1562 70.5,66C 69.9498,63.8424 68.9498,63.3424 67.5,64.5C 65.094,59.828 64.094,54.9946 64.5,50C 65.5,49.6667 66.5,49.3333 67.5,49C 65.559,47.0972 63.2257,46.2639 60.5,46.5C 61.2197,36.8333 63.8863,27.6667 68.5,19C 67.015,17.2435 67.3484,16.0768 69.5,15.5 Z"/></g>
<g><path style="opacity:1" fill="#dedede" d="M 54.5,24.5 C 55.5983,25.6009 55.765,26.9343 55,28.5C 51.5355,36.2268 48.8688,44.2268 47,52.5C 46.5045,50.5273 46.3379,48.5273 46.5,46.5C 46.5,45.1667 46.5,43.8333 46.5,42.5C 47.4511,41.0813 47.7845,39.4147 47.5,37.5C 49.5643,33.039 51.8977,28.7057 54.5,24.5 Z"/></g>
<g><path style="opacity:1" fill="#3f4042" d="M 60.5,46.5 C 63.2257,46.2639 65.559,47.0972 67.5,49C 66.5,49.3333 65.5,49.6667 64.5,50C 64.094,54.9946 65.094,59.828 67.5,64.5C 68.3235,66.4546 68.4901,68.4546 68,70.5C 65.8211,65.4785 63.6544,60.4785 61.5,55.5C 60.4336,53.2986 59.767,50.9653 59.5,48.5C 59.8333,47.8333 60.1667,47.1667 60.5,46.5 Z"/></g>
<g><path style="opacity:1" fill="#808081" d="M 57.5,46.5 C 56.5184,49.9619 56.185,53.6286 56.5,57.5C 55.5269,59.9479 55.1936,62.6146 55.5,65.5C 54.5318,67.6074 54.1984,69.9407 54.5,72.5C 53.5987,71.7095 52.9321,70.7095 52.5,69.5C 53.0967,69.2648 53.4301,68.7648 53.5,68C 52.6463,63.3361 51.6463,58.8361 50.5,54.5C 51.69,49.428 53.19,44.428 55,39.5C 56.9028,41.441 57.7361,43.7743 57.5,46.5 Z"/></g>
<g><path style="opacity:1" fill="#cacaca" d="M 53.5,46.5 C 54.5862,46.62 55.2528,47.2867 55.5,48.5C 55.1401,50.6079 54.4734,52.6079 53.5,54.5C 52.5508,51.8742 52.5508,49.2075 53.5,46.5 Z"/></g>
<g><path style="opacity:1" fill="#414141" d="M 50.5,54.5 C 51.6463,58.8361 52.6463,63.3361 53.5,68C 53.4301,68.7648 53.0967,69.2648 52.5,69.5C 50.8483,64.6591 50.1817,59.6591 50.5,54.5 Z"/></g>
<g><path style="opacity:1" fill="#373739" d="M 56.5,57.5 C 56.5045,61.5341 56.8379,65.5341 57.5,69.5C 56.3713,69.1182 55.7046,67.7849 55.5,65.5C 55.1936,62.6146 55.5269,59.9479 56.5,57.5 Z"/></g>
<g><path style="opacity:1" fill="#dbdcde" d="M 61.5,55.5 C 63.6544,60.4785 65.8211,65.4785 68,70.5C 68.4901,68.4546 68.3235,66.4546 67.5,64.5C 68.9498,63.3424 69.9498,63.8424 70.5,66C 69.0072,67.1562 69.1739,67.9896 71,68.5C 76.4272,66.1236 78.2605,67.457 76.5,72.5C 78.1992,72.3398 79.8659,72.5065 81.5,73C 81.201,74.3204 81.0343,75.8204 81,77.5C 80.6667,76.8333 80.3333,76.1667 80,75.5C 77.4382,76.8985 77.1049,78.5652 79,80.5C 80.1169,80.3349 81.2836,80.0016 82.5,79.5C 83.3311,81.4731 83.4978,83.4731 83,85.5C 84.0113,84.6634 85.1779,84.33 86.5,84.5C 86.2011,82.396 86.5344,80.396 87.5,78.5C 88.1411,79.9935 89.1411,80.9935 90.5,81.5C 88.4076,83.5149 86.5742,85.8482 85,88.5C 84.5599,91.6605 85.3933,94.4938 87.5,97C 85.8588,98.129 84.8588,99.629 84.5,101.5C 79.699,111.564 82.699,117.897 93.5,120.5C 95.4674,122.118 96.8007,124.118 97.5,126.5C 96.448,126.351 95.448,126.517 94.5,127C 96.1545,127.608 97.8211,128.108 99.5,128.5C 99.5,129.5 99.5,130.5 99.5,131.5C 97.8333,131.5 96.1667,131.5 94.5,131.5C 92.1944,131.007 89.861,130.674 87.5,130.5C 84.3045,126.776 82.1379,122.443 81,117.5C 79.3005,116.594 77.4672,116.261 75.5,116.5C 74.8826,116.389 74.3826,116.056 74,115.5C 72.5329,108.677 72.3662,101.844 73.5,95C 72.0085,91.4895 70.3418,88.1562 68.5,85C 69.1667,84.3333 69.8333,83.6667 70.5,83C 69.2366,79.5517 67.2366,76.0517 64.5,72.5C 63.2361,72.3601 62.0695,72.3601 61,72.5C 59.7313,66.8887 58.898,61.2221 58.5,55.5C 59.5,55.5 60.5,55.5 61.5,55.5 Z"/></g>
<g><path style="opacity:1" fill="#c8c9c8" d="M 68.5,13.5 C 69.3382,13.8417 69.6716,14.5084 69.5,15.5C 67.3484,16.0768 67.015,17.2435 68.5,19C 63.8863,27.6667 61.2197,36.8333 60.5,46.5C 60.1667,47.1667 59.8333,47.8333 59.5,48.5C 58.1667,48.5 57.5,47.8333 57.5,46.5C 57.7361,43.7743 56.9028,41.441 55,39.5C 53.19,44.428 51.69,49.428 50.5,54.5C 50.1817,59.6591 50.8483,64.6591 52.5,69.5C 52.9321,70.7095 53.5987,71.7095 54.5,72.5C 56.394,77.5154 58.0607,82.5154 59.5,87.5C 58.8242,93.8494 58.3242,100.183 58,106.5C 59.9072,111.313 62.0739,115.98 64.5,120.5C 65.1302,122.75 66.1302,124.75 67.5,126.5C 67.665,129.85 67.4983,133.183 67,136.5C 66.7216,137.416 66.2216,138.082 65.5,138.5C 63.857,138.52 62.5237,137.853 61.5,136.5C 58.9639,132.761 56.9639,128.761 55.5,124.5C 56.0967,124.265 56.4301,123.765 56.5,123C 55.2558,119.19 54.0891,115.356 53,111.5C 51.8418,93.0623 49.8418,74.729 47,56.5C 47.0007,71.5148 47.6673,86.5148 49,101.5C 49.4074,105.285 50.2407,108.952 51.5,112.5C 50.0688,111.097 48.9022,109.431 48,107.5C 47.5014,111.152 47.3347,114.818 47.5,118.5C 47.1667,118.5 46.8333,118.5 46.5,118.5C 45.6359,101.352 44.9693,84.1857 44.5,67C 44.3032,59.9303 44.9699,53.0969 46.5,46.5C 46.3379,48.5273 46.5045,50.5273 47,52.5C 48.8688,44.2268 51.5355,36.2268 55,28.5C 55.765,26.9343 55.5983,25.6009 54.5,24.5C 54.5,23.8333 54.5,23.1667 54.5,22.5C 55.4584,22.0472 56.2917,21.3805 57,20.5C 57.9745,22.8776 58.6411,22.5443 59,19.5C 59.302,24.259 58.9687,28.9257 58,33.5C 59.8092,27.9405 61.4759,22.2739 63,16.5C 64.7189,15.1312 66.5522,14.1312 68.5,13.5 Z"/></g>
<g><path style="opacity:1" fill="#9c9c9d" d="M 55.5,65.5 C 55.7046,67.7849 56.3713,69.1182 57.5,69.5C 60.5877,75.7565 62.9211,82.4231 64.5,89.5C 63.4415,88.3998 62.6082,87.0664 62,85.5C 61.6667,86.8333 61.3333,88.1667 61,89.5C 60.8413,87.6573 60.3413,86.9907 59.5,87.5C 58.0607,82.5154 56.394,77.5154 54.5,72.5C 54.1984,69.9407 54.5318,67.6074 55.5,65.5 Z"/></g>
<g><path style="opacity:1" fill="#a56060" d="M 94.5,80.5 C 95.8758,82.0816 96.8758,83.9149 97.5,86C 97.2517,87.7491 96.2517,88.5824 94.5,88.5C 93.8505,86.5648 93.5172,84.5648 93.5,82.5C 93.3284,81.5084 93.6618,80.8417 94.5,80.5 Z"/></g>
<g><path style="opacity:1" fill="#292929" d="M 46.5,42.5 C 46.5,43.8333 46.5,45.1667 46.5,46.5C 44.9699,53.0969 44.3032,59.9303 44.5,67C 44.9693,84.1857 45.6359,101.352 46.5,118.5C 46.4285,121.193 46.0951,123.86 45.5,126.5C 45.3601,128.03 44.6935,129.03 43.5,129.5C 43.815,125.629 43.4816,121.962 42.5,118.5C 42.088,90.995 42.088,63.6617 42.5,36.5C 43.29,35.3915 43.79,34.0581 44,32.5C 44.4468,35.9752 45.2801,39.3085 46.5,42.5 Z"/></g>
<g><path style="opacity:1" fill="#bebfc1" d="M 93.5,82.5 C 93.5172,84.5648 93.8505,86.5648 94.5,88.5C 92.7565,93.9279 89.4231,98.2612 84.5,101.5C 84.8588,99.629 85.8588,98.129 87.5,97C 85.3933,94.4938 84.5599,91.6605 85,88.5C 86.5742,85.8482 88.4076,83.5149 90.5,81.5C 90.56,80.9569 90.8933,80.6236 91.5,80.5C 92.1818,81.2427 92.8485,81.9094 93.5,82.5 Z"/></g>
<g><path style="opacity:1" fill="#2b2b2c" d="M 64.5,89.5 C 68.2529,99.8285 69.4196,110.495 68,121.5C 67.0735,118.294 65.9068,117.961 64.5,120.5C 62.0739,115.98 59.9072,111.313 58,106.5C 58.3242,100.183 58.8242,93.8494 59.5,87.5C 60.3413,86.9907 60.8413,87.6573 61,89.5C 61.3333,88.1667 61.6667,86.8333 62,85.5C 62.6082,87.0664 63.4415,88.3998 64.5,89.5 Z"/></g>
<g><path style="opacity:1" fill="#b4b2b5" d="M 57.5,46.5 C 57.5,47.8333 58.1667,48.5 59.5,48.5C 59.767,50.9653 60.4336,53.2986 61.5,55.5C 60.5,55.5 59.5,55.5 58.5,55.5C 58.898,61.2221 59.7313,66.8887 61,72.5C 62.0695,72.3601 63.2361,72.3601 64.5,72.5C 67.2366,76.0517 69.2366,79.5517 70.5,83C 69.8333,83.6667 69.1667,84.3333 68.5,85C 70.3418,88.1562 72.0085,91.4895 73.5,95C 72.3662,101.844 72.5329,108.677 74,115.5C 74.3826,116.056 74.8826,116.389 75.5,116.5C 74.6314,118.717 74.298,121.05 74.5,123.5C 70.9356,112.619 69.2689,112.952 69.5,124.5C 68.8333,125.167 68.1667,125.833 67.5,126.5C 66.1302,124.75 65.1302,122.75 64.5,120.5C 65.9068,117.961 67.0735,118.294 68,121.5C 69.4196,110.495 68.2529,99.8285 64.5,89.5C 62.9211,82.4231 60.5877,75.7565 57.5,69.5C 56.8379,65.5341 56.5045,61.5341 56.5,57.5C 56.185,53.6286 56.5184,49.9619 57.5,46.5 Z"/></g>
<g><path style="opacity:1" fill="#a5a5a5" d="M 55.5,124.5 C 53.969,120.574 52.6357,116.574 51.5,112.5C 50.2407,108.952 49.4074,105.285 49,101.5C 47.6673,86.5148 47.0007,71.5148 47,56.5C 49.8418,74.729 51.8418,93.0623 53,111.5C 54.0891,115.356 55.2558,119.19 56.5,123C 56.4301,123.765 56.0967,124.265 55.5,124.5 Z"/></g>
<g><path style="opacity:1" fill="#cbc8ca" d="M 74.5,123.5 C 75.5587,126.618 76.8921,129.618 78.5,132.5C 76.5,132.5 74.5,132.5 72.5,132.5C 71.1084,129.993 70.1084,127.327 69.5,124.5C 69.2689,112.952 70.9356,112.619 74.5,123.5 Z"/></g>
<g><path style="opacity:1" fill="#444444" d="M 46.5,118.5 C 46.8333,118.5 47.1667,118.5 47.5,118.5C 47.7794,128.896 52.1128,137.062 60.5,143C 56.835,143.387 54.0016,141.887 52,138.5C 49.3239,134.217 47.6572,129.883 47,125.5C 46.5065,127.134 46.3398,128.801 46.5,130.5C 44.6941,133.338 43.6941,133.005 43.5,129.5C 44.6935,129.03 45.3601,128.03 45.5,126.5C 46.0951,123.86 46.4285,121.193 46.5,118.5 Z"/></g>
<g><path style="opacity:1" fill="#c93944" d="M 75.5,116.5 C 77.4672,116.261 79.3005,116.594 81,117.5C 82.1379,122.443 84.3045,126.776 87.5,130.5C 87.5,130.833 87.5,131.167 87.5,131.5C 85.8828,132.038 84.2161,132.371 82.5,132.5C 81.1667,132.5 79.8333,132.5 78.5,132.5C 76.8921,129.618 75.5587,126.618 74.5,123.5C 74.298,121.05 74.6314,118.717 75.5,116.5 Z"/></g>
<g><path style="opacity:1" fill="#89353c" d="M 76.5,117.5 C 79.694,117.176 80.694,118.342 79.5,121C 78.2068,121.49 76.8734,121.657 75.5,121.5C 75.4326,120.041 75.7659,118.708 76.5,117.5 Z"/></g>
<g><path style="opacity:1" fill="#3c3d3f" d="M 97.5,126.5 C 98.1667,126.833 98.8333,127.167 99.5,127.5C 99.5,127.833 99.5,128.167 99.5,128.5C 97.8211,128.108 96.1545,127.608 94.5,127C 95.448,126.517 96.448,126.351 97.5,126.5 Z"/></g>
<g><path style="opacity:1" fill="#959595" d="M 99.5,127.5 C 102.167,129.5 102.167,131.5 99.5,133.5C 97.8333,132.833 96.1667,132.167 94.5,131.5C 96.1667,131.5 97.8333,131.5 99.5,131.5C 99.5,130.5 99.5,129.5 99.5,128.5C 99.5,128.167 99.5,127.833 99.5,127.5 Z"/></g>
<g><path style="opacity:1" fill="#4c4c4c" d="M 69.5,124.5 C 70.1084,127.327 71.1084,129.993 72.5,132.5C 72.5,133.5 72.5,134.5 72.5,135.5C 69.6955,136.741 67.5288,138.741 66,141.5C 65.5172,140.552 65.3505,139.552 65.5,138.5C 66.2216,138.082 66.7216,137.416 67,136.5C 67.4983,133.183 67.665,129.85 67.5,126.5C 68.1667,125.833 68.8333,125.167 69.5,124.5 Z"/></g>
<g><path style="opacity:1" fill="#303131" d="M 87.5,131.5 C 87.5,131.167 87.5,130.833 87.5,130.5C 89.861,130.674 92.1944,131.007 94.5,131.5C 96.1667,132.167 97.8333,132.833 99.5,133.5C 95.3425,133.668 91.3425,133.002 87.5,131.5 Z"/></g>
<g><path style="opacity:1" fill="#9b9294" d="M 72.5,132.5 C 74.5,132.5 76.5,132.5 78.5,132.5C 79.8333,132.5 81.1667,132.5 82.5,132.5C 79.1995,133.284 75.8661,134.284 72.5,135.5C 72.5,134.5 72.5,133.5 72.5,132.5 Z"/></g>
<g><path style="opacity:1" fill="#bcbcbc" d="M 42.5,118.5 C 43.4816,121.962 43.815,125.629 43.5,129.5C 43.6941,133.005 44.6941,133.338 46.5,130.5C 46.6646,133.518 46.498,136.518 46,139.5C 44.6054,140.815 43.6054,140.481 43,138.5C 42.5004,131.842 42.3337,125.175 42.5,118.5 Z"/></g>
</svg>
