<?xml version="1.0" encoding="UTF-8"?>
<!DOCTYPE svg PUBLIC "-//W3C//DTD SVG 1.1//EN" "http://www.w3.org/Graphics/SVG/1.1/DTD/svg11.dtd">
<svg xmlns="http://www.w3.org/2000/svg" version="1.1" width="158px" height="166px" style="shape-rendering:geometricPrecision; text-rendering:geometricPrecision; image-rendering:optimizeQuality; fill-rule:evenodd; clip-rule:evenodd" xmlns:xlink="http://www.w3.org/1999/xlink">
<g><path style="opacity:1" fill="#f5f5f5" d="M -0.5,-0.5 C 52.1667,-0.5 104.833,-0.5 157.5,-0.5C 157.5,54.8333 157.5,110.167 157.5,165.5C 104.833,165.5 52.1667,165.5 -0.5,165.5C -0.5,110.167 -0.5,54.8333 -0.5,-0.5 Z"/></g>
<g><path style="opacity:1" fill="#9f9196" d="M 48.5,43.5 C 46.3609,44.1581 44.3609,45.1581 42.5,46.5C 39.6034,46.212 36.7701,45.5454 34,44.5C 30.1186,45.0079 26.2853,45.6745 22.5,46.5C 21.0484,45.6981 19.3817,45.1981 17.5,45C 18.1667,44.6667 18.8333,44.3333 19.5,44C 29.1609,43.5002 38.8276,43.3335 48.5,43.5 Z"/></g>
<g><path style="opacity:1" fill="#706c6e" d="M 49.5,43.5 C 57.1667,43.5 64.8333,43.5 72.5,43.5C 72.0679,44.7095 71.4013,45.7095 70.5,46.5C 67.5,46.5 64.5,46.5 61.5,46.5C 57.6205,44.9771 53.6205,43.9771 49.5,43.5 Z"/></g>
<g><path style="opacity:1" fill="#6b6466" d="M 105.5,43.5 C 113.833,43.5 122.167,43.5 130.5,43.5C 132.292,44.3091 134.292,44.8091 136.5,45C 132.514,45.4988 128.514,45.6655 124.5,45.5C 122.5,45.5 120.5,45.5 118.5,45.5C 115.701,44.0744 113.034,44.4077 110.5,46.5C 109.833,46.5 109.167,46.5 108.5,46.5C 107.306,45.7281 106.306,44.7281 105.5,43.5 Z"/></g>
<g><path style="opacity:1" fill="#c25e83" d="M 118.5,45.5 C 120.5,45.5 122.5,45.5 124.5,45.5C 124.5,46.1667 124.833,46.5 125.5,46.5C 125.953,47.4584 126.619,48.2917 127.5,49C 130.544,49.3629 133.544,49.8629 136.5,50.5C 134.844,52.0603 132.844,53.0603 130.5,53.5C 127.763,54.2129 125.096,54.2129 122.5,53.5C 120.796,51.1394 119.129,48.8061 117.5,46.5C 118.167,46.5 118.5,46.1667 118.5,45.5 Z"/></g>
<g><path style="opacity:1" fill="#b8b8b8" d="M 130.5,43.5 C 134.703,43.0761 138.703,43.5761 142.5,45C 136.912,46.2889 131.245,46.7889 125.5,46.5C 124.833,46.5 124.5,46.1667 124.5,45.5C 128.514,45.6655 132.514,45.4988 136.5,45C 134.292,44.8091 132.292,44.3091 130.5,43.5 Z"/></g>
<g><path style="opacity:1" fill="#b74d72" d="M 48.5,43.5 C 48.8333,43.5 49.1667,43.5 49.5,43.5C 53.6205,43.9771 57.6205,44.9771 61.5,46.5C 61.5,47.1667 61.8333,47.5 62.5,47.5C 62.7711,49.8211 62.1045,51.8211 60.5,53.5C 60.6236,54.1067 60.9569,54.44 61.5,54.5C 61.6495,55.552 61.4828,56.552 61,57.5C 60.5917,55.5904 59.4251,54.5904 57.5,54.5C 55.2777,55.7783 52.9443,56.7783 50.5,57.5C 48.2534,56.6258 45.9201,56.2924 43.5,56.5C 38.8333,55.8333 34.1667,55.1667 29.5,54.5C 39.2224,54.6215 48.8891,53.9549 58.5,52.5C 53.2818,50.2781 47.9485,49.9448 42.5,51.5C 39.7531,51.8134 37.0865,51.48 34.5,50.5C 36.3153,48.3055 38.482,47.9722 41,49.5C 41.5133,48.4734 42.0133,47.4734 42.5,46.5C 44.3609,45.1581 46.3609,44.1581 48.5,43.5 Z"/></g>
<g><path style="opacity:1" fill="#ab3f64" d="M 72.5,43.5 C 76.5,43.5 80.5,43.5 84.5,43.5C 84.9321,44.7095 85.5987,45.7095 86.5,46.5C 87.1667,49.1667 87.8333,49.1667 88.5,46.5C 89.1667,45.5 89.8333,44.5 90.5,43.5C 95.5,43.5 100.5,43.5 105.5,43.5C 106.306,44.7281 107.306,45.7281 108.5,46.5C 109.167,49.1667 109.833,49.1667 110.5,46.5C 113.034,44.4077 115.701,44.0744 118.5,45.5C 118.5,46.1667 118.167,46.5 117.5,46.5C 116.684,48.1436 115.35,49.3103 113.5,50C 117.5,50.6667 117.5,51.3333 113.5,52C 106.724,52.1902 100.057,52.0235 93.5,51.5C 94.404,50.791 94.7373,49.791 94.5,48.5C 92.5168,48.1568 91.1834,48.8235 90.5,50.5C 88.7971,52.1408 86.6305,53.1408 84,53.5C 83.5357,52.9056 83.369,52.2389 83.5,51.5C 85.9057,50.4768 85.9057,49.8101 83.5,49.5C 82.2867,49.7472 81.62,50.4138 81.5,51.5C 79.7096,53.9311 77.2096,55.2644 74,55.5C 72.9701,55.1639 72.4701,54.4972 72.5,53.5C 73.7736,52.8106 73.7736,51.9772 72.5,51C 74.9359,51.0534 77.2692,50.8867 79.5,50.5C 76.8332,49.3655 74.1666,48.3655 71.5,47.5C 71.3781,51.8383 71.0447,52.1716 70.5,48.5C 70.5,47.8333 70.5,47.1667 70.5,46.5C 71.4013,45.7095 72.0679,44.7095 72.5,43.5 Z"/></g>
<g><path style="opacity:1" fill="#e1c4ce" d="M 86.5,46.5 C 87.1667,46.5 87.8333,46.5 88.5,46.5C 87.8333,49.1667 87.1667,49.1667 86.5,46.5 Z"/></g>
<g><path style="opacity:1" fill="#ded0d3" d="M 108.5,46.5 C 109.167,46.5 109.833,46.5 110.5,46.5C 109.833,49.1667 109.167,49.1667 108.5,46.5 Z"/></g>
<g><path style="opacity:1" fill="#585456" d="M 84.5,43.5 C 86.5,43.5 88.5,43.5 90.5,43.5C 89.8333,44.5 89.1667,45.5 88.5,46.5C 87.8333,46.5 87.1667,46.5 86.5,46.5C 85.5987,45.7095 84.9321,44.7095 84.5,43.5 Z"/></g>
<g><path style="opacity:1" fill="#eae3e5" d="M 61.5,46.5 C 64.5,46.5 67.5,46.5 70.5,46.5C 70.5,47.1667 70.5,47.8333 70.5,48.5C 69.5489,49.9187 69.2155,51.5853 69.5,53.5C 68.791,54.404 67.791,54.7373 66.5,54.5C 66.7841,51.1427 65.4507,48.8094 62.5,47.5C 61.8333,47.5 61.5,47.1667 61.5,46.5 Z"/></g>
<g><path style="opacity:1" fill="#cd8ba0" d="M 93.5,51.5 C 92.391,51.4431 91.391,51.1098 90.5,50.5C 91.1834,48.8235 92.5168,48.1568 94.5,48.5C 94.7373,49.791 94.404,50.791 93.5,51.5 Z"/></g>
<g><path style="opacity:1" fill="#cf8ea4" d="M 62.5,47.5 C 65.4507,48.8094 66.7841,51.1427 66.5,54.5C 64.8333,54.5 63.1667,54.5 61.5,54.5C 60.9569,54.44 60.6236,54.1067 60.5,53.5C 62.1045,51.8211 62.7711,49.8211 62.5,47.5 Z"/></g>
<g><path style="opacity:1" fill="#c77c96" d="M 72.5,53.5 C 71.5,52.1667 70.5,52.1667 69.5,53.5C 69.2155,51.5853 69.5489,49.9187 70.5,48.5C 71.0447,52.1716 71.3781,51.8383 71.5,47.5C 74.1666,48.3655 76.8332,49.3655 79.5,50.5C 77.2692,50.8867 74.9359,51.0534 72.5,51C 73.7736,51.9772 73.7736,52.8106 72.5,53.5 Z"/></g>
<g><path style="opacity:1" fill="#cf6d94" d="M 42.5,46.5 C 42.0133,47.4734 41.5133,48.4734 41,49.5C 38.482,47.9722 36.3153,48.3055 34.5,50.5C 37.0865,51.48 39.7531,51.8134 42.5,51.5C 36.9871,52.8157 31.3204,52.8157 25.5,51.5C 26.5,50.6667 27.5,49.8333 28.5,49C 26.3885,48.1553 24.3885,47.322 22.5,46.5C 26.2853,45.6745 30.1186,45.0079 34,44.5C 36.7701,45.5454 39.6034,46.212 42.5,46.5 Z"/></g>
<g><path style="opacity:1" fill="#daaab6" d="M 83.5,51.5 C 82.8333,51.5 82.1667,51.5 81.5,51.5C 81.62,50.4138 82.2867,49.7472 83.5,49.5C 85.9057,49.8101 85.9057,50.4768 83.5,51.5 Z"/></g>
<g><path style="opacity:1" fill="#dd99b4" d="M 22.5,46.5 C 24.3885,47.322 26.3885,48.1553 28.5,49C 27.5,49.8333 26.5,50.6667 25.5,51.5C 31.3204,52.8157 36.9871,52.8157 42.5,51.5C 47.9485,49.9448 53.2818,50.2781 58.5,52.5C 48.8891,53.9549 39.2224,54.6215 29.5,54.5C 27.7085,54.366 26.0418,54.6993 24.5,55.5C 23.6261,54.4749 22.4595,53.8082 21,53.5C 18.9011,54.2865 16.7345,54.6199 14.5,54.5C 14.2996,49.2237 16.9662,46.5571 22.5,46.5 Z"/></g>
<g><path style="opacity:1" fill="#c14a73" d="M 117.5,46.5 C 119.129,48.8061 120.796,51.1394 122.5,53.5C 125.096,54.2129 127.763,54.2129 130.5,53.5C 131.167,53.8333 131.833,54.1667 132.5,54.5C 132.5,54.8333 132.5,55.1667 132.5,55.5C 125.411,55.7496 118.411,55.0829 111.5,53.5C 97.3705,53.7599 83.3705,55.0932 69.5,57.5C 68.9522,56.2247 67.6188,55.558 65.5,55.5C 64.5,55.6667 63.5,55.8333 62.5,56C 63.731,57.1827 63.731,58.3493 62.5,59.5C 61.5832,58.8728 60.5832,58.5394 59.5,58.5C 49.1667,58.5 38.8333,58.5 28.5,58.5C 27.325,58.719 26.325,58.3857 25.5,57.5C 31.4632,56.5041 37.4632,56.1707 43.5,56.5C 45.9201,56.2924 48.2534,56.6258 50.5,57.5C 52.9443,56.7783 55.2777,55.7783 57.5,54.5C 59.4251,54.5904 60.5917,55.5904 61,57.5C 61.4828,56.552 61.6495,55.552 61.5,54.5C 63.1667,54.5 64.8333,54.5 66.5,54.5C 67.791,54.7373 68.791,54.404 69.5,53.5C 70.5,52.1667 71.5,52.1667 72.5,53.5C 72.4701,54.4972 72.9701,55.1639 74,55.5C 77.2096,55.2644 79.7096,53.9311 81.5,51.5C 82.1667,51.5 82.8333,51.5 83.5,51.5C 83.369,52.2389 83.5357,52.9056 84,53.5C 86.6305,53.1408 88.7971,52.1408 90.5,50.5C 91.391,51.1098 92.391,51.4431 93.5,51.5C 100.057,52.0235 106.724,52.1902 113.5,52C 117.5,51.3333 117.5,50.6667 113.5,50C 115.35,49.3103 116.684,48.1436 117.5,46.5 Z"/></g>
<g><path style="opacity:1" fill="#d58eaa" d="M 136.5,50.5 C 141.342,52.5122 143.342,56.1788 142.5,61.5C 139.563,58.6897 136.229,56.3563 132.5,54.5C 131.833,54.1667 131.167,53.8333 130.5,53.5C 132.844,53.0603 134.844,52.0603 136.5,50.5 Z"/></g>
<g><path style="opacity:1" fill="#e4becf" d="M 24.5,55.5 C 23.3202,57.913 21.3202,58.913 18.5,58.5C 17.0221,59.4475 16.0221,60.7809 15.5,62.5C 15.1667,59.8333 14.8333,57.1667 14.5,54.5C 16.7345,54.6199 18.9011,54.2865 21,53.5C 22.4595,53.8082 23.6261,54.4749 24.5,55.5 Z"/></g>
<g><path style="opacity:1" fill="#d45a94" d="M 132.5,55.5 C 133.64,56.8014 134.973,57.9681 136.5,59C 133.635,59.1829 130.969,59.6829 128.5,60.5C 127.209,60.7373 126.209,60.404 125.5,59.5C 124.737,58.7321 123.737,58.2321 122.5,58C 110.196,56.5813 97.8623,56.248 85.5,57C 83.9443,57.7202 82.9443,58.8868 82.5,60.5C 79.9922,62.9236 76.9922,64.5903 73.5,65.5C 70.8127,65.6641 68.146,65.4974 65.5,65C 69.2875,64.8404 72.9542,64.1737 76.5,63C 76.9662,61.7012 76.9662,60.2012 76.5,58.5C 73.9407,58.8016 71.6074,58.4682 69.5,57.5C 83.3705,55.0932 97.3705,53.7599 111.5,53.5C 118.411,55.0829 125.411,55.7496 132.5,55.5 Z"/></g>
<g><path style="opacity:1" fill="#e57fb5" d="M 125.5,59.5 C 120.195,58.8058 114.862,58.4724 109.5,58.5C 102.978,58.1765 96.6446,58.5098 90.5,59.5C 87.7938,59.5751 85.1272,59.9084 82.5,60.5C 82.9443,58.8868 83.9443,57.7202 85.5,57C 97.8623,56.248 110.196,56.5813 122.5,58C 123.737,58.2321 124.737,58.7321 125.5,59.5 Z"/></g>
<g><path style="opacity:1" fill="#d2508e" d="M 28.5,58.5 C 38.8333,58.5 49.1667,58.5 59.5,58.5C 57.7646,63.062 54.4312,65.562 49.5,66C 51.1992,66.9581 53.0326,67.4581 55,67.5C 57.8166,66.9695 60.65,66.6361 63.5,66.5C 62.3406,68.2503 60.674,69.2503 58.5,69.5C 55.1667,69.5 51.8333,69.5 48.5,69.5C 48.5,69.1667 48.5,68.8333 48.5,68.5C 48.1913,65.6545 46.5246,64.1545 43.5,64C 46.1667,63.3333 46.1667,62.6667 43.5,62C 40.2061,61.6541 37.0394,60.8208 34,59.5C 31.863,60.0767 29.6963,60.41 27.5,60.5C 27.8333,59.8333 28.1667,59.1667 28.5,58.5 Z"/></g>
<g><path style="opacity:1" fill="#d33d78" d="M 69.5,57.5 C 71.6074,58.4682 73.9407,58.8016 76.5,58.5C 76.9662,60.2012 76.9662,61.7012 76.5,63C 72.9542,64.1737 69.2875,64.8404 65.5,65C 68.146,65.4974 70.8127,65.6641 73.5,65.5C 70.3752,66.4794 67.0419,66.8128 63.5,66.5C 60.65,66.6361 57.8166,66.9695 55,67.5C 53.0326,67.4581 51.1992,66.9581 49.5,66C 54.4312,65.562 57.7646,63.062 59.5,58.5C 60.5832,58.5394 61.5832,58.8728 62.5,59.5C 63.731,58.3493 63.731,57.1827 62.5,56C 63.5,55.8333 64.5,55.6667 65.5,55.5C 67.6188,55.558 68.9522,56.2247 69.5,57.5 Z"/></g>
<g><path style="opacity:1" fill="#dd7aaa" d="M 29.5,54.5 C 34.1667,55.1667 38.8333,55.8333 43.5,56.5C 37.4632,56.1707 31.4632,56.5041 25.5,57.5C 26.325,58.3857 27.325,58.719 28.5,58.5C 28.1667,59.1667 27.8333,59.8333 27.5,60.5C 25.396,60.2011 23.396,60.5344 21.5,61.5C 21.8333,62.1667 22.1667,62.8333 22.5,63.5C 26.9822,64.1669 31.3155,64.8336 35.5,65.5C 29.7881,65.5439 24.1215,65.7106 18.5,66C 19.7363,63.3753 19.7363,60.8753 18.5,58.5C 21.3202,58.913 23.3202,57.913 24.5,55.5C 26.0418,54.6993 27.7085,54.366 29.5,54.5 Z"/></g>
<g><path style="opacity:1" fill="#e8629f" d="M 126.5,63.5 C 126.047,64.4584 125.381,65.2917 124.5,66C 121.666,66.0454 119.166,66.8787 117,68.5C 117.148,67.175 116.982,66.0084 116.5,65C 118.398,61.6378 117.732,61.6378 114.5,65C 111.294,65.2963 108.128,65.7963 105,66.5C 103.405,67.3557 102.572,68.6891 102.5,70.5C 100.824,69.8166 100.157,68.4832 100.5,66.5C 96.846,66.5001 93.5126,67.5001 90.5,69.5C 92.5777,66.9493 95.2444,65.116 98.5,64C 97.3044,63.3457 97.3044,62.8457 98.5,62.5C 99.5407,64.9913 100.374,64.9913 101,62.5C 102.333,63.1667 103.333,64.1667 104,65.5C 104.852,64.4293 105.685,63.4293 106.5,62.5C 107.117,62.6107 107.617,62.944 108,63.5C 112.351,61.9293 116.851,60.9293 121.5,60.5C 121.67,61.8221 121.337,62.9887 120.5,64C 122.425,63.8651 124.425,63.6984 126.5,63.5 Z"/></g>
<g><path style="opacity:1" fill="#de4a83" d="M 109.5,58.5 C 114.862,58.4724 120.195,58.8058 125.5,59.5C 126.209,60.404 127.209,60.7373 128.5,60.5C 132.446,60.4819 136.112,61.4819 139.5,63.5C 137.584,65.8098 135.251,66.1431 132.5,64.5C 130.825,64.8684 129.825,65.8684 129.5,67.5C 128.577,68.3029 127.577,68.4696 126.5,68C 128.822,66.3078 129.322,64.4744 128,62.5C 127.617,63.056 127.117,63.3893 126.5,63.5C 124.425,63.6984 122.425,63.8651 120.5,64C 121.337,62.9887 121.67,61.8221 121.5,60.5C 116.851,60.9293 112.351,61.9293 108,63.5C 107.617,62.944 107.117,62.6107 106.5,62.5C 107.5,61.1667 108.5,59.8333 109.5,58.5 Z"/></g>
<g><path style="opacity:1" fill="#dc68a6" d="M 48.5,68.5 C 44.3661,66.7169 40.0328,65.7169 35.5,65.5C 31.3155,64.8336 26.9822,64.1669 22.5,63.5C 22.1667,62.8333 21.8333,62.1667 21.5,61.5C 23.396,60.5344 25.396,60.2011 27.5,60.5C 29.6963,60.41 31.863,60.0767 34,59.5C 37.0394,60.8208 40.2061,61.6541 43.5,62C 46.1667,62.6667 46.1667,63.3333 43.5,64C 46.5246,64.1545 48.1913,65.6545 48.5,68.5 Z"/></g>
<g><path style="opacity:1" fill="#dd2e71" d="M 90.5,59.5 C 96.6446,58.5098 102.978,58.1765 109.5,58.5C 108.5,59.8333 107.5,61.1667 106.5,62.5C 105.685,63.4293 104.852,64.4293 104,65.5C 103.333,64.1667 102.333,63.1667 101,62.5C 100.374,64.9913 99.5407,64.9913 98.5,62.5C 97.3044,62.8457 97.3044,63.3457 98.5,64C 95.2444,65.116 92.5777,66.9493 90.5,69.5C 90.5,69.8333 90.5,70.1667 90.5,70.5C 89.7321,69.7375 89.2321,68.7375 89,67.5C 87.5405,70.7478 86.3738,74.0812 85.5,77.5C 85.1667,77.5 84.8333,77.5 84.5,77.5C 79.6083,78.1243 78.4416,76.4576 81,72.5C 82.3968,70.9297 83.8968,69.5964 85.5,68.5C 85.7373,67.209 85.404,66.209 84.5,65.5C 83.0222,65.762 81.6888,65.4287 80.5,64.5C 84.4044,62.5177 87.7377,60.8511 90.5,59.5 Z"/></g>
<g><path style="opacity:1" fill="#f39acb" d="M 126.5,63.5 C 127.117,63.3893 127.617,63.056 128,62.5C 129.322,64.4744 128.822,66.3078 126.5,68C 127.577,68.4696 128.577,68.3029 129.5,67.5C 132.01,67.9267 134.343,68.5933 136.5,69.5C 134.876,69.3601 133.71,70.0267 133,71.5C 130.385,68.9299 127.718,68.9299 125,71.5C 124.612,70.572 123.945,69.9054 123,69.5C 120.213,70.5174 117.38,70.6841 114.5,70C 113.851,67.5192 112.851,67.1859 111.5,69C 108.413,69.2589 105.413,69.7589 102.5,70.5C 102.572,68.6891 103.405,67.3557 105,66.5C 108.128,65.7963 111.294,65.2963 114.5,65C 117.732,61.6378 118.398,61.6378 116.5,65C 116.982,66.0084 117.148,67.175 117,68.5C 119.166,66.8787 121.666,66.0454 124.5,66C 125.381,65.2917 126.047,64.4584 126.5,63.5 Z"/></g>
<g><path style="opacity:1" fill="#e571a3" d="M 132.5,54.5 C 136.229,56.3563 139.563,58.6897 142.5,61.5C 142.81,64.7131 142.477,67.7131 141.5,70.5C 139.708,70.634 138.042,70.3007 136.5,69.5C 134.343,68.5933 132.01,67.9267 129.5,67.5C 129.825,65.8684 130.825,64.8684 132.5,64.5C 135.251,66.1431 137.584,65.8098 139.5,63.5C 136.112,61.4819 132.446,60.4819 128.5,60.5C 130.969,59.6829 133.635,59.1829 136.5,59C 134.973,57.9681 133.64,56.8014 132.5,55.5C 132.5,55.1667 132.5,54.8333 132.5,54.5 Z"/></g>
<g><path style="opacity:1" fill="#eca1c9" d="M 18.5,58.5 C 19.7363,60.8753 19.7363,63.3753 18.5,66C 24.1215,65.7106 29.7881,65.5439 35.5,65.5C 40.0328,65.7169 44.3661,66.7169 48.5,68.5C 48.5,68.8333 48.5,69.1667 48.5,69.5C 39.5755,66.0755 30.5755,65.7422 21.5,68.5C 20.1283,69.5116 18.795,70.5116 17.5,71.5C 16.8826,71.3893 16.3826,71.056 16,70.5C 15.5026,67.854 15.3359,65.1873 15.5,62.5C 16.0221,60.7809 17.0221,59.4475 18.5,58.5 Z"/></g>
<g><path style="opacity:1" fill="#d93577" d="M 84.5,65.5 C 85.404,66.209 85.7373,67.209 85.5,68.5C 80.9444,69.8851 77.7777,72.8851 76,77.5C 75.6667,77.1667 75.3333,76.8333 75,76.5C 74.4644,78.5672 74.9644,80.4006 76.5,82C 73.2538,81.6835 69.9205,81.5168 66.5,81.5C 65.4341,80.3079 64.6008,80.6412 64,82.5C 62.6723,80.331 61.0057,79.9977 59,81.5C 57.5659,81.0696 56.3992,80.2362 55.5,79C 52.4525,78.4202 52.1192,78.7535 54.5,80C 53.8333,80.3333 53.1667,80.6667 52.5,81C 56.2509,80.9174 58.2509,82.7508 58.5,86.5C 60.0754,87.4565 61.742,88.1231 63.5,88.5C 63.5,89.1667 63.8333,89.5 64.5,89.5C 58.3144,88.0918 52.3144,85.4252 46.5,81.5C 46.1667,82 45.8333,82.5 45.5,83C 46.2718,84.221 47.2718,85.221 48.5,86C 45.6353,86.1829 42.9686,86.6829 40.5,87.5C 38.1667,88.1667 35.8333,88.8333 33.5,89.5C 32.7611,89.631 32.0944,89.4643 31.5,89C 33.6233,86.2015 36.2899,84.2015 39.5,83C 34.6052,83.8641 29.6052,84.6974 24.5,85.5C 24.5172,83.4352 24.8505,81.4352 25.5,79.5C 26.4953,76.3281 28.4953,74.4947 31.5,74C 30.8333,74.6667 30.1667,75.3333 29.5,76C 33.9883,75.6517 37.6549,77.1517 40.5,80.5C 41.8517,78.3636 43.5183,78.0302 45.5,79.5C 46.731,78.3493 46.731,77.1827 45.5,76C 47.0444,74.8129 48.7111,74.4795 50.5,75C 50.1667,75.3333 49.8333,75.6667 49.5,76C 53.0473,75.9138 56.0473,77.0805 58.5,79.5C 59.1973,77.6155 60.1973,77.2822 61.5,78.5C 62.3184,76.8917 62.9851,75.2251 63.5,73.5C 68.1723,72.8358 72.339,72.8358 76,73.5C 78.7028,70.6286 81.5361,67.9619 84.5,65.5 Z"/></g>
<g><path style="opacity:1" fill="#f9b5dc" d="M 136.5,69.5 C 138.042,70.3007 139.708,70.634 141.5,70.5C 140.942,71.7899 139.942,72.6232 138.5,73C 128.733,76.7572 118.733,79.5905 108.5,81.5C 109.281,79.3369 108.447,79.0036 106,80.5C 105.508,79.451 105.674,78.451 106.5,77.5C 105.111,75.1324 103.778,72.7991 102.5,70.5C 105.413,69.7589 108.413,69.2589 111.5,69C 112.851,67.1859 113.851,67.5192 114.5,70C 117.38,70.6841 120.213,70.5174 123,69.5C 123.945,69.9054 124.612,70.572 125,71.5C 127.718,68.9299 130.385,68.9299 133,71.5C 133.71,70.0267 134.876,69.3601 136.5,69.5 Z"/></g>
<g><path style="opacity:1" fill="#f086ba" d="M 102.5,70.5 C 103.778,72.7991 105.111,75.1324 106.5,77.5C 105.674,78.451 105.508,79.451 106,80.5C 108.447,79.0036 109.281,79.3369 108.5,81.5C 107.292,82.2341 105.959,82.5674 104.5,82.5C 103.321,78.8256 101.155,75.8256 98,73.5C 95.6194,74.435 93.1194,74.7683 90.5,74.5C 90.5,73.1667 90.5,71.8333 90.5,70.5C 90.5,70.1667 90.5,69.8333 90.5,69.5C 93.5126,67.5001 96.846,66.5001 100.5,66.5C 100.157,68.4832 100.824,69.8166 102.5,70.5 Z"/></g>
<g><path style="opacity:1" fill="#d51c60" d="M 90.5,59.5 C 87.7377,60.8511 84.4044,62.5177 80.5,64.5C 81.6888,65.4287 83.0222,65.762 84.5,65.5C 81.5361,67.9619 78.7028,70.6286 76,73.5C 72.339,72.8358 68.1723,72.8358 63.5,73.5C 62.9851,75.2251 62.3184,76.8917 61.5,78.5C 60.1973,77.2822 59.1973,77.6155 58.5,79.5C 56.0473,77.0805 53.0473,75.9138 49.5,76C 49.8333,75.6667 50.1667,75.3333 50.5,75C 48.7111,74.4795 47.0444,74.8129 45.5,76C 46.731,77.1827 46.731,78.3493 45.5,79.5C 43.5183,78.0302 41.8517,78.3636 40.5,80.5C 37.6549,77.1517 33.9883,75.6517 29.5,76C 30.1667,75.3333 30.8333,74.6667 31.5,74C 28.4953,74.4947 26.4953,76.3281 25.5,79.5C 24.8826,79.6107 24.3826,79.944 24,80.5C 23.6683,76.3053 22.835,72.3053 21.5,68.5C 30.5755,65.7422 39.5755,66.0755 48.5,69.5C 51.7988,72.0456 55.1322,72.0456 58.5,69.5C 60.674,69.2503 62.3406,68.2503 63.5,66.5C 67.0419,66.8128 70.3752,66.4794 73.5,65.5C 76.9922,64.5903 79.9922,62.9236 82.5,60.5C 85.1272,59.9084 87.7938,59.5751 90.5,59.5 Z"/></g>
<g><path style="opacity:1" fill="#e782b1" d="M 48.5,69.5 C 51.8333,69.5 55.1667,69.5 58.5,69.5C 55.1322,72.0456 51.7988,72.0456 48.5,69.5 Z"/></g>
<g><path style="opacity:1" fill="#ed6da6" d="M 90.5,70.5 C 90.5,71.8333 90.5,73.1667 90.5,74.5C 93.1915,77.1951 95.5248,80.1951 97.5,83.5C 98.891,82.3554 100.224,82.3554 101.5,83.5C 101.192,84.3081 100.692,84.9747 100,85.5C 97.2561,85.7863 94.4228,85.453 91.5,84.5C 91.4208,83.0695 91.7542,81.7362 92.5,80.5C 91.3493,79.269 90.1827,79.269 89,80.5C 88.5776,78.5743 87.4109,77.5743 85.5,77.5C 86.3738,74.0812 87.5405,70.7478 89,67.5C 89.2321,68.7375 89.7321,69.7375 90.5,70.5 Z"/></g>
<g><path style="opacity:1" fill="#e85b8d" d="M 21.5,68.5 C 22.835,72.3053 23.6683,76.3053 24,80.5C 24.3826,79.944 24.8826,79.6107 25.5,79.5C 24.8505,81.4352 24.5172,83.4352 24.5,85.5C 24.3249,88.3289 25.6582,89.9955 28.5,90.5C 27.2402,91.3816 26.0736,92.3816 25,93.5C 24.0835,90.443 22.5835,87.7764 20.5,85.5C 19.0659,80.9275 18.0659,76.2609 17.5,71.5C 18.795,70.5116 20.1283,69.5116 21.5,68.5 Z"/></g>
<g><path style="opacity:1" fill="#ed6ea9" d="M 85.5,68.5 C 83.8968,69.5964 82.3968,70.9297 81,72.5C 78.4416,76.4576 79.6083,78.1243 84.5,77.5C 83.0484,78.3019 81.3817,78.8019 79.5,79C 81.96,80.4578 84.1266,82.2911 86,84.5C 86.5946,85.8989 86.4279,87.2322 85.5,88.5C 83.7305,89.6265 82.3972,89.1265 81.5,87C 83.3963,85.9354 83.563,85.1021 82,84.5C 79.9423,85.1117 78.109,86.1117 76.5,87.5C 76.8627,88.1835 77.1961,88.8501 77.5,89.5C 76.2921,90.2341 74.9587,90.5674 73.5,90.5C 71.7126,88.8586 69.5459,87.8586 67,87.5C 65.6244,87.6842 64.7911,88.3509 64.5,89.5C 63.8333,89.5 63.5,89.1667 63.5,88.5C 64.2187,86.1119 65.8854,84.6119 68.5,84C 67.3279,83.5814 66.3279,82.9147 65.5,82C 65.7284,81.6012 66.0618,81.4346 66.5,81.5C 69.9205,81.5168 73.2538,81.6835 76.5,82C 74.9644,80.4006 74.4644,78.5672 75,76.5C 75.3333,76.8333 75.6667,77.1667 76,77.5C 77.7777,72.8851 80.9444,69.8851 85.5,68.5 Z"/></g>
<g><path style="opacity:1" fill="#e95d9a" d="M 66.5,81.5 C 66.0618,81.4346 65.7284,81.6012 65.5,82C 66.3279,82.9147 67.3279,83.5814 68.5,84C 65.8854,84.6119 64.2187,86.1119 63.5,88.5C 61.742,88.1231 60.0754,87.4565 58.5,86.5C 58.2509,82.7508 56.2509,80.9174 52.5,81C 53.1667,80.6667 53.8333,80.3333 54.5,80C 52.1192,78.7535 52.4525,78.4202 55.5,79C 56.3992,80.2362 57.5659,81.0696 59,81.5C 61.0057,79.9977 62.6723,80.331 64,82.5C 64.6008,80.6412 65.4341,80.3079 66.5,81.5 Z"/></g>
<g><path style="opacity:1" fill="#f6a3cd" d="M 104.5,82.5 C 102.361,85.7993 99.1939,87.466 95,87.5C 90.8495,90.2626 86.6828,92.9292 82.5,95.5C 84.2554,90.9239 83.2554,89.9239 79.5,92.5C 78.8182,91.7573 78.1515,91.0906 77.5,90.5C 77.5,90.1667 77.5,89.8333 77.5,89.5C 77.1961,88.8501 76.8627,88.1835 76.5,87.5C 78.109,86.1117 79.9423,85.1117 82,84.5C 83.563,85.1021 83.3963,85.9354 81.5,87C 82.3972,89.1265 83.7305,89.6265 85.5,88.5C 86.4279,87.2322 86.5946,85.8989 86,84.5C 84.1266,82.2911 81.96,80.4578 79.5,79C 81.3817,78.8019 83.0484,78.3019 84.5,77.5C 84.8333,77.5 85.1667,77.5 85.5,77.5C 87.4109,77.5743 88.5776,78.5743 89,80.5C 90.1827,79.269 91.3493,79.269 92.5,80.5C 91.7542,81.7362 91.4208,83.0695 91.5,84.5C 94.4228,85.453 97.2561,85.7863 100,85.5C 100.692,84.9747 101.192,84.3081 101.5,83.5C 100.224,82.3554 98.891,82.3554 97.5,83.5C 95.5248,80.1951 93.1915,77.1951 90.5,74.5C 93.1194,74.7683 95.6194,74.435 98,73.5C 101.155,75.8256 103.321,78.8256 104.5,82.5 Z"/></g>
<g><path style="opacity:1" fill="#e64b87" d="M 89.5,86.5 C 90.2389,86.369 90.9056,86.5357 91.5,87C 90.1667,87.6667 90.1667,88.3333 91.5,89C 89.8333,89.6667 88.1667,89.6667 86.5,89C 87.9423,88.6232 88.9423,87.7899 89.5,86.5 Z"/></g>
<g><path style="opacity:1" fill="#e94f91" d="M 52.5,92.5 C 51.791,93.404 50.791,93.7373 49.5,93.5C 46.5825,92.5462 43.5825,91.8795 40.5,91.5C 37.6923,91.0777 35.6923,92.0777 34.5,94.5C 33.0418,96.9323 31.8751,99.5989 31,102.5C 29.2613,98.9244 29.7613,95.591 32.5,92.5C 33.3382,92.1583 33.6716,91.4916 33.5,90.5C 40.0172,89.1057 46.3505,89.7724 52.5,92.5 Z"/></g>
<g><path style="opacity:1" fill="#f79ccd" d="M 40.5,87.5 C 42.1667,87.5 43.8333,87.5 45.5,87.5C 50.8009,90.4763 56.4676,92.9763 62.5,95C 63.6956,95.6543 63.6956,96.1543 62.5,96.5C 59.0581,95.3546 55.7248,94.0213 52.5,92.5C 46.3505,89.7724 40.0172,89.1057 33.5,90.5C 33.5,90.1667 33.5,89.8333 33.5,89.5C 35.8333,88.8333 38.1667,88.1667 40.5,87.5 Z"/></g>
<g><path style="opacity:1" fill="#ef67a4" d="M 64.5,89.5 C 65.9063,89.9731 66.573,90.9731 66.5,92.5C 65.209,92.2627 64.209,92.596 63.5,93.5C 58.1031,89.8072 52.1031,87.8072 45.5,87.5C 43.8333,87.5 42.1667,87.5 40.5,87.5C 42.9686,86.6829 45.6353,86.1829 48.5,86C 47.2718,85.221 46.2718,84.221 45.5,83C 45.8333,82.5 46.1667,82 46.5,81.5C 52.3144,85.4252 58.3144,88.0918 64.5,89.5 Z"/></g>
<g><path style="opacity:1" fill="#f38fbf" d="M 73.5,90.5 C 74.0516,92.7029 75.3849,93.5362 77.5,93C 76.4019,92.2303 76.4019,91.397 77.5,90.5C 78.1515,91.0906 78.8182,91.7573 79.5,92.5C 83.2554,89.9239 84.2554,90.9239 82.5,95.5C 78.9849,96.42 75.9849,98.0866 73.5,100.5C 71.1944,100.007 68.861,99.6741 66.5,99.5C 67.6016,97.9081 66.935,97.0748 64.5,97C 65.7932,96.51 67.1266,96.3433 68.5,96.5C 68.5,97.1667 68.8333,97.5 69.5,97.5C 70.8948,99.3003 72.5615,99.6336 74.5,98.5C 73.9747,97.8076 73.3081,97.3076 72.5,97C 74.2705,96.4646 74.6039,95.6313 73.5,94.5C 72.2638,95.2458 70.9305,95.5792 69.5,95.5C 68.8333,94.1667 67.8333,93.1667 66.5,92.5C 66.573,90.9731 65.9063,89.9731 64.5,89.5C 64.7911,88.3509 65.6244,87.6842 67,87.5C 69.5459,87.8586 71.7126,88.8586 73.5,90.5 Z"/></g>
<g><path style="opacity:1" fill="#ed7bac" d="M 33.5,89.5 C 33.5,89.8333 33.5,90.1667 33.5,90.5C 33.6716,91.4916 33.3382,92.1583 32.5,92.5C 32.5654,92.0618 32.3988,91.7284 32,91.5C 30.7365,93.607 28.9032,94.607 26.5,94.5C 26.2872,97.4509 26.9539,100.118 28.5,102.5C 29.038,104.117 29.3713,105.784 29.5,107.5C 28.3263,106.486 27.6596,105.153 27.5,103.5C 27.0679,102.29 26.4013,101.29 25.5,100.5C 22.8401,95.8537 21.1735,90.8537 20.5,85.5C 22.5835,87.7764 24.0835,90.443 25,93.5C 26.0736,92.3816 27.2402,91.3816 28.5,90.5C 25.6582,89.9955 24.3249,88.3289 24.5,85.5C 29.6052,84.6974 34.6052,83.8641 39.5,83C 36.2899,84.2015 33.6233,86.2015 31.5,89C 32.0944,89.4643 32.7611,89.631 33.5,89.5 Z"/></g>
<g><path style="opacity:1" fill="#e03b7b" d="M 77.5,89.5 C 77.5,89.8333 77.5,90.1667 77.5,90.5C 76.4019,91.397 76.4019,92.2303 77.5,93C 75.3849,93.5362 74.0516,92.7029 73.5,90.5C 74.9587,90.5674 76.2921,90.2341 77.5,89.5 Z"/></g>
<g><path style="opacity:1" fill="#db276a" d="M 63.5,93.5 C 64.209,92.596 65.209,92.2627 66.5,92.5C 67.8333,93.1667 68.8333,94.1667 69.5,95.5C 69.9175,96.2216 70.5842,96.7216 71.5,97C 70.9056,97.4643 70.2389,97.631 69.5,97.5C 68.8333,97.5 68.5,97.1667 68.5,96.5C 66.7056,95.7671 65.0389,94.7671 63.5,93.5 Z"/></g>
<g><path style="opacity:1" fill="#f699c8" d="M 32.5,92.5 C 29.7613,95.591 29.2613,98.9244 31,102.5C 31.8751,99.5989 33.0418,96.9323 34.5,94.5C 34.3215,97.2165 33.8215,99.8832 33,102.5C 31.5098,103.728 30.0098,103.728 28.5,102.5C 26.9539,100.118 26.2872,97.4509 26.5,94.5C 28.9032,94.607 30.7365,93.607 32,91.5C 32.3988,91.7284 32.5654,92.0618 32.5,92.5 Z"/></g>
<g><path style="opacity:1" fill="#e25491" d="M 69.5,97.5 C 70.2389,97.631 70.9056,97.4643 71.5,97C 70.5842,96.7216 69.9175,96.2216 69.5,95.5C 70.9305,95.5792 72.2638,95.2458 73.5,94.5C 74.6039,95.6313 74.2705,96.4646 72.5,97C 73.3081,97.3076 73.9747,97.8076 74.5,98.5C 72.5615,99.6336 70.8948,99.3003 69.5,97.5 Z"/></g>
<g><path style="opacity:1" fill="#f17bb4" d="M 45.5,87.5 C 52.1031,87.8072 58.1031,89.8072 63.5,93.5C 65.0389,94.7671 66.7056,95.7671 68.5,96.5C 67.1266,96.3433 65.7932,96.51 64.5,97C 66.935,97.0748 67.6016,97.9081 66.5,99.5C 62.6471,97.9511 59.9804,99.2844 58.5,103.5C 56.057,105.055 53.3903,105.722 50.5,105.5C 49.1667,104.833 49.1667,104.167 50.5,103.5C 54.2249,105.131 56.8916,103.631 58.5,99C 58.1639,97.9701 57.4972,97.4701 56.5,97.5C 54.551,95.437 52.2177,94.1036 49.5,93.5C 50.791,93.7373 51.791,93.404 52.5,92.5C 55.7248,94.0213 59.0581,95.3546 62.5,96.5C 63.6956,96.1543 63.6956,95.6543 62.5,95C 56.4676,92.9763 50.8009,90.4763 45.5,87.5 Z"/></g>
<g><path style="opacity:1" fill="#f8b4d7" d="M 66.5,99.5 C 68.861,99.6741 71.1944,100.007 73.5,100.5C 67.1207,103.184 60.454,105.518 53.5,107.5C 51.9623,107.547 50.9623,106.88 50.5,105.5C 53.3903,105.722 56.057,105.055 58.5,103.5C 59.9804,99.2844 62.6471,97.9511 66.5,99.5 Z"/></g>
<g><path style="opacity:1" fill="#df3373" d="M 56.5,97.5 C 57.4972,97.4701 58.1639,97.9701 58.5,99C 56.8916,103.631 54.2249,105.131 50.5,103.5C 52.8061,101.861 54.8061,99.8606 56.5,97.5 Z"/></g>
<g><path style="opacity:1" fill="#f0cbd8" d="M 25.5,100.5 C 26.4013,101.29 27.0679,102.29 27.5,103.5C 26.5233,106.287 26.19,109.287 26.5,112.5C 25.8333,110.833 25.1667,109.167 24.5,107.5C 25.2186,105.236 25.552,102.903 25.5,100.5 Z"/></g>
<g><path style="opacity:1" fill="#f5f2f4" d="M 27.5,103.5 C 27.6596,105.153 28.3263,106.486 29.5,107.5C 29.5,109.5 29.5,111.5 29.5,113.5C 28.209,113.737 27.209,113.404 26.5,112.5C 26.19,109.287 26.5233,106.287 27.5,103.5 Z"/></g>
<g><path style="opacity:1" fill="#e38eab" d="M 24.5,107.5 C 25.1667,109.167 25.8333,110.833 26.5,112.5C 27.209,113.404 28.209,113.737 29.5,113.5C 29.5,111.5 29.5,109.5 29.5,107.5C 32.3834,110.876 31.7167,113.542 27.5,115.5C 24.828,113.575 23.828,110.908 24.5,107.5 Z"/></g>
</svg>
