<?xml version="1.0" encoding="UTF-8"?>
<!DOCTYPE svg PUBLIC "-//W3C//DTD SVG 1.1//EN" "http://www.w3.org/Graphics/SVG/1.1/DTD/svg11.dtd">
<svg xmlns="http://www.w3.org/2000/svg" version="1.1" width="166px" height="158px" style="shape-rendering:geometricPrecision; text-rendering:geometricPrecision; image-rendering:optimizeQuality; fill-rule:evenodd; clip-rule:evenodd" xmlns:xlink="http://www.w3.org/1999/xlink">
<g><path style="opacity:1" fill="#f5f5f5" d="M -0.5,-0.5 C 54.8333,-0.5 110.167,-0.5 165.5,-0.5C 165.5,52.1667 165.5,104.833 165.5,157.5C 110.167,157.5 54.8333,157.5 -0.5,157.5C -0.5,104.833 -0.5,52.1667 -0.5,-0.5 Z"/></g>
<g><path style="opacity:1" fill="#b3afb4" d="M 62.5,14.5 C 61.325,14.281 60.325,14.6143 59.5,15.5C 58.9724,17.3361 58.3058,19.0028 57.5,20.5C 55.1852,22.7025 53.1852,25.7025 51.5,29.5C 51.1788,27.9519 50.1788,27.2852 48.5,27.5C 49.7193,23.7598 51.2193,20.0931 53,16.5C 55.7607,13.4672 58.9274,12.8005 62.5,14.5 Z"/></g>
<g><path style="opacity:1" fill="#838283" d="M 48.5,29.5 C 49.1667,29.5 49.8333,29.5 50.5,29.5C 47.6999,30.4131 46.3666,32.4131 46.5,35.5C 45.5,34.1667 44.5,34.1667 43.5,35.5C 43.1808,30.3537 43.8475,25.3537 45.5,20.5C 46.0419,23.7855 47.0419,26.7855 48.5,29.5 Z"/></g>
<g><path style="opacity:1" fill="#742734" d="M 48.5,27.5 C 50.1788,27.2852 51.1788,27.9519 51.5,29.5C 51.1667,29.5 50.8333,29.5 50.5,29.5C 49.8333,29.5 49.1667,29.5 48.5,29.5C 48.5,28.8333 48.5,28.1667 48.5,27.5 Z"/></g>
<g><path style="opacity:1" fill="#771529" d="M 46.5,35.5 C 50.2965,36.9114 50.2965,37.9114 46.5,38.5C 46.5,37.5 46.5,36.5 46.5,35.5 Z"/></g>
<g><path style="opacity:1" fill="#3a3838" d="M 46.5,35.5 C 46.5,36.5 46.5,37.5 46.5,38.5C 44.7202,39.9899 44.0535,41.9899 44.5,44.5C 44.5,45.1667 44.5,45.8333 44.5,46.5C 43.5184,43.0381 43.185,39.3714 43.5,35.5C 44.5,34.1667 45.5,34.1667 46.5,35.5 Z"/></g>
<g><path style="opacity:1" fill="#d6d7da" d="M 62.5,15.5 C 66.0017,15.0764 68.335,16.4098 69.5,19.5C 68.6966,27.7554 68.1966,36.0888 68,44.5C 67.3457,45.6956 66.8457,45.6956 66.5,44.5C 67.6349,36.5492 67.8016,28.5492 67,20.5C 66.6667,22.5 66.3333,24.5 66,26.5C 61.9969,28.6644 59.8303,31.9977 59.5,36.5C 60.6791,40.4057 60.6791,44.0723 59.5,47.5C 60.7161,48.0959 62.0494,48.2626 63.5,48C 57.855,51.2507 56.1884,56.084 58.5,62.5C 60.4935,64.4986 62.8268,65.9986 65.5,67C 64.6195,67.7083 63.9528,68.5416 63.5,69.5C 60.1266,67.8258 56.7932,66.1591 53.5,64.5C 53.3336,56.4931 53.5003,48.4931 54,40.5C 54.3333,39.8333 54.6667,39.1667 55,38.5C 55.3988,38.7284 55.5654,39.0618 55.5,39.5C 55.3337,46.8409 55.5003,54.1742 56,61.5C 56.3449,47.4072 57.6782,33.4072 60,19.5C 60.6082,17.9336 61.4415,16.6002 62.5,15.5 Z"/></g>
<g><path style="opacity:1" fill="#919196" d="M 62.5,14.5 C 62.5,14.8333 62.5,15.1667 62.5,15.5C 61.4415,16.6002 60.6082,17.9336 60,19.5C 57.6782,33.4072 56.3449,47.4072 56,61.5C 55.5003,54.1742 55.3337,46.8409 55.5,39.5C 56.8792,33.383 57.5459,27.0497 57.5,20.5C 58.3058,19.0028 58.9724,17.3361 59.5,15.5C 60.325,14.6143 61.325,14.281 62.5,14.5 Z"/></g>
<g><path style="opacity:1" fill="#7b102a" d="M 44.5,44.5 C 45.9778,44.238 47.3112,44.5713 48.5,45.5C 48.3764,46.1067 48.0431,46.44 47.5,46.5C 46.5,46.5 45.5,46.5 44.5,46.5C 44.5,45.8333 44.5,45.1667 44.5,44.5 Z"/></g>
<g><path style="opacity:1" fill="#c9cad0" d="M 57.5,20.5 C 57.5459,27.0497 56.8792,33.383 55.5,39.5C 55.5654,39.0618 55.3988,38.7284 55,38.5C 54.6667,39.1667 54.3333,39.8333 54,40.5C 53.5003,48.4931 53.3336,56.4931 53.5,64.5C 53.1667,65.1667 52.8333,65.8333 52.5,66.5C 51.0298,68.1595 50.3631,70.1595 50.5,72.5C 52.0983,80.4426 52.5983,88.4426 52,96.5C 50.2029,97.9266 49.0362,99.76 48.5,102C 49.5941,115.399 51.9274,128.565 55.5,141.5C 55.5,141.833 55.5,142.167 55.5,142.5C 52.1934,142.937 49.1934,142.27 46.5,140.5C 45.914,140.709 45.414,141.043 45,141.5C 43.7308,140.095 43.2308,138.429 43.5,136.5C 44.1499,136.196 44.8165,135.863 45.5,135.5C 47.0778,136.64 48.7445,137.14 50.5,137C 48.7513,135.708 46.918,134.542 45,133.5C 44.3333,132.5 44.3333,131.5 45,130.5C 46.439,132.014 47.939,132.347 49.5,131.5C 48.086,130.376 46.586,129.376 45,128.5C 44.2599,127.251 44.4265,126.251 45.5,125.5C 47.7929,124.699 47.4596,124.032 44.5,123.5C 44.3433,122.127 44.51,120.793 45,119.5C 48.3461,120.089 48.3461,119.422 45,117.5C 44.5034,115.19 44.3367,112.857 44.5,110.5C 44.8333,107.833 45.1667,105.167 45.5,102.5C 47.5533,96.9882 48.5533,91.1549 48.5,85C 49.2108,79.753 47.8775,75.253 44.5,71.5C 43.5328,63.5856 43.1995,55.5856 43.5,47.5C 45.099,47.7678 46.4324,47.4345 47.5,46.5C 48.0431,46.44 48.3764,46.1067 48.5,45.5C 47.3112,44.5713 45.9778,44.238 44.5,44.5C 44.0535,41.9899 44.7202,39.9899 46.5,38.5C 50.2965,37.9114 50.2965,36.9114 46.5,35.5C 46.3666,32.4131 47.6999,30.4131 50.5,29.5C 50.8333,29.5 51.1667,29.5 51.5,29.5C 53.1852,25.7025 55.1852,22.7025 57.5,20.5 Z"/></g>
<g><path style="opacity:1" fill="#726c6e" d="M 43.5,35.5 C 43.185,39.3714 43.5184,43.0381 44.5,46.5C 45.5,46.5 46.5,46.5 47.5,46.5C 46.4324,47.4345 45.099,47.7678 43.5,47.5C 43.1667,47.5 42.8333,47.5 42.5,47.5C 42.1832,43.2984 42.5166,39.2984 43.5,35.5 Z"/></g>
<g><path style="opacity:1" fill="#e6e8ea" d="M 69.5,19.5 C 70.5585,20.6002 71.3918,21.9336 72,23.5C 73.7955,32.144 75.4622,40.8107 77,49.5C 79.9465,53.3896 81.7798,57.7229 82.5,62.5C 81.6765,64.4546 81.5099,66.4546 82,68.5C 84.7262,71.2856 86.3928,74.619 87,78.5C 87.9078,80.4386 89.4078,81.4386 91.5,81.5C 91.427,83.0269 92.0937,84.0269 93.5,84.5C 92.8012,88.9529 90.4678,91.9529 86.5,93.5C 85.0762,89.2395 83.0762,85.2395 80.5,81.5C 80.7093,80.914 81.0426,80.414 81.5,80C 78.9453,78.4451 77.1119,76.2785 76,73.5C 73.3441,71.0039 70.3441,69.0039 67,67.5C 66.2917,68.3805 65.4584,69.0472 64.5,69.5C 64.1667,69.5 63.8333,69.5 63.5,69.5C 63.9528,68.5416 64.6195,67.7083 65.5,67C 62.8268,65.9986 60.4935,64.4986 58.5,62.5C 56.1884,56.084 57.855,51.2507 63.5,48C 62.0494,48.2626 60.7161,48.0959 59.5,47.5C 60.6791,44.0723 60.6791,40.4057 59.5,36.5C 59.8303,31.9977 61.9969,28.6644 66,26.5C 66.3333,24.5 66.6667,22.5 67,20.5C 67.8016,28.5492 67.6349,36.5492 66.5,44.5C 66.8457,45.6956 67.3457,45.6956 68,44.5C 68.1966,36.0888 68.6966,27.7554 69.5,19.5 Z"/></g>
<g><path style="opacity:1" fill="#313133" d="M 42.5,47.5 C 42.8333,47.5 43.1667,47.5 43.5,47.5C 43.1995,55.5856 43.5328,63.5856 44.5,71.5C 46.7174,81.754 47.0507,92.0873 45.5,102.5C 45.1667,105.167 44.8333,107.833 44.5,110.5C 43.8333,97.5 43.1667,84.5 42.5,71.5C 42.5,63.5 42.5,55.5 42.5,47.5 Z"/></g>
<g><path style="opacity:1" fill="#c5c7c9" d="M 82.5,62.5 C 84.094,67.6034 86.7606,72.1034 90.5,76C 89.9781,76.5613 89.6448,77.228 89.5,78C 91.0731,78.3374 92.4065,79.1708 93.5,80.5C 92.8333,80.8333 92.1667,81.1667 91.5,81.5C 89.4078,81.4386 87.9078,80.4386 87,78.5C 86.3928,74.619 84.7262,71.2856 82,68.5C 81.5099,66.4546 81.6765,64.4546 82.5,62.5 Z"/></g>
<g><path style="opacity:1" fill="#242426" d="M 52.5,66.5 C 54.162,68.9123 55.162,71.7456 55.5,75C 55.1667,75.3333 54.8333,75.6667 54.5,76C 55.8932,77.1711 56.7265,78.6711 57,80.5C 57.9361,89.8835 59.1028,99.2168 60.5,108.5C 57.637,113.825 56.8037,119.492 58,125.5C 58.1764,122.118 58.6764,118.785 59.5,115.5C 60.9056,114.332 62.0723,114.665 63,116.5C 62.8724,119.486 62.8724,122.486 63,125.5C 63.49,124.207 63.6567,122.873 63.5,121.5C 64.552,121.351 65.552,121.517 66.5,122C 65.434,123.159 65.7673,123.992 67.5,124.5C 66.791,125.404 65.791,125.737 64.5,125.5C 64.8783,130.58 65.545,135.58 66.5,140.5C 64.6208,141.341 62.6208,141.675 60.5,141.5C 60.5076,135.792 60.0076,135.459 59,140.5C 57.9887,141.337 56.8221,141.67 55.5,141.5C 51.9274,128.565 49.5941,115.399 48.5,102C 49.0362,99.76 50.2029,97.9266 52,96.5C 52.5983,88.4426 52.0983,80.4426 50.5,72.5C 50.3631,70.1595 51.0298,68.1595 52.5,66.5 Z"/></g>
<g><path style="opacity:1" fill="#a2a2a8" d="M 44.5,71.5 C 47.8775,75.253 49.2108,79.753 48.5,85C 48.5533,91.1549 47.5533,96.9882 45.5,102.5C 47.0507,92.0873 46.7174,81.754 44.5,71.5 Z"/></g>
<g><path style="opacity:1" fill="#d9dade" d="M 93.5,84.5 C 94.3543,83.3684 94.3543,82.035 93.5,80.5C 95.7514,82.1462 97.418,84.3129 98.5,87C 96.3855,87.4244 95.5521,88.5911 96,90.5C 97.4411,89.7402 98.9411,89.0736 100.5,88.5C 103.677,90.3358 105.677,93.0024 106.5,96.5C 105.038,97.4577 103.705,98.6244 102.5,100C 105.217,101.839 106.884,101.006 107.5,97.5C 111.886,100.596 113.053,104.596 111,109.5C 110.439,110.022 109.772,110.355 109,110.5C 105.612,109.223 102.445,107.556 99.5,105.5C 99.1667,106 98.8333,106.5 98.5,107C 99.6254,112.711 100.959,118.378 102.5,124C 101.187,127.369 100.354,130.869 100,134.5C 99.6174,135.056 99.1174,135.389 98.5,135.5C 97.6824,127.08 96.3491,118.746 94.5,110.5C 91.0703,110.893 87.9036,110.227 85,108.5C 81.337,97.5109 77.6703,86.5109 74,75.5C 71.152,72.8479 67.9853,70.8479 64.5,69.5C 65.4584,69.0472 66.2917,68.3805 67,67.5C 70.3441,69.0039 73.3441,71.0039 76,73.5C 77.1119,76.2785 78.9453,78.4451 81.5,80C 81.0426,80.414 80.7093,80.914 80.5,81.5C 83.0762,85.2395 85.0762,89.2395 86.5,93.5C 90.4678,91.9529 92.8012,88.9529 93.5,84.5 Z"/></g>
<g><path style="opacity:1" fill="#7d7f85" d="M 93.5,80.5 C 94.3543,82.035 94.3543,83.3684 93.5,84.5C 92.0937,84.0269 91.427,83.0269 91.5,81.5C 92.1667,81.1667 92.8333,80.8333 93.5,80.5 Z"/></g>
<g><path style="opacity:1" fill="#803543" d="M 106.5,96.5 C 107.167,96.5 107.5,96.8333 107.5,97.5C 106.884,101.006 105.217,101.839 102.5,100C 103.705,98.6244 105.038,97.4577 106.5,96.5 Z"/></g>
<g><path style="opacity:1" fill="#313032" d="M 53.5,64.5 C 56.7932,66.1591 60.1266,67.8258 63.5,69.5C 63.8333,69.5 64.1667,69.5 64.5,69.5C 67.9853,70.8479 71.152,72.8479 74,75.5C 77.6703,86.5109 81.337,97.5109 85,108.5C 87.9036,110.227 91.0703,110.893 94.5,110.5C 96.3491,118.746 97.6824,127.08 98.5,135.5C 96.7085,135.366 95.0418,135.699 93.5,136.5C 90.6874,136.975 88.6874,135.975 87.5,133.5C 90.7999,133.809 94.1333,133.309 97.5,132C 96.2241,128.5 94.3908,125.333 92,122.5C 91.6667,122.833 91.3333,123.167 91,123.5C 90.3162,122.216 90.4829,121.049 91.5,120C 88.3849,117.038 84.3849,114.372 79.5,112C 79.5,110.667 79.5,109.333 79.5,108C 77.3386,107.415 75.3386,106.582 73.5,105.5C 73.0113,104.005 72.3446,102.671 71.5,101.5C 70.6018,96.466 68.9351,91.7994 66.5,87.5C 66.0074,85.1944 65.6741,82.861 65.5,80.5C 67.7463,79.7904 70.0796,79.2904 72.5,79C 71.5291,77.5187 70.1958,76.6854 68.5,76.5C 65.9876,74.5333 63.321,74.2 60.5,75.5C 59.5206,78.6248 59.1872,81.9581 59.5,85.5C 60.1524,93.567 61.3191,101.567 63,109.5C 68.6056,111.602 71.7723,115.602 72.5,121.5C 73.0094,126.703 74.6761,131.37 77.5,135.5C 78.3414,137.379 78.6747,139.379 78.5,141.5C 71.9846,142.239 65.3179,142.905 58.5,143.5C 57.4163,143.315 56.4163,142.982 55.5,142.5C 55.5,142.167 55.5,141.833 55.5,141.5C 56.8221,141.67 57.9887,141.337 59,140.5C 60.0076,135.459 60.5076,135.792 60.5,141.5C 62.6208,141.675 64.6208,141.341 66.5,140.5C 68.924,140.808 71.2573,140.474 73.5,139.5C 71.9371,134.166 69.9371,129.166 67.5,124.5C 65.7673,123.992 65.434,123.159 66.5,122C 65.552,121.517 64.552,121.351 63.5,121.5C 63.6567,122.873 63.49,124.207 63,125.5C 62.8724,122.486 62.8724,119.486 63,116.5C 62.0723,114.665 60.9056,114.332 59.5,115.5C 58.6764,118.785 58.1764,122.118 58,125.5C 56.8037,119.492 57.637,113.825 60.5,108.5C 59.1028,99.2168 57.9361,89.8835 57,80.5C 56.7265,78.6711 55.8932,77.1711 54.5,76C 54.8333,75.6667 55.1667,75.3333 55.5,75C 55.162,71.7456 54.162,68.9123 52.5,66.5C 52.8333,65.8333 53.1667,65.1667 53.5,64.5 Z"/></g>
<g><path style="opacity:1" fill="#72202b" d="M 71.5,101.5 C 72.3446,102.671 73.0113,104.005 73.5,105.5C 74.3429,107.836 74.8429,110.169 75,112.5C 73.2226,109.941 71.7226,107.274 70.5,104.5C 71.404,103.791 71.7373,102.791 71.5,101.5 Z"/></g>
<g><path style="opacity:1" fill="#732b37" d="M 66.5,87.5 C 68.9351,91.7994 70.6018,96.466 71.5,101.5C 69.0649,97.2006 67.3982,92.534 66.5,87.5 Z"/></g>
<g><path style="opacity:1" fill="#682e37" d="M 60.5,75.5 C 60.3359,78.1873 60.5026,80.854 61,83.5C 63.4035,87.6347 65.2368,91.9681 66.5,96.5C 64.4164,92.6641 62.083,88.9974 59.5,85.5C 59.1872,81.9581 59.5206,78.6248 60.5,75.5 Z"/></g>
<g><path style="opacity:1" fill="#914650" d="M 65.5,80.5 C 65.6741,82.861 66.0074,85.1944 66.5,87.5C 64.466,85.3452 64.1326,83.0118 65.5,80.5 Z"/></g>
<g><path style="opacity:1" fill="#823442" d="M 68.5,76.5 C 70.1958,76.6854 71.5291,77.5187 72.5,79C 70.0796,79.2904 67.7463,79.7904 65.5,80.5C 66.2112,78.9699 67.2112,77.6366 68.5,76.5 Z"/></g>
<g><path style="opacity:1" fill="#cfc6ce" d="M 68.5,76.5 C 67.2112,77.6366 66.2112,78.9699 65.5,80.5C 64.1326,83.0118 64.466,85.3452 66.5,87.5C 67.3982,92.534 69.0649,97.2006 71.5,101.5C 71.7373,102.791 71.404,103.791 70.5,104.5C 69.6743,101.515 68.341,98.8485 66.5,96.5C 65.2368,91.9681 63.4035,87.6347 61,83.5C 60.5026,80.854 60.3359,78.1873 60.5,75.5C 63.321,74.2 65.9876,74.5333 68.5,76.5 Z"/></g>
<g><path style="opacity:1" fill="#232224" d="M 59.5,85.5 C 62.083,88.9974 64.4164,92.6641 66.5,96.5C 68.341,98.8485 69.6743,101.515 70.5,104.5C 71.7226,107.274 73.2226,109.941 75,112.5C 74.8429,110.169 74.3429,107.836 73.5,105.5C 75.3386,106.582 77.3386,107.415 79.5,108C 79.5,109.333 79.5,110.667 79.5,112C 84.3849,114.372 88.3849,117.038 91.5,120C 90.4829,121.049 90.3162,122.216 91,123.5C 91.3333,123.167 91.6667,122.833 92,122.5C 94.3908,125.333 96.2241,128.5 97.5,132C 94.1333,133.309 90.7999,133.809 87.5,133.5C 84.9331,127.016 80.2664,123.016 73.5,121.5C 73.1667,121.5 72.8333,121.5 72.5,121.5C 71.7723,115.602 68.6056,111.602 63,109.5C 61.3191,101.567 60.1524,93.567 59.5,85.5 Z"/></g>
<g><path style="opacity:1" fill="#8c2c46" d="M 44.5,123.5 C 47.4596,124.032 47.7929,124.699 45.5,125.5C 45.1667,124.833 44.8333,124.167 44.5,123.5 Z"/></g>
<g><path style="opacity:1" fill="#656567" d="M 72.5,121.5 C 72.8333,121.5 73.1667,121.5 73.5,121.5C 74.6304,126.224 75.9637,130.891 77.5,135.5C 74.6761,131.37 73.0094,126.703 72.5,121.5 Z"/></g>
<g><path style="opacity:1" fill="#341b1f" d="M 67.5,124.5 C 69.9371,129.166 71.9371,134.166 73.5,139.5C 71.2573,140.474 68.924,140.808 66.5,140.5C 65.545,135.58 64.8783,130.58 64.5,125.5C 65.791,125.737 66.791,125.404 67.5,124.5 Z"/></g>
<g><path style="opacity:1" fill="#756368" d="M 42.5,71.5 C 43.1667,84.5 43.8333,97.5 44.5,110.5C 44.3367,112.857 44.5034,115.19 45,117.5C 48.3461,119.422 48.3461,120.089 45,119.5C 44.51,120.793 44.3433,122.127 44.5,123.5C 44.8333,124.167 45.1667,124.833 45.5,125.5C 44.4265,126.251 44.2599,127.251 45,128.5C 46.586,129.376 48.086,130.376 49.5,131.5C 47.939,132.347 46.439,132.014 45,130.5C 44.3333,131.5 44.3333,132.5 45,133.5C 46.918,134.542 48.7513,135.708 50.5,137C 48.7445,137.14 47.0778,136.64 45.5,135.5C 44.8165,135.863 44.1499,136.196 43.5,136.5C 42.6074,114.848 42.2741,93.1812 42.5,71.5 Z"/></g>
<g><path style="opacity:1" fill="#cbcccf" d="M 73.5,121.5 C 80.2664,123.016 84.9331,127.016 87.5,133.5C 88.6874,135.975 90.6874,136.975 93.5,136.5C 88.3076,137.246 83.3076,138.913 78.5,141.5C 78.6747,139.379 78.3414,137.379 77.5,135.5C 75.9637,130.891 74.6304,126.224 73.5,121.5 Z"/></g>
</svg>
