<?xml version="1.0" encoding="UTF-8"?>
<!DOCTYPE svg PUBLIC "-//W3C//DTD SVG 1.1//EN" "http://www.w3.org/Graphics/SVG/1.1/DTD/svg11.dtd">
<svg xmlns="http://www.w3.org/2000/svg" version="1.1" width="158px" height="166px" style="shape-rendering:geometricPrecision; text-rendering:geometricPrecision; image-rendering:optimizeQuality; fill-rule:evenodd; clip-rule:evenodd" xmlns:xlink="http://www.w3.org/1999/xlink">
<g><path style="opacity:1" fill="#f5f5f5" d="M -0.5,-0.5 C 52.1667,-0.5 104.833,-0.5 157.5,-0.5C 157.5,54.8333 157.5,110.167 157.5,165.5C 104.833,165.5 52.1667,165.5 -0.5,165.5C -0.5,110.167 -0.5,54.8333 -0.5,-0.5 Z"/></g>
<g><path style="opacity:1" fill="#222222" d="M 120.5,42.5 C 120.918,43.2216 121.584,43.7216 122.5,44C 119.74,44.6741 117.073,45.5075 114.5,46.5C 90.3521,43.8696 66.3521,43.8696 42.5,46.5C 40.1667,46.5 37.8333,46.5 35.5,46.5C 33.5183,46.0046 31.5183,45.5046 29.5,45C 30.4158,44.7216 31.0825,44.2216 31.5,43.5C 43.0123,43.8281 54.3456,43.4948 65.5,42.5C 83.8389,41.259 102.172,41.259 120.5,42.5 Z"/></g>
<g><path style="opacity:1" fill="#9c9c9c" d="M 65.5,42.5 C 54.3456,43.4948 43.0123,43.8281 31.5,43.5C 28.4281,43.1826 25.4281,43.5159 22.5,44.5C 22.8627,45.1835 23.1961,45.8501 23.5,46.5C 20.9412,46.6104 18.6079,45.9438 16.5,44.5C 18.0777,43.7022 19.7444,43.2022 21.5,43C 36.1629,42.5001 50.8295,42.3334 65.5,42.5 Z"/></g>
<g><path style="opacity:1" fill="#424242" d="M 31.5,43.5 C 31.0825,44.2216 30.4158,44.7216 29.5,45C 31.5183,45.5046 33.5183,46.0046 35.5,46.5C 30.4478,48.0723 25.7811,50.4056 21.5,53.5C 18.2364,54.9274 15.7364,57.2608 14,60.5C 13.6012,60.2716 13.4346,59.9382 13.5,59.5C 14.0913,56.3864 15.758,53.8864 18.5,52C 22.7531,49.3429 27.0864,47.6762 31.5,47C 28.854,46.5026 26.1873,46.3359 23.5,46.5C 23.1961,45.8501 22.8627,45.1835 22.5,44.5C 25.4281,43.5159 28.4281,43.1826 31.5,43.5 Z"/></g>
<g><path style="opacity:1" fill="#3d3d3d" d="M 120.5,42.5 C 122.167,42.5 123.833,42.5 125.5,42.5C 126.9,43.1001 127.9,44.1001 128.5,45.5C 125.15,45.335 121.817,45.5017 118.5,46C 120.25,47.3186 122.25,47.8186 124.5,47.5C 126.221,49.6943 128.555,50.861 131.5,51C 132.71,52.0391 133.71,53.2058 134.5,54.5C 133.833,54.5 133.167,54.5 132.5,54.5C 126.726,51.2785 120.726,48.6118 114.5,46.5C 117.073,45.5075 119.74,44.6741 122.5,44C 121.584,43.7216 120.918,43.2216 120.5,42.5 Z"/></g>
<g><path style="opacity:1" fill="#6a6a6a" d="M 125.5,42.5 C 127.833,42.5 130.167,42.5 132.5,42.5C 133.598,43.397 133.598,44.2303 132.5,45C 131.207,45.49 129.873,45.6567 128.5,45.5C 127.9,44.1001 126.9,43.1001 125.5,42.5 Z"/></g>
<g><path style="opacity:1" fill="#cacaca" d="M 132.5,42.5 C 134.179,42.8923 135.846,43.3923 137.5,44C 137.167,44.3333 136.833,44.6667 136.5,45C 132.391,45.9443 128.391,46.7776 124.5,47.5C 122.25,47.8186 120.25,47.3186 118.5,46C 121.817,45.5017 125.15,45.335 128.5,45.5C 129.873,45.6567 131.207,45.49 132.5,45C 133.598,44.2303 133.598,43.397 132.5,42.5 Z"/></g>
<g><path style="opacity:1" fill="#cacaca" d="M 114.5,46.5 C 120.726,48.6118 126.726,51.2785 132.5,54.5C 132.083,55.1239 131.416,55.4573 130.5,55.5C 121.383,51.9612 112.05,49.1278 102.5,47C 94.5,46.3333 86.5,46.3333 78.5,47C 69.5511,48.4044 60.5511,49.2378 51.5,49.5C 51.5,48.5 51.5,47.5 51.5,46.5C 48.5,46.5 45.5,46.5 42.5,46.5C 66.3521,43.8696 90.3521,43.8696 114.5,46.5 Z"/></g>
<g><path style="opacity:1" fill="#a7a7a7" d="M 132.5,54.5 C 133.167,54.5 133.833,54.5 134.5,54.5C 138.219,55.5764 140.885,57.9098 142.5,61.5C 141.506,62.9989 141.506,64.6656 142.5,66.5C 139.203,66.3683 137.537,64.7016 137.5,61.5C 130.725,60.9347 124.392,59.1014 118.5,56C 120.905,55.8516 123.239,56.3516 125.5,57.5C 126.167,57.1667 126.833,56.8333 127.5,56.5C 123.915,54.871 120.248,53.5377 116.5,52.5C 109.467,49.2576 101.967,47.5909 94,47.5C 77.9249,50.082 61.7582,51.9153 45.5,53C 40.4588,54.5759 35.4588,55.9092 30.5,57C 31.5707,56.1482 32.5707,55.3149 33.5,54.5C 39.4299,52.518 45.4299,50.8513 51.5,49.5C 60.5511,49.2378 69.5511,48.4044 78.5,47C 86.5,46.3333 94.5,46.3333 102.5,47C 112.05,49.1278 121.383,51.9612 130.5,55.5C 131.416,55.4573 132.083,55.1239 132.5,54.5 Z"/></g>
<g><path style="opacity:1" fill="#f2f2f1" d="M 35.5,46.5 C 37.8333,46.5 40.1667,46.5 42.5,46.5C 45.5,46.5 48.5,46.5 51.5,46.5C 51.5,47.5 51.5,48.5 51.5,49.5C 45.4299,50.8513 39.4299,52.518 33.5,54.5C 31.9397,54.5191 30.4397,54.8524 29,55.5C 28.5,55.1667 28,54.8333 27.5,54.5C 28.8114,53.7425 29.3114,52.7425 29,51.5C 26.4171,52.8742 23.9171,54.3742 21.5,56C 20.1667,57 20.1667,58 21.5,59C 20.0563,59.7805 18.723,59.6139 17.5,58.5C 18.8569,56.8144 20.1902,55.1477 21.5,53.5C 25.7811,50.4056 30.4478,48.0723 35.5,46.5 Z"/></g>
<g><path style="opacity:1" fill="#cbcbcb" d="M 116.5,52.5 C 117.85,53.6499 117.684,54.3166 116,54.5C 114.56,53.8524 113.06,53.5191 111.5,53.5C 108.746,52.0541 105.746,51.0541 102.5,50.5C 97.3409,50.1817 92.3409,50.8483 87.5,52.5C 84.0743,53.7113 80.741,55.2113 77.5,57C 80.0324,57.0032 82.5324,56.5032 85,55.5C 86.0698,55.528 86.9032,55.8614 87.5,56.5C 86.1667,56.8333 84.8333,57.1667 83.5,57.5C 79.6091,59.0803 75.6091,59.9136 71.5,60C 72.5,59.6667 73.5,59.3333 74.5,59C 72.9343,58.235 71.6009,58.4017 70.5,59.5C 64.5576,59.7629 58.7242,59.0962 53,57.5C 47.1975,59.1521 41.6975,61.4855 36.5,64.5C 34.0128,65.3228 31.6794,66.3228 29.5,67.5C 25.1412,67.8872 20.9746,67.2205 17,65.5C 16.2352,65.5699 15.7352,65.9033 15.5,66.5C 14.9569,66.44 14.6236,66.1067 14.5,65.5C 17.9224,63.7197 17.2557,62.7197 12.5,62.5C 12.2627,61.209 12.596,60.209 13.5,59.5C 13.4346,59.9382 13.6012,60.2716 14,60.5C 15.7364,57.2608 18.2364,54.9274 21.5,53.5C 20.1902,55.1477 18.8569,56.8144 17.5,58.5C 18.723,59.6139 20.0563,59.7805 21.5,59C 20.1667,58 20.1667,57 21.5,56C 23.9171,54.3742 26.4171,52.8742 29,51.5C 29.3114,52.7425 28.8114,53.7425 27.5,54.5C 28,54.8333 28.5,55.1667 29,55.5C 30.4397,54.8524 31.9397,54.5191 33.5,54.5C 32.5707,55.3149 31.5707,56.1482 30.5,57C 35.4588,55.9092 40.4588,54.5759 45.5,53C 61.7582,51.9153 77.9249,50.082 94,47.5C 101.967,47.5909 109.467,49.2576 116.5,52.5 Z"/></g>
<g><path style="opacity:1" fill="#414141" d="M 102.5,50.5 C 98.0923,51.2929 93.5923,52.2929 89,53.5C 88.2352,53.4301 87.7352,53.0967 87.5,52.5C 92.3409,50.8483 97.3409,50.1817 102.5,50.5 Z"/></g>
<g><path style="opacity:1" fill="#878688" d="M 102.5,50.5 C 105.746,51.0541 108.746,52.0541 111.5,53.5C 107.524,52.6693 103.524,52.5027 99.5,53C 98.944,53.3826 98.6107,53.8826 98.5,54.5C 94.7379,54.6911 91.0712,55.3578 87.5,56.5C 86.9032,55.8614 86.0698,55.528 85,55.5C 82.5324,56.5032 80.0324,57.0032 77.5,57C 80.741,55.2113 84.0743,53.7113 87.5,52.5C 87.7352,53.0967 88.2352,53.4301 89,53.5C 93.5923,52.2929 98.0923,51.2929 102.5,50.5 Z"/></g>
<g><path style="opacity:1" fill="#565657" d="M 98.5,54.5 C 102.534,54.6721 106.534,55.1721 110.5,56C 101.41,56.1178 92.4105,56.9512 83.5,58.5C 83.5,58.1667 83.5,57.8333 83.5,57.5C 84.8333,57.1667 86.1667,56.8333 87.5,56.5C 91.0712,55.3578 94.7379,54.6911 98.5,54.5 Z"/></g>
<g><path style="opacity:1" fill="#282829" d="M 70.5,59.5 C 69.3915,60.29 68.0581,60.79 66.5,61C 68.1667,61.3333 69.8333,61.6667 71.5,62C 68.6907,63.0934 66.024,64.2601 63.5,65.5C 63.1667,65.5 62.8333,65.5 62.5,65.5C 53.739,68.3753 44.739,69.2087 35.5,68C 38.7058,67.0735 39.0392,65.9068 36.5,64.5C 41.6975,61.4855 47.1975,59.1521 53,57.5C 58.7242,59.0962 64.5576,59.7629 70.5,59.5 Z"/></g>
<g><path style="opacity:1" fill="#bbbbbd" d="M 111.5,53.5 C 113.06,53.5191 114.56,53.8524 116,54.5C 117.684,54.3166 117.85,53.6499 116.5,52.5C 120.248,53.5377 123.915,54.871 127.5,56.5C 126.833,56.8333 126.167,57.1667 125.5,57.5C 123.239,56.3516 120.905,55.8516 118.5,56C 124.392,59.1014 130.725,60.9347 137.5,61.5C 137.537,64.7016 139.203,66.3683 142.5,66.5C 142.328,67.4916 142.662,68.1583 143.5,68.5C 143.158,69.3382 142.492,69.6716 141.5,69.5C 140.127,69.6567 138.793,69.49 137.5,69C 129.778,62.3472 120.778,59.5139 110.5,60.5C 107.344,59.1288 104.344,59.4621 101.5,61.5C 101.5,60.5 101.5,59.5 101.5,58.5C 95.7779,58.898 90.1113,59.7313 84.5,61C 84.6399,62.0695 84.6399,63.2361 84.5,64.5C 80.9483,67.2366 77.4483,69.2366 74,70.5C 73.3333,69.8333 72.6667,69.1667 72,68.5C 69.837,70.8315 67.337,71.4982 64.5,70.5C 60.0777,72.3001 55.411,72.9668 50.5,72.5C 50.6107,71.8826 50.944,71.3826 51.5,71C 56.3058,71.264 59.9724,69.4306 62.5,65.5C 62.8333,65.5 63.1667,65.5 63.5,65.5C 70.6279,64.347 77.2945,62.0137 83.5,58.5C 92.4105,56.9512 101.41,56.1178 110.5,56C 106.534,55.1721 102.534,54.6721 98.5,54.5C 98.6107,53.8826 98.944,53.3826 99.5,53C 103.524,52.5027 107.524,52.6693 111.5,53.5 Z"/></g>
<g><path style="opacity:1" fill="#8a8a8c" d="M 83.5,57.5 C 83.5,57.8333 83.5,58.1667 83.5,58.5C 77.2945,62.0137 70.6279,64.347 63.5,65.5C 66.024,64.2601 68.6907,63.0934 71.5,62C 69.8333,61.6667 68.1667,61.3333 66.5,61C 68.0581,60.79 69.3915,60.29 70.5,59.5C 71.6009,58.4017 72.9343,58.235 74.5,59C 73.5,59.3333 72.5,59.6667 71.5,60C 75.6091,59.9136 79.6091,59.0803 83.5,57.5 Z"/></g>
<g><path style="opacity:1" fill="#414143" d="M 110.5,60.5 C 110.736,63.2257 109.903,65.559 108,67.5C 107.945,65.1148 106.778,63.7814 104.5,63.5C 98.4958,65.3418 92.4958,66.8418 86.5,68C 88.4068,66.878 90.4068,66.0447 92.5,65.5C 95.3777,63.8946 98.3777,62.5612 101.5,61.5C 104.344,59.4621 107.344,59.1288 110.5,60.5 Z"/></g>
<g><path style="opacity:1" fill="#4c4c4d" d="M 142.5,61.5 C 143.369,63.717 143.702,66.0504 143.5,68.5C 142.662,68.1583 142.328,67.4916 142.5,66.5C 141.506,64.6656 141.506,62.9989 142.5,61.5 Z"/></g>
<g><path style="opacity:1" fill="#4f4f4f" d="M 15.5,66.5 C 15.7352,65.9033 16.2352,65.5699 17,65.5C 20.9746,67.2205 25.1412,67.8872 29.5,67.5C 30.7095,67.9321 31.7095,68.5987 32.5,69.5C 29.0369,70.0991 25.7036,71.0991 22.5,72.5C 20.8065,69.8103 18.4732,67.8103 15.5,66.5 Z"/></g>
<g><path style="opacity:1" fill="#c7c2c4" d="M 32.5,69.5 C 35.5719,69.1826 38.5719,69.5159 41.5,70.5C 38.6595,71.7081 35.9928,73.0414 33.5,74.5C 30.7378,75.3795 28.0711,76.5462 25.5,78C 24.6198,79.3561 24.2865,80.8561 24.5,82.5C 23.4192,79.3733 22.7526,76.0399 22.5,72.5C 25.7036,71.0991 29.0369,70.0991 32.5,69.5 Z"/></g>
<g><path style="opacity:1" fill="#a7a4a7" d="M 36.5,64.5 C 39.0392,65.9068 38.7058,67.0735 35.5,68C 44.739,69.2087 53.739,68.3753 62.5,65.5C 59.9724,69.4306 56.3058,71.264 51.5,71C 50.944,71.3826 50.6107,71.8826 50.5,72.5C 46.7551,72.7719 43.4218,73.7719 40.5,75.5C 38.283,74.6314 35.9496,74.298 33.5,74.5C 35.9928,73.0414 38.6595,71.7081 41.5,70.5C 38.5719,69.5159 35.5719,69.1826 32.5,69.5C 31.7095,68.5987 30.7095,67.9321 29.5,67.5C 31.6794,66.3228 34.0128,65.3228 36.5,64.5 Z"/></g>
<g><path style="opacity:1" fill="#cecdd0" d="M 101.5,61.5 C 98.3777,62.5612 95.3777,63.8946 92.5,65.5C 92.0825,64.7784 91.4158,64.2784 90.5,64C 91.8333,63.6667 93.1667,63.3333 94.5,63C 92.5415,61.421 90.5415,61.5876 88.5,63.5C 87.914,63.2907 87.414,62.9574 87,62.5C 84.9682,65.3681 83.1349,68.3681 81.5,71.5C 81.1064,73.4236 81.773,75.257 83.5,77C 83,77.5 82.5,78 82,78.5C 81.3923,76.8455 80.8923,75.1789 80.5,73.5C 79.5627,69.5699 78.5627,69.5699 77.5,73.5C 75.8366,72.1246 74.5032,72.458 73.5,74.5C 72.7065,74.0688 71.8732,73.7355 71,73.5C 68.5932,74.3266 66.2598,75.3266 64,76.5C 61.2957,75.2776 58.4624,74.2776 55.5,73.5C 50.8069,74.0566 46.1402,75.0566 41.5,76.5C 40.8333,76.5 40.5,76.1667 40.5,75.5C 43.4218,73.7719 46.7551,72.7719 50.5,72.5C 55.411,72.9668 60.0777,72.3001 64.5,70.5C 67.337,71.4982 69.837,70.8315 72,68.5C 72.6667,69.1667 73.3333,69.8333 74,70.5C 77.4483,69.2366 80.9483,67.2366 84.5,64.5C 84.6399,63.2361 84.6399,62.0695 84.5,61C 90.1113,59.7313 95.7779,58.898 101.5,58.5C 101.5,59.5 101.5,60.5 101.5,61.5 Z"/></g>
<g><path style="opacity:1" fill="#c83743" d="M 33.5,74.5 C 35.9496,74.298 38.283,74.6314 40.5,75.5C 40.5,76.1667 40.8333,76.5 41.5,76.5C 41.7035,78.3904 41.0368,79.8904 39.5,81C 34.5574,82.1379 30.2241,84.3045 26.5,87.5C 26.1667,87.5 25.8333,87.5 25.5,87.5C 24.962,85.8828 24.6287,84.2161 24.5,82.5C 24.2865,80.8561 24.6198,79.3561 25.5,78C 28.0711,76.5462 30.7378,75.3795 33.5,74.5 Z"/></g>
<g><path style="opacity:1" fill="#8a363c" d="M 35.5,75.5 C 39.1612,75.3501 40.1612,76.8501 38.5,80C 37.5509,80.6172 36.7175,80.4506 36,79.5C 35.51,78.2068 35.3433,76.8734 35.5,75.5 Z"/></g>
<g><path style="opacity:1" fill="#dbdcde" d="M 80.5,73.5 C 79.7784,73.9175 79.2784,74.5842 79,75.5C 78.586,75.0426 78.086,74.7093 77.5,74.5C 76.7022,76.0777 76.2022,77.7444 76,79.5C 75.5212,77.354 74.1879,76.354 72,76.5C 68.8333,77.6667 65.6667,78.8333 62.5,80C 64.7795,83.1475 67.2795,83.3142 70,80.5C 70.3095,81.7659 70.8095,82.9326 71.5,84C 71.1667,84.3333 70.8333,84.6667 70.5,85C 73.2187,87.6586 75.5521,90.4919 77.5,93.5C 77.5,94.1667 77.1667,94.5 76.5,94.5C 74.7354,93.5386 72.7354,93.2053 70.5,93.5C 69.7109,93.2172 69.0442,92.7172 68.5,92C 70.2556,91.7978 71.9223,91.2978 73.5,90.5C 71.7022,87.5267 69.2022,85.5267 66,84.5C 63.2892,86.1033 60.7892,87.1033 58.5,87.5C 48.1376,79.106 40.8042,81.106 36.5,93.5C 34.8823,95.4674 32.8823,96.8007 30.5,97.5C 30.6495,96.448 30.4828,95.448 30,94.5C 29.8455,97.5246 28.3455,99.1913 25.5,99.5C 25.5,97.8333 25.5,96.1667 25.5,94.5C 25.9926,92.1944 26.3259,89.861 26.5,87.5C 30.2241,84.3045 34.5574,82.1379 39.5,81C 41.0368,79.8904 41.7035,78.3904 41.5,76.5C 46.1402,75.0566 50.8069,74.0566 55.5,73.5C 58.4624,74.2776 61.2957,75.2776 64,76.5C 66.2598,75.3266 68.5932,74.3266 71,73.5C 71.8732,73.7355 72.7065,74.0688 73.5,74.5C 74.5032,72.458 75.8366,72.1246 77.5,73.5C 78.5627,69.5699 79.5627,69.5699 80.5,73.5 Z"/></g>
<g><path style="opacity:1" fill="#e4e6e8" d="M 110.5,60.5 C 120.778,59.5139 129.778,62.3472 137.5,69C 138.793,69.49 140.127,69.6567 141.5,69.5C 138.718,70.933 135.718,72.0997 132.5,73C 123.5,74.6667 114.5,76.3333 105.5,78C 101.202,80.3276 96.8692,82.6609 92.5,85C 91.0846,87.7917 88.7513,89.2917 85.5,89.5C 84.6441,85.9195 83.6441,85.7528 82.5,89C 82.6448,89.772 82.9781,90.4387 83.5,91C 81.3046,91.3241 79.3046,92.1575 77.5,93.5C 75.5521,90.4919 73.2187,87.6586 70.5,85C 70.8333,84.6667 71.1667,84.3333 71.5,84C 70.8095,82.9326 70.3095,81.7659 70,80.5C 67.2795,83.3142 64.7795,83.1475 62.5,80C 65.6667,78.8333 68.8333,77.6667 72,76.5C 74.1879,76.354 75.5212,77.354 76,79.5C 76.2022,77.7444 76.7022,76.0777 77.5,74.5C 78.086,74.7093 78.586,75.0426 79,75.5C 79.2784,74.5842 79.7784,73.9175 80.5,73.5C 80.8923,75.1789 81.3923,76.8455 82,78.5C 82.5,78 83,77.5 83.5,77C 81.773,75.257 81.1064,73.4236 81.5,71.5C 83.1349,68.3681 84.9682,65.3681 87,62.5C 87.414,62.9574 87.914,63.2907 88.5,63.5C 90.5415,61.5876 92.5415,61.421 94.5,63C 93.1667,63.3333 91.8333,63.6667 90.5,64C 91.4158,64.2784 92.0825,64.7784 92.5,65.5C 90.4068,66.0447 88.4068,66.878 86.5,68C 92.4958,66.8418 98.4958,65.3418 104.5,63.5C 106.778,63.7814 107.945,65.1148 108,67.5C 109.903,65.559 110.736,63.2257 110.5,60.5 Z"/></g>
<g><path style="opacity:1" fill="#292a2a" d="M 25.5,87.5 C 25.8333,87.5 26.1667,87.5 26.5,87.5C 26.3259,89.861 25.9926,92.1944 25.5,94.5C 24.5489,95.9187 24.2155,97.5853 24.5,99.5C 23.8476,98.5514 23.5143,97.3847 23.5,96C 24.0278,93.1187 24.6945,90.2854 25.5,87.5 Z"/></g>
<g><path style="opacity:1" fill="#bcbdbe" d="M 70.5,93.5 C 70.1583,94.3382 69.4916,94.6716 68.5,94.5C 64.2168,93.6137 60.8835,91.2803 58.5,87.5C 60.7892,87.1033 63.2892,86.1033 66,84.5C 69.2022,85.5267 71.7022,87.5267 73.5,90.5C 71.9223,91.2978 70.2556,91.7978 68.5,92C 69.0442,92.7172 69.7109,93.2172 70.5,93.5 Z"/></g>
<g><path style="opacity:1" fill="#ac6565" d="M 70.5,93.5 C 72.7354,93.2053 74.7354,93.5386 76.5,94.5C 74.9184,95.8758 73.0851,96.8758 71,97.5C 69.2509,97.2517 68.4176,96.2517 68.5,94.5C 69.4916,94.6716 70.1583,94.3382 70.5,93.5 Z"/></g>
<g><path style="opacity:1" fill="#888889" d="M 25.5,94.5 C 25.5,96.1667 25.5,97.8333 25.5,99.5C 28.3455,99.1913 29.8455,97.5246 30,94.5C 30.4828,95.448 30.6495,96.448 30.5,97.5C 29.1035,101.235 27.1035,101.902 24.5,99.5C 24.2155,97.5853 24.5489,95.9187 25.5,94.5 Z"/></g>
</svg>
