<?xml version="1.0" encoding="UTF-8"?>
<!DOCTYPE svg PUBLIC "-//W3C//DTD SVG 1.1//EN" "http://www.w3.org/Graphics/SVG/1.1/DTD/svg11.dtd">
<svg xmlns="http://www.w3.org/2000/svg" version="1.1" width="166px" height="158px" style="shape-rendering:geometricPrecision; text-rendering:geometricPrecision; image-rendering:optimizeQuality; fill-rule:evenodd; clip-rule:evenodd" xmlns:xlink="http://www.w3.org/1999/xlink">
<g><path style="opacity:1" fill="#f5f5f5" d="M -0.5,-0.5 C 54.8333,-0.5 110.167,-0.5 165.5,-0.5C 165.5,52.1667 165.5,104.833 165.5,157.5C 110.167,157.5 54.8333,157.5 -0.5,157.5C -0.5,104.833 -0.5,52.1667 -0.5,-0.5 Z"/></g>
<g><path style="opacity:1" fill="#b7b9bd" d="M 103.5,14.5 C 103.5,15.5 103.5,16.5 103.5,17.5C 98.1538,16.8543 93.1538,17.6876 88.5,20C 91.6429,25.357 93.8096,31.1903 95,37.5C 96.3654,47.822 97.532,58.1553 98.5,68.5C 98.2914,69.9217 97.7914,71.255 97,72.5C 96.7845,64.2236 95.6179,56.2236 93.5,48.5C 92.3448,40.8527 90.3448,33.5194 87.5,26.5C 87.2075,21.6119 86.0409,20.9452 84,24.5C 83.51,23.2068 83.3433,21.8734 83.5,20.5C 81.6536,20.2222 80.3202,20.8888 79.5,22.5C 81.7822,24.6381 82.4489,26.9714 81.5,29.5C 81.0383,27.2433 80.0383,25.2433 78.5,23.5C 75.795,21.4884 73.1283,19.4884 70.5,17.5C 74.0133,16.0682 77.68,15.2348 81.5,15C 88.8258,14.5003 96.1591,14.3337 103.5,14.5 Z"/></g>
<g><path style="opacity:1" fill="#c5c7cb" d="M 103.5,17.5 C 103.381,36.2364 104.381,54.9031 106.5,73.5C 106.392,74.4419 106.059,75.2753 105.5,76C 103.408,76.8509 101.408,77.5176 99.5,78C 102.557,75.4282 103.057,72.2615 101,68.5C 100.23,67.4019 99.397,67.4019 98.5,68.5C 97.532,58.1553 96.3654,47.822 95,37.5C 93.8096,31.1903 91.6429,25.357 88.5,20C 93.1538,17.6876 98.1538,16.8543 103.5,17.5 Z"/></g>
<g><path style="opacity:1" fill="#c1c3c7" d="M 87.5,26.5 C 90.3448,33.5194 92.3448,40.8527 93.5,48.5C 91.9228,53.2339 91.0894,58.2339 91,63.5C 90.6667,60.5 90.3333,57.5 90,54.5C 87.1768,58.0015 83.6768,60.6682 79.5,62.5C 79.1667,62.5 78.8333,62.5 78.5,62.5C 75.8568,55.6609 77.6902,49.9943 84,45.5C 85.8254,40.5712 86.3254,35.5712 85.5,30.5C 86.8239,29.9941 87.4906,28.6608 87.5,26.5 Z"/></g>
<g><path style="opacity:1" fill="#c3c5c7" d="M 105.5,14.5 C 110.818,14.6515 115.985,14.6515 121,14.5C 121.464,15.0944 121.631,15.7611 121.5,16.5C 121.128,35.3467 120.795,55.8467 120.5,78C 121.094,78.4643 121.761,78.631 122.5,78.5C 122.5,82.5 122.5,86.5 122.5,90.5C 121.761,90.369 121.094,90.5357 120.5,91C 121.372,96.0967 121.372,101.93 120.5,108.5C 120.5,111.5 120.5,114.5 120.5,117.5C 119.448,117.351 118.448,117.517 117.5,118C 117.283,120.193 117.616,122.527 118.5,125C 118.108,126.011 117.441,126.511 116.5,126.5C 117.428,127.768 117.595,129.101 117,130.5C 116.667,130.167 116.333,129.833 116,129.5C 114.667,132.167 113.333,134.833 112,137.5C 112.155,134.16 112.655,130.826 113.5,127.5C 112.5,127.5 111.5,127.5 110.5,127.5C 110.196,130.522 109.696,133.522 109,136.5C 108.768,135.263 108.268,134.263 107.5,133.5C 110.03,115.886 110.697,98.2197 109.5,80.5C 105.859,58.6707 104.526,36.6707 105.5,14.5 Z"/></g>
<g><path style="opacity:1" fill="#cfd0d2" d="M 87.5,26.5 C 87.4906,28.6608 86.8239,29.9941 85.5,30.5C 86.3254,35.5712 85.8254,40.5712 84,45.5C 77.6902,49.9943 75.8568,55.6609 78.5,62.5C 78.0617,64.6382 77.8951,66.9715 78,69.5C 77.9736,66.8953 76.807,65.7287 74.5,66C 75.9909,68.0217 75.6576,69.6883 73.5,71C 74.7588,71.9234 76.0921,72.7568 77.5,73.5C 76.7255,75.3964 75.7255,77.063 74.5,78.5C 73.5386,76.7354 73.2053,74.7354 73.5,72.5C 72.0222,72.762 70.6888,72.4287 69.5,71.5C 70.8532,70.4763 71.5198,69.143 71.5,67.5C 70.5,67.5 69.5,67.5 68.5,67.5C 68.2687,64.3546 67.7687,61.3546 67,58.5C 68.117,57.0506 68.7837,55.3839 69,53.5C 72.6317,50.8702 75.965,47.8702 79,44.5C 81.1253,39.7485 81.9586,34.7485 81.5,29.5C 82.4489,26.9714 81.7822,24.6381 79.5,22.5C 80.3202,20.8888 81.6536,20.2222 83.5,20.5C 83.3433,21.8734 83.51,23.2068 84,24.5C 86.0409,20.9452 87.2075,21.6119 87.5,26.5 Z"/></g>
<g><path style="opacity:1" fill="#a1a1a2" d="M 121.5,16.5 C 122.497,36.9933 122.831,57.6599 122.5,78.5C 121.761,78.631 121.094,78.4643 120.5,78C 120.795,55.8467 121.128,35.3467 121.5,16.5 Z"/></g>
<g><path style="opacity:1" fill="#e2e3e2" d="M 78.5,62.5 C 78.8333,62.5 79.1667,62.5 79.5,62.5C 79.3389,65.5279 80.0056,68.3612 81.5,71C 81.1081,72.0105 80.4415,72.5105 79.5,72.5C 81.124,73.8689 81.624,75.5355 81,77.5C 80.1072,76.2888 79.2739,76.2888 78.5,77.5C 79.6405,78.4255 79.6405,79.2588 78.5,80C 80.1075,79.9813 81.7741,79.8146 83.5,79.5C 83.954,82.1398 85.1207,84.4732 87,86.5C 87.8608,91.2765 89.0274,95.9431 90.5,100.5C 89.1667,100.5 87.8333,100.5 86.5,100.5C 86.7989,98.396 86.4656,96.396 85.5,94.5C 84.7348,95.6119 83.7348,96.2786 82.5,96.5C 82.8039,95.8501 83.1373,95.1835 83.5,94.5C 81.1421,92.9757 79.3088,90.9757 78,88.5C 77.5239,84.8817 76.3572,81.5483 74.5,78.5C 75.7255,77.063 76.7255,75.3964 77.5,73.5C 76.0921,72.7568 74.7588,71.9234 73.5,71C 75.6576,69.6883 75.9909,68.0217 74.5,66C 76.807,65.7287 77.9736,66.8953 78,69.5C 77.8951,66.9715 78.0617,64.6382 78.5,62.5 Z"/></g>
<g><path style="opacity:1" fill="#d3d5d7" d="M 103.5,14.5 C 104.167,14.5 104.833,14.5 105.5,14.5C 104.526,36.6707 105.859,58.6707 109.5,80.5C 108.677,83.977 108.177,87.6437 108,91.5C 106.599,89.8078 104.766,89.1412 102.5,89.5C 102.762,90.9778 102.429,92.3112 101.5,93.5C 100.284,88.7291 99.7838,84.0624 100,79.5C 96.9582,82.7106 93.7915,85.7106 90.5,88.5C 89.359,90.4213 89.1923,92.4213 90,94.5C 91.003,98.8548 92.503,103.021 94.5,107C 93.2298,107.9 92.2298,109.066 91.5,110.5C 91.1928,109.113 91.1928,107.446 91.5,105.5C 90.1667,105.5 88.8333,105.5 87.5,105.5C 84.6329,104.232 83.9663,102.232 85.5,99.5C 84.0065,98.8589 83.0065,97.8589 82.5,96.5C 83.7348,96.2786 84.7348,95.6119 85.5,94.5C 86.4656,96.396 86.7989,98.396 86.5,100.5C 87.8333,100.5 89.1667,100.5 90.5,100.5C 89.0274,95.9431 87.8608,91.2765 87,86.5C 85.1207,84.4732 83.954,82.1398 83.5,79.5C 81.7741,79.8146 80.1075,79.9813 78.5,80C 79.6405,79.2588 79.6405,78.4255 78.5,77.5C 79.2739,76.2888 80.1072,76.2888 81,77.5C 81.624,75.5355 81.124,73.8689 79.5,72.5C 80.4415,72.5105 81.1081,72.0105 81.5,71C 80.0056,68.3612 79.3389,65.5279 79.5,62.5C 83.6768,60.6682 87.1768,58.0015 90,54.5C 90.3333,57.5 90.6667,60.5 91,63.5C 91.0894,58.2339 91.9228,53.2339 93.5,48.5C 95.6179,56.2236 96.7845,64.2236 97,72.5C 97.7914,71.255 98.2914,69.9217 98.5,68.5C 99.397,67.4019 100.23,67.4019 101,68.5C 103.057,72.2615 102.557,75.4282 99.5,78C 101.408,77.5176 103.408,76.8509 105.5,76C 106.059,75.2753 106.392,74.4419 106.5,73.5C 104.381,54.9031 103.381,36.2364 103.5,17.5C 103.5,16.5 103.5,15.5 103.5,14.5 Z"/></g>
<g><path style="opacity:1" fill="#a2a2a3" d="M 122.5,90.5 C 122.823,97.0221 122.49,103.355 121.5,109.5C 121.5,108.833 121.167,108.5 120.5,108.5C 121.372,101.93 121.372,96.0967 120.5,91C 121.094,90.5357 121.761,90.369 122.5,90.5 Z"/></g>
<g><path style="opacity:1" fill="#d3d4d6" d="M 103.5,139.5 C 100.911,139.539 98.911,138.539 97.5,136.5C 99.1003,124.913 99.9336,113.247 100,101.5C 100.333,110.5 100.667,119.5 101,128.5C 102.123,122.225 102.956,115.891 103.5,109.5C 103.167,108.833 102.833,108.167 102.5,107.5C 104.045,106.548 105.712,106.215 107.5,106.5C 107.682,115.87 107.182,125.204 106,134.5C 105.901,136.653 105.067,138.319 103.5,139.5 Z"/></g>
<g><path style="opacity:1" fill="#dddfe1" d="M 109.5,80.5 C 110.697,98.2197 110.03,115.886 107.5,133.5C 107.279,136.067 106.612,138.401 105.5,140.5C 104.508,140.672 103.842,140.338 103.5,139.5C 105.067,138.319 105.901,136.653 106,134.5C 107.182,125.204 107.682,115.87 107.5,106.5C 105.712,106.215 104.045,106.548 102.5,107.5C 102.833,108.167 103.167,108.833 103.5,109.5C 102.956,115.891 102.123,122.225 101,128.5C 100.667,119.5 100.333,110.5 100,101.5C 99.9336,113.247 99.1003,124.913 97.5,136.5C 95.563,125.765 92.2297,115.431 87.5,105.5C 88.8333,105.5 90.1667,105.5 91.5,105.5C 91.1928,107.446 91.1928,109.113 91.5,110.5C 92.2298,109.066 93.2298,107.9 94.5,107C 92.503,103.021 91.003,98.8548 90,94.5C 89.1923,92.4213 89.359,90.4213 90.5,88.5C 93.7915,85.7106 96.9582,82.7106 100,79.5C 99.7838,84.0624 100.284,88.7291 101.5,93.5C 102.429,92.3112 102.762,90.9778 102.5,89.5C 104.766,89.1412 106.599,89.8078 108,91.5C 108.177,87.6437 108.677,83.977 109.5,80.5 Z"/></g>
<g><path style="opacity:1" fill="#4d4d4d" d="M 120.5,108.5 C 121.167,108.5 121.5,108.833 121.5,109.5C 121.5,116.833 121.5,124.167 121.5,131.5C 119.899,132.643 119.233,131.976 119.5,129.5C 120.274,125.535 120.607,121.535 120.5,117.5C 120.5,114.5 120.5,111.5 120.5,108.5 Z"/></g>
<g><path style="opacity:1" fill="#b6b8b9" d="M 120.5,117.5 C 120.607,121.535 120.274,125.535 119.5,129.5C 119.233,131.976 119.899,132.643 121.5,131.5C 121.785,133.288 121.452,134.955 120.5,136.5C 119.808,135.975 119.308,135.308 119,134.5C 118.05,142.084 113.883,144.584 106.5,142C 105.944,141.617 105.611,141.117 105.5,140.5C 106.612,138.401 107.279,136.067 107.5,133.5C 108.268,134.263 108.768,135.263 109,136.5C 109.696,133.522 110.196,130.522 110.5,127.5C 111.5,127.5 112.5,127.5 113.5,127.5C 112.655,130.826 112.155,134.16 112,137.5C 113.333,134.833 114.667,132.167 116,129.5C 116.333,129.833 116.667,130.167 117,130.5C 117.595,129.101 117.428,127.768 116.5,126.5C 117.441,126.511 118.108,126.011 118.5,125C 117.616,122.527 117.283,120.193 117.5,118C 118.448,117.517 119.448,117.351 120.5,117.5 Z"/></g>
</svg>
