<?xml version="1.0" encoding="UTF-8"?>
<!DOCTYPE svg PUBLIC "-//W3C//DTD SVG 1.1//EN" "http://www.w3.org/Graphics/SVG/1.1/DTD/svg11.dtd">
<svg xmlns="http://www.w3.org/2000/svg" version="1.1" width="158px" height="166px" style="shape-rendering:geometricPrecision; text-rendering:geometricPrecision; image-rendering:optimizeQuality; fill-rule:evenodd; clip-rule:evenodd" xmlns:xlink="http://www.w3.org/1999/xlink">
<g><path style="opacity:1" fill="#f5f5f5" d="M -0.5,-0.5 C 52.1667,-0.5 104.833,-0.5 157.5,-0.5C 157.5,54.8333 157.5,110.167 157.5,165.5C 104.833,165.5 52.1667,165.5 -0.5,165.5C -0.5,110.167 -0.5,54.8333 -0.5,-0.5 Z"/></g>
<g><path style="opacity:1" fill="#a2a3a4" d="M 23.5,42.5 C 52.3382,42.1687 81.0049,42.502 109.5,43.5C 107.585,43.2155 105.919,43.5489 104.5,44.5C 78.7155,44.2781 51.8822,44.2781 24,44.5C 23.5357,43.9056 23.369,43.2389 23.5,42.5 Z"/></g>
<g><path style="opacity:1" fill="#505051" d="M 104.5,44.5 C 105.919,43.5489 107.585,43.2155 109.5,43.5C 116.5,43.5 123.5,43.5 130.5,43.5C 130.918,44.2216 131.584,44.7216 132.5,45C 127.522,44.949 122.522,44.7823 117.5,44.5C 113.167,44.5 108.833,44.5 104.5,44.5 Z"/></g>
<g><path style="opacity:1" fill="#c3c5c7" d="M 23.5,42.5 C 23.369,43.2389 23.5357,43.9056 24,44.5C 51.8822,44.2781 78.7155,44.2781 104.5,44.5C 108.833,44.5 113.167,44.5 117.5,44.5C 117.351,45.552 117.517,46.552 118,47.5C 120.193,47.7172 122.527,47.3838 125,46.5C 126.011,46.8919 126.511,47.5585 126.5,48.5C 127.768,47.5721 129.101,47.4054 130.5,48C 130.167,48.3333 129.833,48.6667 129.5,49C 132.167,50.3333 134.833,51.6667 137.5,53C 134.16,52.8452 130.826,52.3452 127.5,51.5C 127.5,52.5 127.5,53.5 127.5,54.5C 130.522,54.804 133.522,55.304 136.5,56C 135.263,56.2321 134.263,56.7321 133.5,57.5C 108.067,53.0559 82.7336,53.5559 57.5,59C 43.1705,59.4999 28.8372,59.6666 14.5,59.5C 14.3243,54.1203 14.6576,48.787 15.5,43.5C 18.1272,42.9084 20.7938,42.5751 23.5,42.5 Z"/></g>
<g><path style="opacity:1" fill="#b8b9bb" d="M 130.5,43.5 C 133.572,43.1826 136.572,43.5159 139.5,44.5C 137.922,45.2978 136.256,45.7978 134.5,46C 142.345,47.4378 144.679,51.9378 141.5,59.5C 139.007,58.2264 136.341,57.5597 133.5,57.5C 134.263,56.7321 135.263,56.2321 136.5,56C 133.522,55.304 130.522,54.804 127.5,54.5C 127.5,53.5 127.5,52.5 127.5,51.5C 130.826,52.3452 134.16,52.8452 137.5,53C 134.833,51.6667 132.167,50.3333 129.5,49C 129.833,48.6667 130.167,48.3333 130.5,48C 129.101,47.4054 127.768,47.5721 126.5,48.5C 126.511,47.5585 126.011,46.8919 125,46.5C 122.527,47.3838 120.193,47.7172 118,47.5C 117.517,46.552 117.351,45.552 117.5,44.5C 122.522,44.7823 127.522,44.949 132.5,45C 131.584,44.7216 130.918,44.2216 130.5,43.5 Z"/></g>
<g><path style="opacity:1" fill="#dadcde" d="M 133.5,57.5 C 136.341,57.5597 139.007,58.2264 141.5,59.5C 141.068,60.7095 140.401,61.7095 139.5,62.5C 139.586,61.5041 139.252,60.6708 138.5,60C 134.249,58.8054 129.915,58.3054 125.5,58.5C 125.281,59.675 125.614,60.675 126.5,61.5C 129.442,62.8187 132.442,63.9854 135.5,65C 124.207,64.4249 112.874,64.4249 101.5,65C 110.343,65.1704 119.01,65.6704 127.5,66.5C 125.234,66.1412 123.401,66.8078 122,68.5C 120.984,67.3659 120.317,67.6992 120,69.5C 117.791,67.2936 115.291,66.9602 112.5,68.5C 109.019,66.2021 106.019,66.8687 103.5,70.5C 101.291,69.8938 99.124,69.2272 97,68.5C 96.5065,70.1341 96.3398,71.8008 96.5,73.5C 93.2835,75.1369 89.9502,76.4702 86.5,77.5C 85.1999,78.8267 83.8665,80.16 82.5,81.5C 84.1492,82.1476 85.4825,83.1476 86.5,84.5C 83.7531,86.5066 80.7531,87.3399 77.5,87C 76.1667,86 76.1667,85 77.5,84C 77,83.8333 76.5,83.6667 76,83.5C 74.5936,84.4138 73.0936,85.0805 71.5,85.5C 68.9966,86.0845 66.4966,86.7511 64,87.5C 63.5,87.1667 63,86.8333 62.5,86.5C 67.4812,85.5934 71.6478,83.2601 75,79.5C 77.3447,75.0847 76.8447,71.0847 73.5,67.5C 74.7658,66.6376 76.0992,65.9709 77.5,65.5C 78.0431,65.44 78.3764,65.1067 78.5,64.5C 77.1936,63.0878 76.3603,61.4211 76,59.5C 74.769,58.8922 73.4357,58.5589 72,58.5C 53.9044,60.6717 35.7378,61.6717 17.5,61.5C 16.5,61.5 15.5,61.5 14.5,61.5C 14.5,60.8333 14.5,60.1667 14.5,59.5C 28.8372,59.6666 43.1705,59.4999 57.5,59C 82.7336,53.5559 108.067,53.0559 133.5,57.5 Z"/></g>
<g><path style="opacity:1" fill="#c8c9cd" d="M 77.5,65.5 C 73.8859,60.0764 70.8859,60.4097 68.5,66.5C 60.0872,66.8493 51.7539,67.8493 43.5,69.5C 35.0244,69.5449 26.6911,70.3783 18.5,72C 17.3759,71.1612 16.7092,69.9945 16.5,68.5C 16.9971,66.1817 17.3305,63.8484 17.5,61.5C 35.7378,61.6717 53.9044,60.6717 72,58.5C 73.4357,58.5589 74.769,58.8922 76,59.5C 76.3603,61.4211 77.1936,63.0878 78.5,64.5C 78.3764,65.1067 78.0431,65.44 77.5,65.5 Z"/></g>
<g><path style="opacity:1" fill="#caccce" d="M 139.5,62.5 C 139.047,64.5652 138.047,66.2318 136.5,67.5C 133.545,66.8413 130.545,66.5079 127.5,66.5C 119.01,65.6704 110.343,65.1704 101.5,65C 112.874,64.4249 124.207,64.4249 135.5,65C 132.442,63.9854 129.442,62.8187 126.5,61.5C 125.614,60.675 125.281,59.675 125.5,58.5C 129.915,58.3054 134.249,58.8054 138.5,60C 139.252,60.6708 139.586,61.5041 139.5,62.5 Z"/></g>
<g><path style="opacity:1" fill="#b0b1b5" d="M 68.5,66.5 C 69.9217,66.7086 71.255,67.2086 72.5,68C 64.2236,68.2155 56.2236,69.3821 48.5,71.5C 39.35,73.216 30.35,75.5493 21.5,78.5C 22.4293,77.6851 23.4293,76.8518 24.5,76C 30.8412,73.4983 37.1745,71.3317 43.5,69.5C 51.7539,67.8493 60.0872,66.8493 68.5,66.5 Z"/></g>
<g><path style="opacity:1" fill="#bbbdbe" d="M 86.5,77.5 C 89.9502,76.4702 93.2835,75.1369 96.5,73.5C 99.837,72.4686 103.337,71.4686 107,70.5C 107.605,72.4812 108.605,72.8146 110,71.5C 110.667,72.5 110.667,73.5 110,74.5C 107.281,73.5562 104.448,73.2229 101.5,73.5C 101.725,77.0562 100.892,77.3895 99,74.5C 95.0386,76.3654 90.8719,77.3654 86.5,77.5 Z"/></g>
<g><path style="opacity:1" fill="#c2c4c8" d="M 48.5,71.5 C 53.2339,73.0772 58.2339,73.9106 63.5,74C 60.5,74.3333 57.5,74.6667 54.5,75C 57.734,77.415 60.0674,80.5816 61.5,84.5C 61,84.8333 60.5,85.1667 60,85.5C 56.5394,84.9012 53.0394,84.7346 49.5,85C 42.3066,79.0518 34.3066,77.7185 25.5,81C 26.056,81.3826 26.3893,81.8826 26.5,82.5C 24.5441,84.1139 22.5441,85.7806 20.5,87.5C 18.9137,85.8273 18.2471,83.8273 18.5,81.5C 20.5273,81.6621 22.5273,81.4955 24.5,81C 23.4293,80.1482 22.4293,79.3149 21.5,78.5C 30.35,75.5493 39.35,73.216 48.5,71.5 Z"/></g>
<g><path style="opacity:1" fill="#d0d2d5" d="M 77.5,65.5 C 76.0992,65.9709 74.7658,66.6376 73.5,67.5C 76.8447,71.0847 77.3447,75.0847 75,79.5C 71.6478,83.2601 67.4812,85.5934 62.5,86.5C 63,86.8333 63.5,87.1667 64,87.5C 66.4966,86.7511 68.9966,86.0845 71.5,85.5C 71.0919,86.6431 70.4252,87.6431 69.5,88.5C 68.3914,87.4104 67.3914,87.4104 66.5,88.5C 68.7946,89.1355 70.4613,90.4689 71.5,92.5C 70.0909,92.6541 68.4242,92.8208 66.5,93C 67.3366,94.0113 67.67,95.1779 67.5,96.5C 64.8559,96.1601 62.5225,96.8267 60.5,98.5C 56.5951,96.9198 53.2618,94.5865 50.5,91.5C 44.9535,85.2342 37.9535,82.5675 29.5,83.5C 28.791,82.596 27.791,82.2627 26.5,82.5C 26.3893,81.8826 26.056,81.3826 25.5,81C 34.3066,77.7185 42.3066,79.0518 49.5,85C 53.0394,84.7346 56.5394,84.9012 60,85.5C 60.5,85.1667 61,84.8333 61.5,84.5C 60.0674,80.5816 57.734,77.415 54.5,75C 57.5,74.6667 60.5,74.3333 63.5,74C 58.2339,73.9106 53.2339,73.0772 48.5,71.5C 56.2236,69.3821 64.2236,68.2155 72.5,68C 71.255,67.2086 69.9217,66.7086 68.5,66.5C 70.8859,60.4097 73.8859,60.0764 77.5,65.5 Z"/></g>
<g><path style="opacity:1" fill="#e2e3e3" d="M 127.5,66.5 C 130.545,66.5079 133.545,66.8413 136.5,67.5C 128.573,69.4606 120.573,71.6273 112.5,74C 109.018,75.2436 106.018,77.2436 103.5,80C 102.101,80.5946 100.768,80.4279 99.5,79.5C 98.6143,80.325 98.281,81.325 98.5,82.5C 97.0695,82.5792 95.7362,82.2458 94.5,81.5C 92.9757,83.8579 90.9757,85.6912 88.5,87C 85.2104,87.2532 82.2104,88.2532 79.5,90C 76.2127,92.2636 73.2127,94.9303 70.5,98C 67.2045,99.0346 64.2045,100.535 61.5,102.5C 56.672,99.9339 53.0053,96.2672 50.5,91.5C 53.2618,94.5865 56.5951,96.9198 60.5,98.5C 62.5225,96.8267 64.8559,96.1601 67.5,96.5C 67.67,95.1779 67.3366,94.0113 66.5,93C 68.4242,92.8208 70.0909,92.6541 71.5,92.5C 70.4613,90.4689 68.7946,89.1355 66.5,88.5C 67.3914,87.4104 68.3914,87.4104 69.5,88.5C 70.4252,87.6431 71.0919,86.6431 71.5,85.5C 73.0936,85.0805 74.5936,84.4138 76,83.5C 76.5,83.6667 77,83.8333 77.5,84C 76.1667,85 76.1667,86 77.5,87C 80.7531,87.3399 83.7531,86.5066 86.5,84.5C 85.4825,83.1476 84.1492,82.1476 82.5,81.5C 83.8665,80.16 85.1999,78.8267 86.5,77.5C 90.8719,77.3654 95.0386,76.3654 99,74.5C 100.892,77.3895 101.725,77.0562 101.5,73.5C 104.448,73.2229 107.281,73.5562 110,74.5C 110.667,73.5 110.667,72.5 110,71.5C 108.605,72.8146 107.605,72.4812 107,70.5C 103.337,71.4686 99.837,72.4686 96.5,73.5C 96.3398,71.8008 96.5065,70.1341 97,68.5C 99.124,69.2272 101.291,69.8938 103.5,70.5C 106.019,66.8687 109.019,66.2021 112.5,68.5C 115.291,66.9602 117.791,67.2936 120,69.5C 120.317,67.6992 120.984,67.3659 122,68.5C 123.401,66.8078 125.234,66.1412 127.5,66.5 Z"/></g>
<g><path style="opacity:1" fill="#b9babe" d="M 14.5,61.5 C 15.5,61.5 16.5,61.5 17.5,61.5C 17.3305,63.8484 16.9971,66.1817 16.5,68.5C 16.7092,69.9945 17.3759,71.1612 18.5,72C 26.6911,70.3783 35.0244,69.5449 43.5,69.5C 37.1745,71.3317 30.8412,73.4983 24.5,76C 23.4293,76.8518 22.4293,77.6851 21.5,78.5C 22.4293,79.3149 23.4293,80.1482 24.5,81C 22.5273,81.4955 20.5273,81.6621 18.5,81.5C 18.2471,83.8273 18.9137,85.8273 20.5,87.5C 22.5441,85.7806 24.5441,84.1139 26.5,82.5C 27.791,82.2627 28.791,82.596 29.5,83.5C 28.0783,83.7086 26.745,84.2086 25.5,85C 22.2397,87.7525 19.573,90.9191 17.5,94.5C 16.0682,90.9867 15.2348,87.32 15,83.5C 14.5003,76.1742 14.3337,68.8409 14.5,61.5 Z"/></g>
</svg>
