<?xml version="1.0" encoding="UTF-8"?>
<!DOCTYPE svg PUBLIC "-//W3C//DTD SVG 1.1//EN" "http://www.w3.org/Graphics/SVG/1.1/DTD/svg11.dtd">
<svg xmlns="http://www.w3.org/2000/svg" version="1.1" width="158px" height="166px" style="shape-rendering:geometricPrecision; text-rendering:geometricPrecision; image-rendering:optimizeQuality; fill-rule:evenodd; clip-rule:evenodd" xmlns:xlink="http://www.w3.org/1999/xlink">
<g><path style="opacity:1" fill="#f5f5f5" d="M -0.5,-0.5 C 52.1667,-0.5 104.833,-0.5 157.5,-0.5C 157.5,54.8333 157.5,110.167 157.5,165.5C 104.833,165.5 52.1667,165.5 -0.5,165.5C -0.5,110.167 -0.5,54.8333 -0.5,-0.5 Z"/></g>
<g><path style="opacity:1" fill="#7c797b" d="M 85.5,42.5 C 72.1667,43.1667 58.8333,43.8333 45.5,44.5C 42.2544,44.1351 39.5877,45.1351 37.5,47.5C 36.2888,46.7261 36.2888,45.8928 37.5,45C 36.2068,44.51 34.8734,44.3433 33.5,44.5C 32.8333,44.8333 32.1667,45.1667 31.5,45.5C 31.1583,44.6618 30.4916,44.3284 29.5,44.5C 28.3784,43.8442 27.0451,43.5108 25.5,43.5C 23.6672,43.5854 22.3339,44.2521 21.5,45.5C 19.8008,45.6602 18.1341,45.4935 16.5,45C 17.056,44.6174 17.3893,44.1174 17.5,43.5C 40.1214,42.5209 62.788,42.1876 85.5,42.5 Z"/></g>
<g><path style="opacity:1" fill="#353537" d="M 85.5,42.5 C 98.1868,42.3179 110.853,42.6512 123.5,43.5C 124.551,44.2223 125.218,45.2223 125.5,46.5C 124.167,46.5 122.833,46.5 121.5,46.5C 120.5,46.5 119.5,46.5 118.5,46.5C 117.01,44.7202 115.01,44.0535 112.5,44.5C 110.952,44.8212 110.285,45.8212 110.5,47.5C 109.566,46.4324 109.232,45.099 109.5,43.5C 102.5,43.5 95.5,43.5 88.5,43.5C 77.3335,46.549 66.0002,47.2157 54.5,45.5C 51.4824,45.2962 48.4824,44.9629 45.5,44.5C 58.8333,43.8333 72.1667,43.1667 85.5,42.5 Z"/></g>
<g><path style="opacity:1" fill="#c9cacf" d="M 17.5,43.5 C 17.3893,44.1174 17.056,44.6174 16.5,45C 18.1341,45.4935 19.8008,45.6602 21.5,45.5C 20.3782,47.0518 19.8782,48.7184 20,50.5C 21.2915,48.7513 22.4582,46.918 23.5,45C 24.7494,44.2599 25.7494,44.4265 26.5,45.5C 24.9122,46.6353 24.5788,47.9686 25.5,49.5C 26.7051,48.4231 27.3718,47.0898 27.5,45.5C 28.1667,45.1667 28.8333,44.8333 29.5,44.5C 30.4916,44.3284 31.1583,44.6618 31.5,45.5C 32.3013,47.7929 32.968,47.4596 33.5,44.5C 34.8734,44.3433 36.2068,44.51 37.5,45C 36.2888,45.8928 36.2888,46.7261 37.5,47.5C 39.5877,45.1351 42.2544,44.1351 45.5,44.5C 48.4824,44.9629 51.4824,45.2962 54.5,45.5C 64.6107,49.2723 74.944,49.439 85.5,46C 86.9423,45.6232 87.9423,44.7899 88.5,43.5C 95.5,43.5 102.5,43.5 109.5,43.5C 109.232,45.099 109.566,46.4324 110.5,47.5C 110.56,48.0431 110.893,48.3764 111.5,48.5C 112.429,47.3112 112.762,45.9778 112.5,44.5C 115.01,44.0535 117.01,44.7202 118.5,46.5C 118.222,48.3464 118.889,49.6798 120.5,50.5C 121.429,49.3112 121.762,47.9778 121.5,46.5C 122.833,46.5 124.167,46.5 125.5,46.5C 127.924,46.8076 130.257,46.4742 132.5,45.5C 130.709,44.8302 129.042,44.1635 127.5,43.5C 132.915,43.5102 138.248,44.1769 143.5,45.5C 140.051,47.0062 136.384,48.0062 132.5,48.5C 135.97,50.927 139.47,53.2603 143,55.5C 143.796,58.0385 143.629,60.3718 142.5,62.5C 141.923,59.3551 139.923,57.8551 136.5,58C 122.906,55.8086 109.239,55.1419 95.5,56C 101.348,56.1728 107.015,56.6728 112.5,57.5C 110.473,57.3379 108.473,57.5045 106.5,58C 107.621,60.9225 107.287,61.0892 105.5,58.5C 97.9,55.7969 92.7333,58.1302 90,65.5C 89.2917,64.6195 88.4584,63.9528 87.5,63.5C 88.8333,60.8333 90.1667,58.1667 91.5,55.5C 92.525,55.1034 92.6917,54.4368 92,53.5C 90.5806,52.5399 89.0806,51.7065 87.5,51C 80.2716,50.4751 73.105,50.9751 66,52.5C 64.1667,52.3333 62.3333,52.1667 60.5,52C 58.9546,50.0604 56.9546,48.8938 54.5,48.5C 41.1777,49.2879 28.1777,51.6213 15.5,55.5C 15.1667,55.5 14.8333,55.5 14.5,55.5C 14.8683,51.8778 14.8683,48.3778 14.5,45C 15.2438,43.9614 16.2438,43.4614 17.5,43.5 Z"/></g>
<g><path style="opacity:1" fill="#674e54" d="M 29.5,44.5 C 28.8333,44.8333 28.1667,45.1667 27.5,45.5C 27.1667,45.5 26.8333,45.5 26.5,45.5C 25.7494,44.4265 24.7494,44.2599 23.5,45C 22.4582,46.918 21.2915,48.7513 20,50.5C 19.8782,48.7184 20.3782,47.0518 21.5,45.5C 22.3339,44.2521 23.6672,43.5854 25.5,43.5C 27.0451,43.5108 28.3784,43.8442 29.5,44.5 Z"/></g>
<g><path style="opacity:1" fill="#777778" d="M 123.5,43.5 C 124.833,43.5 126.167,43.5 127.5,43.5C 129.042,44.1635 130.709,44.8302 132.5,45.5C 130.257,46.4742 127.924,46.8076 125.5,46.5C 125.218,45.2223 124.551,44.2223 123.5,43.5 Z"/></g>
<g><path style="opacity:1" fill="#8c2c46" d="M 33.5,44.5 C 32.968,47.4596 32.3013,47.7929 31.5,45.5C 32.1667,45.1667 32.8333,44.8333 33.5,44.5 Z"/></g>
<g><path style="opacity:1" fill="#7f0f2a" d="M 112.5,44.5 C 112.762,45.9778 112.429,47.3112 111.5,48.5C 110.893,48.3764 110.56,48.0431 110.5,47.5C 110.285,45.8212 110.952,44.8212 112.5,44.5 Z"/></g>
<g><path style="opacity:1" fill="#8f3c52" d="M 26.5,45.5 C 26.8333,45.5 27.1667,45.5 27.5,45.5C 27.3718,47.0898 26.7051,48.4231 25.5,49.5C 24.5788,47.9686 24.9122,46.6353 26.5,45.5 Z"/></g>
<g><path style="opacity:1" fill="#a6a6ac" d="M 88.5,43.5 C 87.9423,44.7899 86.9423,45.6232 85.5,46C 74.944,49.439 64.6107,49.2723 54.5,45.5C 66.0002,47.2157 77.3335,46.549 88.5,43.5 Z"/></g>
<g><path style="opacity:1" fill="#262527" d="M 91.5,55.5 C 76.4804,57.0859 61.4804,58.7526 46.5,60.5C 46.3505,61.552 46.5172,62.552 47,63.5C 58.7155,60.8265 70.5488,58.9932 82.5,58C 81.8288,58.9862 81.8288,60.1529 82.5,61.5C 79.592,60.4309 76.592,60.2642 73.5,61C 67.3528,63.5742 61.3528,66.4075 55.5,69.5C 51.3089,70.2622 47.6422,72.0956 44.5,75C 48.8383,74.1701 53.1717,73.0035 57.5,71.5C 56.2644,73.8275 54.2644,74.9942 51.5,75C 52.772,77.0445 52.4386,78.8778 50.5,80.5C 53.6282,80.8994 56.6282,81.2327 59.5,81.5C 54.9523,82.1145 50.9523,83.7812 47.5,86.5C 45.0882,86.6941 44.0882,88.0274 44.5,90.5C 43.448,90.3505 42.448,90.5172 41.5,91C 40.4804,92.5557 39.147,93.7224 37.5,94.5C 33.1909,94.8546 29.1909,95.8546 25.5,97.5C 24.791,98.404 23.791,98.7373 22.5,98.5C 21.6908,96.9724 21.0241,95.3057 20.5,93.5C 20.3433,92.1266 20.51,90.7932 21,89.5C 24.6667,86.8333 28.3333,84.1667 32,81.5C 33.8448,79.1332 35.0114,76.4665 35.5,73.5C 39.2718,72.2919 42.2718,70.1252 44.5,67C 44.1667,66.5 43.8333,66 43.5,65.5C 36.5227,67.4855 29.856,70.3188 23.5,74C 20.9615,74.7958 18.6282,74.6291 16.5,73.5C 21.9586,71.9704 27.2919,70.1371 32.5,68C 31.6634,66.9887 31.33,65.8221 31.5,64.5C 26.42,64.8783 21.42,65.545 16.5,66.5C 14.8428,63.9912 15.1762,61.8245 17.5,60C 15.9632,58.8904 15.2965,57.3904 15.5,55.5C 28.1777,51.6213 41.1777,49.2879 54.5,48.5C 56.9546,48.8938 58.9546,50.0604 60.5,52C 62.3333,52.1667 64.1667,52.3333 66,52.5C 73.105,50.9751 80.2716,50.4751 87.5,51C 89.0806,51.7065 90.5806,52.5399 92,53.5C 92.6917,54.4368 92.525,55.1034 91.5,55.5 Z"/></g>
<g><path style="opacity:1" fill="#874951" d="M 118.5,46.5 C 119.5,46.5 120.5,46.5 121.5,46.5C 121.762,47.9778 121.429,49.3112 120.5,50.5C 118.889,49.6798 118.222,48.3464 118.5,46.5 Z"/></g>
<g><path style="opacity:1" fill="#762a37" d="M 127.5,48.5 C 129.465,48.9483 129.798,49.9483 128.5,51.5C 127.614,50.675 127.281,49.675 127.5,48.5 Z"/></g>
<g><path style="opacity:1" fill="#94969b" d="M 142.5,62.5 C 142.167,62.5 141.833,62.5 141.5,62.5C 132.304,58.9686 122.637,57.302 112.5,57.5C 107.015,56.6728 101.348,56.1728 95.5,56C 109.239,55.1419 122.906,55.8086 136.5,58C 139.923,57.8551 141.923,59.3551 142.5,62.5 Z"/></g>
<g><path style="opacity:1" fill="#e4e5e8" d="M 112.5,57.5 C 122.637,57.302 132.304,58.9686 141.5,62.5C 141.837,66.9943 139.837,69.8276 135.5,71C 126.296,73.5077 116.963,75.5077 107.5,77C 103.61,79.9465 99.2771,81.7798 94.5,82.5C 92.5454,81.6765 90.5454,81.5099 88.5,82C 85.6755,84.6128 82.3422,86.2794 78.5,87C 76.5614,87.9078 75.5614,89.4078 75.5,91.5C 73.9557,91.7031 72.6223,92.3698 71.5,93.5C 69.4734,92.4867 67.4734,91.4867 65.5,90.5C 64.1938,89.5326 63.5271,88.1993 63.5,86.5C 64.552,86.6495 65.552,86.4828 66.5,86C 65.3595,85.2588 65.3595,84.4255 66.5,83.5C 69.0758,82.7178 71.0758,81.2178 72.5,79C 71.944,78.6174 71.6107,78.1174 71.5,77.5C 74.7674,76.2437 78.1007,75.077 81.5,74C 84.3406,70.9759 86.3406,67.4759 87.5,63.5C 88.4584,63.9528 89.2917,64.6195 90,65.5C 92.7333,58.1302 97.9,55.7969 105.5,58.5C 107.287,61.0892 107.621,60.9225 106.5,58C 108.473,57.5045 110.473,57.3379 112.5,57.5 Z"/></g>
<g><path style="opacity:1" fill="#cdc6cf" d="M 82.5,61.5 C 82.4828,63.5648 82.1495,65.5648 81.5,67.5C 79.7016,68.4629 78.3683,67.7962 77.5,65.5C 72.3783,64.4306 67.7116,65.4306 63.5,68.5C 61.0628,68.7563 58.7294,69.4229 56.5,70.5C 55.8933,70.3764 55.56,70.0431 55.5,69.5C 61.3528,66.4075 67.3528,63.5742 73.5,61C 76.592,60.2642 79.592,60.4309 82.5,61.5 Z"/></g>
<g><path style="opacity:1" fill="#341b1f" d="M 16.5,73.5 C 16.5,71.1667 16.5,68.8333 16.5,66.5C 21.42,65.545 26.42,64.8783 31.5,64.5C 31.33,65.8221 31.6634,66.9887 32.5,68C 27.2919,70.1371 21.9586,71.9704 16.5,73.5 Z"/></g>
<g><path style="opacity:1" fill="#3e3c3e" d="M 14.5,55.5 C 14.8333,55.5 15.1667,55.5 15.5,55.5C 15.2965,57.3904 15.9632,58.8904 17.5,60C 15.1762,61.8245 14.8428,63.9912 16.5,66.5C 16.5,68.8333 16.5,71.1667 16.5,73.5C 18.6282,74.6291 20.9615,74.7958 23.5,74C 29.856,70.3188 36.5227,67.4855 43.5,65.5C 43.8333,66 44.1667,66.5 44.5,67C 42.2718,70.1252 39.2718,72.2919 35.5,73.5C 35.5654,73.0618 35.3988,72.7284 35,72.5C 28.7144,75.2064 22.2144,77.2064 15.5,78.5C 14.7613,71.9846 14.0946,65.3179 13.5,58.5C 13.685,57.4163 14.0183,56.4163 14.5,55.5 Z"/></g>
<g><path style="opacity:1" fill="#803541" d="M 81.5,67.5 C 78.3202,74.3503 76.9869,74.0169 77.5,66.5C 72.6993,66.3498 68.0327,67.0165 63.5,68.5C 67.7116,65.4306 72.3783,64.4306 77.5,65.5C 78.3683,67.7962 79.7016,68.4629 81.5,67.5 Z"/></g>
<g><path style="opacity:1" fill="#7b343d" d="M 63.5,68.5 C 61.7496,69.8698 59.7496,70.8698 57.5,71.5C 53.1717,73.0035 48.8383,74.1701 44.5,75C 47.6422,72.0956 51.3089,70.2622 55.5,69.5C 55.56,70.0431 55.8933,70.3764 56.5,70.5C 58.7294,69.4229 61.0628,68.7563 63.5,68.5 Z"/></g>
<g><path style="opacity:1" fill="#323133" d="M 91.5,55.5 C 90.1667,58.1667 88.8333,60.8333 87.5,63.5C 86.3406,67.4759 84.3406,70.9759 81.5,74C 78.1007,75.077 74.7674,76.2437 71.5,77.5C 67.4214,78.6373 63.4214,79.9706 59.5,81.5C 56.6282,81.2327 53.6282,80.8994 50.5,80.5C 52.4386,78.8778 52.772,77.0445 51.5,75C 54.2644,74.9942 56.2644,73.8275 57.5,71.5C 59.7496,70.8698 61.7496,69.8698 63.5,68.5C 68.0327,67.0165 72.6993,66.3498 77.5,66.5C 76.9869,74.0169 78.3202,74.3503 81.5,67.5C 82.1495,65.5648 82.4828,63.5648 82.5,61.5C 81.8288,60.1529 81.8288,58.9862 82.5,58C 70.5488,58.9932 58.7155,60.8265 47,63.5C 46.5172,62.552 46.3505,61.552 46.5,60.5C 61.4804,58.7526 76.4804,57.0859 91.5,55.5 Z"/></g>
<g><path style="opacity:1" fill="#cbcccf" d="M 35.5,73.5 C 35.0114,76.4665 33.8448,79.1332 32,81.5C 28.3333,84.1667 24.6667,86.8333 21,89.5C 20.51,90.7932 20.3433,92.1266 20.5,93.5C 19.7542,88.3076 18.0875,83.3076 15.5,78.5C 22.2144,77.2064 28.7144,75.2064 35,72.5C 35.3988,72.7284 35.5654,73.0618 35.5,73.5 Z"/></g>
<g><path style="opacity:1" fill="#3b3c3f" d="M 47.5,86.5 C 46.612,89.0545 46.2786,91.7212 46.5,94.5C 39.5182,95.6626 32.5182,96.6626 25.5,97.5C 29.1909,95.8546 33.1909,94.8546 37.5,94.5C 39.147,93.7224 40.4804,92.5557 41.5,91C 42.448,90.5172 43.448,90.3505 44.5,90.5C 44.0882,88.0274 45.0882,86.6941 47.5,86.5 Z"/></g>
<g><path style="opacity:1" fill="#dbdcdf" d="M 71.5,77.5 C 71.6107,78.1174 71.944,78.6174 72.5,79C 71.0758,81.2178 69.0758,82.7178 66.5,83.5C 65.3595,84.4255 65.3595,85.2588 66.5,86C 65.552,86.4828 64.552,86.6495 63.5,86.5C 63.5271,88.1993 64.1938,89.5326 65.5,90.5C 64.7688,90.9418 63.7688,91.1085 62.5,91C 65.1126,93.1692 67.6126,95.3359 70,97.5C 72.2872,95.8052 74.1206,93.8052 75.5,91.5C 75.5614,89.4078 76.5614,87.9078 78.5,87C 82.3422,86.2794 85.6755,84.6128 88.5,82C 90.5454,81.5099 92.5454,81.6765 94.5,82.5C 90.2934,87.937 84.6268,90.7703 77.5,91C 77.8333,91.3333 78.1667,91.6667 78.5,92C 75.25,95.0966 71.9167,97.9299 68.5,100.5C 66.7089,103.619 64.0422,105.619 60.5,106.5C 59.5423,105.038 58.3756,103.705 57,102.5C 55.1608,105.217 55.9941,106.884 59.5,107.5C 57.3824,109.933 54.7157,111.6 51.5,112.5C 49.0773,112.298 47.4106,111.131 46.5,109C 47.777,105.612 49.4436,102.445 51.5,99.5C 50.6667,99.1667 49.8333,98.8333 49,98.5C 43.6244,99.6772 38.2911,101.011 33,102.5C 29.0994,101.641 25.5994,100.308 22.5,98.5C 23.791,98.7373 24.791,98.404 25.5,97.5C 32.5182,96.6626 39.5182,95.6626 46.5,94.5C 46.2786,91.7212 46.612,89.0545 47.5,86.5C 50.9523,83.7812 54.9523,82.1145 59.5,81.5C 63.4214,79.9706 67.4214,78.6373 71.5,77.5 Z"/></g>
<g><path style="opacity:1" fill="#b4b6ba" d="M 65.5,90.5 C 67.4734,91.4867 69.4734,92.4867 71.5,93.5C 72.6223,92.3698 73.9557,91.7031 75.5,91.5C 74.1206,93.8052 72.2872,95.8052 70,97.5C 67.6126,95.3359 65.1126,93.1692 62.5,91C 63.7688,91.1085 64.7688,90.9418 65.5,90.5 Z"/></g>
<g><path style="opacity:1" fill="#9c9ea1" d="M 68.5,100.5 C 65.6994,99.2341 62.6994,98.4008 59.5,98C 58.2164,96.7025 58.3831,95.5358 60,94.5C 63.3392,95.9078 66.1726,97.9078 68.5,100.5 Z"/></g>
<g><path style="opacity:1" fill="#803643" d="M 60.5,106.5 C 60.5,107.167 60.1667,107.5 59.5,107.5C 55.9941,106.884 55.1608,105.217 57,102.5C 58.3756,103.705 59.5423,105.038 60.5,106.5 Z"/></g>
</svg>
