<?xml version="1.0" encoding="UTF-8"?>
<!DOCTYPE svg PUBLIC "-//W3C//DTD SVG 1.1//EN" "http://www.w3.org/Graphics/SVG/1.1/DTD/svg11.dtd">
<svg xmlns="http://www.w3.org/2000/svg" version="1.1" width="166px" height="158px" style="shape-rendering:geometricPrecision; text-rendering:geometricPrecision; image-rendering:optimizeQuality; fill-rule:evenodd; clip-rule:evenodd" xmlns:xlink="http://www.w3.org/1999/xlink">
<g><path style="opacity:1" fill="#f5f5f5" d="M -0.5,-0.5 C 54.8333,-0.5 110.167,-0.5 165.5,-0.5C 165.5,52.1667 165.5,104.833 165.5,157.5C 110.167,157.5 54.8333,157.5 -0.5,157.5C -0.5,104.833 -0.5,52.1667 -0.5,-0.5 Z"/></g>
<g><path style="opacity:1" fill="#b9bbbd" d="M 59.5,15.5 C 57.735,20.6601 56.735,25.9934 56.5,31.5C 55.7321,30.7375 55.2321,29.7375 55,28.5C 54.7105,30.9519 54.0438,33.2852 53,35.5C 52.6667,35.1667 52.3333,34.8333 52,34.5C 51.4612,29.375 51.7945,24.375 53,19.5C 51.589,23.3105 49.7557,26.1438 47.5,28C 46.3708,30.9707 46.3708,34.6374 47.5,39C 46.552,39.4828 45.552,39.6495 44.5,39.5C 44.8553,34.1511 45.022,28.8178 45,23.5C 44.6174,24.056 44.1174,24.3893 43.5,24.5C 43.2148,22.712 43.5481,21.0453 44.5,19.5C 45.1924,20.0253 45.6924,20.6919 46,21.5C 46.5163,18.9664 47.683,16.7998 49.5,15C 52.9236,14.2534 56.2569,14.42 59.5,15.5 Z"/></g>
<g><path style="opacity:1" fill="#c8cacb" d="M 56.5,31.5 C 55.1027,44.1126 54.436,56.7793 54.5,69.5C 53.7784,69.9175 53.2784,70.5842 53,71.5C 52.1184,68.2105 51.4517,64.8772 51,61.5C 50.3159,64.38 50.4826,67.2134 51.5,70C 49.2582,72.4038 48.9249,75.0704 50.5,78C 50.204,79.8882 49.704,81.7216 49,83.5C 48.6411,80.4557 47.9745,80.1224 47,82.5C 46.9977,79.9488 46.1644,77.9488 44.5,76.5C 44.4382,73.7716 44.4382,70.9383 44.5,68C 43.9056,67.5357 43.2389,67.369 42.5,67.5C 42.5,67.1667 42.5,66.8333 42.5,66.5C 43.0249,65.2718 44.3582,64.4384 46.5,64C 46.0576,61.5398 46.0576,58.8731 46.5,56C 46.3689,53.2228 45.7023,50.7228 44.5,48.5C 44.5,45.5 44.5,42.5 44.5,39.5C 45.552,39.6495 46.552,39.4828 47.5,39C 46.3708,34.6374 46.3708,30.9707 47.5,28C 49.7557,26.1438 51.589,23.3105 53,19.5C 51.7945,24.375 51.4612,29.375 52,34.5C 52.3333,34.8333 52.6667,35.1667 53,35.5C 54.0438,33.2852 54.7105,30.9519 55,28.5C 55.2321,29.7375 55.7321,30.7375 56.5,31.5 Z"/></g>
<g><path style="opacity:1" fill="#4f4f4f" d="M 44.5,39.5 C 44.5,42.5 44.5,45.5 44.5,48.5C 43.5076,40.6841 43.1743,32.6841 43.5,24.5C 44.1174,24.3893 44.6174,24.056 45,23.5C 45.022,28.8178 44.8553,34.1511 44.5,39.5 Z"/></g>
<g><path style="opacity:1" fill="#d9dbdd" d="M 59.5,15.5 C 62.5525,16.7769 65.3859,18.4436 68,20.5C 69.4798,31.4369 72.6464,41.7702 77.5,51.5C 75.8267,52.343 74.66,53.6763 74,55.5C 73.6667,52.8333 73.3333,50.1667 73,47.5C 72.5,48.6667 71.6667,49.5 70.5,50C 72.3501,51.8449 72.6834,53.8449 71.5,56C 74.7343,59.6338 75.7343,63.8004 74.5,68.5C 70.875,71.6231 67.375,74.9564 64,78.5C 61.9935,77.3313 59.8268,76.6646 57.5,76.5C 60.5244,98.356 61.8577,120.356 61.5,142.5C 60.8333,142.5 60.1667,142.5 59.5,142.5C 59.6666,127.83 59.4999,113.163 59,98.5C 57.3364,88.8491 55.8364,79.1825 54.5,69.5C 54.436,56.7793 55.1027,44.1126 56.5,31.5C 56.735,25.9934 57.735,20.6601 59.5,15.5 Z"/></g>
<g><path style="opacity:1" fill="#b9babb" d="M 43.5,24.5 C 43.1743,32.6841 43.5076,40.6841 44.5,48.5C 45.7023,50.7228 46.3689,53.2228 46.5,56C 46.0576,58.8731 46.0576,61.5398 46.5,64C 44.3582,64.4384 43.0249,65.2718 42.5,66.5C 42.1709,52.3234 42.5042,38.3234 43.5,24.5 Z"/></g>
<g><path style="opacity:1" fill="#dddedf" d="M 78.5,52.5 C 80.676,53.7133 81.0093,55.38 79.5,57.5C 80.325,58.3857 81.325,58.719 82.5,58.5C 82.5792,59.9305 82.2458,61.2638 81.5,62.5C 83.8579,64.0243 85.6912,66.0243 87,68.5C 87.2532,71.7896 88.2532,74.7896 90,77.5C 92.2636,80.7873 94.9303,83.7873 98,86.5C 99.0346,89.7955 100.535,92.7955 102.5,95.5C 99.4787,100.688 95.312,104.688 90,107.5C 87.4836,110.534 85.4836,113.868 84,117.5C 82.2219,126.198 85.3885,132.198 93.5,135.5C 95.3788,137.07 95.7122,138.736 94.5,140.5C 94.5858,139.504 94.2524,138.671 93.5,138C 88.3333,136.167 84.8333,132.667 83,127.5C 82.7104,129.044 82.0437,130.377 81,131.5C 77.9133,125.78 77.9133,120.113 81,114.5C 83.5164,111.466 85.5164,108.132 87,104.5C 86.8788,100.699 87.0455,97.366 87.5,94.5C 86.8333,94.5 86.1667,94.5 85.5,94.5C 85.616,89.8979 83.9493,86.0646 80.5,83C 81.4706,81.7964 82.4706,81.2964 83.5,81.5C 82.5682,79.2046 81.7348,76.8713 81,74.5C 80.3457,73.3044 79.8457,73.3044 79.5,74.5C 80.8754,76.1634 80.542,77.4968 78.5,78.5C 79.5896,79.6086 79.5896,80.6086 78.5,81.5C 76.9291,80.6906 75.2624,80.3573 73.5,80.5C 69.3509,81.4051 67.0176,84.0718 66.5,88.5C 65.6236,88.6309 64.9569,88.2975 64.5,87.5C 63.8333,85.8333 63.1667,84.1667 62.5,82.5C 66.5487,77.7761 71.0487,73.4427 76,69.5C 76.3333,69.8333 76.6667,70.1667 77,70.5C 77.1383,66.0231 76.305,61.6898 74.5,57.5C 75.5,56.8333 76.5,56.1667 77.5,55.5C 76.2232,54.0783 76.5565,53.0783 78.5,52.5 Z"/></g>
<g><path style="opacity:1" fill="#a2a2a3" d="M 42.5,67.5 C 43.2389,67.369 43.9056,67.5357 44.5,68C 44.4382,70.9383 44.4382,73.7716 44.5,76.5C 44.1234,96.8905 44.1234,115.724 44.5,133C 43.9056,133.464 43.2389,133.631 42.5,133.5C 42.5,111.5 42.5,89.5 42.5,67.5 Z"/></g>
<g><path style="opacity:1" fill="#c2c3c6" d="M 54.5,69.5 C 55.8364,79.1825 57.3364,88.8491 59,98.5C 59.4999,113.163 59.6666,127.83 59.5,142.5C 54.1821,142.348 49.0154,142.348 44,142.5C 43.0467,139.568 42.5467,136.568 42.5,133.5C 43.2389,133.631 43.9056,133.464 44.5,133C 44.1234,115.724 44.1234,96.8905 44.5,76.5C 46.1644,77.9488 46.9977,79.9488 47,82.5C 47.9745,80.1224 48.6411,80.4557 49,83.5C 49.704,81.7216 50.204,79.8882 50.5,78C 48.9249,75.0704 49.2582,72.4038 51.5,70C 50.4826,67.2134 50.3159,64.38 51,61.5C 51.4517,64.8772 52.1184,68.2105 53,71.5C 53.2784,70.5842 53.7784,69.9175 54.5,69.5 Z"/></g>
<g><path style="opacity:1" fill="#afb1b5" d="M 73.5,80.5 C 69.7451,83.0544 68.0784,86.721 68.5,91.5C 69.2458,97.5595 70.2458,103.559 71.5,109.5C 73.4055,117.987 75.9055,126.32 79,134.5C 79.8113,133.04 80.6446,132.707 81.5,133.5C 80.8108,135.444 80.3108,137.444 80,139.5C 78.583,140.078 77.7496,141.078 77.5,142.5C 76.1667,142.5 74.8333,142.5 73.5,142.5C 75.6541,141.176 77.3207,139.343 78.5,137C 73.7008,126.985 70.2008,116.485 68,105.5C 66.971,99.8769 66.471,94.2102 66.5,88.5C 67.0176,84.0718 69.3509,81.4051 73.5,80.5 Z"/></g>
<g><path style="opacity:1" fill="#bcbebf" d="M 87.5,94.5 C 86.833,92.1806 86.6664,89.8473 87,87.5C 89.2567,92.8416 90.2567,92.8416 90,87.5C 90.8373,85.9926 92.0039,85.4926 93.5,86C 92.4238,87.7261 92.2571,89.5594 93,91.5C 93.8928,90.2888 94.7261,90.2888 95.5,91.5C 94.2889,92.7202 94.2889,93.8869 95.5,95C 93.9826,96.7785 93.1492,96.2785 93,93.5C 91.883,94.9494 91.2163,96.6161 91,98.5C 90.0513,96.9069 88.8846,95.5736 87.5,94.5 Z"/></g>
<g><path style="opacity:1" fill="#cfd1d4" d="M 85.5,94.5 C 78.734,97.5975 74.0673,102.597 71.5,109.5C 70.2458,103.559 69.2458,97.5595 68.5,91.5C 68.0784,86.721 69.7451,83.0544 73.5,80.5C 75.2624,80.3573 76.9291,80.6906 78.5,81.5C 79.5896,80.6086 79.5896,79.6086 78.5,78.5C 80.542,77.4968 80.8754,76.1634 79.5,74.5C 79.8457,73.3044 80.3457,73.3044 81,74.5C 81.7348,76.8713 82.5682,79.2046 83.5,81.5C 82.4706,81.2964 81.4706,81.7964 80.5,83C 83.9493,86.0646 85.616,89.8979 85.5,94.5 Z"/></g>
<g><path style="opacity:1" fill="#c1c3c7" d="M 85.5,94.5 C 86.1667,94.5 86.8333,94.5 87.5,94.5C 87.0455,97.366 86.8788,100.699 87,104.5C 85.5164,108.132 83.5164,111.466 81,114.5C 77.9133,120.113 77.9133,125.78 81,131.5C 82.0437,130.377 82.7104,129.044 83,127.5C 84.8333,132.667 88.3333,136.167 93.5,138C 94.2524,138.671 94.5858,139.504 94.5,140.5C 88.8577,141.354 83.191,142.02 77.5,142.5C 77.7496,141.078 78.583,140.078 80,139.5C 80.3108,137.444 80.8108,135.444 81.5,133.5C 80.6446,132.707 79.8113,133.04 79,134.5C 75.9055,126.32 73.4055,117.987 71.5,109.5C 74.0673,102.597 78.734,97.5975 85.5,94.5 Z"/></g>
<g><path style="opacity:1" fill="#c4c5c9" d="M 77.5,51.5 C 78.1667,51.5 78.5,51.8333 78.5,52.5C 76.5565,53.0783 76.2232,54.0783 77.5,55.5C 76.5,56.1667 75.5,56.8333 74.5,57.5C 76.305,61.6898 77.1383,66.0231 77,70.5C 76.6667,70.1667 76.3333,69.8333 76,69.5C 71.0487,73.4427 66.5487,77.7761 62.5,82.5C 63.1667,84.1667 63.8333,85.8333 64.5,87.5C 64.9569,88.2975 65.6236,88.6309 66.5,88.5C 66.471,94.2102 66.971,99.8769 68,105.5C 70.2008,116.485 73.7008,126.985 78.5,137C 77.3207,139.343 75.6541,141.176 73.5,142.5C 69.5,142.5 65.5,142.5 61.5,142.5C 61.8577,120.356 60.5244,98.356 57.5,76.5C 59.8268,76.6646 61.9935,77.3313 64,78.5C 67.375,74.9564 70.875,71.6231 74.5,68.5C 75.7343,63.8004 74.7343,59.6338 71.5,56C 72.6834,53.8449 72.3501,51.8449 70.5,50C 71.6667,49.5 72.5,48.6667 73,47.5C 73.3333,50.1667 73.6667,52.8333 74,55.5C 74.66,53.6763 75.8267,52.343 77.5,51.5 Z"/></g>
</svg>
