<?xml version="1.0" encoding="UTF-8"?>
<!DOCTYPE svg PUBLIC "-//W3C//DTD SVG 1.1//EN" "http://www.w3.org/Graphics/SVG/1.1/DTD/svg11.dtd">
<svg xmlns="http://www.w3.org/2000/svg" version="1.1" width="158px" height="166px" style="shape-rendering:geometricPrecision; text-rendering:geometricPrecision; image-rendering:optimizeQuality; fill-rule:evenodd; clip-rule:evenodd" xmlns:xlink="http://www.w3.org/1999/xlink">
<g><path style="opacity:1" fill="#f4f4f4" d="M -0.5,-0.5 C 52.1667,-0.5 104.833,-0.5 157.5,-0.5C 157.5,54.8333 157.5,110.167 157.5,165.5C 104.833,165.5 52.1667,165.5 -0.5,165.5C -0.5,110.167 -0.5,54.8333 -0.5,-0.5 Z"/></g>
<g><path style="opacity:1" fill="#d4d4d4" d="M 88.5,43.5 C 105.361,42.1187 122.361,42.2854 139.5,44C 134.316,44.1739 129.316,44.6739 124.5,45.5C 123.193,46.1534 121.86,46.8201 120.5,47.5C 119.148,46.4756 117.815,45.4756 116.5,44.5C 114.052,43.5269 111.385,43.1936 108.5,43.5C 101.833,43.5 95.1667,43.5 88.5,43.5 Z"/></g>
<g><path style="opacity:1" fill="#d0d0d0" d="M 77.5,43.5 C 71.021,44.4907 64.3543,44.824 57.5,44.5C 48.4171,44.9019 39.4171,44.9019 30.5,44.5C 26.3096,44.34 22.3096,45.0066 18.5,46.5C 17.7375,45.7321 16.7375,45.2321 15.5,45C 17.1667,44.6667 18.8333,44.3333 20.5,44C 39.4971,43.5001 58.4971,43.3334 77.5,43.5 Z"/></g>
<g><path style="opacity:1" fill="#acacac" d="M 77.5,43.5 C 79.1667,43.5 80.8333,43.5 82.5,43.5C 82.573,45.0269 81.9063,46.0269 80.5,46.5C 73.5,45.1667 66.5,45.1667 59.5,46.5C 58.5,46.1667 57.8333,45.5 57.5,44.5C 64.3543,44.824 71.021,44.4907 77.5,43.5 Z"/></g>
<g><path style="opacity:1" fill="#313134" d="M 82.5,43.5 C 84.5,43.5 86.5,43.5 88.5,43.5C 95.1667,43.5 101.833,43.5 108.5,43.5C 107.198,45.0276 105.531,46.0276 103.5,46.5C 102.206,49.1402 100.873,49.1402 99.5,46.5C 92.2728,44.9275 85.2728,45.5942 78.5,48.5C 78.5,48.1667 78.5,47.8333 78.5,47.5C 79.1667,47.1667 79.8333,46.8333 80.5,46.5C 81.9063,46.0269 82.573,45.0269 82.5,43.5 Z"/></g>
<g><path style="opacity:1" fill="#323235" d="M 57.5,44.5 C 57.8333,45.5 58.5,46.1667 59.5,46.5C 61.0269,46.427 62.0269,47.0937 62.5,48.5C 62.1667,48.5 61.8333,48.5 61.5,48.5C 52.8873,47.5579 44.2206,47.2246 35.5,47.5C 31.2984,47.1832 27.2984,47.5166 23.5,48.5C 20.5,48.5 17.5,48.5 14.5,48.5C 15.287,46.8958 16.6203,46.2291 18.5,46.5C 22.3096,45.0066 26.3096,44.34 30.5,44.5C 39.4171,44.9019 48.4171,44.9019 57.5,44.5 Z"/></g>
<g><path style="opacity:1" fill="#717274" d="M 108.5,43.5 C 111.385,43.1936 114.052,43.5269 116.5,44.5C 115.127,44.3433 113.793,44.51 112.5,45C 113.044,45.7172 113.711,46.2172 114.5,46.5C 117.407,49.4407 116.74,51.1073 112.5,51.5C 112.5,50.5 112.5,49.5 112.5,48.5C 108.823,48.1517 106.156,48.8183 104.5,50.5C 104.768,48.901 104.434,47.5676 103.5,46.5C 105.531,46.0276 107.198,45.0276 108.5,43.5 Z"/></g>
<g><path style="opacity:1" fill="#ebebec" d="M 59.5,46.5 C 66.5,45.1667 73.5,45.1667 80.5,46.5C 79.8333,46.8333 79.1667,47.1667 78.5,47.5C 75.7328,48.5897 72.8995,49.5897 70,50.5C 67.5667,49.5212 65.0667,48.8545 62.5,48.5C 62.0269,47.0937 61.0269,46.427 59.5,46.5 Z"/></g>
<g><path style="opacity:1" fill="#414045" d="M 116.5,44.5 C 117.815,45.4756 119.148,46.4756 120.5,47.5C 121.86,46.8201 123.193,46.1534 124.5,45.5C 126.027,45.427 127.027,46.0937 127.5,47.5C 125.169,48.3173 122.669,48.9839 120,49.5C 118.756,47.4236 116.923,46.4236 114.5,46.5C 113.711,46.2172 113.044,45.7172 112.5,45C 113.793,44.51 115.127,44.3433 116.5,44.5 Z"/></g>
<g><path style="opacity:1" fill="#444348" d="M 128.5,47.5 C 130.553,47.4021 132.22,48.0687 133.5,49.5C 131.176,50.8326 129.509,50.1659 128.5,47.5 Z"/></g>
<g><path style="opacity:1" fill="#b0b3b6" d="M 14.5,48.5 C 17.5,48.5 20.5,48.5 23.5,48.5C 25.5273,48.3379 27.5273,48.5045 29.5,49C 27.9262,50.8259 27.0929,52.9925 27,55.5C 23.0659,53.1053 18.8992,52.4386 14.5,53.5C 15.0715,52.0267 15.0715,50.36 14.5,48.5 Z"/></g>
<g><path style="opacity:1" fill="#96999b" d="M 23.5,48.5 C 27.2984,47.5166 31.2984,47.1832 35.5,47.5C 42.8069,49.1917 50.4736,50.3584 58.5,51C 59.7911,52.2917 59.7911,53.4583 58.5,54.5C 50.6291,55.1951 42.6291,55.8617 34.5,56.5C 31.9773,54.9288 29.9773,55.4288 28.5,58C 32.0458,59.1737 35.7125,59.8404 39.5,60C 36.1667,60.3333 32.8333,60.6667 29.5,61C 26.7136,63.2766 23.7136,64.1099 20.5,63.5C 20.9767,62.5224 21.6433,61.6891 22.5,61C 20.8925,61.0187 19.2259,61.1854 17.5,61.5C 17.0807,58.6755 18.0807,56.5088 20.5,55C 18.5436,55.2218 16.7103,56.0552 15,57.5C 14.51,56.2068 14.3433,54.8734 14.5,53.5C 18.8992,52.4386 23.0659,53.1053 27,55.5C 27.0929,52.9925 27.9262,50.8259 29.5,49C 27.5273,48.5045 25.5273,48.3379 23.5,48.5 Z"/></g>
<g><path style="opacity:1" fill="#c0c2bf" d="M 58.5,54.5 C 48.8104,54.8318 39.1437,54.4984 29.5,53.5C 29.7093,52.914 30.0426,52.414 30.5,52C 38.8552,51.2587 47.1885,51.4253 55.5,52.5C 57.0296,52.6399 58.0296,53.3065 58.5,54.5 Z"/></g>
<g><path style="opacity:1" fill="#a7abad" d="M 103.5,46.5 C 104.434,47.5676 104.768,48.901 104.5,50.5C 106.156,48.8183 108.823,48.1517 112.5,48.5C 112.5,49.5 112.5,50.5 112.5,51.5C 116.74,51.1073 117.407,49.4407 114.5,46.5C 116.923,46.4236 118.756,47.4236 120,49.5C 122.669,48.9839 125.169,48.3173 127.5,47.5C 127.833,47.5 128.167,47.5 128.5,47.5C 129.509,50.1659 131.176,50.8326 133.5,49.5C 134.791,49.2627 135.791,49.596 136.5,50.5C 135.761,50.369 135.094,50.5357 134.5,51C 137.173,52.0014 139.507,53.5014 141.5,55.5C 141,55.8333 140.5,56.1667 140,56.5C 129.053,54.023 118.219,54.023 107.5,56.5C 99.8494,57.6633 92.1827,58.6633 84.5,59.5C 80.3776,59.6969 76.3776,60.5302 72.5,62C 64.9818,62.1601 57.6484,62.3267 50.5,62.5C 39.3438,65.3975 28.0104,67.3975 16.5,68.5C 16.5,71.8333 16.5,75.1667 16.5,78.5C 15.7306,71.4485 14.7306,64.2818 13.5,57C 13.5143,55.6153 13.8476,54.4486 14.5,53.5C 14.3433,54.8734 14.51,56.2068 15,57.5C 16.7103,56.0552 18.5436,55.2218 20.5,55C 18.0807,56.5088 17.0807,58.6755 17.5,61.5C 19.2259,61.1854 20.8925,61.0187 22.5,61C 21.6433,61.6891 20.9767,62.5224 20.5,63.5C 23.7136,64.1099 26.7136,63.2766 29.5,61C 32.8333,60.6667 36.1667,60.3333 39.5,60C 35.7125,59.8404 32.0458,59.1737 28.5,58C 29.9773,55.4288 31.9773,54.9288 34.5,56.5C 42.6291,55.8617 50.6291,55.1951 58.5,54.5C 59.7911,53.4583 59.7911,52.2917 58.5,51C 50.4736,50.3584 42.8069,49.1917 35.5,47.5C 44.2206,47.2246 52.8873,47.5579 61.5,48.5C 61.5774,49.7498 62.244,50.5831 63.5,51C 68.92,52.0147 73.92,51.1814 78.5,48.5C 85.2728,45.5942 92.2728,44.9275 99.5,46.5C 100.873,49.1402 102.206,49.1402 103.5,46.5 Z"/></g>
<g><path style="opacity:1" fill="#747575" d="M 85.5,47.5 C 89.8333,47.5 94.1667,47.5 98.5,47.5C 98.5,48.5 98.5,49.5 98.5,50.5C 95.9805,50.1528 93.8138,49.4861 92,48.5C 90.8333,48.6667 89.6667,48.8333 88.5,49C 89.9023,50.3425 89.5689,51.1758 87.5,51.5C 84.6524,51.1393 83.9857,49.806 85.5,47.5 Z"/></g>
<g><path style="opacity:1" fill="#747579" d="M 78.5,47.5 C 78.5,47.8333 78.5,48.1667 78.5,48.5C 73.92,51.1814 68.92,52.0147 63.5,51C 62.244,50.5831 61.5774,49.7498 61.5,48.5C 61.8333,48.5 62.1667,48.5 62.5,48.5C 65.0667,48.8545 67.5667,49.5212 70,50.5C 72.8995,49.5897 75.7328,48.5897 78.5,47.5 Z"/></g>
<g><path style="opacity:1" fill="#504e42" d="M 107.5,56.5 C 111.346,57.5685 114.679,59.5685 117.5,62.5C 119.912,61.1823 122.246,61.349 124.5,63C 122.875,63.8525 122.542,64.8525 123.5,66C 121.5,66.3333 119.5,66.6667 117.5,67C 123.5,67.6667 129.5,67.6667 135.5,67C 132.625,66.1055 132.292,65.2722 134.5,64.5C 136.756,65.1143 138.756,66.1143 140.5,67.5C 138.095,68.7682 135.428,69.4349 132.5,69.5C 130.19,68.8362 127.69,68.5029 125,68.5C 118.469,68.9333 111.969,69.6 105.5,70.5C 108.903,69.0749 112.57,68.2415 116.5,68C 111.821,67.8363 107.155,67.8363 102.5,68C 100.981,66.7817 99.8141,65.2817 99,63.5C 98.8665,66.5251 97.8665,69.1918 96,71.5C 95.6667,70.8333 95.3333,70.1667 95,69.5C 93.9887,70.3366 92.8221,70.67 91.5,70.5C 91.5,69.1667 91.5,67.8333 91.5,66.5C 93.1238,66.3601 94.2904,67.0267 95,68.5C 95.3095,67.2341 95.8095,66.0674 96.5,65C 94.2487,65.2068 91.9154,65.3735 89.5,65.5C 89.5,64.5 89.5,63.5 89.5,62.5C 87.09,63.0629 84.7567,63.5629 82.5,64C 84.4899,62.2494 86.8232,61.2494 89.5,61C 87.6183,60.8019 85.9516,60.3019 84.5,59.5C 92.1827,58.6633 99.8494,57.6633 107.5,56.5 Z"/></g>
<g><path style="opacity:1" fill="#3d3b30" d="M 136.5,50.5 C 138.764,51.5813 140.931,52.9146 143,54.5C 143.667,58.1667 143.667,61.8333 143,65.5C 142.292,66.3805 141.458,67.0472 140.5,67.5C 138.756,66.1143 136.756,65.1143 134.5,64.5C 132.292,65.2722 132.625,66.1055 135.5,67C 129.5,67.6667 123.5,67.6667 117.5,67C 119.5,66.6667 121.5,66.3333 123.5,66C 122.542,64.8525 122.875,63.8525 124.5,63C 122.246,61.349 119.912,61.1823 117.5,62.5C 114.679,59.5685 111.346,57.5685 107.5,56.5C 118.219,54.023 129.053,54.023 140,56.5C 140.5,56.1667 141,55.8333 141.5,55.5C 139.507,53.5014 137.173,52.0014 134.5,51C 135.094,50.5357 135.761,50.369 136.5,50.5 Z"/></g>
<g><path style="opacity:1" fill="#434135" d="M 84.5,59.5 C 85.9516,60.3019 87.6183,60.8019 89.5,61C 86.8232,61.2494 84.4899,62.2494 82.5,64C 84.7567,63.5629 87.09,63.0629 89.5,62.5C 89.5,63.5 89.5,64.5 89.5,65.5C 91.9154,65.3735 94.2487,65.2068 96.5,65C 95.8095,66.0674 95.3095,67.2341 95,68.5C 94.2904,67.0267 93.1238,66.3601 91.5,66.5C 91.5,67.8333 91.5,69.1667 91.5,70.5C 92.8221,70.67 93.9887,70.3366 95,69.5C 95.3333,70.1667 95.6667,70.8333 96,71.5C 97.8665,69.1918 98.8665,66.5251 99,63.5C 99.8141,65.2817 100.981,66.7817 102.5,68C 107.155,67.8363 111.821,67.8363 116.5,68C 112.57,68.2415 108.903,69.0749 105.5,70.5C 103.421,70.9707 101.421,71.6373 99.5,72.5C 93.0527,75.888 86.3861,79.0546 79.5,82C 73.8333,82.3333 68.1667,82.6667 62.5,83C 60.9419,83.21 59.6085,83.71 58.5,84.5C 56.5739,85.4861 54.5739,86.4861 52.5,87.5C 50.1582,87.2252 50.1582,86.3919 52.5,85C 51.6921,83.2942 50.3588,82.4609 48.5,82.5C 49.3697,80.4012 50.703,80.0679 52.5,81.5C 53.1924,80.9747 53.6924,80.3081 54,79.5C 55.6995,80.4061 57.5328,80.7394 59.5,80.5C 59.5,79.1667 59.5,77.8333 59.5,76.5C 60.8221,76.67 61.9887,76.3366 63,75.5C 64.4659,77.3249 66.2992,77.8249 68.5,77C 68.0368,74.4151 66.8701,72.2484 65,70.5C 62.8788,72.4574 60.3788,72.9574 57.5,72C 57.8333,71.6667 58.1667,71.3333 58.5,71C 55.8026,69.2998 53.8026,66.9665 52.5,64C 52.8333,63.6667 53.1667,63.3333 53.5,63C 52.552,62.5172 51.552,62.3505 50.5,62.5C 57.6484,62.3267 64.9818,62.1601 72.5,62C 76.3776,60.5302 80.3776,59.6969 84.5,59.5 Z"/></g>
<g><path style="opacity:1" fill="#3b392d" d="M 50.5,62.5 C 51.552,62.3505 52.552,62.5172 53.5,63C 53.1667,63.3333 52.8333,63.6667 52.5,64C 53.8026,66.9665 55.8026,69.2998 58.5,71C 58.1667,71.3333 57.8333,71.6667 57.5,72C 60.3788,72.9574 62.8788,72.4574 65,70.5C 66.8701,72.2484 68.0368,74.4151 68.5,77C 66.2992,77.8249 64.4659,77.3249 63,75.5C 61.9887,76.3366 60.8221,76.67 59.5,76.5C 59.5,77.8333 59.5,79.1667 59.5,80.5C 57.5328,80.7394 55.6995,80.4061 54,79.5C 53.6924,80.3081 53.1924,80.9747 52.5,81.5C 50.703,80.0679 49.3697,80.4012 48.5,82.5C 43.3857,84.084 38.3857,86.9174 33.5,91C 31.8787,93.166 31.0454,95.666 31,98.5C 30.195,96.0989 29.3617,96.2656 28.5,99C 27.2068,99.49 25.8734,99.6567 24.5,99.5C 23.5028,99.5299 22.8361,99.0299 22.5,98C 21.322,91.0875 19.322,84.5875 16.5,78.5C 16.5,75.1667 16.5,71.8333 16.5,68.5C 28.0104,67.3975 39.3438,65.3975 50.5,62.5 Z"/></g>
<g><path style="opacity:1" fill="#444146" d="M 132.5,69.5 C 126.12,71.3452 119.786,73.3452 113.5,75.5C 111.09,74.5615 108.756,74.5615 106.5,75.5C 105.778,75.9175 105.278,76.5842 105,77.5C 102.958,77.1821 100.791,77.0154 98.5,77C 101.167,76.3333 101.167,75.6667 98.5,75C 99.2524,74.3292 99.5858,73.4959 99.5,72.5C 101.421,71.6373 103.421,70.9707 105.5,70.5C 111.969,69.6 118.469,68.9333 125,68.5C 127.69,68.5029 130.19,68.8362 132.5,69.5 Z"/></g>
<g><path style="opacity:1" fill="#505052" d="M 99.5,72.5 C 99.5858,73.4959 99.2524,74.3292 98.5,75C 101.167,75.6667 101.167,76.3333 98.5,77C 100.791,77.0154 102.958,77.1821 105,77.5C 105.278,76.5842 105.778,75.9175 106.5,75.5C 106.756,77.9124 105.756,79.5791 103.5,80.5C 101.821,78.8955 99.8211,78.2289 97.5,78.5C 98.0522,80.3307 98.0522,81.9974 97.5,83.5C 97,83.8333 96.5,84.1667 96,84.5C 94.2006,81.1669 92.0339,80.8336 89.5,83.5C 91.8048,86.7356 90.8048,88.2356 86.5,88C 85.7079,85.6639 84.3746,85.1639 82.5,86.5C 81.9426,88.7175 81.9426,91.0509 82.5,93.5C 79.8609,93.4292 77.6942,92.4292 76,90.5C 75.0979,90.7432 74.2646,91.0766 73.5,91.5C 74.6774,89.9685 76.0107,88.4685 77.5,87C 75.5188,86.3946 75.1854,85.3946 76.5,84C 70.4964,83.6997 64.4964,83.8663 58.5,84.5C 59.6085,83.71 60.9419,83.21 62.5,83C 68.1667,82.6667 73.8333,82.3333 79.5,82C 86.3861,79.0546 93.0527,75.888 99.5,72.5 Z"/></g>
<g><path style="opacity:1" fill="#a0a3a5" d="M 32.5,79.5 C 33.8333,79.5 35.1667,79.5 36.5,79.5C 36.6602,81.1992 36.4935,82.8659 36,84.5C 35.3109,83.6433 34.4776,82.9767 33.5,82.5C 30.5505,84.1153 27.8838,86.1153 25.5,88.5C 25.1667,88.3333 24.8333,88.1667 24.5,88C 27.3714,85.2972 30.0381,82.4639 32.5,79.5 Z"/></g>
<g><path style="opacity:1" fill="#464449" d="M 73.5,91.5 C 73.0618,91.4346 72.7284,91.6012 72.5,92C 73.5159,93.6768 74.5159,95.3435 75.5,97C 75.4301,97.7648 75.0967,98.2648 74.5,98.5C 71.7147,98.067 69.3813,96.7337 67.5,94.5C 64.1771,95.9378 63.8438,97.7711 66.5,100C 64.4961,101.562 62.4961,102.062 60.5,101.5C 61.3421,96.6835 59.3421,95.0169 54.5,96.5C 53.7813,94.1119 52.1146,92.6119 49.5,92C 46.594,90.6815 43.594,90.3482 40.5,91C 37.449,94.2989 34.7823,97.7989 32.5,101.5C 33.8034,90.9784 39.3034,87.3117 49,90.5C 50.1451,89.3636 51.3117,88.3636 52.5,87.5C 54.5739,86.4861 56.5739,85.4861 58.5,84.5C 64.4964,83.8663 70.4964,83.6997 76.5,84C 75.1854,85.3946 75.5188,86.3946 77.5,87C 76.0107,88.4685 74.6774,89.9685 73.5,91.5 Z"/></g>
<g><path style="opacity:1" fill="#849e94" d="M 113.5,75.5 C 108.674,79.7935 103.341,83.6269 97.5,87C 93.8645,89.2722 89.8645,90.6055 85.5,91C 84.13,92.4413 83.13,94.108 82.5,96C 78.734,94.7454 76.9006,96.2454 77,100.5C 75.9887,101.337 74.8221,101.67 73.5,101.5C 74.1098,100.609 74.4431,99.609 74.5,98.5C 75.0967,98.2648 75.4301,97.7648 75.5,97C 74.5159,95.3435 73.5159,93.6768 72.5,92C 72.7284,91.6012 73.0618,91.4346 73.5,91.5C 74.2646,91.0766 75.0979,90.7432 76,90.5C 77.6942,92.4292 79.8609,93.4292 82.5,93.5C 81.9426,91.0509 81.9426,88.7175 82.5,86.5C 84.3746,85.1639 85.7079,85.6639 86.5,88C 90.8048,88.2356 91.8048,86.7356 89.5,83.5C 92.0339,80.8336 94.2006,81.1669 96,84.5C 96.5,84.1667 97,83.8333 97.5,83.5C 98.0522,81.9974 98.0522,80.3307 97.5,78.5C 99.8211,78.2289 101.821,78.8955 103.5,80.5C 105.756,79.5791 106.756,77.9124 106.5,75.5C 108.756,74.5615 111.09,74.5615 113.5,75.5 Z"/></g>
<g><path style="opacity:1" fill="#5a584c" d="M 48.5,82.5 C 50.3588,82.4609 51.6921,83.2942 52.5,85C 50.1582,86.3919 50.1582,87.2252 52.5,87.5C 51.3117,88.3636 50.1451,89.3636 49,90.5C 39.3034,87.3117 33.8034,90.9784 32.5,101.5C 32.0831,102.124 31.4164,102.457 30.5,102.5C 28.4371,101.488 26.4371,100.488 24.5,99.5C 25.8734,99.6567 27.2068,99.49 28.5,99C 29.3617,96.2656 30.195,96.0989 31,98.5C 31.0454,95.666 31.8787,93.166 33.5,91C 38.3857,86.9174 43.3857,84.084 48.5,82.5 Z"/></g>
<g><path style="opacity:1" fill="#313133" d="M 60.5,101.5 C 58.5648,102.15 56.5648,102.483 54.5,102.5C 54.5,100.833 54.5,99.1667 54.5,97.5C 54.5,97.1667 54.5,96.8333 54.5,96.5C 59.3421,95.0169 61.3421,96.6835 60.5,101.5 Z"/></g>
<g><path style="opacity:1" fill="#8c9e9a" d="M 72.5,101.5 C 69.8687,104.337 66.5354,105.67 62.5,105.5C 63.0483,102.916 64.715,101.916 67.5,102.5C 67.5,101.5 67.5,100.5 67.5,99.5C 69.1992,99.3398 70.8659,99.5065 72.5,100C 71.2617,100.69 71.2617,101.19 72.5,101.5 Z"/></g>
<g><path style="opacity:1" fill="#636869" d="M 74.5,98.5 C 74.4431,99.609 74.1098,100.609 73.5,101.5C 73.1667,101.5 72.8333,101.5 72.5,101.5C 71.2617,101.19 71.2617,100.69 72.5,100C 70.8659,99.5065 69.1992,99.3398 67.5,99.5C 67.5,100.5 67.5,101.5 67.5,102.5C 64.715,101.916 63.0483,102.916 62.5,105.5C 62.4709,108.656 60.8043,110.322 57.5,110.5C 54.1003,106.579 53.1003,102.245 54.5,97.5C 54.5,99.1667 54.5,100.833 54.5,102.5C 56.5648,102.483 58.5648,102.15 60.5,101.5C 62.4961,102.062 64.4961,101.562 66.5,100C 63.8438,97.7711 64.1771,95.9378 67.5,94.5C 69.3813,96.7337 71.7147,98.067 74.5,98.5 Z"/></g>
</svg>
