<?xml version="1.0" encoding="UTF-8"?>
<!DOCTYPE svg PUBLIC "-//W3C//DTD SVG 1.1//EN" "http://www.w3.org/Graphics/SVG/1.1/DTD/svg11.dtd">
<svg xmlns="http://www.w3.org/2000/svg" version="1.1" width="166px" height="158px" style="shape-rendering:geometricPrecision; text-rendering:geometricPrecision; image-rendering:optimizeQuality; fill-rule:evenodd; clip-rule:evenodd" xmlns:xlink="http://www.w3.org/1999/xlink">
<g><path style="opacity:1" fill="#f5f5f5" d="M -0.5,-0.5 C 54.8333,-0.5 110.167,-0.5 165.5,-0.5C 165.5,52.1667 165.5,104.833 165.5,157.5C 110.167,157.5 54.8333,157.5 -0.5,157.5C -0.5,104.833 -0.5,52.1667 -0.5,-0.5 Z"/></g>
<g><path style="opacity:1" fill="#4e626c" d="M 70.5,10.5 C 67.1625,8.66958 65.4958,9.66958 65.5,13.5C 63.6512,9.50618 64.9845,8.00618 69.5,9C 70.056,9.38258 70.3893,9.88258 70.5,10.5 Z"/></g>
<g><path style="opacity:1" fill="#eceeef" d="M 70.5,10.5 C 74.6069,18.5956 72.9402,19.5956 65.5,13.5C 65.4958,9.66958 67.1625,8.66958 70.5,10.5 Z"/></g>
<g><path style="opacity:1" fill="#7c959d" d="M 92.5,14.5 C 91.119,16.2741 91.4523,17.7741 93.5,19C 90.248,17.7185 88.248,18.8852 87.5,22.5C 84.2891,24.2123 82.4557,26.879 82,30.5C 80.5939,25.3612 78.4273,20.6946 75.5,16.5C 81.0452,14.9785 86.7119,14.3118 92.5,14.5 Z"/></g>
<g><path style="opacity:1" fill="#5e7683" d="M 70.5,10.5 C 72.1667,12.5 73.8333,14.5 75.5,16.5C 78.4273,20.6946 80.5939,25.3612 82,30.5C 82.4557,26.879 84.2891,24.2123 87.5,22.5C 88.0577,23.7899 89.0577,24.6232 90.5,25C 90.1667,25.3333 89.8333,25.6667 89.5,26C 91.7848,30.3754 93.4515,35.0421 94.5,40C 94.3552,40.772 94.0219,41.4387 93.5,42C 91.8659,42.4935 90.1992,42.6602 88.5,42.5C 84.2673,41.2057 79.9339,41.2057 75.5,42.5C 73.8744,35.7482 71.541,29.2482 68.5,23C 68.8333,22 69.1667,21 69.5,20C 67.2785,18.3921 65.9451,16.2255 65.5,13.5C 72.9402,19.5956 74.6069,18.5956 70.5,10.5 Z"/></g>
<g><path style="opacity:1" fill="#5e6b72" d="M 92.5,14.5 C 100.401,14.7051 108.068,15.0384 115.5,15.5C 110.676,15.9924 106.01,16.659 101.5,17.5C 102.12,24.2537 101.454,31.0871 99.5,38C 100.781,47.6705 102.781,57.1705 105.5,66.5C 110.889,89.281 111.889,112.281 108.5,135.5C 108.511,137.045 108.844,138.378 109.5,139.5C 109.423,140.75 108.756,141.583 107.5,142C 105.288,142.789 103.288,142.622 101.5,141.5C 101.577,140.25 102.244,139.417 103.5,139C 100.944,136.325 101.277,133.825 104.5,131.5C 102.615,130.803 102.282,129.803 103.5,128.5C 101.898,125.731 100.898,122.731 100.5,119.5C 101.421,117.185 102.754,117.018 104.5,119C 102.165,120.52 102.332,122.02 105,123.5C 105.944,122.737 106.444,121.737 106.5,120.5C 105.669,118.527 105.502,116.527 106,114.5C 107.049,115.517 108.216,115.684 109.5,115C 106.833,114.333 106.833,113.667 109.5,113C 108.5,112.667 107.5,112.333 106.5,112C 109.416,109.929 109.082,108.595 105.5,108C 107.952,106.194 107.619,104.694 104.5,103.5C 107.076,102.117 106.742,101.283 103.5,101C 105.671,99.8261 106.671,97.9928 106.5,95.5C 102.063,95.1202 101.396,93.2869 104.5,90C 104.406,87.0459 103.906,86.8792 103,89.5C 102.25,88.8742 101.416,88.3742 100.5,88C 101.833,87.3333 101.833,86.6667 100.5,86C 101.167,85.6667 101.833,85.3333 102.5,85C 100.842,84.2747 100.342,83.108 101,81.5C 103.882,83.7752 104.215,83.1085 102,79.5C 101.329,80.2524 100.496,80.5858 99.5,80.5C 97.7123,71.5597 95.0456,62.8931 91.5,54.5C 91.7093,53.914 92.0426,53.414 92.5,53C 89.8699,51.1019 89.5365,49.2686 91.5,47.5C 89.3278,46.066 87.1611,45.7326 85,46.5C 81.8725,45.7963 78.7058,45.2963 75.5,45C 79.8379,43.8945 84.1712,43.0611 88.5,42.5C 90.1992,42.6602 91.8659,42.4935 93.5,42C 94.0219,41.4387 94.3552,40.772 94.5,40C 93.4515,35.0421 91.7848,30.3754 89.5,26C 89.8333,25.6667 90.1667,25.3333 90.5,25C 89.0577,24.6232 88.0577,23.7899 87.5,22.5C 88.248,18.8852 90.248,17.7185 93.5,19C 91.4523,17.7741 91.119,16.2741 92.5,14.5 Z"/></g>
<g><path style="opacity:1" fill="#303131" d="M 101.5,17.5 C 101.337,19.8568 101.503,22.1902 102,24.5C 103.049,23.4829 104.216,23.3162 105.5,24C 108.694,28.7505 111.361,28.4172 113.5,23C 114.635,22.2506 115.635,22.4173 116.5,23.5C 116.291,24.086 115.957,24.586 115.5,25C 116.353,42.8379 116.853,60.6713 117,78.5C 112.935,74.6046 109.102,70.6046 105.5,66.5C 102.781,57.1705 100.781,47.6705 99.5,38C 101.454,31.0871 102.12,24.2537 101.5,17.5 Z"/></g>
<g><path style="opacity:1" fill="#5c676b" d="M 111.5,40.5 C 111.626,42.1998 112.293,43.6998 113.5,45C 110.833,47.6667 110.833,50.3333 113.5,53C 112.99,54.8261 112.156,54.9928 111,53.5C 109.991,51.9751 109.491,50.3084 109.5,48.5C 110.822,46.1979 110.822,43.8646 109.5,41.5C 109.957,40.7025 110.624,40.3691 111.5,40.5 Z"/></g>
<g><path style="opacity:1" fill="#d7dbdd" d="M 51.5,53.5 C 53.8583,53.2525 55.8583,53.9192 57.5,55.5C 55.8361,56.7432 54.6695,58.4098 54,60.5C 53.2917,59.6195 52.4584,58.9528 51.5,58.5C 50.1667,56.8333 50.1667,55.1667 51.5,53.5 Z"/></g>
<g><path style="opacity:1" fill="#738288" d="M 51.5,53.5 C 52.9464,52.3871 54.6131,52.2204 56.5,53C 57.2524,53.6708 57.5858,54.5041 57.5,55.5C 55.8583,53.9192 53.8583,53.2525 51.5,53.5 Z"/></g>
<g><path style="opacity:1" fill="#3b4446" d="M 110.5,60.5 C 111.853,58.8716 111.519,57.5383 109.5,56.5C 108.343,53.6926 108.343,51.0259 109.5,48.5C 109.491,50.3084 109.991,51.9751 111,53.5C 112.156,54.9928 112.99,54.8261 113.5,53C 110.833,50.3333 110.833,47.6667 113.5,45C 112.293,43.6998 111.626,42.1998 111.5,40.5C 111.34,38.8008 111.506,37.1341 112,35.5C 112.667,36.8333 113.333,36.8333 114,35.5C 114.5,44.1603 114.666,52.8269 114.5,61.5C 112.901,61.7678 111.568,61.4345 110.5,60.5 Z"/></g>
<g><path style="opacity:1" fill="#798990" d="M 69.5,51.5 C 68.9251,53.6065 67.9251,55.9398 66.5,58.5C 65.3755,62.6748 64.0422,66.6748 62.5,70.5C 61.8592,69.5178 61.1925,68.5178 60.5,67.5C 55.7958,66.1292 52.7958,63.1292 51.5,58.5C 52.4584,58.9528 53.2917,59.6195 54,60.5C 54.6695,58.4098 55.8361,56.7432 57.5,55.5C 58.1174,55.6107 58.6174,55.944 59,56.5C 62.1994,54.117 65.6994,52.4503 69.5,51.5 Z"/></g>
<g><path style="opacity:1" fill="#819aa1" d="M 88.5,42.5 C 84.1712,43.0611 79.8379,43.8945 75.5,45C 78.7058,45.2963 81.8725,45.7963 85,46.5C 87.1611,45.7326 89.3278,46.066 91.5,47.5C 89.5365,49.2686 89.8699,51.1019 92.5,53C 92.0426,53.414 91.7093,53.914 91.5,54.5C 95.0456,62.8931 97.7123,71.5597 99.5,80.5C 99.7839,83.7766 99.4505,86.9433 98.5,90C 101.106,91.6501 101.106,93.1501 98.5,94.5C 98.5,93.5 98.5,92.5 98.5,91.5C 89.5314,92.8938 84.5314,88.8938 83.5,79.5C 85.717,80.3686 88.0504,80.702 90.5,80.5C 89.8067,69.7354 88.4733,59.0688 86.5,48.5C 82.1667,48.5 77.8333,48.5 73.5,48.5C 74.1667,46.5 74.8333,44.5 75.5,42.5C 79.9339,41.2057 84.2673,41.2057 88.5,42.5 Z"/></g>
<g><path style="opacity:1" fill="#b4b8b8" d="M 109.5,56.5 C 111.519,57.5383 111.853,58.8716 110.5,60.5C 109.566,59.4324 109.232,58.099 109.5,56.5 Z"/></g>
<g><path style="opacity:1" fill="#4d6774" d="M 73.5,48.5 C 77.8333,48.5 82.1667,48.5 86.5,48.5C 88.4733,59.0688 89.8067,69.7354 90.5,80.5C 88.0504,80.702 85.717,80.3686 83.5,79.5C 82.2395,82.2578 81.4061,85.2578 81,88.5C 80.7468,85.2104 79.7468,82.2104 78,79.5C 76.9563,80.6226 76.2896,81.9559 76,83.5C 73.8797,82.3947 71.7131,82.3947 69.5,83.5C 68.5,83.1667 67.8333,82.5 67.5,81.5C 67.0098,76.4932 67.8432,75.8265 70,79.5C 70.6667,78.8333 71.3333,78.1667 72,77.5C 72.8519,74.0116 74.0185,70.6783 75.5,67.5C 74.6034,67.3309 73.6034,66.9976 72.5,66.5C 74.9148,64.9911 75.0815,63.3245 73,61.5C 72.3333,62.1667 71.6667,62.8333 71,63.5C 69.7308,62.0953 69.2308,60.4286 69.5,58.5C 68.5,58.5 67.5,58.5 66.5,58.5C 67.9251,55.9398 68.9251,53.6065 69.5,51.5C 71.6188,51.5323 72.9522,50.5323 73.5,48.5 Z"/></g>
<g><path style="opacity:1" fill="#839ba2" d="M 66.5,58.5 C 67.5,58.5 68.5,58.5 69.5,58.5C 69.2308,60.4286 69.7308,62.0953 71,63.5C 71.6667,62.8333 72.3333,62.1667 73,61.5C 75.0815,63.3245 74.9148,64.9911 72.5,66.5C 73.6034,66.9976 74.6034,67.3309 75.5,67.5C 74.0185,70.6783 72.8519,74.0116 72,77.5C 71.3333,78.1667 70.6667,78.8333 70,79.5C 67.8432,75.8265 67.0098,76.4932 67.5,81.5C 66.5489,80.0813 66.2155,78.4147 66.5,76.5C 61.719,76.8334 60.3857,74.8334 62.5,70.5C 64.0422,66.6748 65.3755,62.6748 66.5,58.5 Z"/></g>
<g><path style="opacity:1" fill="#2b2b2b" d="M 119.5,116.5 C 118.057,117.335 117.057,118.668 116.5,120.5C 115.286,118.141 115.286,115.808 116.5,113.5C 116.5,112.5 116.5,111.5 116.5,110.5C 116.665,106.818 116.499,103.152 116,99.5C 115.333,98.8333 114.667,98.1667 114,97.5C 113.667,106.167 113.333,114.833 113,123.5C 111.041,126.48 111.207,129.147 113.5,131.5C 113.104,134.721 111.771,137.388 109.5,139.5C 108.844,138.378 108.511,137.045 108.5,135.5C 111.889,112.281 110.889,89.281 105.5,66.5C 109.102,70.6046 112.935,74.6046 117,78.5C 116.853,60.6713 116.353,42.8379 115.5,25C 115.957,24.586 116.291,24.086 116.5,23.5C 115.635,22.4173 114.635,22.2506 113.5,23C 111.361,28.4172 108.694,28.7505 105.5,24C 104.216,23.3162 103.049,23.4829 102,24.5C 101.503,22.1902 101.337,19.8568 101.5,17.5C 106.01,16.659 110.676,15.9924 115.5,15.5C 115.987,16.4734 116.487,17.4734 117,18.5C 117.667,1.16667 118.333,1.16667 119,18.5C 119.5,51.165 119.667,83.8316 119.5,116.5 Z"/></g>
<g><path style="opacity:1" fill="#5b7583" d="M 83.5,79.5 C 84.5314,88.8938 89.5314,92.8938 98.5,91.5C 98.5,92.5 98.5,93.5 98.5,94.5C 97.4777,100.813 96.9777,107.147 97,113.5C 97.3333,111.5 97.6667,109.5 98,107.5C 99.6819,108.865 99.8486,110.365 98.5,112C 100.283,113.067 100.783,114.567 100,116.5C 99.6667,115.5 99.3333,114.5 99,113.5C 98.5034,120.503 97.8368,120.837 97,114.5C 96,120.5 95,126.5 94,132.5C 93.7216,131.584 93.2216,130.918 92.5,130.5C 92.2172,123.732 90.5505,117.399 87.5,111.5C 88.4153,105.65 86.2487,100.983 81,97.5C 80.1136,101.072 78.947,100.905 77.5,97C 79.9004,94.9047 79.2337,93.7381 75.5,93.5C 74.3701,89.6903 72.3701,86.357 69.5,83.5C 71.7131,82.3947 73.8797,82.3947 76,83.5C 76.2896,81.9559 76.9563,80.6226 78,79.5C 79.7468,82.2104 80.7468,85.2104 81,88.5C 81.4061,85.2578 82.2395,82.2578 83.5,79.5 Z"/></g>
<g><path style="opacity:1" fill="#9cb4ba" d="M 75.5,93.5 C 79.2337,93.7381 79.9004,94.9047 77.5,97C 78.947,100.905 80.1136,101.072 81,97.5C 86.2487,100.983 88.4153,105.65 87.5,111.5C 84.4405,110.843 82.9405,108.843 83,105.5C 78.6064,102.622 76.1064,98.6216 75.5,93.5 Z"/></g>
<g><path style="opacity:1" fill="#6f8089" d="M 101.5,141.5 C 94.5623,141.218 91.5623,137.552 92.5,130.5C 93.2216,130.918 93.7216,131.584 94,132.5C 95,126.5 96,120.5 97,114.5C 97.8368,120.837 98.5034,120.503 99,113.5C 99.3333,114.5 99.6667,115.5 100,116.5C 100.783,114.567 100.283,113.067 98.5,112C 99.8486,110.365 99.6819,108.865 98,107.5C 97.6667,109.5 97.3333,111.5 97,113.5C 96.9777,107.147 97.4777,100.813 98.5,94.5C 101.106,93.1501 101.106,91.6501 98.5,90C 99.4505,86.9433 99.7839,83.7766 99.5,80.5C 100.496,80.5858 101.329,80.2524 102,79.5C 104.215,83.1085 103.882,83.7752 101,81.5C 100.342,83.108 100.842,84.2747 102.5,85C 101.833,85.3333 101.167,85.6667 100.5,86C 101.833,86.6667 101.833,87.3333 100.5,88C 101.416,88.3742 102.25,88.8742 103,89.5C 103.906,86.8792 104.406,87.0459 104.5,90C 101.396,93.2869 102.063,95.1202 106.5,95.5C 106.671,97.9928 105.671,99.8261 103.5,101C 106.742,101.283 107.076,102.117 104.5,103.5C 107.619,104.694 107.952,106.194 105.5,108C 109.082,108.595 109.416,109.929 106.5,112C 107.5,112.333 108.5,112.667 109.5,113C 106.833,113.667 106.833,114.333 109.5,115C 108.216,115.684 107.049,115.517 106,114.5C 105.502,116.527 105.669,118.527 106.5,120.5C 106.444,121.737 105.944,122.737 105,123.5C 102.332,122.02 102.165,120.52 104.5,119C 102.754,117.018 101.421,117.185 100.5,119.5C 100.898,122.731 101.898,125.731 103.5,128.5C 102.282,129.803 102.615,130.803 104.5,131.5C 101.277,133.825 100.944,136.325 103.5,139C 102.244,139.417 101.577,140.25 101.5,141.5 Z"/></g>
<g><path style="opacity:1" fill="#cecece" d="M 116.5,110.5 C 116.5,111.5 116.5,112.5 116.5,113.5C 113.833,112.5 113.833,111.5 116.5,110.5 Z"/></g>
<g><path style="opacity:1" fill="#474747" d="M 116.5,110.5 C 113.833,111.5 113.833,112.5 116.5,113.5C 115.286,115.808 115.286,118.141 116.5,120.5C 117.057,118.668 118.057,117.335 119.5,116.5C 119.764,125.546 119.264,134.546 118,143.5C 116.737,136.272 116.07,128.939 116,121.5C 115.974,125.139 115.14,128.472 113.5,131.5C 111.207,129.147 111.041,126.48 113,123.5C 113.333,114.833 113.667,106.167 114,97.5C 114.667,98.1667 115.333,98.8333 116,99.5C 116.499,103.152 116.665,106.818 116.5,110.5 Z"/></g>
</svg>
