<?xml version="1.0" encoding="UTF-8"?>
<!DOCTYPE svg PUBLIC "-//W3C//DTD SVG 1.1//EN" "http://www.w3.org/Graphics/SVG/1.1/DTD/svg11.dtd">
<svg xmlns="http://www.w3.org/2000/svg" version="1.1" width="166px" height="158px" style="shape-rendering:geometricPrecision; text-rendering:geometricPrecision; image-rendering:optimizeQuality; fill-rule:evenodd; clip-rule:evenodd" xmlns:xlink="http://www.w3.org/1999/xlink">
<g><path style="opacity:1" fill="#f5f5f5" d="M -0.5,-0.5 C 54.8333,-0.5 110.167,-0.5 165.5,-0.5C 165.5,52.1667 165.5,104.833 165.5,157.5C 110.167,157.5 54.8333,157.5 -0.5,157.5C -0.5,104.833 -0.5,52.1667 -0.5,-0.5 Z"/></g>
<g><path style="opacity:1" fill="#b5b7b8" d="M 48.5,31.5 C 47.506,33.3344 47.506,35.0011 48.5,36.5C 48.5,37.8333 47.8333,38.5 46.5,38.5C 46.7525,35.6802 46.2525,33.0135 45,30.5C 44.8019,32.3817 44.3019,34.0484 43.5,35.5C 43.3776,30.7682 43.8776,26.1016 45,21.5C 46.1268,24.3771 46.7935,27.3771 47,30.5C 47.3826,31.056 47.8826,31.3893 48.5,31.5 Z"/></g>
<g><path style="opacity:1" fill="#818c95" d="M 53.5,69.5 C 52.6446,66.8245 51.478,64.1579 50,61.5C 49.6667,63.8333 49.3333,66.1667 49,68.5C 48.6232,67.0577 47.7899,66.0577 46.5,65.5C 47.1371,62.544 47.6371,59.544 48,56.5C 48.7096,55.0267 49.8762,54.3601 51.5,54.5C 51.8064,51.6146 51.4731,48.9479 50.5,46.5C 50.4431,45.391 50.1098,44.391 49.5,43.5C 50.4972,43.5299 51.1639,43.0299 51.5,42C 50.9561,40.415 50.2894,38.915 49.5,37.5C 50.8221,37.67 51.9887,37.3366 53,36.5C 53.2734,34.8988 53.7734,33.3988 54.5,32C 53.9747,31.3076 53.3081,30.8076 52.5,30.5C 51.1993,32.444 50.1993,34.444 49.5,36.5C 49.1667,36.5 48.8333,36.5 48.5,36.5C 47.506,35.0011 47.506,33.3344 48.5,31.5C 49.3065,30.2719 50.3065,29.2719 51.5,28.5C 52.1577,27.6016 52.8243,26.6016 53.5,25.5C 55.1661,26.9921 56.1661,28.8255 56.5,31C 55.7146,43.9043 54.7146,56.7376 53.5,69.5 Z"/></g>
<g><path style="opacity:1" fill="#96a0a9" d="M 69.5,14.5 C 69.1667,15.5 68.5,16.1667 67.5,16.5C 66.6851,17.4293 65.8518,18.4293 65,19.5C 63.7258,25.9807 62.0591,32.314 60,38.5C 59.1667,39.5 58.3333,40.5 57.5,41.5C 55.9874,55.0775 56.3207,68.5775 58.5,82C 58.0801,90.0548 57.0801,97.8881 55.5,105.5C 54.8333,104.833 54.1667,104.167 53.5,103.5C 54.6335,96.2984 54.6335,89.2984 53.5,82.5C 54.4575,78.3305 54.4575,73.9972 53.5,69.5C 54.7146,56.7376 55.7146,43.9043 56.5,31C 56.1661,28.8255 55.1661,26.9921 53.5,25.5C 52.8243,26.6016 52.1577,27.6016 51.5,28.5C 51.8413,16.8428 57.8413,12.1761 69.5,14.5 Z"/></g>
<g><path style="opacity:1" fill="#b9b8b6" d="M 49.5,37.5 C 49.5,37.1667 49.5,36.8333 49.5,36.5C 50.1993,34.444 51.1993,32.444 52.5,30.5C 53.3081,30.8076 53.9747,31.3076 54.5,32C 53.7734,33.3988 53.2734,34.8988 53,36.5C 51.9887,37.3366 50.8221,37.67 49.5,37.5 Z"/></g>
<g><path style="opacity:1" fill="#6e6e6e" d="M 46.5,38.5 C 45.7784,38.0825 45.2784,37.4158 45,36.5C 44.8138,39.0356 44.3138,41.369 43.5,43.5C 43.5,40.8333 43.5,38.1667 43.5,35.5C 44.3019,34.0484 44.8019,32.3817 45,30.5C 46.2525,33.0135 46.7525,35.6802 46.5,38.5 Z"/></g>
<g><path style="opacity:1" fill="#ececed" d="M 49.5,43.5 C 50.1098,44.391 50.4431,45.391 50.5,46.5C 50.189,47.4778 49.5223,48.1445 48.5,48.5C 47.359,46.5787 47.1923,44.5787 48,42.5C 48.3826,43.056 48.8826,43.3893 49.5,43.5 Z"/></g>
<g><path style="opacity:1" fill="#e3e5e8" d="M 70.5,15.5 C 71.4584,15.9528 72.2917,16.6195 73,17.5C 76.2342,24.4312 78.2342,31.7645 79,39.5C 79.9147,40.3279 80.5814,41.3279 81,42.5C 81.4346,47.9071 81.7679,53.2405 82,58.5C 81,57.8333 80,57.1667 79,56.5C 78.4436,58.8848 78.6103,61.2181 79.5,63.5C 77.5012,62.1435 76.3345,62.8101 76,65.5C 75.8898,63.1517 74.7231,61.6517 72.5,61C 76.19,60.5756 76.3567,59.7423 73,58.5C 72.6667,58.8333 72.3333,59.1667 72,59.5C 71.2195,58.0563 71.3861,56.723 72.5,55.5C 73.1924,56.0253 73.6924,56.6919 74,57.5C 74.8808,55.7265 76.0475,55.0598 77.5,55.5C 75.6721,54.2048 73.6721,53.2048 71.5,52.5C 72.4604,51.1877 72.2937,49.8544 71,48.5C 70.5,49.6667 69.6667,50.5 68.5,51C 69.3081,51.3076 69.9747,51.8076 70.5,52.5C 69.4783,53.354 68.6449,54.354 68,55.5C 66.1489,53.9601 64.9822,52.4601 64.5,51C 66.924,47.9777 67.5907,44.6444 66.5,41C 67.605,36.374 68.9383,31.874 70.5,27.5C 68.4372,23.5666 68.4372,19.5666 70.5,15.5 Z"/></g>
<g><path style="opacity:1" fill="#303131" d="M 46.5,38.5 C 46.6655,42.5138 46.4988,46.5138 46,50.5C 43.841,52.9563 43.0077,52.2896 43.5,48.5C 43.5,46.8333 43.5,45.1667 43.5,43.5C 44.3138,41.369 44.8138,39.0356 45,36.5C 45.2784,37.4158 45.7784,38.0825 46.5,38.5 Z"/></g>
<g><path style="opacity:1" fill="#767e84" d="M 48.5,36.5 C 48.8333,36.5 49.1667,36.5 49.5,36.5C 49.5,36.8333 49.5,37.1667 49.5,37.5C 50.2894,38.915 50.9561,40.415 51.5,42C 51.1639,43.0299 50.4972,43.5299 49.5,43.5C 48.8826,43.3893 48.3826,43.056 48,42.5C 47.1923,44.5787 47.359,46.5787 48.5,48.5C 49.5223,48.1445 50.189,47.4778 50.5,46.5C 51.4731,48.9479 51.8064,51.6146 51.5,54.5C 49.8762,54.3601 48.7096,55.0267 48,56.5C 47.6371,59.544 47.1371,62.544 46.5,65.5C 45.8501,65.1961 45.1835,64.8627 44.5,64.5C 43.513,67.7683 43.1796,71.1016 43.5,74.5C 43.5,76.8333 43.5,79.1667 43.5,81.5C 43.5,94.8333 43.5,108.167 43.5,121.5C 42.1667,97.1667 42.1667,72.8333 43.5,48.5C 43.0077,52.2896 43.841,52.9563 46,50.5C 46.4988,46.5138 46.6655,42.5138 46.5,38.5C 47.8333,38.5 48.5,37.8333 48.5,36.5 Z"/></g>
<g><path style="opacity:1" fill="#d6d7dc" d="M 69.5,14.5 C 70.1667,14.5 70.5,14.8333 70.5,15.5C 68.4372,19.5666 68.4372,23.5666 70.5,27.5C 68.9383,31.874 67.605,36.374 66.5,41C 67.5907,44.6444 66.924,47.9777 64.5,51C 64.9822,52.4601 66.1489,53.9601 68,55.5C 68.6449,54.354 69.4783,53.354 70.5,52.5C 69.9747,51.8076 69.3081,51.3076 68.5,51C 69.6667,50.5 70.5,49.6667 71,48.5C 72.2937,49.8544 72.4604,51.1877 71.5,52.5C 73.6721,53.2048 75.6721,54.2048 77.5,55.5C 76.0475,55.0598 74.8808,55.7265 74,57.5C 73.6924,56.6919 73.1924,56.0253 72.5,55.5C 71.3861,56.723 71.2195,58.0563 72,59.5C 72.3333,59.1667 72.6667,58.8333 73,58.5C 76.3567,59.7423 76.19,60.5756 72.5,61C 74.7231,61.6517 75.8898,63.1517 76,65.5C 76.3345,62.8101 77.5012,62.1435 79.5,63.5C 80.9335,62.1667 82.2668,60.6667 83.5,59C 84.1667,58.3333 84.8333,58.3333 85.5,59C 83.3813,61.2185 83.048,63.7185 84.5,66.5C 86.0062,67.2301 87.3395,67.5634 88.5,67.5C 87.624,68.2508 86.624,68.7508 85.5,69C 86.1095,71.0581 87.1095,71.8914 88.5,71.5C 85.7476,74.7604 85.9143,77.7604 89,80.5C 89.3333,79.5 89.6667,78.5 90,77.5C 92.405,78.2744 94.905,78.7744 97.5,79C 94.5637,79.7848 92.5637,80.9514 91.5,82.5C 89.9304,84.8511 89.0971,87.5177 89,90.5C 86.9154,89.3531 85.4154,90.0197 84.5,92.5C 82.9622,89.0272 80.9622,85.8605 78.5,83C 77.2559,82.5439 76.4226,83.0439 76,84.5C 75.6667,84.1667 75.3333,83.8333 75,83.5C 74.5,84.5 74,85.5 73.5,86.5C 76.1329,87.3178 77.2995,88.9845 77,91.5C 74.5474,87.731 74.0474,88.231 75.5,93C 75.1639,94.0299 74.4972,94.5299 73.5,94.5C 72.3145,89.4235 72.4812,84.4235 74,79.5C 75.8254,78.8971 77.6587,78.2304 79.5,77.5C 75.3282,73.6534 70.8282,72.9868 66,75.5C 65.5172,76.448 65.3505,77.448 65.5,78.5C 64.6909,80.2922 64.1909,82.2922 64,84.5C 59.3156,71.2406 57.9823,57.5739 60,43.5C 62.1485,42.0226 63.4818,40.0226 64,37.5C 64.371,30.3537 65.5377,23.3537 67.5,16.5C 68.5,16.1667 69.1667,15.5 69.5,14.5 Z"/></g>
<g><path style="opacity:1" fill="#2b2d2e" d="M 46.5,65.5 C 46.5,67.5 46.5,69.5 46.5,71.5C 45.2719,72.3065 44.2719,73.3065 43.5,74.5C 43.1796,71.1016 43.513,67.7683 44.5,64.5C 45.1835,64.8627 45.8501,65.1961 46.5,65.5 Z"/></g>
<g><path style="opacity:1" fill="#717f89" d="M 53.5,69.5 C 54.4575,73.9972 54.4575,78.3305 53.5,82.5C 53.0133,81.5266 52.5133,80.5266 52,79.5C 51.2419,81.7695 51.4086,83.9361 52.5,86C 51.552,86.4828 50.552,86.6495 49.5,86.5C 48.9688,84.4559 47.8022,82.7893 46,81.5C 45.3412,78.1119 45.5078,74.7786 46.5,71.5C 46.5,69.5 46.5,67.5 46.5,65.5C 47.7899,66.0577 48.6232,67.0577 49,68.5C 49.3333,66.1667 49.6667,63.8333 50,61.5C 51.478,64.1579 52.6446,66.8245 53.5,69.5 Z"/></g>
<g><path style="opacity:1" fill="#dfdfe2" d="M 93.5,83.5 C 93.7286,85.433 94.5619,87.0997 96,88.5C 97.8634,85.096 99.6967,84.9293 101.5,88C 100.016,89.5737 98.3492,90.907 96.5,92C 98.3774,92.5758 100.211,92.4091 102,91.5C 103.505,92.6727 105.005,93.8393 106.5,95C 105.833,95.6667 105.167,96.3333 104.5,97C 102.044,96.9357 99.7111,97.1023 97.5,97.5C 97.728,95.6453 97.0613,94.8119 95.5,95C 93.1337,98.2257 91.1337,101.726 89.5,105.5C 88.7492,104.624 88.2492,103.624 88,102.5C 87.6667,102.833 87.3333,103.167 87,103.5C 85.4447,97.4365 87.6114,92.9365 93.5,90C 92.1888,87.7265 92.1888,85.5598 93.5,83.5 Z"/></g>
<g><path style="opacity:1" fill="#939492" d="M 53.5,82.5 C 54.6335,89.2984 54.6335,96.2984 53.5,103.5C 53.5386,104.756 53.0386,105.756 52,106.5C 51.082,102.72 50.2487,99.0536 49.5,95.5C 49.5,92.5 49.5,89.5 49.5,86.5C 50.552,86.6495 51.552,86.4828 52.5,86C 51.4086,83.9361 51.2419,81.7695 52,79.5C 52.5133,80.5266 53.0133,81.5266 53.5,82.5 Z"/></g>
<g><path style="opacity:1" fill="#9496a2" d="M 73.5,94.5 C 75.1364,102.838 77.4698,111.004 80.5,119C 80.4301,119.765 80.0967,120.265 79.5,120.5C 74.8506,110.39 70.684,100.057 67,89.5C 65.8924,85.9137 65.3924,82.247 65.5,78.5C 65.3505,77.448 65.5172,76.448 66,75.5C 70.8282,72.9868 75.3282,73.6534 79.5,77.5C 77.6587,78.2304 75.8254,78.8971 74,79.5C 72.4812,84.4235 72.3145,89.4235 73.5,94.5 Z"/></g>
<g><path style="opacity:1" fill="#5e666c" d="M 46.5,71.5 C 45.5078,74.7786 45.3412,78.1119 46,81.5C 47.8022,82.7893 48.9688,84.4559 49.5,86.5C 49.5,89.5 49.5,92.5 49.5,95.5C 49.7725,97.9582 48.7725,99.6249 46.5,100.5C 45.52,103.086 45.1866,105.753 45.5,108.5C 44.8389,106.866 44.5056,105.033 44.5,103C 45.2177,97.0974 45.8844,91.4307 46.5,86C 45.2189,84.5913 44.2189,83.0913 43.5,81.5C 43.5,79.1667 43.5,76.8333 43.5,74.5C 44.2719,73.3065 45.2719,72.3065 46.5,71.5 Z"/></g>
<g><path style="opacity:1" fill="#2b2c2d" d="M 43.5,81.5 C 44.2189,83.0913 45.2189,84.5913 46.5,86C 45.8844,91.4307 45.2177,97.0974 44.5,103C 44.5056,105.033 44.8389,106.866 45.5,108.5C 46.5088,116.116 46.3422,123.783 45,131.5C 44.7679,130.263 44.2679,129.263 43.5,128.5C 43.5,126.167 43.5,123.833 43.5,121.5C 43.5,108.167 43.5,94.8333 43.5,81.5 Z"/></g>
<g><path style="opacity:1" fill="#c6c5cb" d="M 91.5,82.5 C 92.4916,82.3284 93.1583,82.6618 93.5,83.5C 92.1888,85.5598 92.1888,87.7265 93.5,90C 87.6114,92.9365 85.4447,97.4365 87,103.5C 87.3333,103.167 87.6667,102.833 88,102.5C 88.2492,103.624 88.7492,104.624 89.5,105.5C 91.1337,101.726 93.1337,98.2257 95.5,95C 97.0613,94.8119 97.728,95.6453 97.5,97.5C 97.4828,99.5648 97.1495,101.565 96.5,103.5C 95.5,103.5 94.5,103.5 93.5,103.5C 92.5234,107.882 91.3567,112.216 90,116.5C 88.8837,120.288 89.5504,123.622 92,126.5C 92.7175,125.549 93.5509,125.383 94.5,126C 96.1918,127.307 97.5251,128.807 98.5,130.5C 98.1667,130.5 97.8333,130.5 97.5,130.5C 92.2884,132.561 88.9551,130.894 87.5,125.5C 86.2402,124.618 85.0736,123.618 84,122.5C 82.7508,124.992 81.5842,124.825 80.5,122C 78.7818,121.654 77.1151,121.154 75.5,120.5C 74.3691,122.074 74.2025,123.741 75,125.5C 76.308,128.73 77.308,132.064 78,135.5C 79.7583,136.469 80.2583,137.636 79.5,139C 81.1341,139.494 82.8008,139.66 84.5,139.5C 83.4863,140.674 82.153,141.34 80.5,141.5C 78.0948,140.232 75.4282,139.565 72.5,139.5C 71.0738,131.052 69.4071,122.719 67.5,114.5C 71.4706,114.485 74.4706,116.152 76.5,119.5C 77.4168,120.127 78.4168,120.461 79.5,120.5C 80.0967,120.265 80.4301,119.765 80.5,119C 77.4698,111.004 75.1364,102.838 73.5,94.5C 74.4972,94.5299 75.1639,94.0299 75.5,93C 74.0474,88.231 74.5474,87.731 77,91.5C 77.2995,88.9845 76.1329,87.3178 73.5,86.5C 74,85.5 74.5,84.5 75,83.5C 75.3333,83.8333 75.6667,84.1667 76,84.5C 76.4226,83.0439 77.2559,82.5439 78.5,83C 80.9622,85.8605 82.9622,89.0272 84.5,92.5C 85.4154,90.0197 86.9154,89.3531 89,90.5C 89.0971,87.5177 89.9304,84.8511 91.5,82.5 Z"/></g>
<g><path style="opacity:1" fill="#85919a" d="M 49.5,95.5 C 50.2487,99.0536 51.082,102.72 52,106.5C 53.0386,105.756 53.5386,104.756 53.5,103.5C 54.1667,104.167 54.8333,104.833 55.5,105.5C 56.3597,109.434 56.693,113.434 56.5,117.5C 55.8386,118.718 55.1719,120.051 54.5,121.5C 53.5505,119.402 53.5505,117.235 54.5,115C 54.1667,114.167 53.8333,113.333 53.5,112.5C 52.6024,115.616 51.9357,118.782 51.5,122C 52.9863,124.589 53.6529,127.423 53.5,130.5C 53.5191,132.06 53.8524,133.56 54.5,135C 52.9145,137.256 52.2479,139.756 52.5,142.5C 50.8297,142.249 49.3297,141.582 48,140.5C 45.5009,136.846 44.0009,132.846 43.5,128.5C 44.2679,129.263 44.7679,130.263 45,131.5C 46.3422,123.783 46.5088,116.116 45.5,108.5C 45.1866,105.753 45.52,103.086 46.5,100.5C 48.7725,99.6249 49.7725,97.9582 49.5,95.5 Z"/></g>
<g><path style="opacity:1" fill="#b0b5c0" d="M 67.5,16.5 C 65.5377,23.3537 64.371,30.3537 64,37.5C 63.4818,40.0226 62.1485,42.0226 60,43.5C 57.9823,57.5739 59.3156,71.2406 64,84.5C 64.1909,82.2922 64.6909,80.2922 65.5,78.5C 65.3924,82.247 65.8924,85.9137 67,89.5C 70.684,100.057 74.8506,110.39 79.5,120.5C 78.4168,120.461 77.4168,120.127 76.5,119.5C 74.4706,116.152 71.4706,114.485 67.5,114.5C 69.4071,122.719 71.0738,131.052 72.5,139.5C 75.4282,139.565 78.0948,140.232 80.5,141.5C 74.8791,142.354 69.2124,142.687 63.5,142.5C 64.481,137.871 64.6477,133.204 64,128.5C 63.3161,126.641 62.3161,124.974 61,123.5C 60.6667,124.5 60.3333,125.5 60,126.5C 58.9644,123.35 57.7977,120.35 56.5,117.5C 56.693,113.434 56.3597,109.434 55.5,105.5C 57.0801,97.8881 58.0801,90.0548 58.5,82C 56.3207,68.5775 55.9874,55.0775 57.5,41.5C 58.3333,40.5 59.1667,39.5 60,38.5C 62.0591,32.314 63.7258,25.9807 65,19.5C 65.8518,18.4293 66.6851,17.4293 67.5,16.5 Z"/></g>
<g><path style="opacity:1" fill="#e0dfe1" d="M 96.5,103.5 C 93.359,108.757 92.1923,114.424 93,120.5C 96.0418,123.711 99.2085,126.711 102.5,129.5C 101.311,130.429 99.9778,130.762 98.5,130.5C 97.5251,128.807 96.1918,127.307 94.5,126C 93.5509,125.383 92.7175,125.549 92,126.5C 89.5504,123.622 88.8837,120.288 90,116.5C 91.3567,112.216 92.5234,107.882 93.5,103.5C 94.5,103.5 95.5,103.5 96.5,103.5 Z"/></g>
<g><path style="opacity:1" fill="#dbdde0" d="M 97.5,130.5 C 96.0639,131.429 94.7305,132.595 93.5,134C 96.4726,134.383 99.306,133.883 102,132.5C 102.167,132.833 102.333,133.167 102.5,133.5C 96.4847,135.503 90.4847,137.503 84.5,139.5C 82.8008,139.66 81.1341,139.494 79.5,139C 80.2583,137.636 79.7583,136.469 78,135.5C 77.308,132.064 76.308,128.73 75,125.5C 74.2025,123.741 74.3691,122.074 75.5,120.5C 77.1151,121.154 78.7818,121.654 80.5,122C 81.5842,124.825 82.7508,124.992 84,122.5C 85.0736,123.618 86.2402,124.618 87.5,125.5C 88.9551,130.894 92.2884,132.561 97.5,130.5 Z"/></g>
<g><path style="opacity:1" fill="#97a3ac" d="M 56.5,117.5 C 57.7977,120.35 58.9644,123.35 60,126.5C 60.3333,125.5 60.6667,124.5 61,123.5C 62.3161,124.974 63.3161,126.641 64,128.5C 64.6477,133.204 64.481,137.871 63.5,142.5C 61.8828,141.962 60.2161,141.629 58.5,141.5C 57.8592,140.518 57.1925,139.518 56.5,138.5C 58.5342,136.401 58.8676,134.068 57.5,131.5C 56.2638,130.754 54.9305,130.421 53.5,130.5C 53.6529,127.423 52.9863,124.589 51.5,122C 51.9357,118.782 52.6024,115.616 53.5,112.5C 53.8333,113.333 54.1667,114.167 54.5,115C 53.5505,117.235 53.5505,119.402 54.5,121.5C 55.1719,120.051 55.8386,118.718 56.5,117.5 Z"/></g>
<g><path style="opacity:1" fill="#b3b4b8" d="M 53.5,130.5 C 54.9305,130.421 56.2638,130.754 57.5,131.5C 58.8676,134.068 58.5342,136.401 56.5,138.5C 57.1925,139.518 57.8592,140.518 58.5,141.5C 56.7354,142.461 54.7354,142.795 52.5,142.5C 52.2479,139.756 52.9145,137.256 54.5,135C 53.8524,133.56 53.5191,132.06 53.5,130.5 Z"/></g>
</svg>
