<?xml version="1.0" encoding="UTF-8"?>
<!DOCTYPE svg PUBLIC "-//W3C//DTD SVG 1.1//EN" "http://www.w3.org/Graphics/SVG/1.1/DTD/svg11.dtd">
<svg xmlns="http://www.w3.org/2000/svg" version="1.1" width="166px" height="158px" style="shape-rendering:geometricPrecision; text-rendering:geometricPrecision; image-rendering:optimizeQuality; fill-rule:evenodd; clip-rule:evenodd" xmlns:xlink="http://www.w3.org/1999/xlink">
<g><path style="opacity:1" fill="#f5f5f5" d="M -0.5,-0.5 C 54.8333,-0.5 110.167,-0.5 165.5,-0.5C 165.5,52.1667 165.5,104.833 165.5,157.5C 110.167,157.5 54.8333,157.5 -0.5,157.5C -0.5,104.833 -0.5,52.1667 -0.5,-0.5 Z"/></g>
<g><path style="opacity:1" fill="#464646" d="M 49.5,33.5 C 50.821,36.5982 51.4877,40.0982 51.5,44C 51.1667,47.5 50.8333,51 50.5,54.5C 49.914,54.2907 49.414,53.9574 49,53.5C 48.5034,51.1902 48.3367,48.8568 48.5,46.5C 51.1667,45.5 51.1667,44.5 48.5,43.5C 49.7143,41.192 49.7143,38.8587 48.5,36.5C 47.9432,38.3316 46.9432,39.6649 45.5,40.5C 45.1473,31.1088 45.6473,21.7754 47,12.5C 48.0089,20.7928 48.8422,27.7928 49.5,33.5 Z"/></g>
<g><path style="opacity:1" fill="#2c2c2c" d="M 54.5,17.5 C 55.6935,17.9704 56.3601,18.9704 56.5,20.5C 53.3586,44.016 54.3586,67.3494 59.5,90.5C 55.898,86.3954 52.0647,82.3954 48,78.5C 48.297,92.0886 48.6304,105.755 49,119.5C 49.3333,115.167 49.6667,110.833 50,106.5C 50.3333,111.833 50.6667,117.167 51,122.5C 52.5874,123.727 53.9207,123.394 55,121.5C 54.4742,119.773 54.6409,118.106 55.5,116.5C 56.8333,115.833 56.8333,115.167 55.5,114.5C 55.7828,113.711 56.2828,113.044 57,112.5C 57.6667,116.167 57.6667,119.833 57,123.5C 55.2988,125.024 55.7988,126.024 58.5,126.5C 59.0351,119.689 59.8684,113.023 61,106.5C 60.6519,114.121 60.4852,121.621 60.5,129C 61.4709,130.481 62.8042,131.315 64.5,131.5C 64.6641,134.187 64.4974,136.854 64,139.5C 62.951,141.107 61.451,141.773 59.5,141.5C 55.0748,142.19 51.2415,141.19 48,138.5C 47.6667,142.833 47.3333,147.167 47,151.5C 45.5886,114.52 45.0886,77.5196 45.5,40.5C 46.9432,39.6649 47.9432,38.3316 48.5,36.5C 49.7143,38.8587 49.7143,41.192 48.5,43.5C 48.5,44.5 48.5,45.5 48.5,46.5C 48.3367,48.8568 48.5034,51.1902 49,53.5C 49.414,53.9574 49.914,54.2907 50.5,54.5C 50.8333,51 51.1667,47.5 51.5,44C 51.4877,40.0982 50.821,36.5982 49.5,33.5C 50.3399,27.9764 52.0066,22.643 54.5,17.5 Z"/></g>
<g><path style="opacity:1" fill="#7b8e97" d="M 63.5,15.5 C 70.4474,15.7903 73.4474,19.457 72.5,26.5C 71.7784,26.0825 71.2784,25.4158 71,24.5C 69.8391,30.4637 69.0058,36.4637 68.5,42.5C 67.6981,41.0484 67.1981,39.3817 67,37.5C 66.6667,38.1667 66.3333,38.8333 66,39.5C 63.1716,37.4075 63.0049,35.2409 65.5,33C 63.842,32.2747 63.342,31.108 64,29.5C 64.3333,29.8333 64.6667,30.1667 65,30.5C 66.2504,27.9234 66.5837,25.2567 66,22.5C 65.7508,23.624 65.2508,24.624 64.5,25.5C 64.891,24.2815 64.2244,23.4482 62.5,23C 63.1667,22.6667 63.8333,22.3333 64.5,22C 64.0826,19.8074 63.7493,17.6408 63.5,15.5 Z"/></g>
<g><path style="opacity:1" fill="#cecece" d="M 48.5,43.5 C 51.1667,44.5 51.1667,45.5 48.5,46.5C 48.5,45.5 48.5,44.5 48.5,43.5 Z"/></g>
<g><path style="opacity:1" fill="#9cb5bc" d="M 77.5,45.5 C 80.5595,46.1573 82.0595,48.1573 82,51.5C 83.3597,54.0226 85.193,56.0226 87.5,57.5C 86.5041,57.5858 85.6708,57.2524 85,56.5C 84.7071,59.9542 83.3738,60.2876 81,57.5C 79.4138,55.3295 78.0804,52.9962 77,50.5C 76.2204,48.6131 76.3871,46.9464 77.5,45.5 Z"/></g>
<g><path style="opacity:1" fill="#64737b" d="M 63.5,15.5 C 63.7493,17.6408 64.0826,19.8074 64.5,22C 63.8333,22.3333 63.1667,22.6667 62.5,23C 64.2244,23.4482 64.891,24.2815 64.5,25.5C 65.2508,24.624 65.7508,23.624 66,22.5C 66.5837,25.2567 66.2504,27.9234 65,30.5C 64.6667,30.1667 64.3333,29.8333 64,29.5C 63.342,31.108 63.842,32.2747 65.5,33C 63.0049,35.2409 63.1716,37.4075 66,39.5C 66.3333,38.8333 66.6667,38.1667 67,37.5C 67.1981,39.3817 67.6981,41.0484 68.5,42.5C 67.2605,49.8382 67.2605,57.1715 68.5,64.5C 67.8783,65.6266 67.045,66.6266 66,67.5C 65.3333,71.5 65.3333,75.5 66,79.5C 68.1829,89.0268 71.3495,98.1935 75.5,107C 74.9777,107.95 74.311,108.784 73.5,109.5C 75.1932,110.228 76.6932,111.228 78,112.5C 81.7436,111.374 85.577,111.207 89.5,112C 88.4366,113.188 87.1033,113.688 85.5,113.5C 80.2315,113.137 75.2315,113.971 70.5,116C 71.377,120.734 72.877,125.234 75,129.5C 76.3974,128.774 77.2308,127.607 77.5,126C 76.6137,123.192 76.447,120.359 77,117.5C 77.3176,119.061 78.1509,120.228 79.5,121C 78.9194,125.381 78.9194,129.214 79.5,132.5C 78.2524,134.649 76.7524,136.649 75,138.5C 71.2431,137.018 70.7431,137.684 73.5,140.5C 73.1373,141.183 72.8039,141.85 72.5,142.5C 67.9677,142.818 63.6344,142.485 59.5,141.5C 61.451,141.773 62.951,141.107 64,139.5C 64.4974,136.854 64.6641,134.187 64.5,131.5C 63.4179,129.177 63.5846,126.843 65,124.5C 65.6667,120.833 65.6667,117.167 65,113.5C 63.6337,105.702 61.8004,98.0357 59.5,90.5C 54.3586,67.3494 53.3586,44.016 56.5,20.5C 56.3601,18.9704 55.6935,17.9704 54.5,17.5C 57.0564,14.5762 60.0564,13.9095 63.5,15.5 Z"/></g>
<g><path style="opacity:1" fill="#597482" d="M 72.5,26.5 C 72.7856,33.3151 74.4522,39.6484 77.5,45.5C 76.3871,46.9464 76.2204,48.6131 77,50.5C 78.0804,52.9962 79.4138,55.3295 81,57.5C 83.3738,60.2876 84.7071,59.9542 85,56.5C 85.6708,57.2524 86.5041,57.5858 87.5,57.5C 89.0547,60.9705 90.388,64.6371 91.5,68.5C 92.8257,71.4865 94.8257,73.8199 97.5,75.5C 97.9902,80.5068 97.1568,81.1735 95,77.5C 92.2076,80.2048 90.8743,83.5382 91,87.5C 90.6174,88.056 90.1174,88.3893 89.5,88.5C 88.1033,88.2048 86.6033,87.8714 85,87.5C 84.3162,86.2161 84.4829,85.0495 85.5,84C 84.2161,83.3162 83.0495,83.4829 82,84.5C 81.5034,82.1902 81.3367,79.8568 81.5,77.5C 80.7454,69.4116 76.4121,65.0783 68.5,64.5C 67.2605,57.1715 67.2605,49.8382 68.5,42.5C 69.0058,36.4637 69.8391,30.4637 71,24.5C 71.2784,25.4158 71.7784,26.0825 72.5,26.5 Z"/></g>
<g><path style="opacity:1" fill="#849da4" d="M 97.5,75.5 C 98.4511,76.9187 98.7845,78.5853 98.5,80.5C 100.144,80.2865 101.644,80.6198 103,81.5C 103.495,83.4727 103.662,85.4727 103.5,87.5C 102.175,86.0474 101.342,86.3808 101,88.5C 100.697,91.9991 99.8638,95.3324 98.5,98.5C 97.5,98.5 96.5,98.5 95.5,98.5C 96.0232,93.9774 94.6899,92.9774 91.5,95.5C 90.0562,93.3921 89.3896,91.0588 89.5,88.5C 90.1174,88.3893 90.6174,88.056 91,87.5C 90.8743,83.5382 92.2076,80.2048 95,77.5C 97.1568,81.1735 97.9902,80.5068 97.5,75.5 Z"/></g>
<g><path style="opacity:1" fill="#829ba3" d="M 68.5,64.5 C 76.4121,65.0783 80.7454,69.4116 81.5,77.5C 79.283,76.6314 76.9496,76.298 74.5,76.5C 75.5134,87.2157 76.8467,97.8823 78.5,108.5C 82.5,108.5 86.5,108.5 90.5,108.5C 90.5,111.833 90.5,115.167 90.5,118.5C 89.71,117.391 89.21,116.058 89,114.5C 87.2435,115.985 86.0768,115.652 85.5,113.5C 87.1033,113.688 88.4366,113.188 89.5,112C 85.577,111.207 81.7436,111.374 78,112.5C 76.6932,111.228 75.1932,110.228 73.5,109.5C 74.311,108.784 74.9777,107.95 75.5,107C 71.3495,98.1935 68.1829,89.0268 66,79.5C 65.3333,75.5 65.3333,71.5 66,67.5C 67.045,66.6266 67.8783,65.6266 68.5,64.5 Z"/></g>
<g><path style="opacity:1" fill="#48626f" d="M 81.5,77.5 C 81.3367,79.8568 81.5034,82.1902 82,84.5C 83.0495,83.4829 84.2161,83.3162 85.5,84C 84.4829,85.0495 84.3162,86.2161 85,87.5C 86.6033,87.8714 88.1033,88.2048 89.5,88.5C 89.3896,91.0588 90.0562,93.3921 91.5,95.5C 94.6899,92.9774 96.0232,93.9774 95.5,98.5C 96.5,98.5 97.5,98.5 98.5,98.5C 97.0749,101.06 96.0749,103.394 95.5,105.5C 93.0411,105.31 91.3745,106.31 90.5,108.5C 86.5,108.5 82.5,108.5 78.5,108.5C 76.8467,97.8823 75.5134,87.2157 74.5,76.5C 76.9496,76.298 79.283,76.6314 81.5,77.5 Z"/></g>
<g><path style="opacity:1" fill="#d8dcdd" d="M 113.5,98.5 C 114.833,100.167 114.833,101.833 113.5,103.5C 111.142,103.747 109.142,103.081 107.5,101.5C 109.164,100.257 110.331,98.5902 111,96.5C 111.708,97.3805 112.542,98.0472 113.5,98.5 Z"/></g>
<g><path style="opacity:1" fill="#7a8a92" d="M 103.5,87.5 C 105.656,89.841 108.156,91.841 111,93.5C 112.094,95.0779 112.928,96.7446 113.5,98.5C 112.542,98.0472 111.708,97.3805 111,96.5C 110.331,98.5902 109.164,100.257 107.5,101.5C 106.85,101.196 106.183,100.863 105.5,100.5C 102.596,103.081 99.2628,104.748 95.5,105.5C 96.0749,103.394 97.0749,101.06 98.5,98.5C 99.8638,95.3324 100.697,91.9991 101,88.5C 101.342,86.3808 102.175,86.0474 103.5,87.5 Z"/></g>
<g><path style="opacity:1" fill="#707f86" d="M 107.5,101.5 C 109.142,103.081 111.142,103.747 113.5,103.5C 112.054,104.613 110.387,104.78 108.5,104C 107.748,103.329 107.414,102.496 107.5,101.5 Z"/></g>
<g><path style="opacity:1" fill="#363737" d="M 59.5,90.5 C 61.8004,98.0357 63.6337,105.702 65,113.5C 65.6667,117.167 65.6667,120.833 65,124.5C 63.5846,126.843 63.4179,129.177 64.5,131.5C 62.8042,131.315 61.4709,130.481 60.5,129C 60.4852,121.621 60.6519,114.121 61,106.5C 59.8684,113.023 59.0351,119.689 58.5,126.5C 55.7988,126.024 55.2988,125.024 57,123.5C 57.6667,119.833 57.6667,116.167 57,112.5C 56.2828,113.044 55.7828,113.711 55.5,114.5C 54.7994,111.665 54.6327,108.665 55,105.5C 53.4338,101.765 52.2671,101.765 51.5,105.5C 51.6667,106.5 51.8333,107.5 52,108.5C 52.8893,107.112 53.3893,107.278 53.5,109C 52.8333,110 52.1667,111 51.5,112C 52.4655,113.975 53.7988,115.475 55.5,116.5C 54.6409,118.106 54.4742,119.773 55,121.5C 53.9207,123.394 52.5874,123.727 51,122.5C 50.6667,117.167 50.3333,111.833 50,106.5C 49.6667,110.833 49.3333,115.167 49,119.5C 48.6304,105.755 48.297,92.0886 48,78.5C 52.0647,82.3954 55.898,86.3954 59.5,90.5 Z"/></g>
<g><path style="opacity:1" fill="#b4b8b8" d="M 53.5,96.5 C 55.3442,97.2039 55.8442,98.5372 55,100.5C 53.8118,99.4366 53.3118,98.1033 53.5,96.5 Z"/></g>
<g><path style="opacity:1" fill="#606b6e" d="M 55.5,114.5 C 56.8333,115.167 56.8333,115.833 55.5,116.5C 53.7988,115.475 52.4655,113.975 51.5,112C 52.1667,111 52.8333,110 53.5,109C 53.3893,107.278 52.8893,107.112 52,108.5C 51.8333,107.5 51.6667,106.5 51.5,105.5C 52.2671,101.765 53.4338,101.765 55,105.5C 54.6327,108.665 54.7994,111.665 55.5,114.5 Z"/></g>
<g><path style="opacity:1" fill="#667f8b" d="M 85.5,113.5 C 86.0768,115.652 87.2435,115.985 89,114.5C 89.21,116.058 89.71,117.391 90.5,118.5C 91.8485,123.047 93.6818,127.381 96,131.5C 96.1554,133.856 96.1554,136.189 96,138.5C 98.2369,139.985 99.7369,141.985 100.5,144.5C 100.167,144.5 99.8333,144.5 99.5,144.5C 97.8413,141.167 95.1746,139.5 91.5,139.5C 92.3984,138.842 93.3984,138.176 94.5,137.5C 93.0512,135.389 92.0512,133.056 91.5,130.5C 90.675,129.614 89.675,129.281 88.5,129.5C 87.712,125.132 86.712,120.799 85.5,116.5C 84.7335,122.053 84.7335,127.387 85.5,132.5C 84.0735,130.852 83.2401,128.852 83,126.5C 82.9942,129.264 81.8275,131.264 79.5,132.5C 78.9194,129.214 78.9194,125.381 79.5,121C 78.1509,120.228 77.3176,119.061 77,117.5C 76.447,120.359 76.6137,123.192 77.5,126C 77.2308,127.607 76.3974,128.774 75,129.5C 72.877,125.234 71.377,120.734 70.5,116C 75.2315,113.971 80.2315,113.137 85.5,113.5 Z"/></g>
<g><path style="opacity:1" fill="#7d969d" d="M 85.5,132.5 C 86.3705,135.112 87.0372,137.779 87.5,140.5C 82.586,141.707 77.586,142.374 72.5,142.5C 72.8039,141.85 73.1373,141.183 73.5,140.5C 70.7431,137.684 71.2431,137.018 75,138.5C 76.7524,136.649 78.2524,134.649 79.5,132.5C 81.8275,131.264 82.9942,129.264 83,126.5C 83.2401,128.852 84.0735,130.852 85.5,132.5 Z"/></g>
<g><path style="opacity:1" fill="#4c6573" d="M 91.5,139.5 C 92.5416,142.93 94.5416,145.597 97.5,147.5C 98.9185,146.995 99.5852,145.995 99.5,144.5C 99.8333,144.5 100.167,144.5 100.5,144.5C 100.592,148.071 98.9257,149.238 95.5,148C 93.355,146.057 91.6883,143.724 90.5,141C 89.552,140.517 88.552,140.351 87.5,140.5C 87.0372,137.779 86.3705,135.112 85.5,132.5C 84.7335,127.387 84.7335,122.053 85.5,116.5C 86.712,120.799 87.712,125.132 88.5,129.5C 89.675,129.281 90.675,129.614 91.5,130.5C 92.0512,133.056 93.0512,135.389 94.5,137.5C 93.3984,138.176 92.3984,138.842 91.5,139.5 Z"/></g>
<g><path style="opacity:1" fill="#ecefef" d="M 91.5,139.5 C 95.1746,139.5 97.8413,141.167 99.5,144.5C 99.5852,145.995 98.9185,146.995 97.5,147.5C 94.5416,145.597 92.5416,142.93 91.5,139.5 Z"/></g>
</svg>
