<?xml version="1.0" encoding="UTF-8"?>
<!DOCTYPE svg PUBLIC "-//W3C//DTD SVG 1.1//EN" "http://www.w3.org/Graphics/SVG/1.1/DTD/svg11.dtd">
<svg xmlns="http://www.w3.org/2000/svg" version="1.1" width="166px" height="158px" style="shape-rendering:geometricPrecision; text-rendering:geometricPrecision; image-rendering:optimizeQuality; fill-rule:evenodd; clip-rule:evenodd" xmlns:xlink="http://www.w3.org/1999/xlink">
<g><path style="opacity:1" fill="#f4f4f4" d="M -0.5,-0.5 C 54.8333,-0.5 110.167,-0.5 165.5,-0.5C 165.5,52.1667 165.5,104.833 165.5,157.5C 110.167,157.5 54.8333,157.5 -0.5,157.5C -0.5,104.833 -0.5,52.1667 -0.5,-0.5 Z"/></g>
<g><path style="opacity:1" fill="#38362b" d="M 67.5,16.5 C 66.5786,18.2687 65.4119,19.9354 64,21.5C 62.8717,28.1512 61.3717,34.6512 59.5,41C 59.8333,41.3333 60.1667,41.6667 60.5,42C 59.2986,42.9025 58.4652,44.0692 58,45.5C 55.8957,35.7464 56.0623,26.0798 58.5,16.5C 58.0431,15.7025 57.3764,15.3691 56.5,15.5C 53.8244,17.0263 51.9911,19.3596 51,22.5C 50.5357,21.9056 50.369,21.2389 50.5,20.5C 51.5813,18.236 52.9146,16.0693 54.5,14C 58.1667,13.3333 61.8333,13.3333 65.5,14C 66.3805,14.7083 67.0472,15.5416 67.5,16.5 Z"/></g>
<g><path style="opacity:1" fill="#36353a" d="M 49.5,23.5 C 50.5152,24.4602 50.5152,25.6269 49.5,27C 49.1639,28.0299 48.4972,28.5299 47.5,28.5C 47.4021,26.4471 48.0687,24.7804 49.5,23.5 Z"/></g>
<g><path style="opacity:1" fill="#cfcfcf" d="M 45.5,32.5 C 48.4357,35.9832 47.7691,38.6498 43.5,40.5C 43.3335,31.1607 43.5002,21.8274 44,12.5C 44.1717,19.346 44.6717,26.0126 45.5,32.5 Z"/></g>
<g><path style="opacity:1" fill="#a6a9ab" d="M 56.5,15.5 C 54.9867,19.6513 54.32,23.9847 54.5,28.5C 55.1305,43.3087 56.7971,57.9753 59.5,72.5C 59.6815,76.4891 60.6815,80.1558 62.5,83.5C 62.5,88.1667 62.5,92.8333 62.5,97.5C 61.2739,102.665 61.6073,107.665 63.5,112.5C 66.59,121.57 68.2567,130.903 68.5,140.5C 71.8333,140.5 75.1667,140.5 78.5,140.5C 71.4485,141.269 64.2818,142.269 57,143.5C 54.9658,143.646 53.2991,142.98 52,141.5C 50.9887,142.337 49.8221,142.67 48.5,142.5C 47.3223,126.479 47.3223,110.479 48.5,94.5C 49.2071,91.2139 49.5405,87.8806 49.5,84.5C 50.0967,84.2648 50.4301,83.7648 50.5,83C 49.0596,78.8464 47.7263,74.6797 46.5,70.5C 50.9746,73.2227 52.6413,71.7227 51.5,66C 51.4351,63.7746 51.1018,61.6079 50.5,59.5C 49.3493,58.269 48.1827,58.269 47,59.5C 46.5357,58.9056 46.369,58.2389 46.5,57.5C 47.1667,57.5 47.5,57.1667 47.5,56.5C 51.4729,52.0519 52.4729,46.8852 50.5,41C 48.8067,40.516 47.4733,41.016 46.5,42.5C 46.4236,40.0771 47.4236,38.2438 49.5,37C 48.9839,34.3309 48.3173,31.8309 47.5,29.5C 47.5,29.1667 47.5,28.8333 47.5,28.5C 48.4972,28.5299 49.1639,28.0299 49.5,27C 50.5152,25.6269 50.5152,24.4602 49.5,23.5C 49.2627,22.209 49.596,21.209 50.5,20.5C 50.369,21.2389 50.5357,21.9056 51,22.5C 51.9911,19.3596 53.8244,17.0263 56.5,15.5 Z"/></g>
<g><path style="opacity:1" fill="#797b7c" d="M 47.5,56.5 C 46.1633,53.3143 45.1633,49.981 44.5,46.5C 44.7517,44.9271 45.4183,43.5938 46.5,42.5C 47.4733,41.016 48.8067,40.516 50.5,41C 52.4729,46.8852 51.4729,52.0519 47.5,56.5 Z"/></g>
<g><path style="opacity:1" fill="#363639" d="M 47.5,29.5 C 48.3173,31.8309 48.9839,34.3309 49.5,37C 47.4236,38.2438 46.4236,40.0771 46.5,42.5C 45.4183,43.5938 44.7517,44.9271 44.5,46.5C 45.1633,49.981 46.1633,53.3143 47.5,56.5C 47.5,57.1667 47.1667,57.5 46.5,57.5C 45.1667,61.8333 45.1667,66.1667 46.5,70.5C 47.7263,74.6797 49.0596,78.8464 50.5,83C 50.4301,83.7648 50.0967,84.2648 49.5,84.5C 48.8916,81.6733 47.8916,79.0067 46.5,76.5C 45.8333,75.1667 44.8333,74.1667 43.5,73.5C 43.5,62.5 43.5,51.5 43.5,40.5C 47.7691,38.6498 48.4357,35.9832 45.5,32.5C 45.427,30.9731 46.0937,29.9731 47.5,29.5 Z"/></g>
<g><path style="opacity:1" fill="#49473b" d="M 56.5,15.5 C 57.3764,15.3691 58.0431,15.7025 58.5,16.5C 56.0623,26.0798 55.8957,35.7464 58,45.5C 58.4652,44.0692 59.2986,42.9025 60.5,42C 60.1667,41.6667 59.8333,41.3333 59.5,41C 61.3717,34.6512 62.8717,28.1512 64,21.5C 65.4119,19.9354 66.5786,18.2687 67.5,16.5C 69.0395,18.8383 69.7062,21.5049 69.5,24.5C 68.3155,31.8395 68.3155,39.3395 69.5,47C 69.6847,51.9187 71.018,56.4187 73.5,60.5C 72.4265,61.2506 72.2599,62.2506 73,63.5C 74.6971,65.699 76.1971,68.0324 77.5,70.5C 76.6034,70.6691 75.6034,71.0024 74.5,71.5C 75.0402,72.7481 75.7069,73.9148 76.5,75C 69.0363,79.6406 63.8696,77.8072 61,69.5C 60.7679,70.7375 60.2679,71.7375 59.5,72.5C 56.7971,57.9753 55.1305,43.3087 54.5,28.5C 54.32,23.9847 54.9867,19.6513 56.5,15.5 Z"/></g>
<g><path style="opacity:1" fill="#7d7f7f" d="M 46.5,57.5 C 46.369,58.2389 46.5357,58.9056 47,59.5C 48.1827,58.269 49.3493,58.269 50.5,59.5C 51.1018,61.6079 51.4351,63.7746 51.5,66C 52.6413,71.7227 50.9746,73.2227 46.5,70.5C 45.1667,66.1667 45.1667,61.8333 46.5,57.5 Z"/></g>
<g><path style="opacity:1" fill="#eeeeee" d="M 46.5,76.5 C 47.8916,79.0067 48.8916,81.6733 49.5,84.5C 49.5405,87.8806 49.2071,91.2139 48.5,94.5C 47.0937,94.9731 46.427,95.9731 46.5,97.5C 45.1667,90.5 45.1667,83.5 46.5,76.5 Z"/></g>
<g><path style="opacity:1" fill="#849f95" d="M 75.5,43.5 C 79.7935,48.326 83.6269,53.6593 87,59.5C 88.9255,63.6926 90.5922,68.0259 92,72.5C 93.3333,73.1667 94.6667,73.8333 96,74.5C 94.7454,78.266 96.2454,80.0994 100.5,80C 101.337,81.0113 101.67,82.1779 101.5,83.5C 100.609,82.8902 99.609,82.5569 98.5,82.5C 98.2648,81.9033 97.7648,81.5699 97,81.5C 95.3435,82.4841 93.6768,83.4841 92,84.5C 89.793,81.4551 90.293,78.9551 93.5,77C 93.3333,76.5 93.1667,76 93,75.5C 90.8276,75.0675 88.6609,74.7341 86.5,74.5C 85.1639,72.6254 85.6639,71.2921 88,70.5C 88.6667,69.5 88.6667,68.5 88,67.5C 86.1114,66.9026 84.2781,66.5693 82.5,66.5C 81.3231,64.1265 81.9898,62.2931 84.5,61C 82.7506,58.7868 80.7506,57.7868 78.5,58C 77.3327,55.9291 77.9994,54.4291 80.5,53.5C 79.2619,51.3626 77.4286,50.0293 75,49.5C 74.8195,47.5116 74.9862,45.5116 75.5,43.5 Z"/></g>
<g><path style="opacity:1" fill="#4e4c4f" d="M 69.5,24.5 C 71.472,30.7535 73.472,37.0868 75.5,43.5C 74.9862,45.5116 74.8195,47.5116 75,49.5C 77.4286,50.0293 79.2619,51.3626 80.5,53.5C 77.9994,54.4291 77.3327,55.9291 78.5,58C 80.7506,57.7868 82.7506,58.7868 84.5,61C 81.9898,62.2931 81.3231,64.1265 82.5,66.5C 84.2781,66.5693 86.1114,66.9026 88,67.5C 88.6667,68.5 88.6667,69.5 88,70.5C 85.6639,71.2921 85.1639,72.6254 86.5,74.5C 88.6609,74.7341 90.8276,75.0675 93,75.5C 93.1667,76 93.3333,76.5 93.5,77C 90.293,78.9551 89.793,81.4551 92,84.5C 93.6768,83.4841 95.3435,82.4841 97,81.5C 97.7648,81.5699 98.2648,81.9033 98.5,82.5C 98.7271,84.9328 97.7271,86.5994 95.5,87.5C 93.857,87.5198 92.5237,86.8532 91.5,85.5C 91.2448,87.3435 91.0781,89.3435 91,91.5C 89.8372,87.7874 88.3372,87.7874 86.5,91.5C 84.8558,87.6631 85.5224,84.3298 88.5,81.5C 87.4943,77.5189 86.4943,77.5189 85.5,81.5C 84.914,81.2907 84.414,80.9574 84,80.5C 83.6997,86.5036 83.8663,92.5036 84.5,98.5C 82.9413,91.734 82.1079,84.734 82,77.5C 79.6673,71.5012 76.834,65.8346 73.5,60.5C 71.018,56.4187 69.6847,51.9187 69.5,47C 68.3155,39.3395 68.3155,31.8395 69.5,24.5 Z"/></g>
<g><path style="opacity:1" fill="#ababab" d="M 43.5,73.5 C 44.8333,74.1667 45.8333,75.1667 46.5,76.5C 45.1667,83.5 45.1667,90.5 46.5,97.5C 46.1667,98.5 45.5,99.1667 44.5,99.5C 44.632,90.8089 44.2987,82.1423 43.5,73.5 Z"/></g>
<g><path style="opacity:1" fill="#889d97" d="M 101.5,85.5 C 103.941,86.8629 105.274,89.0296 105.5,92C 105.164,93.0299 104.497,93.5299 103.5,93.5C 102.566,92.4324 102.232,91.099 102.5,89.5C 101.5,89.5 100.5,89.5 99.5,89.5C 99.3398,87.8008 99.5065,86.1341 100,84.5C 100.383,85.056 100.883,85.3893 101.5,85.5 Z"/></g>
<g><path style="opacity:1" fill="#4d4b3f" d="M 62.5,97.5 C 62.5,92.8333 62.5,88.1667 62.5,83.5C 63.6828,83.8442 64.5161,83.1775 65,81.5C 65.9079,88.4834 66.9079,88.8167 68,82.5C 68.4935,84.1341 68.6602,85.8008 68.5,87.5C 69.9778,87.762 71.3112,87.4287 72.5,86.5C 71.4557,84.2324 71.289,81.8991 72,79.5C 73.7143,84.5966 75.0477,84.2633 76,78.5C 77.016,77.3659 77.6827,77.6992 78,79.5C 78.9094,74.7315 79.7427,74.5648 80.5,79C 79.9209,81.1937 79.2542,83.3603 78.5,85.5C 79.9762,87.4672 80.9762,90.3006 81.5,94C 80.7471,95.487 79.9138,95.6537 79,94.5C 78.6667,95.1667 78.3333,95.8333 78,96.5C 77.6667,93.8333 77.3333,91.1667 77,88.5C 73.5258,90.4196 70.1924,90.4196 67,88.5C 66.1268,88.7355 65.2935,89.0688 64.5,89.5C 63.8324,92.3056 63.1657,94.9723 62.5,97.5 Z"/></g>
<g><path style="opacity:1" fill="#3e3c30" d="M 73.5,60.5 C 76.834,65.8346 79.6673,71.5012 82,77.5C 82.1079,84.734 82.9413,91.734 84.5,98.5C 85.404,99.209 85.7373,100.209 85.5,101.5C 85.631,102.239 85.4643,102.906 85,103.5C 84.3333,102.167 83.6667,100.833 83,99.5C 82.3457,98.3044 81.8457,98.3044 81.5,99.5C 82.6868,101.975 82.3535,104.309 80.5,106.5C 83.2018,109.389 83.2018,111.389 80.5,112.5C 81,113.5 81.5,114.5 82,115.5C 82.4226,114.044 83.2559,113.544 84.5,114C 86.9553,116.516 88.9553,119.35 90.5,122.5C 89.475,122.897 89.3083,123.563 90,124.5C 91.1667,125.667 92.3333,126.833 93.5,128C 92.8333,128.667 92.1667,128.667 91.5,128C 88.5477,123.209 84.5477,119.709 79.5,117.5C 80.3256,116.549 80.4922,115.549 80,114.5C 78.3163,112.649 76.4829,110.982 74.5,109.5C 73.7189,110.729 73.2189,112.062 73,113.5C 72.6667,112.833 72.3333,112.167 72,111.5C 70.9326,112.191 69.7659,112.691 68.5,113C 69.8997,116.429 70.733,119.929 71,123.5C 69.2532,120.79 68.2532,117.79 68,114.5C 66.6152,113.449 65.6152,112.116 65,110.5C 64.2828,111.044 63.7828,111.711 63.5,112.5C 61.6073,107.665 61.2739,102.665 62.5,97.5C 63.1657,94.9723 63.8324,92.3056 64.5,89.5C 65.2935,89.0688 66.1268,88.7355 67,88.5C 70.1924,90.4196 73.5258,90.4196 77,88.5C 77.3333,91.1667 77.6667,93.8333 78,96.5C 78.3333,95.8333 78.6667,95.1667 79,94.5C 79.9138,95.6537 80.7471,95.487 81.5,94C 80.9762,90.3006 79.9762,87.4672 78.5,85.5C 79.2542,83.3603 79.9209,81.1937 80.5,79C 79.7427,74.5648 78.9094,74.7315 78,79.5C 77.6827,77.6992 77.016,77.3659 76,78.5C 75.0477,84.2633 73.7143,84.5966 72,79.5C 71.289,81.8991 71.4557,84.2324 72.5,86.5C 71.3112,87.4287 69.9778,87.762 68.5,87.5C 68.6602,85.8008 68.4935,84.1341 68,82.5C 66.9079,88.8167 65.9079,88.4834 65,81.5C 64.5161,83.1775 63.6828,83.8442 62.5,83.5C 60.6815,80.1558 59.6815,76.4891 59.5,72.5C 60.2679,71.7375 60.7679,70.7375 61,69.5C 63.8696,77.8072 69.0363,79.6406 76.5,75C 75.7069,73.9148 75.0402,72.7481 74.5,71.5C 75.6034,71.0024 76.6034,70.6691 77.5,70.5C 76.1971,68.0324 74.6971,65.699 73,63.5C 72.2599,62.2506 72.4265,61.2506 73.5,60.5 Z"/></g>
<g><path style="opacity:1" fill="#646969" d="M 98.5,82.5 C 99.609,82.5569 100.609,82.8902 101.5,83.5C 101.5,84.1667 101.5,84.8333 101.5,85.5C 100.883,85.3893 100.383,85.056 100,84.5C 99.5065,86.1341 99.3398,87.8008 99.5,89.5C 100.5,89.5 101.5,89.5 102.5,89.5C 102.232,91.099 102.566,92.4324 103.5,93.5C 104.952,94.3019 106.618,94.8019 108.5,95C 111.249,99.9105 109.583,102.577 103.5,103C 101.288,103.789 99.2884,103.622 97.5,102.5C 99.1667,102.5 100.833,102.5 102.5,102.5C 101.864,99.8938 101.864,97.3938 102.5,95C 101.54,93.5806 100.707,92.0806 100,90.5C 98.3333,93.1667 96.6667,93.1667 95,90.5C 94.5304,89.4232 94.6971,88.4232 95.5,87.5C 97.7271,86.5994 98.7271,84.9328 98.5,82.5 Z"/></g>
<g><path style="opacity:1" fill="#575549" d="M 85.5,101.5 C 87.2676,103.508 88.9343,105.674 90.5,108C 87.3117,117.697 90.9784,123.197 101.5,124.5C 102.833,125.833 102.833,127.167 101.5,128.5C 99.6916,128.509 98.0249,128.009 96.5,127C 97.8333,126.667 99.1667,126.333 100.5,126C 97.8333,125.667 95.1667,125.333 92.5,125C 91.6195,124.292 90.9528,123.458 90.5,122.5C 88.9553,119.35 86.9553,116.516 84.5,114C 83.2559,113.544 82.4226,114.044 82,115.5C 81.5,114.5 81,113.5 80.5,112.5C 83.2018,111.389 83.2018,109.389 80.5,106.5C 82.3535,104.309 82.6868,101.975 81.5,99.5C 81.8457,98.3044 82.3457,98.3044 83,99.5C 83.6667,100.833 84.3333,102.167 85,103.5C 85.4643,102.906 85.631,102.239 85.5,101.5 Z"/></g>
<g><path style="opacity:1" fill="#434145" d="M 95.5,87.5 C 94.6971,88.4232 94.5304,89.4232 95,90.5C 96.6667,93.1667 98.3333,93.1667 100,90.5C 100.707,92.0806 101.54,93.5806 102.5,95C 101.864,97.3938 101.864,99.8938 102.5,102.5C 100.833,102.5 99.1667,102.5 97.5,102.5C 96.1779,102.33 95.0113,102.663 94,103.5C 90.9702,107.387 89.9702,111.72 91,116.5C 94.2989,119.551 97.7989,122.218 101.5,124.5C 90.9784,123.197 87.3117,117.697 90.5,108C 88.9343,105.674 87.2676,103.508 85.5,101.5C 85.7373,100.209 85.404,99.209 84.5,98.5C 83.8663,92.5036 83.6997,86.5036 84,80.5C 84.414,80.9574 84.914,81.2907 85.5,81.5C 86.4943,77.5189 87.4943,77.5189 88.5,81.5C 85.5224,84.3298 84.8558,87.6631 86.5,91.5C 88.3372,87.7874 89.8372,87.7874 91,91.5C 91.0781,89.3435 91.2448,87.3435 91.5,85.5C 92.5237,86.8532 93.857,87.5198 95.5,87.5 Z"/></g>
<g><path style="opacity:1" fill="#87898a" d="M 54.5,98.5 C 53.0689,98.8807 52.2355,99.8807 52,101.5C 51.5003,109.493 51.3336,117.493 51.5,125.5C 51.6309,126.376 51.2975,127.043 50.5,127.5C 49.3349,119.187 49.1683,110.853 50,102.5C 50.2734,100.899 50.7734,99.3988 51.5,98C 52.7494,97.2599 53.7494,97.4265 54.5,98.5 Z"/></g>
<g><path style="opacity:1" fill="#c1c3c0" d="M 54.5,98.5 C 54.8318,108.19 54.4984,117.856 53.5,127.5C 52.8182,126.757 52.1515,126.091 51.5,125.5C 51.3336,117.493 51.5003,109.493 52,101.5C 52.2355,99.8807 53.0689,98.8807 54.5,98.5 Z"/></g>
<g><path style="opacity:1" fill="#302f33" d="M 48.5,94.5 C 47.3223,110.479 47.3223,126.479 48.5,142.5C 46.7356,138.795 45.569,134.795 45,130.5C 45.0581,120.254 44.8914,109.921 44.5,99.5C 45.5,99.1667 46.1667,98.5 46.5,97.5C 46.427,95.9731 47.0937,94.9731 48.5,94.5 Z"/></g>
<g><path style="opacity:1" fill="#373529" d="M 90.5,122.5 C 90.9528,123.458 91.6195,124.292 92.5,125C 95.1667,125.333 97.8333,125.667 100.5,126C 99.1667,126.333 97.8333,126.667 96.5,127C 98.0249,128.009 99.6916,128.509 101.5,128.5C 100.27,130.297 99.6036,132.297 99.5,134.5C 92.0489,135.441 85.0489,137.441 78.5,140.5C 75.1667,140.5 71.8333,140.5 68.5,140.5C 68.2567,130.903 66.59,121.57 63.5,112.5C 63.7828,111.711 64.2828,111.044 65,110.5C 65.6152,112.116 66.6152,113.449 68,114.5C 68.2532,117.79 69.2532,120.79 71,123.5C 70.733,119.929 69.8997,116.429 68.5,113C 69.7659,112.691 70.9326,112.191 72,111.5C 72.3333,112.167 72.6667,112.833 73,113.5C 73.2189,112.062 73.7189,110.729 74.5,109.5C 76.4829,110.982 78.3163,112.649 80,114.5C 80.4922,115.549 80.3256,116.549 79.5,117.5C 84.5477,119.709 88.5477,123.209 91.5,128C 92.1667,128.667 92.8333,128.667 93.5,128C 92.3333,126.833 91.1667,125.667 90,124.5C 89.3083,123.563 89.475,122.897 90.5,122.5 Z"/></g>
<g><path style="opacity:1" fill="#a2a5a7" d="M 79.5,120.5 C 81.1992,120.34 82.8659,120.506 84.5,121C 83.6433,121.689 82.9767,122.522 82.5,123.5C 83.8509,126.196 85.6843,128.53 88,130.5C 88.6667,131.167 88.6667,131.833 88,132.5C 85.3333,129.833 82.6667,127.167 80,124.5C 79.51,123.207 79.3433,121.873 79.5,120.5 Z"/></g>
</svg>
